<svg width="303" height="233" viewBox="0 0 303 233" fill="none" xmlns="http://www.w3.org/2000/svg">
<rect x="0.36377" width="302" height="233" rx="10" fill="#34312D"/>
<path d="M26.7928 54V39.4545H35.8624V41.3438H28.9874V45.321H32.2403C33.3198 45.321 34.236 45.4962 34.9889 45.8466C35.7464 46.197 36.3241 46.6918 36.7218 47.331C37.1243 47.9702 37.3255 48.723 37.3255 49.5895C37.3255 50.456 37.1243 51.2206 36.7218 51.8835C36.3241 52.5464 35.7464 53.0649 34.9889 53.4389C34.236 53.813 33.3198 54 32.2403 54H26.7928ZM28.9874 52.1534H32.2403C32.8653 52.1534 33.3932 52.0303 33.8241 51.7841C34.2597 51.5379 34.5888 51.2183 34.8113 50.8253C35.0386 50.4323 35.1522 50.0109 35.1522 49.5611C35.1522 48.9077 34.9013 48.3466 34.3994 47.8778C33.8975 47.4044 33.1778 47.1676 32.2403 47.1676H28.9874V52.1534ZM44.5426 54.2202C43.5198 54.2202 42.6273 53.9858 41.865 53.517C41.1027 53.0483 40.5108 52.3925 40.0894 51.5497C39.668 50.7069 39.4573 49.7221 39.4573 48.5952C39.4573 47.4635 39.668 46.474 40.0894 45.6264C40.5108 44.7789 41.1027 44.1207 41.865 43.652C42.6273 43.1832 43.5198 42.9489 44.5426 42.9489C45.5653 42.9489 46.4578 43.1832 47.2201 43.652C47.9824 44.1207 48.5743 44.7789 48.9957 45.6264C49.4171 46.474 49.6278 47.4635 49.6278 48.5952C49.6278 49.7221 49.4171 50.7069 48.9957 51.5497C48.5743 52.3925 47.9824 53.0483 47.2201 53.517C46.4578 53.9858 45.5653 54.2202 44.5426 54.2202ZM44.5497 52.4375C45.2125 52.4375 45.7618 52.2623 46.1974 51.9119C46.633 51.5616 46.955 51.0952 47.1633 50.5128C47.3764 49.9304 47.4829 49.2888 47.4829 48.5881C47.4829 47.892 47.3764 47.2528 47.1633 46.6705C46.955 46.0833 46.633 45.6122 46.1974 45.2571C45.7618 44.902 45.2125 44.7244 44.5497 44.7244C43.882 44.7244 43.3281 44.902 42.8877 45.2571C42.4521 45.6122 42.1278 46.0833 41.9147 46.6705C41.7064 47.2528 41.6022 47.892 41.6022 48.5881C41.6022 49.2888 41.7064 49.9304 41.9147 50.5128C42.1278 51.0952 42.4521 51.5616 42.8877 51.9119C43.3281 52.2623 43.882 52.4375 44.5497 52.4375ZM52.1982 58.0909V43.0909H54.272V44.8594H54.4496C54.5727 44.6321 54.7502 44.3693 54.9823 44.071C55.2143 43.7727 55.5362 43.5123 55.9482 43.2898C56.3601 43.0625 56.9046 42.9489 57.5817 42.9489C58.4624 42.9489 59.2484 43.1714 59.9396 43.6165C60.6309 44.0616 61.1731 44.7031 61.5661 45.5412C61.9638 46.3793 62.1627 47.3878 62.1627 48.5668C62.1627 49.7457 61.9662 50.7566 61.5732 51.5994C61.1802 52.4375 60.6404 53.0838 59.9538 53.5384C59.2673 53.9882 58.4837 54.2131 57.603 54.2131C56.9401 54.2131 56.398 54.1018 55.9766 53.8793C55.5599 53.6567 55.2332 53.3963 54.9965 53.098C54.7597 52.7997 54.5774 52.5346 54.4496 52.3026H54.3217V58.0909H52.1982ZM54.2791 48.5455C54.2791 49.3125 54.3904 49.9848 54.6129 50.5625C54.8355 51.1402 55.1574 51.5923 55.5788 51.919C56.0002 52.241 56.5163 52.402 57.1271 52.402C57.7616 52.402 58.2919 52.2339 58.718 51.8977C59.1442 51.5568 59.4662 51.0952 59.684 50.5128C59.9065 49.9304 60.0178 49.2746 60.0178 48.5455C60.0178 47.8258 59.9089 47.1795 59.6911 46.6065C59.478 46.0336 59.156 45.5814 58.7252 45.25C58.299 44.9186 57.7663 44.7528 57.1271 44.7528C56.5116 44.7528 55.9908 44.9115 55.5646 45.2287C55.1432 45.5459 54.8236 45.9886 54.6058 46.5568C54.388 47.125 54.2791 47.7879 54.2791 48.5455ZM63.428 44.9233V43.0909H72.6325V44.9233H69.0743V54H67.0004V44.9233H63.428ZM79.166 54.2202C78.1433 54.2202 77.2507 53.9858 76.4884 53.517C75.7261 53.0483 75.1343 52.3925 74.7129 51.5497C74.2915 50.7069 74.0808 49.7221 74.0808 48.5952C74.0808 47.4635 74.2915 46.474 74.7129 45.6264C75.1343 44.7789 75.7261 44.1207 76.4884 43.652C77.2507 43.1832 78.1433 42.9489 79.166 42.9489C80.1887 42.9489 81.0812 43.1832 81.8435 43.652C82.6059 44.1207 83.1977 44.7789 83.6191 45.6264C84.0405 46.474 84.2512 47.4635 84.2512 48.5952C84.2512 49.7221 84.0405 50.7069 83.6191 51.5497C83.1977 52.3925 82.6059 53.0483 81.8435 53.517C81.0812 53.9858 80.1887 54.2202 79.166 54.2202ZM79.1731 52.4375C79.836 52.4375 80.3852 52.2623 80.8208 51.9119C81.2564 51.5616 81.5784 51.0952 81.7867 50.5128C81.9998 49.9304 82.1063 49.2888 82.1063 48.5881C82.1063 47.892 81.9998 47.2528 81.7867 46.6705C81.5784 46.0833 81.2564 45.6122 80.8208 45.2571C80.3852 44.902 79.836 44.7244 79.1731 44.7244C78.5055 44.7244 77.9515 44.902 77.5112 45.2571C77.0756 45.6122 76.7512 46.0833 76.5381 46.6705C76.3298 47.2528 76.2256 47.892 76.2256 48.5881C76.2256 49.2888 76.3298 49.9304 76.5381 50.5128C76.7512 51.0952 77.0756 51.5616 77.5112 51.9119C77.9515 52.2623 78.5055 52.4375 79.1731 52.4375ZM86.8216 54V43.0909H91.3457C92.5768 43.0909 93.5522 43.3537 94.2719 43.8793C94.9916 44.4001 95.3514 45.108 95.3514 46.0028C95.3514 46.642 95.1478 47.1487 94.7406 47.5227C94.3334 47.8968 93.7937 48.1477 93.1213 48.2756C93.609 48.3324 94.0564 48.4792 94.4636 48.7159C94.8708 48.9479 95.1975 49.2604 95.4438 49.6534C95.6947 50.0464 95.8202 50.5152 95.8202 51.0597C95.8202 51.6373 95.671 52.1487 95.3727 52.5938C95.0744 53.0341 94.6412 53.3797 94.073 53.6307C93.5096 53.8769 92.8301 54 92.0347 54H86.8216ZM88.8173 52.2244H92.0347C92.5602 52.2244 92.9722 52.099 93.2705 51.848C93.5688 51.5971 93.7179 51.2562 93.7179 50.8253C93.7179 50.3187 93.5688 49.9209 93.2705 49.6321C92.9722 49.3385 92.5602 49.1918 92.0347 49.1918H88.8173V52.2244ZM88.8173 47.6364H91.3671C91.7648 47.6364 92.1057 47.5795 92.3898 47.4659C92.6786 47.3523 92.8988 47.1913 93.0503 46.983C93.2065 46.7699 93.2847 46.5189 93.2847 46.2301C93.2847 45.8087 93.1118 45.4796 92.7662 45.2429C92.4206 45.0062 91.9471 44.8878 91.3457 44.8878H88.8173V47.6364ZM102.945 54.2202C101.922 54.2202 101.03 53.9858 100.267 53.517C99.505 53.0483 98.9132 52.3925 98.4918 51.5497C98.0704 50.7069 97.8597 49.7221 97.8597 48.5952C97.8597 47.4635 98.0704 46.474 98.4918 45.6264C98.9132 44.7789 99.505 44.1207 100.267 43.652C101.03 43.1832 101.922 42.9489 102.945 42.9489C103.968 42.9489 104.86 43.1832 105.622 43.652C106.385 44.1207 106.977 44.7789 107.398 45.6264C107.819 46.474 108.03 47.4635 108.03 48.5952C108.03 49.7221 107.819 50.7069 107.398 51.5497C106.977 52.3925 106.385 53.0483 105.622 53.517C104.86 53.9858 103.968 54.2202 102.945 54.2202ZM102.952 52.4375C103.615 52.4375 104.164 52.2623 104.6 51.9119C105.035 51.5616 105.357 51.0952 105.566 50.5128C105.779 49.9304 105.885 49.2888 105.885 48.5881C105.885 47.892 105.779 47.2528 105.566 46.6705C105.357 46.0833 105.035 45.6122 104.6 45.2571C104.164 44.902 103.615 44.7244 102.952 44.7244C102.284 44.7244 101.73 44.902 101.29 45.2571C100.854 45.6122 100.53 46.0833 100.317 46.6705C100.109 47.2528 100.005 47.892 100.005 48.5881C100.005 49.2888 100.109 49.9304 100.317 50.5128C100.53 51.0952 100.854 51.5616 101.29 51.9119C101.73 52.2623 102.284 52.4375 102.952 52.4375ZM112.681 51.0241L117.49 43.0909H119.777V54H117.696V46.0597L112.909 54H110.601V43.0909H112.681V51.0241ZM116.581 39.3977H118.328C118.328 40.1979 118.044 40.849 117.476 41.3509C116.912 41.848 116.15 42.0966 115.189 42.0966C114.232 42.0966 113.472 41.848 112.909 41.3509C112.345 40.849 112.064 40.1979 112.064 39.3977H113.804C113.804 39.7528 113.908 40.0677 114.116 40.3423C114.324 40.6122 114.682 40.7472 115.189 40.7472C115.686 40.7472 116.041 40.6122 116.254 40.3423C116.472 40.0724 116.581 39.7576 116.581 39.3977ZM26.6224 86V75.0909H28.746V79.6648H29.7687L33.3695 75.0909H35.9974L31.7715 80.3963L36.0471 86H33.4122L30.1238 81.6392H28.746V86H26.6224ZM42.0426 86.2202C41.0198 86.2202 40.1273 85.9858 39.365 85.517C38.6027 85.0483 38.0108 84.3925 37.5894 83.5497C37.168 82.7069 36.9573 81.7221 36.9573 80.5952C36.9573 79.4635 37.168 78.474 37.5894 77.6264C38.0108 76.7789 38.6027 76.1207 39.365 75.652C40.1273 75.1832 41.0198 74.9489 42.0426 74.9489C43.0653 74.9489 43.9578 75.1832 44.7201 75.652C45.4824 76.1207 46.0743 76.7789 46.4957 77.6264C46.9171 78.474 47.1278 79.4635 47.1278 80.5952C47.1278 81.7221 46.9171 82.7069 46.4957 83.5497C46.0743 84.3925 45.4824 85.0483 44.7201 85.517C43.9578 85.9858 43.0653 86.2202 42.0426 86.2202ZM42.0497 84.4375C42.7125 84.4375 43.2618 84.2623 43.6974 83.9119C44.133 83.5616 44.455 83.0952 44.6633 82.5128C44.8764 81.9304 44.9829 81.2888 44.9829 80.5881C44.9829 79.892 44.8764 79.2528 44.6633 78.6705C44.455 78.0833 44.133 77.6122 43.6974 77.2571C43.2618 76.902 42.7125 76.7244 42.0497 76.7244C41.382 76.7244 40.8281 76.902 40.3877 77.2571C39.9521 77.6122 39.6278 78.0833 39.4147 78.6705C39.2064 79.2528 39.1022 79.892 39.1022 80.5881C39.1022 81.2888 39.2064 81.9304 39.4147 82.5128C39.6278 83.0952 39.9521 83.5616 40.3877 83.9119C40.8281 84.2623 41.382 84.4375 42.0497 84.4375ZM55.8203 83.3722L59.343 75.0909H61.1754L56.6087 86H55.032L50.5575 75.0909H52.3686L55.8203 83.3722ZM51.7791 75.0909V86H49.6982V75.0909H51.7791ZM59.9183 86V75.0909H61.9851V86H59.9183ZM65.0153 86V75.0909H73.9145V86H71.8335V76.9233H67.0821V86H65.0153ZM78.5516 78.8409H81.7193C83.0545 78.8409 84.0819 79.1723 84.8016 79.8352C85.5213 80.4981 85.8812 81.3527 85.8812 82.3991C85.8812 83.081 85.7202 83.6941 85.3982 84.2386C85.0763 84.7831 84.6051 85.214 83.9849 85.5312C83.3646 85.8438 82.6094 86 81.7193 86H76.9536V75.0909H79.0346V84.1676H81.7193C82.3301 84.1676 82.8319 84.009 83.2249 83.6918C83.6179 83.3698 83.8144 82.9602 83.8144 82.4631C83.8144 81.9375 83.6179 81.509 83.2249 81.1776C82.8319 80.8414 82.3301 80.6733 81.7193 80.6733H78.5516V78.8409ZM93.9523 79.7074V81.554H88.1355V79.7074H93.9523ZM89.8614 75.0909V86H87.7378V75.0909H89.8614ZM97.2761 86.2202C96.2629 86.2202 95.3775 85.9834 94.6199 85.5099C93.8623 85.0365 93.2752 84.3783 92.8585 83.5355C92.4419 82.688 92.2335 81.7055 92.2335 80.5881C92.2335 79.4612 92.4419 78.4763 92.8585 77.6335C93.2752 76.786 93.8623 76.1278 94.6199 75.6591C95.3775 75.1856 96.2629 74.9489 97.2761 74.9489C98.2941 74.9489 99.1796 75.1856 99.9324 75.6591C100.69 76.1278 101.277 76.786 101.694 77.6335C102.115 78.4763 102.326 79.4612 102.326 80.5881C102.326 81.7055 102.115 82.688 101.694 83.5355C101.277 84.3783 100.69 85.0365 99.9324 85.5099C99.1796 85.9834 98.2941 86.2202 97.2761 86.2202ZM97.2761 84.402C97.9627 84.402 98.5238 84.2292 98.9594 83.8835C99.3997 83.5331 99.7241 83.0691 99.9324 82.4915C100.141 81.9138 100.245 81.2794 100.245 80.5881C100.245 79.892 100.141 79.2552 99.9324 78.6776C99.7241 78.0952 99.3997 77.6288 98.9594 77.2784C98.5238 76.928 97.9627 76.7528 97.2761 76.7528C96.5943 76.7528 96.0332 76.928 95.5929 77.2784C95.1526 77.6288 94.8282 78.0952 94.6199 78.6776C94.4116 79.2552 94.3074 79.892 94.3074 80.5881C94.3074 81.2794 94.4116 81.9138 94.6199 82.4915C94.8282 83.0691 95.1526 83.5331 95.5929 83.8835C96.0332 84.2292 96.5943 84.402 97.2761 84.402ZM103.715 76.9233V75.0909H112.92V76.9233H109.362V86H107.288V76.9233H103.715ZM119.56 86.2202C118.485 86.2202 117.56 85.9905 116.783 85.5312C116.011 85.0672 115.415 84.4162 114.993 83.5781C114.577 82.7353 114.368 81.7481 114.368 80.6165C114.368 79.4991 114.577 78.5142 114.993 77.6619C115.415 76.8097 116.002 76.1444 116.755 75.6662C117.512 75.188 118.398 74.9489 119.411 74.9489C120.026 74.9489 120.623 75.0507 121.201 75.2543C121.778 75.4579 122.297 75.7775 122.756 76.2131C123.215 76.6487 123.578 77.2145 123.843 77.9105C124.108 78.6018 124.24 79.4422 124.24 80.4318V81.1847H115.569V79.5938H122.159C122.159 79.035 122.046 78.5402 121.819 78.1094C121.591 77.6738 121.272 77.3305 120.86 77.0795C120.453 76.8286 119.974 76.7031 119.425 76.7031C118.828 76.7031 118.308 76.8499 117.863 77.1435C117.422 77.4323 117.081 77.8111 116.84 78.2798C116.603 78.7438 116.485 79.2481 116.485 79.7926V81.0355C116.485 81.7647 116.613 82.3849 116.868 82.8963C117.129 83.4077 117.491 83.7983 117.955 84.0682C118.419 84.3333 118.961 84.4659 119.581 84.4659C119.984 84.4659 120.351 84.4091 120.682 84.2955C121.014 84.1771 121.3 84.0019 121.542 83.7699C121.783 83.5379 121.968 83.2514 122.096 82.9105L124.105 83.2727C123.944 83.8646 123.656 84.383 123.239 84.8281C122.827 85.2685 122.309 85.6117 121.684 85.858C121.063 86.0994 120.355 86.2202 119.56 86.2202ZM126.797 90.0909V75.0909H128.87V76.8594H129.048C129.171 76.6321 129.349 76.3693 129.581 76.071C129.813 75.7727 130.135 75.5123 130.547 75.2898C130.959 75.0625 131.503 74.9489 132.18 74.9489C133.061 74.9489 133.847 75.1714 134.538 75.6165C135.229 76.0616 135.772 76.7031 136.164 77.5412C136.562 78.3793 136.761 79.3878 136.761 80.5668C136.761 81.7457 136.565 82.7566 136.172 83.5994C135.779 84.4375 135.239 85.0838 134.552 85.5384C133.866 85.9882 133.082 86.2131 132.201 86.2131C131.539 86.2131 130.996 86.1018 130.575 85.8793C130.158 85.6567 129.832 85.3963 129.595 85.098C129.358 84.7997 129.176 84.5346 129.048 84.3026H128.92V90.0909H126.797ZM128.878 80.5455C128.878 81.3125 128.989 81.9848 129.211 82.5625C129.434 83.1402 129.756 83.5923 130.177 83.919C130.599 84.241 131.115 84.402 131.726 84.402C132.36 84.402 132.89 84.2339 133.316 83.8977C133.743 83.5568 134.065 83.0952 134.282 82.5128C134.505 81.9304 134.616 81.2746 134.616 80.5455C134.616 79.8258 134.507 79.1795 134.289 78.6065C134.076 78.0336 133.754 77.5814 133.324 77.25C132.897 76.9186 132.365 76.7528 131.726 76.7528C131.11 76.7528 130.589 76.9115 130.163 77.2287C129.742 77.5459 129.422 77.9886 129.204 78.5568C128.986 79.125 128.878 79.7879 128.878 80.5455Z" fill="white"/>
<path d="M227.407 27.2619C226.547 27.4699 225.285 28.2049 224.675 28.8705C224.37 29.2033 223.912 29.8967 223.677 30.4098L223.233 31.3389L223.191 34.7641L223.136 38.2031H222.387C221.763 38.2031 221.569 38.2586 221.292 38.5498L220.945 38.8826V48.1875V57.4924L221.292 57.8252C221.569 58.1164 221.763 58.1719 222.387 58.1719H223.15L223.191 62.7203L223.233 67.2688L223.746 68.3227C224.37 69.5846 225.188 70.375 226.464 70.9713C227.324 71.3734 227.532 71.415 229.168 71.4566L230.929 71.5121V72.2887C230.929 73.4674 231.179 74.1053 231.969 74.8818C232.621 75.5336 233.384 75.9219 234.035 75.9219C234.23 75.9219 234.257 76.1299 234.243 77.5443V79.1807L233.328 79.7631L232.413 80.3594H228.683H224.952L224.62 80.7061C224.328 80.9834 224.273 81.1775 224.273 81.8154V82.5781H217.062H209.851V83.6875V84.7969H217.062H224.273V87.0156V89.2344H217.062H209.851V90.3438V91.4531H217.062H224.273V92.2158C224.273 92.8537 224.328 93.0479 224.62 93.3252C224.939 93.658 225.022 93.6719 226.838 93.6719H228.71V94.4346C228.71 95.0725 228.766 95.2666 229.057 95.5439L229.39 95.8906H233.148H236.906L237.239 95.5439C237.585 95.2111 237.585 95.1834 237.585 92.5625C237.585 89.9416 237.585 89.9139 237.239 89.5811C236.961 89.2898 236.767 89.2344 236.129 89.2344H235.367V88.4578C235.367 87.2514 235.616 86.6135 236.407 85.8369C237.807 84.4225 239.582 84.4225 240.983 85.8369C241.773 86.6135 242.023 87.2514 242.023 88.4578V89.2344H241.26C240.622 89.2344 240.428 89.2898 240.151 89.5811C239.804 89.9139 239.804 89.9416 239.804 92.5625C239.804 95.1834 239.804 95.2111 240.151 95.5439L240.484 95.8906H244.242H248L248.333 95.5439C248.624 95.2666 248.679 95.0725 248.679 94.4346V93.6719H250.551C252.368 93.6719 252.451 93.658 252.77 93.3252C253.061 93.0479 253.117 92.8537 253.117 92.2158V91.4531H260.328H267.539V90.3438V89.2344H260.328H253.117V87.0156V84.7969H260.328H267.539V83.6875V82.5781H260.328H253.117V81.8154C253.117 81.1775 253.061 80.9834 252.77 80.7061L252.437 80.3594H248.735H245.032L244.089 79.7631L243.146 79.1807L243.132 77.5443C243.132 76.1299 243.16 75.9219 243.354 75.9219C244.006 75.9219 244.769 75.5336 245.42 74.8818C246.211 74.1053 246.46 73.4674 246.46 72.2887V71.5121L248.235 71.4566C249.858 71.415 250.066 71.3734 250.926 70.9713C252.201 70.375 253.02 69.5846 253.644 68.3227L254.157 67.2688L254.198 62.7203L254.24 58.1719H255.003C255.627 58.1719 255.821 58.1164 256.098 57.8252L256.445 57.4924V48.1875V38.8826L256.098 38.5498C255.821 38.2586 255.627 38.2031 255.003 38.2031H254.254L254.198 34.7641L254.157 31.325L253.644 30.2711C253.02 29.0092 252.215 28.2326 250.926 27.6225L249.997 27.1787L238.972 27.151C232.607 27.1371 227.726 27.1926 227.407 27.2619ZM249.705 29.4945C250.468 29.7164 251.619 30.8674 251.841 31.6301C251.952 32.0045 252.007 33.2525 252.007 35.2078V38.2031H250.898H249.789V35.2217C249.789 32.2264 249.789 32.2264 249.442 31.8936L249.109 31.5469H238.695H228.281L227.948 31.8936C227.601 32.2264 227.601 32.2264 227.601 35.2217V38.2031H226.492H225.382V35.2078C225.382 33.2525 225.438 32.0045 225.549 31.6301C225.757 30.9229 226.922 29.7303 227.601 29.5084C228.322 29.2865 248.929 29.2727 249.705 29.4945ZM247.57 36.1092V38.4527L247.154 38.6191C246.571 38.8549 245.712 39.8672 245.517 40.5328C245.282 41.2955 245.282 55.0795 245.517 55.8422C245.712 56.5078 246.571 57.5201 247.154 57.7559L247.57 57.9223V60.2658V62.6094H238.695H229.82V60.2658V57.9223L230.236 57.7559C230.818 57.5201 231.678 56.5078 231.872 55.8422C232.108 55.0795 232.108 41.2955 231.872 40.5328C231.678 39.8672 230.818 38.8549 230.236 38.6191L229.82 38.4527V36.1092V33.7656H238.695H247.57V36.1092ZM229.473 40.7686L229.82 41.1014V48.1875V55.2736L229.473 55.6064C229.14 55.9531 229.14 55.9531 226.145 55.9531H223.164V48.1875V40.4219H226.145C229.14 40.4219 229.14 40.4219 229.473 40.7686ZM254.226 48.1875V55.9531H251.245C248.249 55.9531 248.249 55.9531 247.917 55.6064L247.57 55.2736V48.1875V41.1014L247.917 40.7686C248.249 40.4219 248.249 40.4219 251.245 40.4219H254.226V48.1875ZM227.601 61.1533C227.601 64.1486 227.601 64.1486 227.948 64.4814L228.281 64.8281H238.695H249.109L249.442 64.4814C249.789 64.1486 249.789 64.1486 249.789 61.1533V58.1719H250.898H252.007V62.2766C252.007 65.1055 251.952 66.5754 251.841 66.9637C251.619 67.7264 250.468 68.8773 249.705 69.0992C248.887 69.335 228.502 69.335 227.684 69.0992C226.922 68.8773 225.771 67.7264 225.549 66.9637C225.438 66.5754 225.382 65.1055 225.382 62.2766V58.1719H226.492H227.601V61.1533ZM244.242 72.2471C244.242 72.885 244.186 73.0791 243.895 73.3564L243.562 73.7031H238.695H233.827L233.495 73.3564C233.203 73.0791 233.148 72.885 233.148 72.2471V71.4844H238.695H244.242V72.2471ZM240.914 77.1561V78.4041L240.4 78.307C240.109 78.2516 239.347 78.21 238.695 78.21C238.043 78.21 237.28 78.2516 237.003 78.307L236.476 78.4041V77.1561V75.9219H238.695H240.914V77.1561ZM240.165 80.5119C242.411 80.9141 244.616 82.6059 245.628 84.7137C246.35 86.2391 246.46 86.974 246.46 90.5795V93.6719H244.242H242.023V92.5625V91.4531H242.786C243.437 91.4531 243.618 91.3977 243.923 91.0926C244.269 90.7459 244.269 90.732 244.214 88.7768C244.172 86.9186 244.145 86.7521 243.729 85.8785C243.118 84.5889 242.342 83.7846 241.08 83.1605C240.082 82.6752 239.957 82.6475 238.695 82.6475C237.433 82.6475 237.308 82.6752 236.31 83.1605C235.048 83.7846 234.271 84.5889 233.661 85.8785C233.245 86.7521 233.217 86.9186 233.176 88.7768C233.12 90.732 233.12 90.7459 233.467 91.0926C233.772 91.3977 233.952 91.4531 234.604 91.4531H235.367V92.5625V93.6719H233.148H230.929V90.5795C230.929 88.8738 230.999 87.1127 231.082 86.6551C231.401 84.8939 232.524 83.1189 233.994 81.9957C235.81 80.609 237.932 80.1098 240.165 80.5119ZM229.806 83.6459C228.974 85.31 228.821 86.0588 228.752 88.9293L228.683 91.4531H227.587H226.492V87.0156V82.5781H228.419H230.347L229.806 83.6459ZM250.898 87.0156V91.4531H249.802H248.707L248.638 88.9293C248.568 86.0727 248.43 85.3516 247.584 83.6459L247.057 82.5781H248.97H250.898V87.0156Z" fill="#4C4C4C"/>
<path d="M235.367 67.0469V68.1562H238.695H242.023V67.0469V65.9375H238.695H235.367V67.0469Z" fill="#4C4C4C"/>
<path d="M25.9676 131.614V130.364H34.6948V131.614H31.0357V142H29.6266V131.614H25.9676ZM38.0286 136.75V142H36.6877V130.364H38.0286V134.636H38.1423C38.3468 134.186 38.6536 133.828 39.0627 133.562C39.4756 133.294 40.0248 133.159 40.7104 133.159C41.3051 133.159 41.826 133.278 42.2729 133.517C42.7199 133.752 43.0665 134.114 43.3127 134.602C43.5627 135.087 43.6877 135.705 43.6877 136.455V142H42.3468V136.545C42.3468 135.852 42.1669 135.316 41.807 134.938C41.451 134.555 40.9567 134.364 40.3241 134.364C39.8847 134.364 39.4908 134.456 39.1423 134.642C38.7976 134.828 38.5248 135.098 38.3241 135.455C38.1271 135.811 38.0286 136.242 38.0286 136.75ZM49.7999 142.182C48.959 142.182 48.2336 141.996 47.6238 141.625C47.0177 141.25 46.5499 140.727 46.2204 140.057C45.8946 139.383 45.7318 138.598 45.7318 137.705C45.7318 136.811 45.8946 136.023 46.2204 135.341C46.5499 134.655 47.0083 134.121 47.5954 133.739C48.1863 133.352 48.8757 133.159 49.6636 133.159C50.1181 133.159 50.567 133.235 51.0102 133.386C51.4533 133.538 51.8568 133.784 52.2204 134.125C52.584 134.462 52.8738 134.909 53.0897 135.466C53.3056 136.023 53.4136 136.708 53.4136 137.523V138.091H46.6863V136.932H52.0499C52.0499 136.439 51.9515 136 51.7545 135.614C51.5613 135.227 51.2848 134.922 50.9249 134.699C50.5689 134.475 50.1484 134.364 49.6636 134.364C49.1295 134.364 48.6674 134.496 48.2772 134.761C47.8908 135.023 47.5935 135.364 47.3852 135.784C47.1768 136.205 47.0727 136.655 47.0727 137.136V137.909C47.0727 138.568 47.1863 139.127 47.4136 139.585C47.6446 140.04 47.9647 140.386 48.3738 140.625C48.7829 140.86 49.2583 140.977 49.7999 140.977C50.1522 140.977 50.4704 140.928 50.7545 140.83C51.0424 140.727 51.2905 140.576 51.4988 140.375C51.7071 140.17 51.8681 139.917 51.9818 139.614L53.2772 139.977C53.1408 140.417 52.9117 140.803 52.5897 141.136C52.2677 141.466 51.87 141.723 51.3965 141.909C50.923 142.091 50.3908 142.182 49.7999 142.182ZM59.9533 145.273V133.273H61.2488V134.659H61.4079C61.5064 134.508 61.6427 134.314 61.817 134.08C61.995 133.841 62.2488 133.629 62.5783 133.443C62.9117 133.254 63.3624 133.159 63.9306 133.159C64.6655 133.159 65.3132 133.343 65.8738 133.71C66.4344 134.078 66.8719 134.598 67.1863 135.273C67.5007 135.947 67.6579 136.742 67.6579 137.659C67.6579 138.583 67.5007 139.384 67.1863 140.062C66.8719 140.737 66.4363 141.259 65.8795 141.631C65.3227 141.998 64.6806 142.182 63.9533 142.182C63.3927 142.182 62.9439 142.089 62.6068 141.903C62.2696 141.714 62.0102 141.5 61.8283 141.261C61.6465 141.019 61.5064 140.818 61.4079 140.659H61.2943V145.273H59.9533ZM61.2715 137.636C61.2715 138.295 61.3681 138.877 61.5613 139.381C61.7545 139.881 62.0367 140.273 62.4079 140.557C62.7791 140.837 63.2337 140.977 63.7715 140.977C64.3321 140.977 64.7999 140.83 65.1749 140.534C65.5537 140.235 65.8378 139.833 66.0272 139.33C66.2204 138.822 66.317 138.258 66.317 137.636C66.317 137.023 66.2223 136.47 66.0329 135.977C65.8473 135.481 65.5651 135.089 65.1863 134.801C64.8113 134.509 64.3397 134.364 63.7715 134.364C63.2261 134.364 62.7677 134.502 62.3965 134.778C62.0253 135.051 61.745 135.434 61.5556 135.926C61.3662 136.415 61.2715 136.985 61.2715 137.636ZM73.2488 142.182C72.4609 142.182 71.7696 141.994 71.1749 141.619C70.584 141.244 70.1219 140.72 69.7886 140.045C69.459 139.371 69.2943 138.583 69.2943 137.682C69.2943 136.773 69.459 135.979 69.7886 135.301C70.1219 134.623 70.584 134.097 71.1749 133.722C71.7696 133.347 72.4609 133.159 73.2488 133.159C74.0367 133.159 74.7261 133.347 75.317 133.722C75.9117 134.097 76.3738 134.623 76.7033 135.301C77.0367 135.979 77.2033 136.773 77.2033 137.682C77.2033 138.583 77.0367 139.371 76.7033 140.045C76.3738 140.72 75.9117 141.244 75.317 141.619C74.7261 141.994 74.0367 142.182 73.2488 142.182ZM73.2488 140.977C73.8473 140.977 74.3397 140.824 74.7261 140.517C75.1124 140.21 75.3984 139.807 75.584 139.307C75.7696 138.807 75.8624 138.265 75.8624 137.682C75.8624 137.098 75.7696 136.555 75.584 136.051C75.3984 135.547 75.1124 135.14 74.7261 134.83C74.3397 134.519 73.8473 134.364 73.2488 134.364C72.6503 134.364 72.1579 134.519 71.7715 134.83C71.3852 135.14 71.0992 135.547 70.9136 136.051C70.728 136.555 70.6352 137.098 70.6352 137.682C70.6352 138.265 70.728 138.807 70.9136 139.307C71.0992 139.807 71.3852 140.21 71.7715 140.517C72.1579 140.824 72.6503 140.977 73.2488 140.977ZM79.2502 142V133.273H80.5911V142H79.2502ZM79.932 131.818C79.6707 131.818 79.4453 131.729 79.2559 131.551C79.0703 131.373 78.9775 131.159 78.9775 130.909C78.9775 130.659 79.0703 130.445 79.2559 130.267C79.4453 130.089 79.6707 130 79.932 130C80.1934 130 80.4169 130.089 80.6025 130.267C80.7919 130.445 80.8866 130.659 80.8866 130.909C80.8866 131.159 80.7919 131.373 80.6025 131.551C80.4169 131.729 80.1934 131.818 79.932 131.818ZM84.388 136.75V142H83.0471V133.273H84.3426V134.636H84.4562C84.6607 134.193 84.9713 133.837 85.388 133.568C85.8047 133.295 86.3426 133.159 87.0016 133.159C87.5926 133.159 88.1096 133.28 88.5528 133.523C88.996 133.761 89.3407 134.125 89.5869 134.614C89.8331 135.098 89.9562 135.712 89.9562 136.455V142H88.6153V136.545C88.6153 135.86 88.4372 135.326 88.0812 134.943C87.7251 134.557 87.2365 134.364 86.6153 134.364C86.1872 134.364 85.8047 134.456 85.4676 134.642C85.1342 134.828 84.871 135.098 84.6778 135.455C84.4846 135.811 84.388 136.242 84.388 136.75ZM96.2019 133.273V134.409H91.6792V133.273H96.2019ZM92.9974 131.182H94.3383V139.5C94.3383 139.879 94.3932 140.163 94.5031 140.352C94.6167 140.538 94.7606 140.663 94.9349 140.727C95.1129 140.788 95.3004 140.818 95.4974 140.818C95.6451 140.818 95.7663 140.811 95.861 140.795C95.9557 140.777 96.0315 140.761 96.0883 140.75L96.361 141.955C96.2701 141.989 96.1432 142.023 95.9803 142.057C95.8175 142.095 95.611 142.114 95.361 142.114C94.9822 142.114 94.611 142.032 94.2474 141.869C93.8875 141.706 93.5883 141.458 93.3497 141.125C93.1148 140.792 92.9974 140.371 92.9974 139.864V131.182ZM106.264 142.182C105.477 142.182 104.785 141.994 104.191 141.619C103.6 141.244 103.138 140.72 102.804 140.045C102.475 139.371 102.31 138.583 102.31 137.682C102.31 136.773 102.475 135.979 102.804 135.301C103.138 134.623 103.6 134.097 104.191 133.722C104.785 133.347 105.477 133.159 106.264 133.159C107.052 133.159 107.742 133.347 108.333 133.722C108.927 134.097 109.389 134.623 109.719 135.301C110.052 135.979 110.219 136.773 110.219 137.682C110.219 138.583 110.052 139.371 109.719 140.045C109.389 140.72 108.927 141.244 108.333 141.619C107.742 141.994 107.052 142.182 106.264 142.182ZM106.264 140.977C106.863 140.977 107.355 140.824 107.742 140.517C108.128 140.21 108.414 139.807 108.6 139.307C108.785 138.807 108.878 138.265 108.878 137.682C108.878 137.098 108.785 136.555 108.6 136.051C108.414 135.547 108.128 135.14 107.742 134.83C107.355 134.519 106.863 134.364 106.264 134.364C105.666 134.364 105.174 134.519 104.787 134.83C104.401 135.14 104.115 135.547 103.929 136.051C103.744 136.555 103.651 137.098 103.651 137.682C103.651 138.265 103.744 138.807 103.929 139.307C104.115 139.807 104.401 140.21 104.787 140.517C105.174 140.824 105.666 140.977 106.264 140.977ZM116.152 133.273V134.409H111.448V133.273H116.152ZM112.857 142V132.068C112.857 131.568 112.974 131.152 113.209 130.818C113.444 130.485 113.749 130.235 114.124 130.068C114.499 129.902 114.895 129.818 115.311 129.818C115.641 129.818 115.91 129.845 116.118 129.898C116.326 129.951 116.482 130 116.584 130.045L116.198 131.205C116.129 131.182 116.035 131.153 115.914 131.119C115.796 131.085 115.641 131.068 115.448 131.068C115.004 131.068 114.684 131.18 114.487 131.403C114.294 131.627 114.198 131.955 114.198 132.386V142H112.857ZM128.031 138.432V133.273H129.372V142H128.031V140.523H127.941C127.736 140.966 127.418 141.343 126.986 141.653C126.554 141.96 126.009 142.114 125.35 142.114C124.804 142.114 124.319 141.994 123.895 141.756C123.471 141.513 123.138 141.15 122.895 140.665C122.653 140.176 122.531 139.561 122.531 138.818V133.273H123.872V138.727C123.872 139.364 124.05 139.871 124.406 140.25C124.766 140.629 125.225 140.818 125.781 140.818C126.115 140.818 126.454 140.733 126.799 140.562C127.147 140.392 127.439 140.131 127.674 139.778C127.912 139.426 128.031 138.977 128.031 138.432ZM138.01 135.227L136.806 135.568C136.73 135.367 136.618 135.172 136.47 134.983C136.326 134.79 136.129 134.631 135.879 134.506C135.629 134.381 135.309 134.318 134.919 134.318C134.385 134.318 133.94 134.441 133.584 134.688C133.232 134.93 133.056 135.239 133.056 135.614C133.056 135.947 133.177 136.21 133.419 136.403C133.662 136.597 134.04 136.758 134.556 136.886L135.851 137.205C136.631 137.394 137.213 137.684 137.595 138.074C137.978 138.46 138.169 138.958 138.169 139.568C138.169 140.068 138.025 140.515 137.737 140.909C137.453 141.303 137.056 141.614 136.544 141.841C136.033 142.068 135.438 142.182 134.76 142.182C133.87 142.182 133.133 141.989 132.55 141.602C131.967 141.216 131.597 140.652 131.442 139.909L132.715 139.591C132.836 140.061 133.065 140.413 133.402 140.648C133.743 140.883 134.188 141 134.737 141C135.362 141 135.859 140.867 136.226 140.602C136.597 140.333 136.783 140.011 136.783 139.636C136.783 139.333 136.677 139.08 136.465 138.875C136.253 138.667 135.927 138.511 135.487 138.409L134.033 138.068C133.234 137.879 132.647 137.585 132.272 137.188C131.9 136.786 131.715 136.284 131.715 135.682C131.715 135.189 131.853 134.754 132.129 134.375C132.41 133.996 132.79 133.699 133.272 133.483C133.756 133.267 134.306 133.159 134.919 133.159C135.783 133.159 136.461 133.348 136.953 133.727C137.45 134.106 137.802 134.606 138.01 135.227ZM140.188 142V133.273H141.529V142H140.188ZM140.87 131.818C140.608 131.818 140.383 131.729 140.193 131.551C140.008 131.373 139.915 131.159 139.915 130.909C139.915 130.659 140.008 130.445 140.193 130.267C140.383 130.089 140.608 130 140.87 130C141.131 130 141.354 130.089 141.54 130.267C141.729 130.445 141.824 130.659 141.824 130.909C141.824 131.159 141.729 131.373 141.54 131.551C141.354 131.729 141.131 131.818 140.87 131.818ZM145.326 136.75V142H143.985V133.273H145.28V134.636H145.394C145.598 134.193 145.909 133.837 146.326 133.568C146.742 133.295 147.28 133.159 147.939 133.159C148.53 133.159 149.047 133.28 149.49 133.523C149.933 133.761 150.278 134.125 150.524 134.614C150.771 135.098 150.894 135.712 150.894 136.455V142H149.553V136.545C149.553 135.86 149.375 135.326 149.019 134.943C148.663 134.557 148.174 134.364 147.553 134.364C147.125 134.364 146.742 134.456 146.405 134.642C146.072 134.828 145.808 135.098 145.615 135.455C145.422 135.811 145.326 136.242 145.326 136.75ZM156.867 145.455C156.219 145.455 155.662 145.371 155.196 145.205C154.73 145.042 154.342 144.826 154.031 144.557C153.725 144.292 153.48 144.008 153.299 143.705L154.367 142.955C154.488 143.114 154.641 143.295 154.827 143.5C155.013 143.708 155.266 143.888 155.588 144.04C155.914 144.195 156.34 144.273 156.867 144.273C157.571 144.273 158.153 144.102 158.611 143.761C159.069 143.42 159.299 142.886 159.299 142.159V140.386H159.185C159.086 140.545 158.946 140.742 158.764 140.977C158.586 141.208 158.329 141.415 157.992 141.597C157.658 141.775 157.208 141.864 156.639 141.864C155.935 141.864 155.302 141.697 154.742 141.364C154.185 141.03 153.744 140.545 153.418 139.909C153.096 139.273 152.935 138.5 152.935 137.591C152.935 136.697 153.092 135.919 153.406 135.256C153.721 134.589 154.158 134.074 154.719 133.71C155.28 133.343 155.927 133.159 156.662 133.159C157.23 133.159 157.681 133.254 158.014 133.443C158.352 133.629 158.609 133.841 158.787 134.08C158.969 134.314 159.109 134.508 159.208 134.659H159.344V133.273H160.639V142.25C160.639 143 160.469 143.61 160.128 144.08C159.791 144.553 159.336 144.9 158.764 145.119C158.196 145.343 157.564 145.455 156.867 145.455ZM156.821 140.659C157.359 140.659 157.814 140.536 158.185 140.29C158.556 140.044 158.838 139.689 159.031 139.227C159.225 138.765 159.321 138.212 159.321 137.568C159.321 136.939 159.227 136.384 159.037 135.903C158.848 135.422 158.567 135.045 158.196 134.773C157.825 134.5 157.367 134.364 156.821 134.364C156.253 134.364 155.78 134.508 155.401 134.795C155.026 135.083 154.744 135.47 154.554 135.955C154.369 136.439 154.276 136.977 154.276 137.568C154.276 138.174 154.37 138.71 154.56 139.176C154.753 139.638 155.037 140.002 155.412 140.267C155.791 140.528 156.261 140.659 156.821 140.659ZM168.935 130.364V142H167.594V130.364H168.935ZM174.936 142.182C174.148 142.182 173.457 141.994 172.862 141.619C172.272 141.244 171.809 140.72 171.476 140.045C171.147 139.371 170.982 138.583 170.982 137.682C170.982 136.773 171.147 135.979 171.476 135.301C171.809 134.623 172.272 134.097 172.862 133.722C173.457 133.347 174.148 133.159 174.936 133.159C175.724 133.159 176.414 133.347 177.004 133.722C177.599 134.097 178.061 134.623 178.391 135.301C178.724 135.979 178.891 136.773 178.891 137.682C178.891 138.583 178.724 139.371 178.391 140.045C178.061 140.72 177.599 141.244 177.004 141.619C176.414 141.994 175.724 142.182 174.936 142.182ZM174.936 140.977C175.535 140.977 176.027 140.824 176.414 140.517C176.8 140.21 177.086 139.807 177.272 139.307C177.457 138.807 177.55 138.265 177.55 137.682C177.55 137.098 177.457 136.555 177.272 136.051C177.086 135.547 176.8 135.14 176.414 134.83C176.027 134.519 175.535 134.364 174.936 134.364C174.338 134.364 173.845 134.519 173.459 134.83C173.073 135.14 172.787 135.547 172.601 136.051C172.415 136.555 172.323 137.098 172.323 137.682C172.323 138.265 172.415 138.807 172.601 139.307C172.787 139.807 173.073 140.21 173.459 140.517C173.845 140.824 174.338 140.977 174.936 140.977ZM180.938 142V133.273H182.233V134.591H182.324C182.483 134.159 182.771 133.809 183.188 133.54C183.604 133.271 184.074 133.136 184.597 133.136C184.695 133.136 184.818 133.138 184.966 133.142C185.114 133.146 185.226 133.152 185.301 133.159V134.523C185.256 134.511 185.152 134.494 184.989 134.472C184.83 134.445 184.661 134.432 184.483 134.432C184.059 134.432 183.68 134.521 183.347 134.699C183.017 134.873 182.756 135.116 182.563 135.426C182.373 135.733 182.279 136.083 182.279 136.477V142H180.938ZM190.284 142.182C189.443 142.182 188.718 141.996 188.108 141.625C187.502 141.25 187.034 140.727 186.705 140.057C186.379 139.383 186.216 138.598 186.216 137.705C186.216 136.811 186.379 136.023 186.705 135.341C187.034 134.655 187.493 134.121 188.08 133.739C188.671 133.352 189.36 133.159 190.148 133.159C190.602 133.159 191.051 133.235 191.495 133.386C191.938 133.538 192.341 133.784 192.705 134.125C193.068 134.462 193.358 134.909 193.574 135.466C193.79 136.023 193.898 136.708 193.898 137.523V138.091H187.171V136.932H192.534C192.534 136.439 192.436 136 192.239 135.614C192.046 135.227 191.769 134.922 191.409 134.699C191.053 134.475 190.633 134.364 190.148 134.364C189.614 134.364 189.152 134.496 188.762 134.761C188.375 135.023 188.078 135.364 187.87 135.784C187.661 136.205 187.557 136.655 187.557 137.136V137.909C187.557 138.568 187.671 139.127 187.898 139.585C188.129 140.04 188.449 140.386 188.858 140.625C189.267 140.86 189.743 140.977 190.284 140.977C190.637 140.977 190.955 140.928 191.239 140.83C191.527 140.727 191.775 140.576 191.983 140.375C192.192 140.17 192.352 139.917 192.466 139.614L193.762 139.977C193.625 140.417 193.396 140.803 193.074 141.136C192.752 141.466 192.354 141.723 191.881 141.909C191.407 142.091 190.875 142.182 190.284 142.182ZM195.938 142V133.273H197.233V134.636H197.347C197.529 134.17 197.822 133.809 198.227 133.551C198.633 133.29 199.12 133.159 199.688 133.159C200.263 133.159 200.743 133.29 201.125 133.551C201.512 133.809 201.813 134.17 202.029 134.636H202.12C202.343 134.186 202.678 133.828 203.125 133.562C203.572 133.294 204.108 133.159 204.733 133.159C205.513 133.159 206.152 133.403 206.648 133.892C207.144 134.377 207.392 135.133 207.392 136.159V142H206.051V136.159C206.051 135.515 205.875 135.055 205.523 134.778C205.171 134.502 204.756 134.364 204.279 134.364C203.665 134.364 203.19 134.549 202.852 134.92C202.515 135.288 202.347 135.754 202.347 136.318V142H200.983V136.023C200.983 135.527 200.822 135.127 200.5 134.824C200.178 134.517 199.763 134.364 199.256 134.364C198.907 134.364 198.582 134.456 198.279 134.642C197.979 134.828 197.737 135.085 197.551 135.415C197.37 135.741 197.279 136.117 197.279 136.545V142H195.938ZM214.344 142V133.273H215.685V142H214.344ZM215.026 131.818C214.764 131.818 214.539 131.729 214.35 131.551C214.164 131.373 214.071 131.159 214.071 130.909C214.071 130.659 214.164 130.445 214.35 130.267C214.539 130.089 214.764 130 215.026 130C215.287 130 215.511 130.089 215.696 130.267C215.886 130.445 215.98 130.659 215.98 130.909C215.98 131.159 215.886 131.373 215.696 131.551C215.511 131.729 215.287 131.818 215.026 131.818ZM218.141 145.273V133.273H219.436V134.659H219.595C219.694 134.508 219.83 134.314 220.004 134.08C220.183 133.841 220.436 133.629 220.766 133.443C221.099 133.254 221.55 133.159 222.118 133.159C222.853 133.159 223.501 133.343 224.061 133.71C224.622 134.078 225.059 134.598 225.374 135.273C225.688 135.947 225.845 136.742 225.845 137.659C225.845 138.583 225.688 139.384 225.374 140.062C225.059 140.737 224.624 141.259 224.067 141.631C223.51 141.998 222.868 142.182 222.141 142.182C221.58 142.182 221.131 142.089 220.794 141.903C220.457 141.714 220.198 141.5 220.016 141.261C219.834 141.019 219.694 140.818 219.595 140.659H219.482V145.273H218.141ZM219.459 137.636C219.459 138.295 219.556 138.877 219.749 139.381C219.942 139.881 220.224 140.273 220.595 140.557C220.967 140.837 221.421 140.977 221.959 140.977C222.52 140.977 222.987 140.83 223.362 140.534C223.741 140.235 224.025 139.833 224.215 139.33C224.408 138.822 224.504 138.258 224.504 137.636C224.504 137.023 224.41 136.47 224.22 135.977C224.035 135.481 223.753 135.089 223.374 134.801C222.999 134.509 222.527 134.364 221.959 134.364C221.414 134.364 220.955 134.502 220.584 134.778C220.213 135.051 219.933 135.434 219.743 135.926C219.554 136.415 219.459 136.985 219.459 137.636ZM234.073 135.227L232.868 135.568C232.792 135.367 232.681 135.172 232.533 134.983C232.389 134.79 232.192 134.631 231.942 134.506C231.692 134.381 231.372 134.318 230.982 134.318C230.448 134.318 230.003 134.441 229.647 134.688C229.294 134.93 229.118 135.239 229.118 135.614C229.118 135.947 229.239 136.21 229.482 136.403C229.724 136.597 230.103 136.758 230.618 136.886L231.914 137.205C232.694 137.394 233.275 137.684 233.658 138.074C234.04 138.46 234.232 138.958 234.232 139.568C234.232 140.068 234.088 140.515 233.8 140.909C233.516 141.303 233.118 141.614 232.607 141.841C232.095 142.068 231.501 142.182 230.823 142.182C229.933 142.182 229.196 141.989 228.612 141.602C228.029 141.216 227.66 140.652 227.504 139.909L228.777 139.591C228.898 140.061 229.128 140.413 229.465 140.648C229.806 140.883 230.251 141 230.8 141C231.425 141 231.921 140.867 232.289 140.602C232.66 140.333 232.845 140.011 232.845 139.636C232.845 139.333 232.739 139.08 232.527 138.875C232.315 138.667 231.989 138.511 231.55 138.409L230.095 138.068C229.296 137.879 228.709 137.585 228.334 137.188C227.963 136.786 227.777 136.284 227.777 135.682C227.777 135.189 227.915 134.754 228.192 134.375C228.472 133.996 228.853 133.699 229.334 133.483C229.819 133.267 230.368 133.159 230.982 133.159C231.845 133.159 232.523 133.348 233.016 133.727C233.512 134.106 233.864 134.606 234.073 135.227ZM241.75 138.432V133.273H243.091V142H241.75V140.523H241.659C241.455 140.966 241.137 141.343 240.705 141.653C240.273 141.96 239.727 142.114 239.068 142.114C238.523 142.114 238.038 141.994 237.614 141.756C237.19 141.513 236.856 141.15 236.614 140.665C236.371 140.176 236.25 139.561 236.25 138.818V133.273H237.591V138.727C237.591 139.364 237.769 139.871 238.125 140.25C238.485 140.629 238.943 140.818 239.5 140.818C239.834 140.818 240.173 140.733 240.517 140.562C240.866 140.392 241.157 140.131 241.392 139.778C241.631 139.426 241.75 138.977 241.75 138.432ZM245.547 142V133.273H246.843V134.636H246.956C247.138 134.17 247.432 133.809 247.837 133.551C248.242 133.29 248.729 133.159 249.297 133.159C249.873 133.159 250.352 133.29 250.735 133.551C251.121 133.809 251.422 134.17 251.638 134.636H251.729C251.952 134.186 252.288 133.828 252.735 133.562C253.182 133.294 253.718 133.159 254.343 133.159C255.123 133.159 255.761 133.403 256.257 133.892C256.754 134.377 257.002 135.133 257.002 136.159V142H255.661V136.159C255.661 135.515 255.485 135.055 255.132 134.778C254.78 134.502 254.365 134.364 253.888 134.364C253.274 134.364 252.799 134.549 252.462 134.92C252.125 135.288 251.956 135.754 251.956 136.318V142H250.593V136.023C250.593 135.527 250.432 135.127 250.11 134.824C249.788 134.517 249.373 134.364 248.865 134.364C248.517 134.364 248.191 134.456 247.888 134.642C247.589 134.828 247.346 135.085 247.161 135.415C246.979 135.741 246.888 136.117 246.888 136.545V142H245.547ZM26.4221 168V159.273H27.763V168H26.4221ZM27.1039 157.818C26.8426 157.818 26.6172 157.729 26.4278 157.551C26.2422 157.373 26.1494 157.159 26.1494 156.909C26.1494 156.659 26.2422 156.445 26.4278 156.267C26.6172 156.089 26.8426 156 27.1039 156C27.3653 156 27.5888 156.089 27.7744 156.267C27.9638 156.445 28.0585 156.659 28.0585 156.909C28.0585 157.159 27.9638 157.373 27.7744 157.551C27.5888 157.729 27.3653 157.818 27.1039 157.818ZM36.4008 161.227L35.1962 161.568C35.1205 161.367 35.0087 161.172 34.861 160.983C34.7171 160.79 34.5201 160.631 34.2701 160.506C34.0201 160.381 33.7 160.318 33.3099 160.318C32.7758 160.318 32.3307 160.441 31.9747 160.688C31.6224 160.93 31.4462 161.239 31.4462 161.614C31.4462 161.947 31.5675 162.21 31.8099 162.403C32.0523 162.597 32.4311 162.758 32.9462 162.886L34.2417 163.205C35.022 163.394 35.6034 163.684 35.986 164.074C36.3686 164.46 36.5599 164.958 36.5599 165.568C36.5599 166.068 36.4159 166.515 36.1281 166.909C35.844 167.303 35.4462 167.614 34.9349 167.841C34.4235 168.068 33.8288 168.182 33.1508 168.182C32.2606 168.182 31.5239 167.989 30.9406 167.602C30.3572 167.216 29.9879 166.652 29.8326 165.909L31.1053 165.591C31.2265 166.061 31.4557 166.413 31.7928 166.648C32.1337 166.883 32.5788 167 33.1281 167C33.7531 167 34.2493 166.867 34.6167 166.602C34.9879 166.333 35.1735 166.011 35.1735 165.636C35.1735 165.333 35.0675 165.08 34.8553 164.875C34.6432 164.667 34.3175 164.511 33.8781 164.409L32.4235 164.068C31.6243 163.879 31.0372 163.585 30.6622 163.188C30.2909 162.786 30.1053 162.284 30.1053 161.682C30.1053 161.189 30.2436 160.754 30.5201 160.375C30.8004 159.996 31.1811 159.699 31.6622 159.483C32.147 159.267 32.6962 159.159 33.3099 159.159C34.1735 159.159 34.8515 159.348 35.344 159.727C35.8402 160.106 36.1925 160.606 36.4008 161.227ZM46.8738 159.273V160.409H42.3511V159.273H46.8738ZM43.6693 157.182H45.0102V165.5C45.0102 165.879 45.0651 166.163 45.1749 166.352C45.2886 166.538 45.4325 166.663 45.6068 166.727C45.7848 166.788 45.9723 166.818 46.1693 166.818C46.317 166.818 46.4382 166.811 46.5329 166.795C46.6276 166.777 46.7033 166.761 46.7602 166.75L47.0329 167.955C46.942 167.989 46.8151 168.023 46.6522 168.057C46.4893 168.095 46.2829 168.114 46.0329 168.114C45.6541 168.114 45.2829 168.032 44.9193 167.869C44.5594 167.706 44.2602 167.458 44.0215 167.125C43.7867 166.792 43.6693 166.371 43.6693 165.864V157.182ZM50.4193 162.75V168H49.0783V156.364H50.4193V160.636H50.5329C50.7374 160.186 51.0443 159.828 51.4533 159.562C51.8662 159.294 52.4155 159.159 53.1011 159.159C53.6958 159.159 54.2166 159.278 54.6636 159.517C55.1105 159.752 55.4571 160.114 55.7033 160.602C55.9533 161.087 56.0783 161.705 56.0783 162.455V168H54.7374V162.545C54.7374 161.852 54.5575 161.316 54.1977 160.938C53.8416 160.555 53.3473 160.364 52.7147 160.364C52.2753 160.364 51.8814 160.456 51.5329 160.642C51.1882 160.828 50.9155 161.098 50.7147 161.455C50.5177 161.811 50.4193 162.242 50.4193 162.75ZM61.0997 168.205C60.5466 168.205 60.0447 168.1 59.594 167.892C59.1432 167.68 58.7853 167.375 58.5201 166.977C58.255 166.576 58.1224 166.091 58.1224 165.523C58.1224 165.023 58.2209 164.617 58.4178 164.307C58.6148 163.992 58.8781 163.746 59.2076 163.568C59.5372 163.39 59.9008 163.258 60.2985 163.17C60.7 163.08 61.1034 163.008 61.5087 162.955C62.039 162.886 62.469 162.835 62.7985 162.801C63.1319 162.763 63.3743 162.701 63.5258 162.614C63.6811 162.527 63.7587 162.375 63.7587 162.159V162.114C63.7587 161.553 63.6053 161.117 63.2985 160.807C62.9955 160.496 62.5353 160.341 61.9178 160.341C61.2777 160.341 60.7758 160.481 60.4122 160.761C60.0485 161.042 59.7928 161.341 59.6451 161.659L58.3724 161.205C58.5997 160.674 58.9027 160.261 59.2815 159.966C59.664 159.667 60.0807 159.458 60.5315 159.341C60.986 159.22 61.433 159.159 61.8724 159.159C62.1527 159.159 62.4747 159.193 62.8383 159.261C63.2057 159.326 63.5599 159.46 63.9008 159.665C64.2455 159.869 64.5315 160.178 64.7587 160.591C64.986 161.004 65.0997 161.557 65.0997 162.25V168H63.7587V166.818H63.6906C63.5997 167.008 63.4481 167.21 63.236 167.426C63.0239 167.642 62.7417 167.826 62.3894 167.977C62.0372 168.129 61.6072 168.205 61.0997 168.205ZM61.3042 167C61.8345 167 62.2815 166.896 62.6451 166.688C63.0125 166.479 63.289 166.21 63.4747 165.881C63.664 165.551 63.7587 165.205 63.7587 164.841V163.614C63.7019 163.682 63.5769 163.744 63.3837 163.801C63.1944 163.854 62.9747 163.902 62.7247 163.943C62.4784 163.981 62.2379 164.015 62.0031 164.045C61.772 164.072 61.5845 164.095 61.4406 164.114C61.0921 164.159 60.7663 164.233 60.4633 164.335C60.164 164.434 59.9216 164.583 59.736 164.784C59.5542 164.981 59.4633 165.25 59.4633 165.591C59.4633 166.057 59.6356 166.409 59.9803 166.648C60.3288 166.883 60.7701 167 61.3042 167ZM71.3426 159.273V160.409H66.8198V159.273H71.3426ZM68.138 157.182H69.4789V165.5C69.4789 165.879 69.5338 166.163 69.6437 166.352C69.7573 166.538 69.9013 166.663 70.0755 166.727C70.2535 166.788 70.441 166.818 70.638 166.818C70.7857 166.818 70.9069 166.811 71.0016 166.795C71.0963 166.777 71.1721 166.761 71.2289 166.75L71.5016 167.955C71.4107 167.989 71.2838 168.023 71.121 168.057C70.9581 168.095 70.7516 168.114 70.5016 168.114C70.1229 168.114 69.7516 168.032 69.388 167.869C69.0282 167.706 68.7289 167.458 68.4903 167.125C68.2554 166.792 68.138 166.371 68.138 165.864V157.182ZM77.8596 168V159.273H79.2005V168H77.8596ZM78.5414 157.818C78.2801 157.818 78.0547 157.729 77.8653 157.551C77.6797 157.373 77.5869 157.159 77.5869 156.909C77.5869 156.659 77.6797 156.445 77.8653 156.267C78.0547 156.089 78.2801 156 78.5414 156C78.8028 156 79.0263 156.089 79.2119 156.267C79.4013 156.445 79.496 156.659 79.496 156.909C79.496 157.159 79.4013 157.373 79.2119 157.551C79.0263 157.729 78.8028 157.818 78.5414 157.818ZM85.4519 159.273V160.409H80.9292V159.273H85.4519ZM82.2474 157.182H83.5883V165.5C83.5883 165.879 83.6432 166.163 83.7531 166.352C83.8667 166.538 84.0106 166.663 84.1849 166.727C84.3629 166.788 84.5504 166.818 84.7474 166.818C84.8951 166.818 85.0163 166.811 85.111 166.795C85.2057 166.777 85.2815 166.761 85.3383 166.75L85.611 167.955C85.5201 167.989 85.3932 168.023 85.2303 168.057C85.0675 168.095 84.861 168.114 84.611 168.114C84.2322 168.114 83.861 168.032 83.4974 167.869C83.1375 167.706 82.8383 167.458 82.5997 167.125C82.3648 166.792 82.2474 166.371 82.2474 165.864V157.182ZM93.3099 162.75V168H91.969V156.364H93.3099V160.636H93.4235C93.6281 160.186 93.9349 159.828 94.344 159.562C94.7569 159.294 95.3061 159.159 95.9917 159.159C96.5864 159.159 97.1072 159.278 97.5542 159.517C98.0012 159.752 98.3478 160.114 98.594 160.602C98.844 161.087 98.969 161.705 98.969 162.455V168H97.6281V162.545C97.6281 161.852 97.4481 161.316 97.0883 160.938C96.7322 160.555 96.2379 160.364 95.6053 160.364C95.1659 160.364 94.772 160.456 94.4235 160.642C94.0788 160.828 93.8061 161.098 93.6053 161.455C93.4084 161.811 93.3099 162.242 93.3099 162.75ZM103.99 168.205C103.437 168.205 102.935 168.1 102.485 167.892C102.034 167.68 101.676 167.375 101.411 166.977C101.146 166.576 101.013 166.091 101.013 165.523C101.013 165.023 101.111 164.617 101.308 164.307C101.505 163.992 101.769 163.746 102.098 163.568C102.428 163.39 102.791 163.258 103.189 163.17C103.591 163.08 103.994 163.008 104.399 162.955C104.93 162.886 105.36 162.835 105.689 162.801C106.022 162.763 106.265 162.701 106.416 162.614C106.572 162.527 106.649 162.375 106.649 162.159V162.114C106.649 161.553 106.496 161.117 106.189 160.807C105.886 160.496 105.426 160.341 104.808 160.341C104.168 160.341 103.666 160.481 103.303 160.761C102.939 161.042 102.683 161.341 102.536 161.659L101.263 161.205C101.49 160.674 101.793 160.261 102.172 159.966C102.555 159.667 102.971 159.458 103.422 159.341C103.877 159.22 104.324 159.159 104.763 159.159C105.043 159.159 105.365 159.193 105.729 159.261C106.096 159.326 106.451 159.46 106.791 159.665C107.136 159.869 107.422 160.178 107.649 160.591C107.877 161.004 107.99 161.557 107.99 162.25V168H106.649V166.818H106.581C106.49 167.008 106.339 167.21 106.127 167.426C105.915 167.642 105.632 167.826 105.28 167.977C104.928 168.129 104.498 168.205 103.99 168.205ZM104.195 167C104.725 167 105.172 166.896 105.536 166.688C105.903 166.479 106.18 166.21 106.365 165.881C106.555 165.551 106.649 165.205 106.649 164.841V163.614C106.593 163.682 106.468 163.744 106.274 163.801C106.085 163.854 105.865 163.902 105.615 163.943C105.369 163.981 105.129 164.015 104.894 164.045C104.663 164.072 104.475 164.095 104.331 164.114C103.983 164.159 103.657 164.233 103.354 164.335C103.055 164.434 102.812 164.583 102.627 164.784C102.445 164.981 102.354 165.25 102.354 165.591C102.354 166.057 102.526 166.409 102.871 166.648C103.219 166.883 103.661 167 104.195 167ZM116.62 161.227L115.415 161.568C115.339 161.367 115.227 161.172 115.08 160.983C114.936 160.79 114.739 160.631 114.489 160.506C114.239 160.381 113.919 160.318 113.529 160.318C112.995 160.318 112.549 160.441 112.193 160.688C111.841 160.93 111.665 161.239 111.665 161.614C111.665 161.947 111.786 162.21 112.029 162.403C112.271 162.597 112.65 162.758 113.165 162.886L114.46 163.205C115.241 163.394 115.822 163.684 116.205 164.074C116.587 164.46 116.779 164.958 116.779 165.568C116.779 166.068 116.635 166.515 116.347 166.909C116.063 167.303 115.665 167.614 115.154 167.841C114.642 168.068 114.048 168.182 113.37 168.182C112.479 168.182 111.743 167.989 111.159 167.602C110.576 167.216 110.207 166.652 110.051 165.909L111.324 165.591C111.445 166.061 111.674 166.413 112.012 166.648C112.352 166.883 112.798 167 113.347 167C113.972 167 114.468 166.867 114.835 166.602C115.207 166.333 115.392 166.011 115.392 165.636C115.392 165.333 115.286 165.08 115.074 164.875C114.862 164.667 114.536 164.511 114.097 164.409L112.642 164.068C111.843 163.879 111.256 163.585 110.881 163.188C110.51 162.786 110.324 162.284 110.324 161.682C110.324 161.189 110.462 160.754 110.739 160.375C111.019 159.996 111.4 159.699 111.881 159.483C112.366 159.267 112.915 159.159 113.529 159.159C114.392 159.159 115.07 159.348 115.563 159.727C116.059 160.106 116.411 160.606 116.62 161.227ZM125.865 168.205C125.312 168.205 124.81 168.1 124.36 167.892C123.909 167.68 123.551 167.375 123.286 166.977C123.021 166.576 122.888 166.091 122.888 165.523C122.888 165.023 122.986 164.617 123.183 164.307C123.38 163.992 123.644 163.746 123.973 163.568C124.303 163.39 124.666 163.258 125.064 163.17C125.466 163.08 125.869 163.008 126.274 162.955C126.805 162.886 127.235 162.835 127.564 162.801C127.897 162.763 128.14 162.701 128.291 162.614C128.447 162.527 128.524 162.375 128.524 162.159V162.114C128.524 161.553 128.371 161.117 128.064 160.807C127.761 160.496 127.301 160.341 126.683 160.341C126.043 160.341 125.541 160.481 125.178 160.761C124.814 161.042 124.558 161.341 124.411 161.659L123.138 161.205C123.365 160.674 123.668 160.261 124.047 159.966C124.43 159.667 124.846 159.458 125.297 159.341C125.752 159.22 126.199 159.159 126.638 159.159C126.918 159.159 127.24 159.193 127.604 159.261C127.971 159.326 128.326 159.46 128.666 159.665C129.011 159.869 129.297 160.178 129.524 160.591C129.752 161.004 129.865 161.557 129.865 162.25V168H128.524V166.818H128.456C128.365 167.008 128.214 167.21 128.002 167.426C127.79 167.642 127.507 167.826 127.155 167.977C126.803 168.129 126.373 168.205 125.865 168.205ZM126.07 167C126.6 167 127.047 166.896 127.411 166.688C127.778 166.479 128.055 166.21 128.24 165.881C128.43 165.551 128.524 165.205 128.524 164.841V163.614C128.468 163.682 128.343 163.744 128.149 163.801C127.96 163.854 127.74 163.902 127.49 163.943C127.244 163.981 127.004 164.015 126.769 164.045C126.538 164.072 126.35 164.095 126.206 164.114C125.858 164.159 125.532 164.233 125.229 164.335C124.93 164.434 124.687 164.583 124.502 164.784C124.32 164.981 124.229 165.25 124.229 165.591C124.229 166.057 124.401 166.409 124.746 166.648C125.094 166.883 125.536 167 126.07 167ZM136.813 168V159.273H138.108V160.636H138.222C138.404 160.17 138.697 159.809 139.102 159.551C139.508 159.29 139.995 159.159 140.563 159.159C141.138 159.159 141.618 159.29 142 159.551C142.387 159.809 142.688 160.17 142.904 160.636H142.995C143.218 160.186 143.553 159.828 144 159.562C144.447 159.294 144.983 159.159 145.608 159.159C146.388 159.159 147.027 159.403 147.523 159.892C148.019 160.377 148.267 161.133 148.267 162.159V168H146.926V162.159C146.926 161.515 146.75 161.055 146.398 160.778C146.046 160.502 145.631 160.364 145.154 160.364C144.54 160.364 144.065 160.549 143.727 160.92C143.39 161.288 143.222 161.754 143.222 162.318V168H141.858V162.023C141.858 161.527 141.697 161.127 141.375 160.824C141.053 160.517 140.638 160.364 140.131 160.364C139.782 160.364 139.457 160.456 139.154 160.642C138.854 160.828 138.612 161.085 138.426 161.415C138.245 161.741 138.154 162.117 138.154 162.545V168H136.813ZM154.264 168.182C153.477 168.182 152.785 167.994 152.191 167.619C151.6 167.244 151.138 166.72 150.804 166.045C150.475 165.371 150.31 164.583 150.31 163.682C150.31 162.773 150.475 161.979 150.804 161.301C151.138 160.623 151.6 160.097 152.191 159.722C152.785 159.347 153.477 159.159 154.264 159.159C155.052 159.159 155.742 159.347 156.333 159.722C156.927 160.097 157.389 160.623 157.719 161.301C158.052 161.979 158.219 162.773 158.219 163.682C158.219 164.583 158.052 165.371 157.719 166.045C157.389 166.72 156.927 167.244 156.333 167.619C155.742 167.994 155.052 168.182 154.264 168.182ZM154.264 166.977C154.863 166.977 155.355 166.824 155.742 166.517C156.128 166.21 156.414 165.807 156.6 165.307C156.785 164.807 156.878 164.265 156.878 163.682C156.878 163.098 156.785 162.555 156.6 162.051C156.414 161.547 156.128 161.14 155.742 160.83C155.355 160.519 154.863 160.364 154.264 160.364C153.666 160.364 153.174 160.519 152.787 160.83C152.401 161.14 152.115 161.547 151.929 162.051C151.744 162.555 151.651 163.098 151.651 163.682C151.651 164.265 151.744 164.807 151.929 165.307C152.115 165.807 152.401 166.21 152.787 166.517C153.174 166.824 153.666 166.977 154.264 166.977ZM160.266 168V159.273H161.561V160.591H161.652C161.811 160.159 162.099 159.809 162.516 159.54C162.933 159.271 163.402 159.136 163.925 159.136C164.023 159.136 164.147 159.138 164.294 159.142C164.442 159.146 164.554 159.152 164.629 159.159V160.523C164.584 160.511 164.48 160.494 164.317 160.472C164.158 160.445 163.989 160.432 163.811 160.432C163.387 160.432 163.008 160.521 162.675 160.699C162.345 160.873 162.084 161.116 161.891 161.426C161.701 161.733 161.607 162.083 161.607 162.477V168H160.266ZM169.612 168.182C168.772 168.182 168.046 167.996 167.436 167.625C166.83 167.25 166.362 166.727 166.033 166.057C165.707 165.383 165.544 164.598 165.544 163.705C165.544 162.811 165.707 162.023 166.033 161.341C166.362 160.655 166.821 160.121 167.408 159.739C167.999 159.352 168.688 159.159 169.476 159.159C169.931 159.159 170.379 159.235 170.823 159.386C171.266 159.538 171.669 159.784 172.033 160.125C172.397 160.462 172.686 160.909 172.902 161.466C173.118 162.023 173.226 162.708 173.226 163.523V164.091H166.499V162.932H171.862C171.862 162.439 171.764 162 171.567 161.614C171.374 161.227 171.097 160.922 170.737 160.699C170.381 160.475 169.961 160.364 169.476 160.364C168.942 160.364 168.48 160.496 168.09 160.761C167.703 161.023 167.406 161.364 167.198 161.784C166.989 162.205 166.885 162.655 166.885 163.136V163.909C166.885 164.568 166.999 165.127 167.226 165.585C167.457 166.04 167.777 166.386 168.186 166.625C168.595 166.86 169.071 166.977 169.612 166.977C169.965 166.977 170.283 166.928 170.567 166.83C170.855 166.727 171.103 166.576 171.311 166.375C171.52 166.17 171.681 165.917 171.794 165.614L173.09 165.977C172.953 166.417 172.724 166.803 172.402 167.136C172.08 167.466 171.683 167.723 171.209 167.909C170.736 168.091 170.203 168.182 169.612 168.182ZM180.266 162.386V163.636H175.175V162.386H180.266ZM186.171 168.182C185.383 168.182 184.692 167.994 184.097 167.619C183.506 167.244 183.044 166.72 182.71 166.045C182.381 165.371 182.216 164.583 182.216 163.682C182.216 162.773 182.381 161.979 182.71 161.301C183.044 160.623 183.506 160.097 184.097 159.722C184.692 159.347 185.383 159.159 186.171 159.159C186.959 159.159 187.648 159.347 188.239 159.722C188.834 160.097 189.296 160.623 189.625 161.301C189.959 161.979 190.125 162.773 190.125 163.682C190.125 164.583 189.959 165.371 189.625 166.045C189.296 166.72 188.834 167.244 188.239 167.619C187.648 167.994 186.959 168.182 186.171 168.182ZM186.171 166.977C186.769 166.977 187.262 166.824 187.648 166.517C188.034 166.21 188.32 165.807 188.506 165.307C188.692 164.807 188.784 164.265 188.784 163.682C188.784 163.098 188.692 162.555 188.506 162.051C188.32 161.547 188.034 161.14 187.648 160.83C187.262 160.519 186.769 160.364 186.171 160.364C185.572 160.364 185.08 160.519 184.693 160.83C184.307 161.14 184.021 161.547 183.835 162.051C183.65 162.555 183.557 163.098 183.557 163.682C183.557 164.265 183.65 164.807 183.835 165.307C184.021 165.807 184.307 166.21 184.693 166.517C185.08 166.824 185.572 166.977 186.171 166.977ZM192.172 168V159.273H193.468V160.591H193.558C193.718 160.159 194.005 159.809 194.422 159.54C194.839 159.271 195.308 159.136 195.831 159.136C195.93 159.136 196.053 159.138 196.201 159.142C196.348 159.146 196.46 159.152 196.536 159.159V160.523C196.49 160.511 196.386 160.494 196.223 160.472C196.064 160.445 195.896 160.432 195.718 160.432C195.293 160.432 194.915 160.521 194.581 160.699C194.252 160.873 193.99 161.116 193.797 161.426C193.608 161.733 193.513 162.083 193.513 162.477V168H192.172ZM202.485 162.386V163.636H197.394V162.386H202.485ZM206.185 156.364V168H204.844V156.364H206.185ZM212.3 168.182C211.459 168.182 210.734 167.996 210.124 167.625C209.518 167.25 209.05 166.727 208.72 166.057C208.395 165.383 208.232 164.598 208.232 163.705C208.232 162.811 208.395 162.023 208.72 161.341C209.05 160.655 209.508 160.121 210.095 159.739C210.686 159.352 211.376 159.159 212.164 159.159C212.618 159.159 213.067 159.235 213.51 159.386C213.953 159.538 214.357 159.784 214.72 160.125C215.084 160.462 215.374 160.909 215.59 161.466C215.806 162.023 215.914 162.708 215.914 163.523V164.091H209.186V162.932H214.55C214.55 162.439 214.451 162 214.254 161.614C214.061 161.227 213.785 160.922 213.425 160.699C213.069 160.475 212.648 160.364 212.164 160.364C211.629 160.364 211.167 160.496 210.777 160.761C210.391 161.023 210.093 161.364 209.885 161.784C209.677 162.205 209.573 162.655 209.573 163.136V163.909C209.573 164.568 209.686 165.127 209.914 165.585C210.145 166.04 210.465 166.386 210.874 166.625C211.283 166.86 211.758 166.977 212.3 166.977C212.652 166.977 212.97 166.928 213.254 166.83C213.542 166.727 213.79 166.576 213.999 166.375C214.207 166.17 214.368 165.917 214.482 165.614L215.777 165.977C215.641 166.417 215.412 166.803 215.09 167.136C214.768 167.466 214.37 167.723 213.897 167.909C213.423 168.091 212.891 168.182 212.3 168.182ZM224.135 161.227L222.931 161.568C222.855 161.367 222.743 161.172 222.595 160.983C222.451 160.79 222.254 160.631 222.004 160.506C221.754 160.381 221.434 160.318 221.044 160.318C220.51 160.318 220.065 160.441 219.709 160.688C219.357 160.93 219.181 161.239 219.181 161.614C219.181 161.947 219.302 162.21 219.544 162.403C219.787 162.597 220.165 162.758 220.681 162.886L221.976 163.205C222.756 163.394 223.338 163.684 223.72 164.074C224.103 164.46 224.294 164.958 224.294 165.568C224.294 166.068 224.15 166.515 223.862 166.909C223.578 167.303 223.181 167.614 222.669 167.841C222.158 168.068 221.563 168.182 220.885 168.182C219.995 168.182 219.258 167.989 218.675 167.602C218.092 167.216 217.722 166.652 217.567 165.909L218.84 165.591C218.961 166.061 219.19 166.413 219.527 166.648C219.868 166.883 220.313 167 220.862 167C221.487 167 221.984 166.867 222.351 166.602C222.722 166.333 222.908 166.011 222.908 165.636C222.908 165.333 222.802 165.08 222.59 164.875C222.378 164.667 222.052 164.511 221.612 164.409L220.158 164.068C219.359 163.879 218.772 163.585 218.397 163.188C218.025 162.786 217.84 162.284 217.84 161.682C217.84 161.189 217.978 160.754 218.254 160.375C218.535 159.996 218.915 159.699 219.397 159.483C219.881 159.267 220.431 159.159 221.044 159.159C221.908 159.159 222.586 159.348 223.078 159.727C223.575 160.106 223.927 160.606 224.135 161.227ZM232.495 161.227L231.29 161.568C231.214 161.367 231.102 161.172 230.955 160.983C230.811 160.79 230.614 160.631 230.364 160.506C230.114 160.381 229.794 160.318 229.404 160.318C228.87 160.318 228.424 160.441 228.068 160.688C227.716 160.93 227.54 161.239 227.54 161.614C227.54 161.947 227.661 162.21 227.904 162.403C228.146 162.597 228.525 162.758 229.04 162.886L230.335 163.205C231.116 163.394 231.697 163.684 232.08 164.074C232.462 164.46 232.654 164.958 232.654 165.568C232.654 166.068 232.51 166.515 232.222 166.909C231.938 167.303 231.54 167.614 231.029 167.841C230.517 168.068 229.923 168.182 229.245 168.182C228.354 168.182 227.618 167.989 227.034 167.602C226.451 167.216 226.082 166.652 225.926 165.909L227.199 165.591C227.32 166.061 227.549 166.413 227.887 166.648C228.227 166.883 228.673 167 229.222 167C229.847 167 230.343 166.867 230.71 166.602C231.082 166.333 231.267 166.011 231.267 165.636C231.267 165.333 231.161 165.08 230.949 164.875C230.737 164.667 230.411 164.511 229.972 164.409L228.517 164.068C227.718 163.879 227.131 163.585 226.756 163.188C226.385 162.786 226.199 162.284 226.199 161.682C226.199 161.189 226.337 160.754 226.614 160.375C226.894 159.996 227.275 159.699 227.756 159.483C228.241 159.267 228.79 159.159 229.404 159.159C230.267 159.159 230.945 159.348 231.438 159.727C231.934 160.106 232.286 160.606 232.495 161.227ZM27.763 188.75V194H26.4221V185.273H27.7176V186.636H27.8312C28.0357 186.193 28.3463 185.837 28.763 185.568C29.1797 185.295 29.7176 185.159 30.3766 185.159C30.9676 185.159 31.4846 185.28 31.9278 185.523C32.371 185.761 32.7157 186.125 32.9619 186.614C33.2081 187.098 33.3312 187.712 33.3312 188.455V194H31.9903V188.545C31.9903 187.86 31.8122 187.326 31.4562 186.943C31.1001 186.557 30.6115 186.364 29.9903 186.364C29.5622 186.364 29.1797 186.456 28.8426 186.642C28.5092 186.828 28.246 187.098 28.0528 187.455C27.8596 187.811 27.763 188.242 27.763 188.75ZM39.3269 194.182C38.539 194.182 37.8478 193.994 37.2531 193.619C36.6622 193.244 36.2 192.72 35.8667 192.045C35.5372 191.371 35.3724 190.583 35.3724 189.682C35.3724 188.773 35.5372 187.979 35.8667 187.301C36.2 186.623 36.6622 186.097 37.2531 185.722C37.8478 185.347 38.539 185.159 39.3269 185.159C40.1148 185.159 40.8042 185.347 41.3951 185.722C41.9898 186.097 42.4519 186.623 42.7815 187.301C43.1148 187.979 43.2815 188.773 43.2815 189.682C43.2815 190.583 43.1148 191.371 42.7815 192.045C42.4519 192.72 41.9898 193.244 41.3951 193.619C40.8042 193.994 40.1148 194.182 39.3269 194.182ZM39.3269 192.977C39.9254 192.977 40.4178 192.824 40.8042 192.517C41.1906 192.21 41.4765 191.807 41.6622 191.307C41.8478 190.807 41.9406 190.265 41.9406 189.682C41.9406 189.098 41.8478 188.555 41.6622 188.051C41.4765 187.547 41.1906 187.14 40.8042 186.83C40.4178 186.519 39.9254 186.364 39.3269 186.364C38.7284 186.364 38.236 186.519 37.8497 186.83C37.4633 187.14 37.1773 187.547 36.9917 188.051C36.8061 188.555 36.7133 189.098 36.7133 189.682C36.7133 190.265 36.8061 190.807 36.9917 191.307C37.1773 191.807 37.4633 192.21 37.8497 192.517C38.236 192.824 38.7284 192.977 39.3269 192.977ZM45.3283 194V185.273H46.6238V186.591H46.7147C46.8738 186.159 47.1617 185.809 47.5783 185.54C47.995 185.271 48.4647 185.136 48.9874 185.136C49.0859 185.136 49.209 185.138 49.3568 185.142C49.5045 185.146 49.6162 185.152 49.692 185.159V186.523C49.6465 186.511 49.5424 186.494 49.3795 186.472C49.2204 186.445 49.0518 186.432 48.8738 186.432C48.4496 186.432 48.0708 186.521 47.7374 186.699C47.4079 186.873 47.1465 187.116 46.9533 187.426C46.764 187.733 46.6693 188.083 46.6693 188.477V194H45.3283ZM51.2815 194V185.273H52.5769V186.636H52.6906C52.8724 186.17 53.1659 185.809 53.5712 185.551C53.9765 185.29 54.4633 185.159 55.0315 185.159C55.6072 185.159 56.0864 185.29 56.469 185.551C56.8553 185.809 57.1565 186.17 57.3724 186.636H57.4633C57.6868 186.186 58.022 185.828 58.469 185.562C58.9159 185.294 59.4519 185.159 60.0769 185.159C60.8572 185.159 61.4955 185.403 61.9917 185.892C62.4879 186.377 62.736 187.133 62.736 188.159V194H61.3951V188.159C61.3951 187.515 61.219 187.055 60.8667 186.778C60.5144 186.502 60.0997 186.364 59.6224 186.364C59.0087 186.364 58.5334 186.549 58.1962 186.92C57.8591 187.288 57.6906 187.754 57.6906 188.318V194H56.3269V188.023C56.3269 187.527 56.1659 187.127 55.844 186.824C55.522 186.517 55.1072 186.364 54.5997 186.364C54.2512 186.364 53.9254 186.456 53.6224 186.642C53.3231 186.828 53.0807 187.085 52.8951 187.415C52.7133 187.741 52.6224 188.117 52.6224 188.545V194H51.2815ZM67.7559 194.205C67.2029 194.205 66.701 194.1 66.2502 193.892C65.7995 193.68 65.4415 193.375 65.1764 192.977C64.9112 192.576 64.7786 192.091 64.7786 191.523C64.7786 191.023 64.8771 190.617 65.0741 190.307C65.2711 189.992 65.5343 189.746 65.8639 189.568C66.1934 189.39 66.557 189.258 66.9548 189.17C67.3563 189.08 67.7597 189.008 68.165 188.955C68.6953 188.886 69.1252 188.835 69.4548 188.801C69.7881 188.763 70.0305 188.701 70.182 188.614C70.3373 188.527 70.415 188.375 70.415 188.159V188.114C70.415 187.553 70.2616 187.117 69.9548 186.807C69.6517 186.496 69.1915 186.341 68.5741 186.341C67.9339 186.341 67.432 186.481 67.0684 186.761C66.7048 187.042 66.4491 187.341 66.3014 187.659L65.0286 187.205C65.2559 186.674 65.5589 186.261 65.9377 185.966C66.3203 185.667 66.737 185.458 67.1877 185.341C67.6423 185.22 68.0892 185.159 68.5286 185.159C68.8089 185.159 69.1309 185.193 69.4945 185.261C69.862 185.326 70.2161 185.46 70.557 185.665C70.9017 185.869 71.1877 186.178 71.415 186.591C71.6423 187.004 71.7559 187.557 71.7559 188.25V194H70.415V192.818H70.3468C70.2559 193.008 70.1044 193.21 69.8923 193.426C69.6801 193.642 69.3979 193.826 69.0457 193.977C68.6934 194.129 68.2635 194.205 67.7559 194.205ZM67.9604 193C68.4908 193 68.9377 192.896 69.3014 192.688C69.6688 192.479 69.9453 192.21 70.1309 191.881C70.3203 191.551 70.415 191.205 70.415 190.841V189.614C70.3582 189.682 70.2332 189.744 70.04 189.801C69.8506 189.854 69.6309 189.902 69.3809 189.943C69.1347 189.981 68.8942 190.015 68.6593 190.045C68.4283 190.072 68.2408 190.095 68.0968 190.114C67.7483 190.159 67.4226 190.233 67.1195 190.335C66.8203 190.434 66.5779 190.583 66.3923 190.784C66.2104 190.981 66.1195 191.25 66.1195 191.591C66.1195 192.057 66.2919 192.409 66.6366 192.648C66.9851 192.883 67.4264 193 67.9604 193ZM75.5443 182.364V194H74.2033V182.364H75.5443ZM85.7957 194.182C85.0684 194.182 84.4264 193.998 83.8695 193.631C83.3127 193.259 82.8771 192.737 82.5627 192.062C82.2483 191.384 82.0911 190.583 82.0911 189.659C82.0911 188.742 82.2483 187.947 82.5627 187.273C82.8771 186.598 83.3146 186.078 83.8752 185.71C84.4358 185.343 85.0836 185.159 85.8184 185.159C86.3866 185.159 86.8354 185.254 87.165 185.443C87.4983 185.629 87.7521 185.841 87.9264 186.08C88.1044 186.314 88.2426 186.508 88.3411 186.659H88.4548V182.364H89.7957V194H88.5002V192.659H88.3411C88.2426 192.818 88.1025 193.019 87.9207 193.261C87.7389 193.5 87.4794 193.714 87.1423 193.903C86.8051 194.089 86.3563 194.182 85.7957 194.182ZM85.9775 192.977C86.5154 192.977 86.9699 192.837 87.3411 192.557C87.7123 192.273 87.9945 191.881 88.1877 191.381C88.3809 190.877 88.4775 190.295 88.4775 189.636C88.4775 188.985 88.3828 188.415 88.1934 187.926C88.004 187.434 87.7237 187.051 87.3525 186.778C86.9813 186.502 86.5229 186.364 85.9775 186.364C85.4093 186.364 84.9358 186.509 84.557 186.801C84.182 187.089 83.8998 187.481 83.7104 187.977C83.5248 188.47 83.432 189.023 83.432 189.636C83.432 190.258 83.5267 190.822 83.7161 191.33C83.9093 191.833 84.1934 192.235 84.5684 192.534C84.9472 192.83 85.4169 192.977 85.9775 192.977ZM92.4377 194V185.273H93.7786V194H92.4377ZM93.1195 183.818C92.8582 183.818 92.6328 183.729 92.4434 183.551C92.2578 183.373 92.165 183.159 92.165 182.909C92.165 182.659 92.2578 182.445 92.4434 182.267C92.6328 182.089 92.8582 182 93.1195 182C93.3809 182 93.6044 182.089 93.79 182.267C93.9794 182.445 94.0741 182.659 94.0741 182.909C94.0741 183.159 93.9794 183.373 93.79 183.551C93.6044 183.729 93.3809 183.818 93.1195 183.818ZM102.416 187.227L101.212 187.568C101.136 187.367 101.024 187.172 100.877 186.983C100.733 186.79 100.536 186.631 100.286 186.506C100.036 186.381 99.7157 186.318 99.3255 186.318C98.7914 186.318 98.3463 186.441 97.9903 186.688C97.638 186.93 97.4619 187.239 97.4619 187.614C97.4619 187.947 97.5831 188.21 97.8255 188.403C98.0679 188.597 98.4467 188.758 98.9619 188.886L100.257 189.205C101.038 189.394 101.619 189.684 102.002 190.074C102.384 190.46 102.576 190.958 102.576 191.568C102.576 192.068 102.432 192.515 102.144 192.909C101.86 193.303 101.462 193.614 100.951 193.841C100.439 194.068 99.8444 194.182 99.1664 194.182C98.2763 194.182 97.5395 193.989 96.9562 193.602C96.3729 193.216 96.0035 192.652 95.8482 191.909L97.121 191.591C97.2422 192.061 97.4713 192.413 97.8085 192.648C98.1494 192.883 98.5944 193 99.1437 193C99.7687 193 100.265 192.867 100.632 192.602C101.004 192.333 101.189 192.011 101.189 191.636C101.189 191.333 101.083 191.08 100.871 190.875C100.659 190.667 100.333 190.511 99.8937 190.409L98.4391 190.068C97.6399 189.879 97.0528 189.585 96.6778 189.188C96.3066 188.786 96.121 188.284 96.121 187.682C96.121 187.189 96.2592 186.754 96.5357 186.375C96.816 185.996 97.1967 185.699 97.6778 185.483C98.1626 185.267 98.7119 185.159 99.3255 185.159C100.189 185.159 100.867 185.348 101.36 185.727C101.856 186.106 102.208 186.606 102.416 187.227ZM108.389 185.273V186.409H103.867V185.273H108.389ZM105.185 183.182H106.526V191.5C106.526 191.879 106.581 192.163 106.691 192.352C106.804 192.538 106.948 192.663 107.122 192.727C107.3 192.788 107.488 192.818 107.685 192.818C107.833 192.818 107.954 192.811 108.049 192.795C108.143 192.777 108.219 192.761 108.276 192.75L108.549 193.955C108.458 193.989 108.331 194.023 108.168 194.057C108.005 194.095 107.799 194.114 107.549 194.114C107.17 194.114 106.799 194.032 106.435 193.869C106.075 193.706 105.776 193.458 105.537 193.125C105.302 192.792 105.185 192.371 105.185 191.864V183.182ZM110.406 194V185.273H111.702V186.591H111.793C111.952 186.159 112.24 185.809 112.656 185.54C113.073 185.271 113.543 185.136 114.066 185.136C114.164 185.136 114.287 185.138 114.435 185.142C114.583 185.146 114.694 185.152 114.77 185.159V186.523C114.725 186.511 114.62 186.494 114.458 186.472C114.299 186.445 114.13 186.432 113.952 186.432C113.528 186.432 113.149 186.521 112.816 186.699C112.486 186.873 112.225 187.116 112.031 187.426C111.842 187.733 111.747 188.083 111.747 188.477V194H110.406ZM116.36 194V185.273H117.701V194H116.36ZM117.041 183.818C116.78 183.818 116.555 183.729 116.365 183.551C116.18 183.373 116.087 183.159 116.087 182.909C116.087 182.659 116.18 182.445 116.365 182.267C116.555 182.089 116.78 182 117.041 182C117.303 182 117.526 182.089 117.712 182.267C117.901 182.445 117.996 182.659 117.996 182.909C117.996 183.159 117.901 183.373 117.712 183.551C117.526 183.729 117.303 183.818 117.041 183.818ZM120.338 194V182.364H121.679V186.659H121.793C121.891 186.508 122.028 186.314 122.202 186.08C122.38 185.841 122.634 185.629 122.963 185.443C123.297 185.254 123.747 185.159 124.316 185.159C125.05 185.159 125.698 185.343 126.259 185.71C126.819 186.078 127.257 186.598 127.571 187.273C127.886 187.947 128.043 188.742 128.043 189.659C128.043 190.583 127.886 191.384 127.571 192.062C127.257 192.737 126.821 193.259 126.264 193.631C125.708 193.998 125.066 194.182 124.338 194.182C123.778 194.182 123.329 194.089 122.992 193.903C122.655 193.714 122.395 193.5 122.213 193.261C122.031 193.019 121.891 192.818 121.793 192.659H121.634V194H120.338ZM121.656 189.636C121.656 190.295 121.753 190.877 121.946 191.381C122.139 191.881 122.422 192.273 122.793 192.557C123.164 192.837 123.619 192.977 124.156 192.977C124.717 192.977 125.185 192.83 125.56 192.534C125.939 192.235 126.223 191.833 126.412 191.33C126.605 190.822 126.702 190.258 126.702 189.636C126.702 189.023 126.607 188.47 126.418 187.977C126.232 187.481 125.95 187.089 125.571 186.801C125.196 186.509 124.725 186.364 124.156 186.364C123.611 186.364 123.153 186.502 122.781 186.778C122.41 187.051 122.13 187.434 121.941 187.926C121.751 188.415 121.656 188.985 121.656 189.636ZM135.594 190.432V185.273H136.935V194H135.594V192.523H135.503C135.299 192.966 134.98 193.343 134.549 193.653C134.117 193.96 133.571 194.114 132.912 194.114C132.367 194.114 131.882 193.994 131.458 193.756C131.033 193.513 130.7 193.15 130.458 192.665C130.215 192.176 130.094 191.561 130.094 190.818V185.273H131.435V190.727C131.435 191.364 131.613 191.871 131.969 192.25C132.329 192.629 132.787 192.818 133.344 192.818C133.677 192.818 134.016 192.733 134.361 192.562C134.71 192.392 135.001 192.131 135.236 191.778C135.475 191.426 135.594 190.977 135.594 190.432ZM143.186 185.273V186.409H138.664V185.273H143.186ZM139.982 183.182H141.323V191.5C141.323 191.879 141.378 192.163 141.487 192.352C141.601 192.538 141.745 192.663 141.919 192.727C142.097 192.788 142.285 192.818 142.482 192.818C142.629 192.818 142.751 192.811 142.845 192.795C142.94 192.777 143.016 192.761 143.073 192.75L143.345 193.955C143.254 193.989 143.128 194.023 142.965 194.057C142.802 194.095 142.595 194.114 142.345 194.114C141.967 194.114 141.595 194.032 141.232 193.869C140.872 193.706 140.573 193.458 140.334 193.125C140.099 192.792 139.982 192.371 139.982 191.864V183.182ZM145.203 194V185.273H146.544V194H145.203ZM145.885 183.818C145.624 183.818 145.398 183.729 145.209 183.551C145.023 183.373 144.931 183.159 144.931 182.909C144.931 182.659 145.023 182.445 145.209 182.267C145.398 182.089 145.624 182 145.885 182C146.147 182 146.37 182.089 146.556 182.267C146.745 182.445 146.84 182.659 146.84 182.909C146.84 183.159 146.745 183.373 146.556 183.551C146.37 183.729 146.147 183.818 145.885 183.818ZM152.546 194.182C151.758 194.182 151.067 193.994 150.472 193.619C149.881 193.244 149.419 192.72 149.085 192.045C148.756 191.371 148.591 190.583 148.591 189.682C148.591 188.773 148.756 187.979 149.085 187.301C149.419 186.623 149.881 186.097 150.472 185.722C151.067 185.347 151.758 185.159 152.546 185.159C153.334 185.159 154.023 185.347 154.614 185.722C155.209 186.097 155.671 186.623 156 187.301C156.334 187.979 156.5 188.773 156.5 189.682C156.5 190.583 156.334 191.371 156 192.045C155.671 192.72 155.209 193.244 154.614 193.619C154.023 193.994 153.334 194.182 152.546 194.182ZM152.546 192.977C153.144 192.977 153.637 192.824 154.023 192.517C154.409 192.21 154.695 191.807 154.881 191.307C155.067 190.807 155.159 190.265 155.159 189.682C155.159 189.098 155.067 188.555 154.881 188.051C154.695 187.547 154.409 187.14 154.023 186.83C153.637 186.519 153.144 186.364 152.546 186.364C151.947 186.364 151.455 186.519 151.068 186.83C150.682 187.14 150.396 187.547 150.21 188.051C150.025 188.555 149.932 189.098 149.932 189.682C149.932 190.265 150.025 190.807 150.21 191.307C150.396 191.807 150.682 192.21 151.068 192.517C151.455 192.824 151.947 192.977 152.546 192.977ZM159.888 188.75V194H158.547V185.273H159.843V186.636H159.956C160.161 186.193 160.471 185.837 160.888 185.568C161.305 185.295 161.843 185.159 162.502 185.159C163.093 185.159 163.61 185.28 164.053 185.523C164.496 185.761 164.841 186.125 165.087 186.614C165.333 187.098 165.456 187.712 165.456 188.455V194H164.115V188.545C164.115 187.86 163.937 187.326 163.581 186.943C163.225 186.557 162.736 186.364 162.115 186.364C161.687 186.364 161.305 186.456 160.968 186.642C160.634 186.828 160.371 187.098 160.178 187.455C159.985 187.811 159.888 188.242 159.888 188.75ZM175.952 194.182C175.164 194.182 174.473 193.994 173.878 193.619C173.287 193.244 172.825 192.72 172.492 192.045C172.162 191.371 171.997 190.583 171.997 189.682C171.997 188.773 172.162 187.979 172.492 187.301C172.825 186.623 173.287 186.097 173.878 185.722C174.473 185.347 175.164 185.159 175.952 185.159C176.74 185.159 177.429 185.347 178.02 185.722C178.615 186.097 179.077 186.623 179.406 187.301C179.74 187.979 179.906 188.773 179.906 189.682C179.906 190.583 179.74 191.371 179.406 192.045C179.077 192.72 178.615 193.244 178.02 193.619C177.429 193.994 176.74 194.182 175.952 194.182ZM175.952 192.977C176.55 192.977 177.043 192.824 177.429 192.517C177.816 192.21 178.102 191.807 178.287 191.307C178.473 190.807 178.566 190.265 178.566 189.682C178.566 189.098 178.473 188.555 178.287 188.051C178.102 187.547 177.816 187.14 177.429 186.83C177.043 186.519 176.55 186.364 175.952 186.364C175.353 186.364 174.861 186.519 174.475 186.83C174.088 187.14 173.802 187.547 173.617 188.051C173.431 188.555 173.338 189.098 173.338 189.682C173.338 190.265 173.431 190.807 173.617 191.307C173.802 191.807 174.088 192.21 174.475 192.517C174.861 192.824 175.353 192.977 175.952 192.977ZM185.84 185.273V186.409H181.135V185.273H185.84ZM182.544 194V184.068C182.544 183.568 182.662 183.152 182.897 182.818C183.131 182.485 183.436 182.235 183.811 182.068C184.186 181.902 184.582 181.818 184.999 181.818C185.328 181.818 185.597 181.845 185.806 181.898C186.014 181.951 186.169 182 186.272 182.045L185.885 183.205C185.817 183.182 185.722 183.153 185.601 183.119C185.484 183.085 185.328 183.068 185.135 183.068C184.692 183.068 184.372 183.18 184.175 183.403C183.982 183.627 183.885 183.955 183.885 184.386V194H182.544ZM193.56 182.364V194H192.219V182.364H193.56ZM199.675 194.182C198.834 194.182 198.109 193.996 197.499 193.625C196.893 193.25 196.425 192.727 196.095 192.057C195.77 191.383 195.607 190.598 195.607 189.705C195.607 188.811 195.77 188.023 196.095 187.341C196.425 186.655 196.883 186.121 197.47 185.739C198.061 185.352 198.751 185.159 199.539 185.159C199.993 185.159 200.442 185.235 200.885 185.386C201.328 185.538 201.732 185.784 202.095 186.125C202.459 186.462 202.749 186.909 202.965 187.466C203.181 188.023 203.289 188.708 203.289 189.523V190.091H196.561V188.932H201.925C201.925 188.439 201.826 188 201.629 187.614C201.436 187.227 201.16 186.922 200.8 186.699C200.444 186.475 200.023 186.364 199.539 186.364C199.004 186.364 198.542 186.496 198.152 186.761C197.766 187.023 197.468 187.364 197.26 187.784C197.052 188.205 196.948 188.655 196.948 189.136V189.909C196.948 190.568 197.061 191.127 197.289 191.585C197.52 192.04 197.84 192.386 198.249 192.625C198.658 192.86 199.133 192.977 199.675 192.977C200.027 192.977 200.345 192.928 200.629 192.83C200.917 192.727 201.165 192.576 201.374 192.375C201.582 192.17 201.743 191.917 201.857 191.614L203.152 191.977C203.016 192.417 202.787 192.803 202.465 193.136C202.143 193.466 201.745 193.723 201.272 193.909C200.798 194.091 200.266 194.182 199.675 194.182ZM209.124 185.273V186.409H204.601V185.273H209.124ZM205.919 183.182H207.26V191.5C207.26 191.879 207.315 192.163 207.425 192.352C207.539 192.538 207.683 192.663 207.857 192.727C208.035 192.788 208.222 192.818 208.419 192.818C208.567 192.818 208.688 192.811 208.783 192.795C208.878 192.777 208.953 192.761 209.01 192.75L209.283 193.955C209.192 193.989 209.065 194.023 208.902 194.057C208.739 194.095 208.533 194.114 208.283 194.114C207.904 194.114 207.533 194.032 207.169 193.869C206.809 193.706 206.51 193.458 206.272 193.125C206.037 192.792 205.919 192.371 205.919 191.864V183.182ZM214.936 185.273V186.409H210.414V185.273H214.936ZM211.732 183.182H213.073V191.5C213.073 191.879 213.128 192.163 213.237 192.352C213.351 192.538 213.495 192.663 213.669 192.727C213.847 192.788 214.035 192.818 214.232 192.818C214.379 192.818 214.501 192.811 214.595 192.795C214.69 192.777 214.766 192.761 214.823 192.75L215.095 193.955C215.004 193.989 214.878 194.023 214.715 194.057C214.552 194.095 214.345 194.114 214.095 194.114C213.717 194.114 213.345 194.032 212.982 193.869C212.622 193.706 212.323 193.458 212.084 193.125C211.849 192.792 211.732 192.371 211.732 191.864V183.182ZM220.519 194.182C219.678 194.182 218.952 193.996 218.343 193.625C217.736 193.25 217.269 192.727 216.939 192.057C216.613 191.383 216.451 190.598 216.451 189.705C216.451 188.811 216.613 188.023 216.939 187.341C217.269 186.655 217.727 186.121 218.314 185.739C218.905 185.352 219.594 185.159 220.382 185.159C220.837 185.159 221.286 185.235 221.729 185.386C222.172 185.538 222.576 185.784 222.939 186.125C223.303 186.462 223.593 186.909 223.808 187.466C224.024 188.023 224.132 188.708 224.132 189.523V190.091H217.405V188.932H222.769C222.769 188.439 222.67 188 222.473 187.614C222.28 187.227 222.004 186.922 221.644 186.699C221.288 186.475 220.867 186.364 220.382 186.364C219.848 186.364 219.386 186.496 218.996 186.761C218.61 187.023 218.312 187.364 218.104 187.784C217.896 188.205 217.791 188.655 217.791 189.136V189.909C217.791 190.568 217.905 191.127 218.132 191.585C218.363 192.04 218.683 192.386 219.093 192.625C219.502 192.86 219.977 192.977 220.519 192.977C220.871 192.977 221.189 192.928 221.473 192.83C221.761 192.727 222.009 192.576 222.218 192.375C222.426 192.17 222.587 191.917 222.701 191.614L223.996 191.977C223.86 192.417 223.63 192.803 223.308 193.136C222.986 193.466 222.589 193.723 222.115 193.909C221.642 194.091 221.11 194.182 220.519 194.182ZM226.172 194V185.273H227.468V186.591H227.558C227.718 186.159 228.005 185.809 228.422 185.54C228.839 185.271 229.308 185.136 229.831 185.136C229.93 185.136 230.053 185.138 230.201 185.142C230.348 185.146 230.46 185.152 230.536 185.159V186.523C230.49 186.511 230.386 186.494 230.223 186.472C230.064 186.445 229.896 186.432 229.718 186.432C229.293 186.432 228.915 186.521 228.581 186.699C228.252 186.873 227.99 187.116 227.797 187.426C227.608 187.733 227.513 188.083 227.513 188.477V194H226.172ZM238.307 187.227L237.102 187.568C237.027 187.367 236.915 187.172 236.767 186.983C236.623 186.79 236.426 186.631 236.176 186.506C235.926 186.381 235.606 186.318 235.216 186.318C234.682 186.318 234.237 186.441 233.881 186.688C233.529 186.93 233.352 187.239 233.352 187.614C233.352 187.947 233.474 188.21 233.716 188.403C233.959 188.597 234.337 188.758 234.852 188.886L236.148 189.205C236.928 189.394 237.51 189.684 237.892 190.074C238.275 190.46 238.466 190.958 238.466 191.568C238.466 192.068 238.322 192.515 238.034 192.909C237.75 193.303 237.352 193.614 236.841 193.841C236.33 194.068 235.735 194.182 235.057 194.182C234.167 194.182 233.43 193.989 232.847 193.602C232.263 193.216 231.894 192.652 231.739 191.909L233.012 191.591C233.133 192.061 233.362 192.413 233.699 192.648C234.04 192.883 234.485 193 235.034 193C235.659 193 236.156 192.867 236.523 192.602C236.894 192.333 237.08 192.011 237.08 191.636C237.08 191.333 236.974 191.08 236.762 190.875C236.549 190.667 236.224 190.511 235.784 190.409L234.33 190.068C233.531 189.879 232.943 189.585 232.568 189.188C232.197 188.786 232.012 188.284 232.012 187.682C232.012 187.189 232.15 186.754 232.426 186.375C232.707 185.996 233.087 185.699 233.568 185.483C234.053 185.267 234.602 185.159 235.216 185.159C236.08 185.159 236.758 185.348 237.25 185.727C237.746 186.106 238.099 186.606 238.307 187.227Z" fill="white"/>
</svg>
