<svg width="290" height="267" viewBox="0 0 290 267" fill="none" xmlns="http://www.w3.org/2000/svg">
<rect width="290" height="267" rx="10" fill="#F57520"/>
<path d="M33.598 55V40.4545H42.6676V42.3438H35.7926V46.321H39.0455C40.125 46.321 41.0412 46.4962 41.794 46.8466C42.5516 47.197 43.1293 47.6918 43.527 48.331C43.9295 48.9702 44.1307 49.723 44.1307 50.5895C44.1307 51.456 43.9295 52.2206 43.527 52.8835C43.1293 53.5464 42.5516 54.0649 41.794 54.4389C41.0412 54.813 40.125 55 39.0455 55H33.598ZM35.7926 53.1534H39.0455C39.6705 53.1534 40.1984 53.0303 40.6293 52.7841C41.0649 52.5379 41.3939 52.2183 41.6165 51.8253C41.8438 51.4323 41.9574 51.0109 41.9574 50.5611C41.9574 49.9077 41.7064 49.3466 41.2045 48.8778C40.7027 48.4044 39.983 48.1676 39.0455 48.1676H35.7926V53.1534ZM46.923 55V40.4545H56.0423V42.3438H49.1176V46.7756H55.5665V48.6577H49.1176V53.1108H56.1276V55H46.923ZM71.2548 45.1847H69.0388C68.9536 44.7112 68.795 44.2945 68.563 43.9347C68.331 43.5748 68.0469 43.2694 67.7107 43.0185C67.3746 42.7675 66.9981 42.5781 66.5815 42.4503C66.1695 42.3224 65.7316 42.2585 65.2675 42.2585C64.4295 42.2585 63.679 42.4692 63.0161 42.8906C62.358 43.312 61.8371 43.9299 61.4536 44.7443C61.0748 45.5587 60.8854 46.553 60.8854 47.7273C60.8854 48.911 61.0748 49.91 61.4536 50.7244C61.8371 51.5388 62.3603 52.1544 63.0232 52.571C63.6861 52.9877 64.4318 53.196 65.2604 53.196C65.7197 53.196 66.1553 53.1345 66.5673 53.0114C66.9839 52.8835 67.3603 52.6965 67.6965 52.4503C68.0327 52.2041 68.3168 51.9034 68.5488 51.5483C68.7855 51.1884 68.9489 50.7765 69.0388 50.3125L71.2548 50.3196C71.1364 51.0346 70.9067 51.6927 70.5658 52.294C70.2297 52.8906 69.7964 53.4067 69.2661 53.8423C68.7406 54.2732 68.1392 54.607 67.4621 54.8438C66.7851 55.0805 66.0464 55.1989 65.2462 55.1989C63.9868 55.1989 62.8646 54.9006 61.8798 54.304C60.8949 53.7027 60.1184 52.8433 59.5502 51.7259C58.9868 50.6084 58.705 49.2756 58.705 47.7273C58.705 46.1742 58.9891 44.8414 59.5573 43.7287C60.1255 42.6113 60.902 41.7543 61.8869 41.1577C62.8717 40.5563 63.9915 40.2557 65.2462 40.2557C66.018 40.2557 66.7377 40.367 67.4053 40.5895C68.0777 40.8073 68.6814 41.1293 69.2164 41.5554C69.7514 41.9768 70.1942 42.4929 70.5445 43.1037C70.8949 43.7098 71.1317 44.4034 71.2548 45.1847ZM85.4516 40.4545V55H83.2641V42.3295H76.4175V55H74.23V40.4545H85.4516ZM87.9065 55V53.0966L88.3327 53.0824C88.9103 53.0682 89.3649 52.8717 89.6963 52.4929C90.0325 52.1141 90.2763 51.5033 90.4278 50.6605C90.5841 49.8177 90.6883 48.6932 90.7403 47.2869L90.9889 40.4545H100.186V55H98.0202V42.3153H93.0557L92.8284 47.8693C92.7669 49.4271 92.6106 50.7363 92.3597 51.7969C92.1087 52.8527 91.6826 53.6506 91.0812 54.1903C90.4847 54.7301 89.6348 55 88.5315 55H87.9065ZM104.811 55H102.482L107.716 40.4545H110.251L115.486 55H113.156L109.044 43.0966H108.93L104.811 55ZM105.202 49.304H112.759V51.1506H105.202V49.304ZM115.35 42.3438V40.4545H126.607V42.3438H122.069V55H119.881V42.3438H115.35ZM129.295 55V40.4545H131.489V46.7756H138.741V40.4545H140.943V55H138.741V48.6577H131.489V55H129.295ZM145.567 55H143.238L148.472 40.4545H151.008L156.242 55H153.912L149.8 43.0966H149.687L145.567 55ZM145.958 49.304H153.515V51.1506H145.958V49.304ZM168.855 55H166.653V42.3366H163.898C163.178 42.3366 162.593 42.4455 162.143 42.6634C161.694 42.8764 161.365 43.1842 161.156 43.5866C160.948 43.9891 160.844 44.465 160.844 45.0142C160.844 45.5587 160.948 46.0251 161.156 46.4134C161.365 46.8016 161.691 47.0975 162.136 47.3011C162.581 47.5047 163.161 47.6065 163.876 47.6065H167.605V49.4957H163.67C162.548 49.4957 161.613 49.3087 160.865 48.9347C160.122 48.5606 159.563 48.0374 159.189 47.3651C158.82 46.688 158.635 45.9044 158.635 45.0142C158.635 44.1193 158.82 43.331 159.189 42.6491C159.558 41.9626 160.115 41.4252 160.858 41.0369C161.606 40.6487 162.541 40.4545 163.663 40.4545H168.855V55ZM161.675 48.4375H164.104L160.574 55H158.081L161.675 48.4375ZM32.4972 90.5156V85.1392H33.456C33.7827 84.8646 34.0881 84.474 34.3722 83.9673C34.6563 83.4607 34.8977 82.7765 35.0966 81.9148C35.2955 81.053 35.4328 79.9474 35.5085 78.598L35.8494 72.4545H44.8196V85.1392H46.4673V90.4943H44.3651V87H34.5994V90.5156H32.4972ZM36.0412 85.1392H42.7173V74.3438H37.8381L37.6108 78.598C37.5492 79.6255 37.4474 80.5488 37.3054 81.3679C37.1681 82.187 36.9905 82.9115 36.7727 83.5412C36.5597 84.1662 36.3158 84.6989 36.0412 85.1392ZM61.7064 79.7273C61.7064 81.2803 61.4223 82.6155 60.8541 83.733C60.2859 84.8456 59.5071 85.7027 58.5175 86.304C57.5326 86.9006 56.4128 87.1989 55.1581 87.1989C53.8986 87.1989 52.7741 86.9006 51.7845 86.304C50.7997 85.7027 50.0232 84.8433 49.455 83.7259C48.8868 82.6084 48.6027 81.2756 48.6027 79.7273C48.6027 78.1742 48.8868 76.8414 49.455 75.7287C50.0232 74.6113 50.7997 73.7543 51.7845 73.1577C52.7741 72.5563 53.8986 72.2557 55.1581 72.2557C56.4128 72.2557 57.5326 72.5563 58.5175 73.1577C59.5071 73.7543 60.2859 74.6113 60.8541 75.7287C61.4223 76.8414 61.7064 78.1742 61.7064 79.7273ZM59.5331 79.7273C59.5331 78.5436 59.3413 77.5469 58.9578 76.7372C58.579 75.9228 58.0582 75.3073 57.3953 74.8906C56.7372 74.4692 55.9914 74.2585 55.1581 74.2585C54.32 74.2585 53.5719 74.4692 52.9138 74.8906C52.2556 75.3073 51.7348 75.9228 51.3513 76.7372C50.9725 77.5469 50.7831 78.5436 50.7831 79.7273C50.7831 80.911 50.9725 81.91 51.3513 82.7244C51.7348 83.5341 52.2556 84.1496 52.9138 84.571C53.5719 84.9877 54.32 85.196 55.1581 85.196C55.9914 85.196 56.7372 84.9877 57.3953 84.571C58.0582 84.1496 58.579 83.5341 58.9578 82.7244C59.3413 81.91 59.5331 80.911 59.5331 79.7273ZM76.7235 77.1847H74.5076C74.4224 76.7112 74.2638 76.2945 74.0317 75.9347C73.7997 75.5748 73.5156 75.2694 73.1795 75.0185C72.8433 74.7675 72.4669 74.5781 72.0502 74.4503C71.6383 74.3224 71.2003 74.2585 70.7363 74.2585C69.8982 74.2585 69.1478 74.4692 68.4849 74.8906C67.8267 75.312 67.3059 75.9299 66.9224 76.7443C66.5436 77.5587 66.3542 78.553 66.3542 79.7273C66.3542 80.911 66.5436 81.91 66.9224 82.7244C67.3059 83.5388 67.8291 84.1544 68.492 84.571C69.1549 84.9877 69.9006 85.196 70.7292 85.196C71.1885 85.196 71.6241 85.1345 72.036 85.0114C72.4527 84.8835 72.8291 84.6965 73.1653 84.4503C73.5014 84.2041 73.7855 83.9034 74.0175 83.5483C74.2543 83.1884 74.4176 82.7765 74.5076 82.3125L76.7235 82.3196C76.6051 83.0346 76.3755 83.6927 76.0346 84.294C75.6984 84.8906 75.2652 85.4067 74.7349 85.8423C74.2093 86.2732 73.608 86.607 72.9309 86.8438C72.2538 87.0805 71.5152 87.1989 70.715 87.1989C69.4555 87.1989 68.3334 86.9006 67.3485 86.304C66.3637 85.7027 65.5871 84.8433 65.019 83.7259C64.4555 82.6084 64.1738 81.2756 64.1738 79.7273C64.1738 78.1742 64.4579 76.8414 65.0261 75.7287C65.5942 74.6113 66.3708 73.7543 67.3556 73.1577C68.3405 72.5563 69.4603 72.2557 70.715 72.2557C71.4868 72.2557 72.2065 72.367 72.8741 72.5895C73.5464 72.8073 74.1501 73.1293 74.6852 73.5554C75.2202 73.9768 75.6629 74.4929 76.0133 75.1037C76.3637 75.7098 76.6004 76.4034 76.7235 77.1847ZM78.8322 74.3438V72.4545H90.0893V74.3438H85.551V87H83.3635V74.3438H78.8322ZM92.2869 87H89.9573L95.1917 72.4545H97.7272L102.962 87H100.632L96.5198 75.0966H96.4062L92.2869 87ZM92.6775 81.304H100.234V83.1506H92.6775V81.304ZM105.262 87V72.4545H110.589C111.621 72.4545 112.476 72.625 113.153 72.9659C113.83 73.3021 114.336 73.759 114.673 74.3366C115.009 74.9096 115.177 75.5559 115.177 76.2756C115.177 76.8816 115.066 77.393 114.843 77.8097C114.621 78.2216 114.322 78.553 113.948 78.804C113.579 79.0502 113.172 79.2301 112.727 79.3438V79.4858C113.21 79.5095 113.681 79.6657 114.14 79.9545C114.604 80.2386 114.987 80.6435 115.29 81.169C115.594 81.6946 115.745 82.3338 115.745 83.0866C115.745 83.83 115.57 84.4976 115.219 85.0895C114.874 85.6766 114.339 86.143 113.614 86.4886C112.89 86.8295 111.964 87 110.837 87H105.262ZM107.457 85.1179H110.624C111.675 85.1179 112.428 84.9143 112.883 84.5071C113.337 84.0999 113.565 83.5909 113.565 82.9801C113.565 82.5208 113.449 82.0994 113.217 81.7159C112.985 81.3324 112.653 81.027 112.222 80.7997C111.796 80.5724 111.29 80.4588 110.702 80.4588H107.457V85.1179ZM107.457 78.7472H110.397C110.889 78.7472 111.332 78.6525 111.725 78.4631C112.123 78.2737 112.438 78.0085 112.67 77.6676C112.906 77.322 113.025 76.9148 113.025 76.446C113.025 75.8447 112.814 75.3404 112.393 74.9332C111.971 74.526 111.325 74.3224 110.454 74.3224H107.457V78.7472ZM127.177 87L122.291 80.4801H120.743V87H118.548V72.4545H120.743V78.598H121.46L126.957 72.4545H129.635L123.818 78.9673L129.855 87H127.177ZM133.317 87H130.987L136.221 72.4545H138.757L143.991 87H141.662L137.55 75.0966H137.436L133.317 87ZM133.707 81.304H141.264V83.1506H133.707V81.304Z" fill="white"/>
<path d="M42.375 218.364V230H40.625V219.864H35.1477V230H33.3977V218.364H42.375ZM48.5994 230.176C47.7813 230.176 47.0672 229.989 46.4574 229.614C45.8475 229.239 45.3741 228.714 45.0369 228.04C44.6998 227.366 44.5312 226.578 44.5312 225.676C44.5312 224.771 44.6998 223.979 45.0369 223.301C45.3741 222.623 45.8475 222.097 46.4574 221.722C47.0672 221.347 47.7813 221.159 48.5994 221.159C49.4176 221.159 50.1316 221.347 50.7415 221.722C51.3513 222.097 51.8248 222.623 52.1619 223.301C52.4991 223.979 52.6676 224.771 52.6676 225.676C52.6676 226.578 52.4991 227.366 52.1619 228.04C51.8248 228.714 51.3513 229.239 50.7415 229.614C50.1316 229.989 49.4176 230.176 48.5994 230.176ZM48.6051 228.75C49.1354 228.75 49.5748 228.61 49.9233 228.33C50.2718 228.049 50.5294 227.676 50.696 227.21C50.8665 226.744 50.9517 226.231 50.9517 225.67C50.9517 225.114 50.8665 224.602 50.696 224.136C50.5294 223.667 50.2718 223.29 49.9233 223.006C49.5748 222.722 49.1354 222.58 48.6051 222.58C48.071 222.58 47.6278 222.722 47.2756 223.006C46.9271 223.29 46.6676 223.667 46.4972 224.136C46.3305 224.602 46.2472 225.114 46.2472 225.67C46.2472 226.231 46.3305 226.744 46.4972 227.21C46.6676 227.676 46.9271 228.049 47.2756 228.33C47.6278 228.61 48.071 228.75 48.6051 228.75ZM53.7116 232.517V228.528H54.4219C54.6037 228.362 54.7571 228.163 54.8821 227.932C55.0109 227.701 55.1188 227.426 55.206 227.108C55.2969 226.79 55.3726 226.419 55.4332 225.994C55.4938 225.566 55.5469 225.078 55.5923 224.528L55.8651 221.273H61.7969V228.528H63.1378V232.517H61.4787V230H55.3935V232.517H53.7116ZM56.2401 228.528H60.1378V222.727H57.3878L57.206 224.528C57.1188 225.445 57.009 226.241 56.8764 226.915C56.7438 227.585 56.5317 228.123 56.2401 228.528ZM64.7983 233.273V221.273H66.4574V222.688H66.5994C66.6979 222.506 66.84 222.295 67.0256 222.057C67.2112 221.818 67.4688 221.61 67.7983 221.432C68.1278 221.25 68.5634 221.159 69.1051 221.159C69.8097 221.159 70.4384 221.337 70.9915 221.693C71.5445 222.049 71.9782 222.562 72.2926 223.233C72.6108 223.903 72.7699 224.71 72.7699 225.653C72.7699 226.597 72.6127 227.405 72.2983 228.08C71.9839 228.75 71.5521 229.267 71.0028 229.631C70.4536 229.991 69.8267 230.17 69.1222 230.17C68.5919 230.17 68.1581 230.081 67.821 229.903C67.4877 229.725 67.2263 229.517 67.0369 229.278C66.8475 229.04 66.7017 228.828 66.5994 228.642H66.4972V233.273H64.7983ZM66.4631 225.636C66.4631 226.25 66.5521 226.788 66.7301 227.25C66.9081 227.712 67.1657 228.074 67.5028 228.335C67.84 228.593 68.2528 228.722 68.7415 228.722C69.2491 228.722 69.6733 228.587 70.0142 228.318C70.3551 228.045 70.6127 227.676 70.7869 227.21C70.965 226.744 71.054 226.22 71.054 225.636C71.054 225.061 70.9669 224.544 70.7926 224.085C70.6222 223.627 70.3646 223.265 70.0199 223C69.679 222.735 69.2528 222.602 68.7415 222.602C68.2491 222.602 67.8324 222.729 67.4915 222.983C67.1544 223.237 66.8987 223.591 66.7244 224.045C66.5502 224.5 66.4631 225.03 66.4631 225.636ZM78.3494 230.176C77.5313 230.176 76.8172 229.989 76.2074 229.614C75.5975 229.239 75.1241 228.714 74.7869 228.04C74.4498 227.366 74.2812 226.578 74.2812 225.676C74.2812 224.771 74.4498 223.979 74.7869 223.301C75.1241 222.623 75.5975 222.097 76.2074 221.722C76.8172 221.347 77.5313 221.159 78.3494 221.159C79.1676 221.159 79.8816 221.347 80.4915 221.722C81.1013 222.097 81.5748 222.623 81.9119 223.301C82.2491 223.979 82.4176 224.771 82.4176 225.676C82.4176 226.578 82.2491 227.366 81.9119 228.04C81.5748 228.714 81.1013 229.239 80.4915 229.614C79.8816 229.989 79.1676 230.176 78.3494 230.176ZM78.3551 228.75C78.8854 228.75 79.3248 228.61 79.6733 228.33C80.0218 228.049 80.2794 227.676 80.446 227.21C80.6165 226.744 80.7017 226.231 80.7017 225.67C80.7017 225.114 80.6165 224.602 80.446 224.136C80.2794 223.667 80.0218 223.29 79.6733 223.006C79.3248 222.722 78.8854 222.58 78.3551 222.58C77.821 222.58 77.3778 222.722 77.0256 223.006C76.6771 223.29 76.4176 223.667 76.2472 224.136C76.0805 224.602 75.9972 225.114 75.9972 225.67C75.9972 226.231 76.0805 226.744 76.2472 227.21C76.4176 227.676 76.6771 228.049 77.0256 228.33C77.3778 228.61 77.821 228.75 78.3551 228.75ZM91.0469 218.023L91.7514 219.097C91.4901 219.335 91.1927 219.506 90.8594 219.608C90.5298 219.706 90.1491 219.769 89.7173 219.795C89.2855 219.818 88.7912 219.839 88.2344 219.858C87.6056 219.877 87.0885 220.013 86.6832 220.267C86.2779 220.517 85.9654 220.888 85.7457 221.381C85.5298 221.869 85.3897 222.483 85.3253 223.222H85.4332C85.7173 222.68 86.1113 222.275 86.6151 222.006C87.1226 221.737 87.6927 221.602 88.3253 221.602C89.0298 221.602 89.6567 221.763 90.206 222.085C90.7552 222.407 91.187 222.879 91.5014 223.5C91.8196 224.117 91.9787 224.873 91.9787 225.767C91.9787 226.672 91.812 227.455 91.4787 228.114C91.1491 228.773 90.6832 229.282 90.081 229.642C89.4825 229.998 88.776 230.176 87.9616 230.176C87.1473 230.176 86.437 229.992 85.831 229.625C85.2287 229.254 84.7609 228.705 84.4276 227.977C84.098 227.25 83.9332 226.352 83.9332 225.284V224.42C83.9332 222.424 84.2893 220.922 85.0014 219.915C85.7135 218.907 86.7779 218.39 88.1946 218.364C88.6529 218.352 89.062 218.35 89.4219 218.358C89.7817 218.362 90.0961 218.345 90.3651 218.307C90.6378 218.265 90.8651 218.17 91.0469 218.023ZM87.9673 228.75C88.4408 228.75 88.848 228.631 89.1889 228.392C89.5336 228.15 89.7988 227.807 89.9844 227.364C90.17 226.92 90.2628 226.398 90.2628 225.795C90.2628 225.205 90.17 224.703 89.9844 224.29C89.7988 223.877 89.5336 223.562 89.1889 223.347C88.8442 223.127 88.4313 223.017 87.9503 223.017C87.5942 223.017 87.276 223.08 86.9957 223.205C86.7154 223.326 86.4749 223.506 86.2741 223.744C86.0772 223.983 85.9238 224.275 85.8139 224.619C85.7079 224.96 85.651 225.352 85.6435 225.795C85.6435 226.697 85.8499 227.415 86.2628 227.949C86.6795 228.483 87.2476 228.75 87.9673 228.75ZM99.7912 224.903V226.375H95.0639V224.903H99.7912ZM95.5412 221.273V230H93.8764V221.273H95.5412ZM100.979 221.273V230H99.3196V221.273H100.979ZM107.013 230.176C106.153 230.176 105.412 229.992 104.791 229.625C104.174 229.254 103.696 228.733 103.359 228.062C103.026 227.388 102.859 226.598 102.859 225.693C102.859 224.799 103.026 224.011 103.359 223.33C103.696 222.648 104.166 222.116 104.768 221.733C105.375 221.35 106.083 221.159 106.893 221.159C107.386 221.159 107.863 221.241 108.325 221.403C108.787 221.566 109.202 221.822 109.57 222.17C109.937 222.519 110.227 222.972 110.439 223.528C110.651 224.081 110.757 224.754 110.757 225.545V226.148H103.82V224.875H109.092C109.092 224.428 109.001 224.032 108.82 223.688C108.638 223.339 108.382 223.064 108.053 222.864C107.727 222.663 107.344 222.562 106.905 222.562C106.428 222.562 106.011 222.68 105.655 222.915C105.303 223.146 105.03 223.449 104.837 223.824C104.647 224.195 104.553 224.598 104.553 225.034V226.028C104.553 226.612 104.655 227.108 104.859 227.517C105.068 227.926 105.357 228.239 105.729 228.455C106.1 228.667 106.534 228.773 107.03 228.773C107.352 228.773 107.645 228.727 107.911 228.636C108.176 228.542 108.405 228.402 108.598 228.216C108.791 228.03 108.939 227.801 109.041 227.528L110.649 227.818C110.52 228.292 110.289 228.706 109.956 229.062C109.626 229.415 109.212 229.689 108.712 229.886C108.215 230.08 107.649 230.176 107.013 230.176ZM116.403 230.176C115.544 230.176 114.803 229.992 114.182 229.625C113.564 229.254 113.087 228.733 112.75 228.062C112.417 227.388 112.25 226.598 112.25 225.693C112.25 224.799 112.417 224.011 112.75 223.33C113.087 222.648 113.557 222.116 114.159 221.733C114.765 221.35 115.473 221.159 116.284 221.159C116.777 221.159 117.254 221.241 117.716 221.403C118.178 221.566 118.593 221.822 118.96 222.17C119.328 222.519 119.617 222.972 119.83 223.528C120.042 224.081 120.148 224.754 120.148 225.545V226.148H113.21V224.875H118.483C118.483 224.428 118.392 224.032 118.21 223.688C118.028 223.339 117.773 223.064 117.443 222.864C117.117 222.663 116.735 222.562 116.295 222.562C115.818 222.562 115.402 222.68 115.045 222.915C114.693 223.146 114.42 223.449 114.227 223.824C114.038 224.195 113.943 224.598 113.943 225.034V226.028C113.943 226.612 114.045 227.108 114.25 227.517C114.458 227.926 114.748 228.239 115.119 228.455C115.491 228.667 115.924 228.773 116.42 228.773C116.742 228.773 117.036 228.727 117.301 228.636C117.566 228.542 117.795 228.402 117.989 228.216C118.182 228.03 118.33 227.801 118.432 227.528L120.04 227.818C119.911 228.292 119.68 228.706 119.347 229.062C119.017 229.415 118.602 229.689 118.102 229.886C117.606 230.08 117.04 230.176 116.403 230.176Z" fill="white"/>
<path d="M33.5455 119.364H34.7727L38.9943 129.5H39.0966L43.3182 119.364H44.5455V131H43.5455V121.608H43.4545L39.5284 131H38.5625L34.6364 121.608H34.5455V131H33.5455V119.364ZM48.2812 125.642H50.8381C51.8191 125.642 52.5767 125.881 53.1108 126.358C53.6449 126.835 53.9119 127.481 53.9119 128.295C53.9119 128.837 53.7907 129.311 53.5483 129.716C53.3097 130.121 52.9612 130.437 52.5028 130.665C52.0445 130.888 51.4896 131 50.8381 131H47.4403V122.273H48.4574V130.045H50.8381C51.4555 130.045 51.9517 129.898 52.3267 129.602C52.7055 129.307 52.8949 128.886 52.8949 128.341C52.8949 127.784 52.7055 127.354 52.3267 127.051C51.9517 126.748 51.4555 126.597 50.8381 126.597H48.2812V125.642ZM55.3835 131V122.273H56.3949V131H55.3835ZM63.5966 131V122.273H70.2045V131H69.1875V123.227H64.6136V131H63.5966ZM76.2741 131.182C75.5204 131.182 74.8537 130.991 74.2741 130.608C73.6984 130.225 73.2476 129.697 72.9219 129.023C72.5961 128.345 72.4332 127.562 72.4332 126.676C72.4332 125.782 72.5961 124.996 72.9219 124.318C73.2476 123.636 73.6984 123.106 74.2741 122.727C74.8537 122.345 75.5204 122.153 76.2741 122.153C77.0279 122.153 77.6927 122.345 78.2685 122.727C78.8442 123.11 79.295 123.64 79.6207 124.318C79.9503 124.996 80.1151 125.782 80.1151 126.676C80.1151 127.562 79.9522 128.345 79.6264 129.023C79.3007 129.697 78.848 130.225 78.2685 130.608C77.6927 130.991 77.0279 131.182 76.2741 131.182ZM76.2741 130.256C76.8802 130.256 77.3935 130.093 77.8139 129.767C78.2344 129.441 78.5526 129.008 78.7685 128.466C78.9882 127.924 79.098 127.328 79.098 126.676C79.098 126.025 78.9882 125.426 78.7685 124.881C78.5526 124.335 78.2344 123.898 77.8139 123.568C77.3935 123.239 76.8802 123.074 76.2741 123.074C75.6719 123.074 75.1586 123.239 74.7344 123.568C74.3139 123.898 73.9938 124.335 73.7741 124.881C73.5582 125.426 73.4503 126.025 73.4503 126.676C73.4503 127.328 73.5582 127.924 73.7741 128.466C73.9938 129.008 74.3139 129.441 74.7344 129.767C75.1548 130.093 75.6681 130.256 76.2741 130.256ZM81.4773 131V130.045H81.75C82.0606 130.045 82.3106 129.989 82.5 129.875C82.6932 129.758 82.8428 129.561 82.9489 129.284C83.0549 129.008 83.1345 128.631 83.1875 128.153C83.2405 127.676 83.2822 127.078 83.3125 126.358L83.5 122.273H89.0455V131H88.0284V123.227H84.4602L84.2955 126.699C84.2614 127.407 84.2045 128.03 84.125 128.568C84.0492 129.106 83.9242 129.555 83.75 129.915C83.5795 130.275 83.3409 130.545 83.0341 130.727C82.7311 130.909 82.3333 131 81.8409 131H81.4773ZM92.5668 125.642H95.1179C96.099 125.642 96.8565 125.881 97.3906 126.358C97.9247 126.835 98.1918 127.481 98.1918 128.295C98.1918 128.837 98.0724 129.311 97.8338 129.716C97.5952 130.121 97.2467 130.437 96.7884 130.665C96.33 130.888 95.7732 131 95.1179 131H91.7259V122.273H92.7372V130.045H95.1179C95.7353 130.045 96.2334 129.898 96.6122 129.602C96.991 129.307 97.1804 128.886 97.1804 128.341C97.1804 127.784 96.991 127.354 96.6122 127.051C96.2334 126.748 95.7353 126.597 95.1179 126.597H92.5668V125.642ZM99.8509 128.773H100.925C100.955 129.239 101.156 129.602 101.527 129.864C101.898 130.125 102.387 130.256 102.993 130.256C103.622 130.256 104.141 130.116 104.55 129.835C104.959 129.551 105.163 129.138 105.163 128.597C105.163 128.267 105.086 127.981 104.93 127.739C104.779 127.496 104.571 127.307 104.305 127.17C104.044 127.03 103.747 126.958 103.413 126.955H101.891V126.028H103.396C103.915 125.998 104.309 125.858 104.578 125.608C104.847 125.354 104.982 125.023 104.982 124.614C104.982 124.148 104.817 123.775 104.487 123.494C104.158 123.21 103.711 123.068 103.146 123.068C102.574 123.068 102.099 123.208 101.72 123.489C101.341 123.769 101.141 124.129 101.118 124.568H100.055C100.074 124.095 100.216 123.678 100.482 123.318C100.747 122.955 101.105 122.67 101.555 122.466C102.01 122.261 102.525 122.159 103.101 122.159C103.692 122.159 104.205 122.265 104.641 122.477C105.076 122.689 105.413 122.979 105.652 123.347C105.891 123.71 106.01 124.123 106.01 124.585C106.01 125.066 105.877 125.462 105.612 125.773C105.351 126.08 105.016 126.295 104.607 126.42V126.506C104.917 126.54 105.19 126.653 105.425 126.847C105.663 127.04 105.851 127.288 105.987 127.591C106.124 127.894 106.192 128.229 106.192 128.597C106.192 129.112 106.057 129.564 105.788 129.955C105.519 130.341 105.144 130.642 104.663 130.858C104.186 131.074 103.635 131.182 103.01 131.182C102.408 131.182 101.872 131.081 101.402 130.881C100.932 130.676 100.559 130.394 100.283 130.034C100.01 129.67 99.866 129.25 99.8509 128.773ZM108.977 134.273C108.777 134.273 108.589 134.254 108.415 134.216C108.241 134.178 108.102 134.136 108 134.091L108.273 133.199C108.617 133.305 108.924 133.343 109.193 133.312C109.462 133.286 109.701 133.165 109.909 132.949C110.117 132.737 110.303 132.411 110.466 131.972L110.784 131.085L107.574 122.273H108.67L111.261 129.665H111.341L113.932 122.273H115.028L111.335 132.381C111.18 132.801 110.989 133.152 110.761 133.432C110.534 133.716 110.271 133.926 109.972 134.062C109.676 134.203 109.345 134.273 108.977 134.273ZM120.223 131.182C119.409 131.182 118.704 130.992 118.109 130.614C117.515 130.231 117.054 129.703 116.729 129.028C116.407 128.35 116.246 127.57 116.246 126.688C116.246 125.809 116.407 125.028 116.729 124.347C117.054 123.661 117.503 123.125 118.075 122.739C118.651 122.348 119.316 122.153 120.07 122.153C120.543 122.153 121 122.241 121.439 122.415C121.878 122.585 122.272 122.848 122.621 123.205C122.973 123.557 123.251 124.002 123.456 124.54C123.661 125.074 123.763 125.706 123.763 126.438V126.938H116.945V126.045H122.729C122.729 125.485 122.615 124.981 122.388 124.534C122.164 124.083 121.852 123.727 121.45 123.466C121.053 123.205 120.592 123.074 120.07 123.074C119.517 123.074 119.03 123.222 118.609 123.517C118.189 123.812 117.859 124.203 117.621 124.688C117.386 125.172 117.267 125.703 117.263 126.278V126.812C117.263 127.506 117.382 128.112 117.621 128.631C117.863 129.146 118.206 129.545 118.649 129.83C119.092 130.114 119.617 130.256 120.223 130.256C120.636 130.256 120.998 130.191 121.308 130.062C121.623 129.934 121.886 129.761 122.098 129.545C122.314 129.326 122.477 129.085 122.587 128.824L123.547 129.136C123.414 129.504 123.196 129.843 122.893 130.153C122.594 130.464 122.219 130.714 121.768 130.903C121.321 131.089 120.806 131.182 120.223 131.182ZM130.554 129.585L133.832 122.273H134.815L130.957 131H130.151L126.338 122.273H127.304L130.554 129.585ZM127.003 122.273V131H125.991V122.273H127.003ZM134.105 131V122.273H135.116V131H134.105ZM141.213 131.182C140.433 131.182 139.753 130.987 139.173 130.597C138.598 130.206 138.151 129.672 137.832 128.994C137.514 128.316 137.355 127.544 137.355 126.676C137.355 125.801 137.516 125.023 137.838 124.341C138.164 123.659 138.615 123.125 139.19 122.739C139.766 122.348 140.435 122.153 141.196 122.153C141.779 122.153 142.308 122.267 142.781 122.494C143.255 122.718 143.645 123.034 143.952 123.443C144.262 123.848 144.457 124.322 144.537 124.864H143.514C143.408 124.371 143.152 123.951 142.747 123.602C142.346 123.25 141.834 123.074 141.213 123.074C140.656 123.074 140.164 123.225 139.736 123.528C139.308 123.828 138.973 124.246 138.73 124.784C138.491 125.318 138.372 125.937 138.372 126.642C138.372 127.35 138.49 127.977 138.724 128.523C138.959 129.064 139.289 129.489 139.713 129.795C140.141 130.102 140.641 130.256 141.213 130.256C141.599 130.256 141.952 130.184 142.27 130.04C142.592 129.892 142.861 129.684 143.077 129.415C143.296 129.146 143.444 128.826 143.52 128.455H144.543C144.467 128.981 144.279 129.451 143.98 129.864C143.685 130.273 143.3 130.595 142.827 130.83C142.357 131.064 141.819 131.182 141.213 131.182ZM151.96 131V123.21H149.557C148.932 123.214 148.456 123.345 148.131 123.602C147.809 123.86 147.648 124.244 147.648 124.756C147.648 125.267 147.801 125.652 148.108 125.909C148.415 126.163 148.862 126.29 149.449 126.29H152.244V127.244H149.449C148.847 127.244 148.335 127.148 147.915 126.955C147.498 126.761 147.18 126.479 146.96 126.108C146.741 125.737 146.631 125.286 146.631 124.756C146.631 124.222 146.742 123.771 146.966 123.403C147.193 123.032 147.525 122.752 147.96 122.562C148.4 122.369 148.932 122.273 149.557 122.273H152.926V131H151.96ZM146.08 131L148.591 126.659H149.699L147.188 131H146.08ZM160.116 131V122.273H163.554C164.482 122.273 165.213 122.473 165.747 122.875C166.285 123.277 166.554 123.818 166.554 124.5C166.554 125.019 166.404 125.434 166.105 125.744C165.806 126.055 165.404 126.275 164.901 126.403C165.238 126.46 165.55 126.583 165.838 126.773C166.13 126.962 166.366 127.212 166.548 127.523C166.73 127.833 166.821 128.205 166.821 128.636C166.821 129.091 166.707 129.496 166.48 129.852C166.253 130.208 165.933 130.489 165.52 130.693C165.107 130.898 164.618 131 164.054 131H160.116ZM161.082 130.062H164.054C164.588 130.062 165.01 129.926 165.321 129.653C165.632 129.377 165.787 129.009 165.787 128.551C165.787 128.062 165.639 127.672 165.344 127.381C165.052 127.085 164.66 126.938 164.168 126.938H161.082V130.062ZM161.082 126.04H163.616C164.01 126.04 164.351 125.979 164.639 125.858C164.927 125.737 165.149 125.566 165.304 125.347C165.463 125.123 165.541 124.862 165.537 124.562C165.537 124.134 165.363 123.803 165.014 123.568C164.666 123.33 164.179 123.21 163.554 123.21H161.082V126.04ZM172.447 131.182C171.667 131.182 170.987 130.987 170.408 130.597C169.832 130.206 169.385 129.672 169.067 128.994C168.749 128.316 168.589 127.544 168.589 126.676C168.589 125.801 168.75 125.023 169.072 124.341C169.398 123.659 169.849 123.125 170.425 122.739C171 122.348 171.669 122.153 172.43 122.153C173.014 122.153 173.542 122.267 174.016 122.494C174.489 122.718 174.879 123.034 175.186 123.443C175.497 123.848 175.692 124.322 175.771 124.864H174.749C174.643 124.371 174.387 123.951 173.982 123.602C173.58 123.25 173.069 123.074 172.447 123.074C171.891 123.074 171.398 123.225 170.97 123.528C170.542 123.828 170.207 124.246 169.964 124.784C169.726 125.318 169.607 125.937 169.607 126.642C169.607 127.35 169.724 127.977 169.959 128.523C170.194 129.064 170.523 129.489 170.947 129.795C171.375 130.102 171.875 130.256 172.447 130.256C172.834 130.256 173.186 130.184 173.504 130.04C173.826 129.892 174.095 129.684 174.311 129.415C174.531 129.146 174.679 128.826 174.754 128.455H175.777C175.701 128.981 175.514 129.451 175.214 129.864C174.919 130.273 174.535 130.595 174.061 130.83C173.591 131.064 173.054 131.182 172.447 131.182ZM181.473 131.182C180.659 131.182 179.954 130.992 179.359 130.614C178.765 130.231 178.304 129.703 177.979 129.028C177.657 128.35 177.496 127.57 177.496 126.688C177.496 125.809 177.657 125.028 177.979 124.347C178.304 123.661 178.753 123.125 179.325 122.739C179.901 122.348 180.566 122.153 181.32 122.153C181.793 122.153 182.25 122.241 182.689 122.415C183.128 122.585 183.522 122.848 183.871 123.205C184.223 123.557 184.501 124.002 184.706 124.54C184.911 125.074 185.013 125.706 185.013 126.438V126.938H178.195V126.045H183.979C183.979 125.485 183.865 124.981 183.638 124.534C183.414 124.083 183.102 123.727 182.7 123.466C182.303 123.205 181.842 123.074 181.32 123.074C180.767 123.074 180.28 123.222 179.859 123.517C179.439 123.812 179.109 124.203 178.871 124.688C178.636 125.172 178.517 125.703 178.513 126.278V126.812C178.513 127.506 178.632 128.112 178.871 128.631C179.113 129.146 179.456 129.545 179.899 129.83C180.342 130.114 180.867 130.256 181.473 130.256C181.886 130.256 182.248 130.191 182.558 130.062C182.873 129.934 183.136 129.761 183.348 129.545C183.564 129.326 183.727 129.085 183.837 128.824L184.797 129.136C184.664 129.504 184.446 129.843 184.143 130.153C183.844 130.464 183.469 130.714 183.018 130.903C182.571 131.089 182.056 131.182 181.473 131.182ZM191.804 129.585L195.082 122.273H196.065L192.207 131H191.401L187.588 122.273H188.554L191.804 129.585ZM188.253 122.273V131H187.241V122.273H188.253ZM195.355 131V122.273H196.366V131H195.355ZM200.065 129.562L204.673 122.273H205.884V131H204.872V123.71L200.281 131H199.054V122.273H200.065V129.562ZM33.3466 157V148.273H39.9545V157H38.9375V149.227H34.3636V157H33.3466ZM46.0241 157.182C45.2704 157.182 44.6037 156.991 44.0241 156.608C43.4484 156.225 42.9976 155.697 42.6719 155.023C42.3461 154.345 42.1832 153.562 42.1832 152.676C42.1832 151.782 42.3461 150.996 42.6719 150.318C42.9976 149.636 43.4484 149.106 44.0241 148.727C44.6037 148.345 45.2704 148.153 46.0241 148.153C46.7779 148.153 47.4427 148.345 48.0185 148.727C48.5942 149.11 49.045 149.64 49.3707 150.318C49.7003 150.996 49.8651 151.782 49.8651 152.676C49.8651 153.562 49.7022 154.345 49.3764 155.023C49.0507 155.697 48.598 156.225 48.0185 156.608C47.4427 156.991 46.7779 157.182 46.0241 157.182ZM46.0241 156.256C46.6302 156.256 47.1435 156.093 47.5639 155.767C47.9844 155.441 48.3026 155.008 48.5185 154.466C48.7382 153.924 48.848 153.328 48.848 152.676C48.848 152.025 48.7382 151.426 48.5185 150.881C48.3026 150.335 47.9844 149.898 47.5639 149.568C47.1435 149.239 46.6302 149.074 46.0241 149.074C45.4219 149.074 44.9086 149.239 44.4844 149.568C44.0639 149.898 43.7438 150.335 43.5241 150.881C43.3082 151.426 43.2003 152.025 43.2003 152.676C43.2003 153.328 43.3082 153.924 43.5241 154.466C43.7438 155.008 44.0639 155.441 44.4844 155.767C44.9048 156.093 45.4181 156.256 46.0241 156.256ZM52.0966 157V148.273H58.7045V157H57.6875V149.227H53.1136V157H52.0966ZM61.7741 160.273C61.5734 160.273 61.3859 160.254 61.2116 160.216C61.0374 160.178 60.8991 160.136 60.7969 160.091L61.0696 159.199C61.4143 159.305 61.7211 159.343 61.9901 159.312C62.259 159.286 62.4976 159.165 62.706 158.949C62.9143 158.737 63.0999 158.411 63.2628 157.972L63.581 157.085L60.3707 148.273H61.4673L64.0582 155.665H64.1378L66.7287 148.273H67.8253L64.1321 158.381C63.9768 158.801 63.7855 159.152 63.5582 159.432C63.331 159.716 63.0677 159.926 62.7685 160.062C62.473 160.203 62.1416 160.273 61.7741 160.273ZM68.2116 157V156.045H68.4844C68.795 156.045 69.045 155.989 69.2344 155.875C69.4276 155.758 69.5772 155.561 69.6832 155.284C69.7893 155.008 69.8688 154.631 69.9219 154.153C69.9749 153.676 70.0166 153.078 70.0469 152.358L70.2344 148.273H75.7798V157H74.7628V149.227H71.1946L71.0298 152.699C70.9957 153.407 70.9389 154.03 70.8594 154.568C70.7836 155.106 70.6586 155.555 70.4844 155.915C70.3139 156.275 70.0753 156.545 69.7685 156.727C69.4654 156.909 69.0677 157 68.5753 157H68.2116ZM83.7102 157V149.21H81.3068C80.6818 149.214 80.2064 149.345 79.8807 149.602C79.5587 149.86 79.3977 150.244 79.3977 150.756C79.3977 151.267 79.5511 151.652 79.858 151.909C80.1648 152.163 80.6117 152.29 81.1989 152.29H83.9943V153.244H81.1989C80.5966 153.244 80.0852 153.148 79.6648 152.955C79.2481 152.761 78.9299 152.479 78.7102 152.108C78.4905 151.737 78.3807 151.286 78.3807 150.756C78.3807 150.222 78.4924 149.771 78.7159 149.403C78.9432 149.032 79.2746 148.752 79.7102 148.562C80.1496 148.369 80.6818 148.273 81.3068 148.273H84.6761V157H83.7102ZM77.8295 157L80.3409 152.659H81.4489L78.9375 157H77.8295ZM87.3665 160.273V148.273H88.3494V149.938H88.4688C88.59 149.676 88.7566 149.409 88.9688 149.136C89.1809 148.86 89.4612 148.627 89.8097 148.438C90.1619 148.248 90.6051 148.153 91.1392 148.153C91.8589 148.153 92.4877 148.343 93.0256 148.722C93.5672 149.097 93.9877 149.623 94.2869 150.301C94.59 150.975 94.7415 151.761 94.7415 152.659C94.7415 153.561 94.59 154.35 94.2869 155.028C93.9877 155.706 93.5672 156.235 93.0256 156.614C92.4877 156.992 91.8627 157.182 91.1506 157.182C90.6241 157.182 90.1828 157.087 89.8267 156.898C89.4744 156.708 89.1884 156.475 88.9688 156.199C88.7528 155.919 88.5862 155.646 88.4688 155.381H88.3778V160.273H87.3665ZM88.3665 152.642C88.3665 153.347 88.4706 153.972 88.679 154.517C88.8911 155.059 89.1941 155.485 89.5881 155.795C89.9858 156.102 90.4669 156.256 91.0312 156.256C91.6108 156.256 92.0994 156.097 92.4972 155.778C92.8987 155.456 93.2036 155.023 93.4119 154.477C93.6241 153.932 93.7301 153.32 93.7301 152.642C93.7301 151.972 93.6259 151.367 93.4176 150.83C93.2131 150.292 92.91 149.866 92.5085 149.551C92.107 149.233 91.6146 149.074 91.0312 149.074C90.4631 149.074 89.9801 149.227 89.5824 149.534C89.1847 149.837 88.8816 150.258 88.6733 150.795C88.4688 151.33 88.3665 151.945 88.3665 152.642ZM102.852 152.165V153.119H97.7216V152.165H102.852ZM97.9716 148.273V157H96.9602V148.273H97.9716ZM103.597 148.273V157H102.585V148.273H103.597ZM107.141 151.642H109.697C110.679 151.642 111.436 151.881 111.97 152.358C112.504 152.835 112.771 153.481 112.771 154.295C112.771 154.837 112.65 155.311 112.408 155.716C112.169 156.121 111.821 156.437 111.362 156.665C110.904 156.888 110.349 157 109.697 157H106.3V148.273H107.317V156.045H109.697C110.315 156.045 110.811 155.898 111.186 155.602C111.565 155.307 111.754 154.886 111.754 154.341C111.754 153.784 111.565 153.354 111.186 153.051C110.811 152.748 110.315 152.597 109.697 152.597H107.141V151.642ZM114.243 157V148.273H115.254V157H114.243ZM122.507 155.585L125.786 148.273H126.768L122.911 157H122.104L118.291 148.273H119.257L122.507 155.585ZM118.956 148.273V157H117.945V148.273H118.956ZM126.058 157V148.273H127.07V157H126.058ZM130.768 155.562L135.376 148.273H136.587V157H135.575V149.71L130.984 157H129.757V148.273H130.768V155.562ZM143.757 157V148.273H147.195C148.123 148.273 148.854 148.473 149.388 148.875C149.926 149.277 150.195 149.818 150.195 150.5C150.195 151.019 150.045 151.434 149.746 151.744C149.446 152.055 149.045 152.275 148.541 152.403C148.878 152.46 149.191 152.583 149.479 152.773C149.77 152.962 150.007 153.212 150.189 153.523C150.371 153.833 150.462 154.205 150.462 154.636C150.462 155.091 150.348 155.496 150.121 155.852C149.893 156.208 149.573 156.489 149.161 156.693C148.748 156.898 148.259 157 147.695 157H143.757ZM144.723 156.062H147.695C148.229 156.062 148.651 155.926 148.962 155.653C149.272 155.377 149.428 155.009 149.428 154.551C149.428 154.062 149.28 153.672 148.984 153.381C148.693 153.085 148.301 152.938 147.808 152.938H144.723V156.062ZM144.723 152.04H147.257C147.651 152.04 147.992 151.979 148.28 151.858C148.568 151.737 148.789 151.566 148.945 151.347C149.104 151.123 149.181 150.862 149.178 150.562C149.178 150.134 149.003 149.803 148.655 149.568C148.306 149.33 147.82 149.21 147.195 149.21H144.723V152.04ZM153.69 155.562L158.298 148.273H159.509V157H158.497V149.71L153.906 157H152.679V148.273H153.69V155.562ZM161.145 159.483V156.045H161.901C162.09 155.833 162.255 155.604 162.395 155.358C162.535 155.112 162.656 154.831 162.759 154.517C162.865 154.199 162.954 153.83 163.026 153.409C163.098 152.985 163.158 152.491 163.207 151.926L163.526 148.273H168.69V156.045H169.986V159.483H168.974V157H162.162V159.483H161.145ZM163.065 156.045H167.679V149.227H164.469L164.207 151.926C164.116 152.843 163.988 153.642 163.821 154.324C163.654 155.006 163.402 155.58 163.065 156.045ZM174.351 157.199C173.824 157.199 173.343 157.097 172.908 156.892C172.472 156.684 172.125 156.384 171.868 155.994C171.61 155.6 171.482 155.123 171.482 154.562C171.482 154.131 171.563 153.767 171.726 153.472C171.889 153.176 172.12 152.934 172.419 152.744C172.718 152.555 173.072 152.405 173.482 152.295C173.891 152.186 174.341 152.1 174.834 152.04C175.322 151.979 175.735 151.926 176.072 151.881C176.413 151.835 176.673 151.763 176.851 151.665C177.029 151.566 177.118 151.407 177.118 151.188V150.983C177.118 150.388 176.94 149.92 176.584 149.58C176.232 149.235 175.724 149.062 175.061 149.062C174.432 149.062 173.919 149.201 173.521 149.477C173.127 149.754 172.851 150.08 172.692 150.455L171.732 150.108C171.929 149.631 172.201 149.25 172.55 148.966C172.898 148.678 173.288 148.472 173.72 148.347C174.152 148.218 174.589 148.153 175.033 148.153C175.366 148.153 175.713 148.197 176.072 148.284C176.436 148.371 176.773 148.523 177.084 148.739C177.394 148.951 177.646 149.248 177.839 149.631C178.033 150.009 178.129 150.491 178.129 151.074V157H177.118V155.619H177.055C176.934 155.877 176.754 156.127 176.516 156.369C176.277 156.612 175.978 156.811 175.618 156.966C175.258 157.121 174.836 157.199 174.351 157.199ZM174.487 156.273C175.025 156.273 175.491 156.153 175.885 155.915C176.279 155.676 176.582 155.36 176.794 154.966C177.01 154.568 177.118 154.131 177.118 153.653V152.392C177.042 152.464 176.915 152.528 176.737 152.585C176.563 152.642 176.36 152.693 176.129 152.739C175.902 152.78 175.675 152.816 175.447 152.847C175.22 152.877 175.016 152.903 174.834 152.926C174.341 152.987 173.921 153.081 173.572 153.21C173.224 153.339 172.957 153.517 172.771 153.744C172.586 153.968 172.493 154.256 172.493 154.608C172.493 155.138 172.682 155.549 173.061 155.841C173.44 156.129 173.915 156.273 174.487 156.273ZM185.382 155.585L188.661 148.273H189.643L185.786 157H184.979L181.166 148.273H182.132L185.382 155.585ZM181.831 148.273V157H180.82V148.273H181.831ZM188.933 157V148.273H189.945V157H188.933ZM193.643 155.562L198.251 148.273H199.462V157H198.45V149.71L193.859 157H192.632V148.273H193.643V155.562ZM32.3011 185.483V182.045H33.0568C33.2462 181.833 33.411 181.604 33.5511 181.358C33.6913 181.112 33.8125 180.831 33.9148 180.517C34.0208 180.199 34.1098 179.83 34.1818 179.409C34.2538 178.985 34.3144 178.491 34.3636 177.926L34.6818 174.273H39.8466V182.045H41.142V185.483H40.1307V183H33.3182V185.483H32.3011ZM34.2216 182.045H38.8352V175.227H35.625L35.3636 177.926C35.2727 178.843 35.1439 179.642 34.9773 180.324C34.8106 181.006 34.5587 181.58 34.2216 182.045ZM46.4616 183.182C45.7079 183.182 45.0412 182.991 44.4616 182.608C43.8859 182.225 43.4351 181.697 43.1094 181.023C42.7836 180.345 42.6207 179.562 42.6207 178.676C42.6207 177.782 42.7836 176.996 43.1094 176.318C43.4351 175.636 43.8859 175.106 44.4616 174.727C45.0412 174.345 45.7079 174.153 46.4616 174.153C47.2154 174.153 47.8802 174.345 48.456 174.727C49.0317 175.11 49.4825 175.64 49.8082 176.318C50.1378 176.996 50.3026 177.782 50.3026 178.676C50.3026 179.562 50.1397 180.345 49.8139 181.023C49.4882 181.697 49.0355 182.225 48.456 182.608C47.8802 182.991 47.2154 183.182 46.4616 183.182ZM46.4616 182.256C47.0677 182.256 47.581 182.093 48.0014 181.767C48.4219 181.441 48.7401 181.008 48.956 180.466C49.1757 179.924 49.2855 179.328 49.2855 178.676C49.2855 178.025 49.1757 177.426 48.956 176.881C48.7401 176.335 48.4219 175.898 48.0014 175.568C47.581 175.239 47.0677 175.074 46.4616 175.074C45.8594 175.074 45.3461 175.239 44.9219 175.568C44.5014 175.898 44.1813 176.335 43.9616 176.881C43.7457 177.426 43.6378 178.025 43.6378 178.676C43.6378 179.328 43.7457 179.924 43.9616 180.466C44.1813 181.008 44.5014 181.441 44.9219 181.767C45.3423 182.093 45.8556 182.256 46.4616 182.256ZM55.9318 183.182C55.1515 183.182 54.4716 182.987 53.892 182.597C53.3163 182.206 52.8693 181.672 52.5511 180.994C52.233 180.316 52.0739 179.544 52.0739 178.676C52.0739 177.801 52.2348 177.023 52.5568 176.341C52.8826 175.659 53.3333 175.125 53.9091 174.739C54.4848 174.348 55.1534 174.153 55.9148 174.153C56.4981 174.153 57.0265 174.267 57.5 174.494C57.9735 174.718 58.3636 175.034 58.6705 175.443C58.9811 175.848 59.1761 176.322 59.2557 176.864H58.233C58.1269 176.371 57.8712 175.951 57.4659 175.602C57.0644 175.25 56.553 175.074 55.9318 175.074C55.375 175.074 54.8826 175.225 54.4545 175.528C54.0265 175.828 53.6913 176.246 53.4489 176.784C53.2102 177.318 53.0909 177.937 53.0909 178.642C53.0909 179.35 53.2083 179.977 53.4432 180.523C53.678 181.064 54.0076 181.489 54.4318 181.795C54.8598 182.102 55.3598 182.256 55.9318 182.256C56.3182 182.256 56.6705 182.184 56.9886 182.04C57.3106 181.892 57.5795 181.684 57.7955 181.415C58.0152 181.146 58.1629 180.826 58.2386 180.455H59.2614C59.1856 180.981 58.9981 181.451 58.6989 181.864C58.4034 182.273 58.0189 182.595 57.5455 182.83C57.0758 183.064 56.5379 183.182 55.9318 183.182ZM60.7074 175.227V174.273H67.5256V175.227H64.6392V183H63.6278V175.227H60.7074ZM71.6477 183.199C71.1212 183.199 70.6402 183.097 70.2045 182.892C69.7689 182.684 69.4223 182.384 69.1648 181.994C68.9072 181.6 68.7784 181.123 68.7784 180.562C68.7784 180.131 68.8598 179.767 69.0227 179.472C69.1856 179.176 69.4167 178.934 69.7159 178.744C70.0152 178.555 70.3693 178.405 70.7784 178.295C71.1875 178.186 71.6383 178.1 72.1307 178.04C72.6193 177.979 73.0322 177.926 73.3693 177.881C73.7102 177.835 73.9697 177.763 74.1477 177.665C74.3258 177.566 74.4148 177.407 74.4148 177.188V176.983C74.4148 176.388 74.2367 175.92 73.8807 175.58C73.5284 175.235 73.0208 175.062 72.358 175.062C71.7292 175.062 71.2159 175.201 70.8182 175.477C70.4242 175.754 70.1477 176.08 69.9886 176.455L69.0284 176.108C69.2254 175.631 69.4981 175.25 69.8466 174.966C70.1951 174.678 70.5852 174.472 71.017 174.347C71.4489 174.218 71.8864 174.153 72.3295 174.153C72.6629 174.153 73.0095 174.197 73.3693 174.284C73.733 174.371 74.0701 174.523 74.3807 174.739C74.6913 174.951 74.9432 175.248 75.1364 175.631C75.3295 176.009 75.4261 176.491 75.4261 177.074V183H74.4148V181.619H74.3523C74.2311 181.877 74.0511 182.127 73.8125 182.369C73.5739 182.612 73.2746 182.811 72.9148 182.966C72.5549 183.121 72.1326 183.199 71.6477 183.199ZM71.7841 182.273C72.322 182.273 72.7879 182.153 73.1818 181.915C73.5758 181.676 73.8788 181.36 74.0909 180.966C74.3068 180.568 74.4148 180.131 74.4148 179.653V178.392C74.339 178.464 74.2121 178.528 74.0341 178.585C73.8598 178.642 73.6572 178.693 73.4261 178.739C73.1989 178.78 72.9716 178.816 72.7443 178.847C72.517 178.877 72.3125 178.903 72.1307 178.926C71.6383 178.987 71.2178 179.081 70.8693 179.21C70.5208 179.339 70.2538 179.517 70.0682 179.744C69.8826 179.968 69.7898 180.256 69.7898 180.608C69.7898 181.138 69.9792 181.549 70.358 181.841C70.7367 182.129 71.2121 182.273 71.7841 182.273ZM78.1165 183V174.273H81.554C82.482 174.273 83.2131 174.473 83.7472 174.875C84.285 175.277 84.554 175.818 84.554 176.5C84.554 177.019 84.4044 177.434 84.1051 177.744C83.8059 178.055 83.4044 178.275 82.9006 178.403C83.2377 178.46 83.5502 178.583 83.8381 178.773C84.1297 178.962 84.3665 179.212 84.5483 179.523C84.7301 179.833 84.821 180.205 84.821 180.636C84.821 181.091 84.7074 181.496 84.4801 181.852C84.2528 182.208 83.9328 182.489 83.5199 182.693C83.107 182.898 82.6184 183 82.054 183H78.1165ZM79.0824 182.062H82.054C82.5881 182.062 83.0104 181.926 83.321 181.653C83.6316 181.377 83.7869 181.009 83.7869 180.551C83.7869 180.062 83.6392 179.672 83.3438 179.381C83.0521 179.085 82.66 178.938 82.1676 178.938H79.0824V182.062ZM79.0824 178.04H81.6165C82.0104 178.04 82.3513 177.979 82.6392 177.858C82.9271 177.737 83.1487 177.566 83.304 177.347C83.4631 177.123 83.5407 176.862 83.5369 176.562C83.5369 176.134 83.3627 175.803 83.0142 175.568C82.6657 175.33 82.179 175.21 81.554 175.21H79.0824V178.04ZM87.0384 183V174.273H88.0497V178.199H88.9986L92.2429 174.273H93.5497L90.0497 178.472L93.6293 183H92.3224L89.3111 179.153H88.0497V183H87.0384ZM96.2997 181.562L100.908 174.273H102.118V183H101.107V175.71L96.5156 183H95.2884V174.273H96.2997V181.562Z" fill="white"/>
</svg>
