<svg width="303" height="233" viewBox="0 0 303 233" fill="none" xmlns="http://www.w3.org/2000/svg">
<rect x="0.36377" width="302" height="233" rx="10" fill="#34312D"/>
<path d="M39.4278 68.7273C39.4278 70.2803 39.1437 71.6155 38.5755 72.733C38.0073 73.8456 37.2284 74.7027 36.2389 75.304C35.254 75.9006 34.1342 76.1989 32.8795 76.1989C31.62 76.1989 30.4955 75.9006 29.5059 75.304C28.5211 74.7027 27.7445 73.8433 27.1764 72.7259C26.6082 71.6084 26.3241 70.2756 26.3241 68.7273C26.3241 67.1742 26.6082 65.8414 27.1764 64.7287C27.7445 63.6113 28.5211 62.7543 29.5059 62.1577C30.4955 61.5563 31.62 61.2557 32.8795 61.2557C34.1342 61.2557 35.254 61.5563 36.2389 62.1577C37.2284 62.7543 38.0073 63.6113 38.5755 64.7287C39.1437 65.8414 39.4278 67.1742 39.4278 68.7273ZM37.2545 68.7273C37.2545 67.5436 37.0627 66.5469 36.6792 65.7372C36.3004 64.9228 35.7796 64.3073 35.1167 63.8906C34.4586 63.4692 33.7128 63.2585 32.8795 63.2585C32.0414 63.2585 31.2933 63.4692 30.6352 63.8906C29.977 64.3073 29.4562 64.9228 29.0727 65.7372C28.6939 66.5469 28.5045 67.5436 28.5045 68.7273C28.5045 69.911 28.6939 70.91 29.0727 71.7244C29.4562 72.5341 29.977 73.1496 30.6352 73.571C31.2933 73.9877 32.0414 74.196 32.8795 74.196C33.7128 74.196 34.4586 73.9877 35.1167 73.571C35.7796 73.1496 36.3004 72.5341 36.6792 71.7244C37.0627 70.91 37.2545 69.911 37.2545 68.7273ZM50.6097 61.0284L51.4904 62.3707C51.1636 62.669 50.792 62.8821 50.3753 63.0099C49.9634 63.133 49.4875 63.2112 48.9477 63.2443C48.408 63.2727 47.7901 63.2988 47.094 63.3224C46.3081 63.3461 45.6618 63.5166 45.1551 63.8338C44.6485 64.1463 44.2579 64.6103 43.9832 65.2259C43.7134 65.8366 43.5382 66.6037 43.4577 67.527H43.5926C43.9477 66.8499 44.4402 66.3433 45.0699 66.0071C45.7044 65.6709 46.417 65.5028 47.2077 65.5028C48.0884 65.5028 48.872 65.7041 49.5585 66.1065C50.2451 66.509 50.7849 67.0985 51.1779 67.875C51.5756 68.6468 51.7744 69.5914 51.7744 70.7088C51.7744 71.8404 51.5661 72.8182 51.1494 73.642C50.7375 74.4659 50.1551 75.1027 49.4023 75.5526C48.6542 75.9976 47.7711 76.2202 46.7531 76.2202C45.7351 76.2202 44.8474 75.9905 44.0898 75.5312C43.3369 75.0672 42.7522 74.3807 42.3355 73.4716C41.9236 72.5625 41.7176 71.4403 41.7176 70.1051V69.0256C41.7176 66.5303 42.1627 64.6529 43.0528 63.3935C43.943 62.134 45.2735 61.4877 47.0443 61.4545C47.6172 61.4403 48.1286 61.438 48.5784 61.4474C49.0282 61.4522 49.4212 61.4309 49.7574 61.3835C50.0983 61.3314 50.3824 61.2131 50.6097 61.0284ZM46.7602 74.4375C47.3521 74.4375 47.8611 74.2884 48.2872 73.9901C48.7181 73.687 49.0495 73.2585 49.2815 72.7045C49.5136 72.1506 49.6296 71.4972 49.6296 70.7443C49.6296 70.0057 49.5136 69.3783 49.2815 68.8622C49.0495 68.3461 48.7181 67.9531 48.2872 67.6832C47.8564 67.4086 47.3403 67.2713 46.7389 67.2713C46.2939 67.2713 45.8961 67.3494 45.5457 67.5057C45.1954 67.6572 44.8947 67.8821 44.6438 68.1804C44.3975 68.4787 44.2058 68.8433 44.0685 69.2741C43.9359 69.7003 43.8649 70.1903 43.8554 70.7443C43.8554 71.8712 44.1135 72.7685 44.6296 73.4361C45.1504 74.1037 45.8606 74.4375 46.7602 74.4375ZM58.9418 76.2202C57.919 76.2202 57.0265 75.9858 56.2642 75.517C55.5019 75.0483 54.91 74.3925 54.4886 73.5497C54.0672 72.7069 53.8565 71.7221 53.8565 70.5952C53.8565 69.4635 54.0672 68.474 54.4886 67.6264C54.91 66.7789 55.5019 66.1207 56.2642 65.652C57.0265 65.1832 57.919 64.9489 58.9418 64.9489C59.9645 64.9489 60.857 65.1832 61.6193 65.652C62.3816 66.1207 62.9735 66.7789 63.3949 67.6264C63.8163 68.474 64.027 69.4635 64.027 70.5952C64.027 71.7221 63.8163 72.7069 63.3949 73.5497C62.9735 74.3925 62.3816 75.0483 61.6193 75.517C60.857 75.9858 59.9645 76.2202 58.9418 76.2202ZM58.9489 74.4375C59.6118 74.4375 60.161 74.2623 60.5966 73.9119C61.0322 73.5616 61.3542 73.0952 61.5625 72.5128C61.7756 71.9304 61.8821 71.2888 61.8821 70.5881C61.8821 69.892 61.7756 69.2528 61.5625 68.6705C61.3542 68.0833 61.0322 67.6122 60.5966 67.2571C60.161 66.902 59.6118 66.7244 58.9489 66.7244C58.2813 66.7244 57.7273 66.902 57.2869 67.2571C56.8513 67.6122 56.527 68.0833 56.3139 68.6705C56.1056 69.2528 56.0014 69.892 56.0014 70.5881C56.0014 71.2888 56.1056 71.9304 56.3139 72.5128C56.527 73.0952 56.8513 73.5616 57.2869 73.9119C57.7273 74.2623 58.2813 74.4375 58.9489 74.4375ZM66.5974 80.0909V65.0909H68.6712V66.8594H68.8488C68.9719 66.6321 69.1495 66.3693 69.3815 66.071C69.6135 65.7727 69.9354 65.5123 70.3474 65.2898C70.7593 65.0625 71.3038 64.9489 71.9809 64.9489C72.8616 64.9489 73.6476 65.1714 74.3389 65.6165C75.0301 66.0616 75.5723 66.7031 75.9653 67.5412C76.363 68.3793 76.5619 69.3878 76.5619 70.5668C76.5619 71.7457 76.3654 72.7566 75.9724 73.5994C75.5794 74.4375 75.0396 75.0838 74.3531 75.5384C73.6665 75.9882 72.8829 76.2131 72.0022 76.2131C71.3393 76.2131 70.7972 76.1018 70.3758 75.8793C69.9591 75.6567 69.6324 75.3963 69.3957 75.098C69.1589 74.7997 68.9766 74.5346 68.8488 74.3026H68.721V80.0909H66.5974ZM68.6783 70.5455C68.6783 71.3125 68.7896 71.9848 69.0122 72.5625C69.2347 73.1402 69.5567 73.5923 69.9781 73.919C70.3995 74.241 70.9156 74.402 71.5264 74.402C72.1608 74.402 72.6911 74.2339 73.1173 73.8977C73.5434 73.5568 73.8654 73.0952 74.0832 72.5128C74.3057 71.9304 74.417 71.2746 74.417 70.5455C74.417 69.8258 74.3081 69.1795 74.0903 68.6065C73.8772 68.0336 73.5552 67.5814 73.1244 67.25C72.6982 66.9186 72.1656 66.7528 71.5264 66.7528C70.9108 66.7528 70.39 66.9115 69.9639 67.2287C69.5425 67.5459 69.2229 67.9886 69.0051 68.5568C68.7872 69.125 68.6783 69.7879 68.6783 70.5455ZM80.1124 80.0909C79.7951 80.0909 79.5063 80.0649 79.2459 80.0128C78.9855 79.9654 78.7913 79.9134 78.6635 79.8565L79.1749 78.1165C79.5631 78.2206 79.9088 78.2656 80.2118 78.2514C80.5148 78.2372 80.7823 78.1236 81.0144 77.9105C81.2511 77.6974 81.4594 77.3494 81.6394 76.8665L81.9021 76.142L77.9107 65.0909H80.1834L82.9462 73.5568H83.0598L85.8226 65.0909H88.1024L83.6067 77.456C83.3984 78.0241 83.1332 78.5047 82.8112 78.8977C82.4893 79.2955 82.1057 79.5938 81.6607 79.7926C81.2156 79.9915 80.6995 80.0909 80.1124 80.0909ZM88.3344 79.1463V74.1605H89.2222C89.4494 73.9522 89.6412 73.7036 89.7975 73.4148C89.9584 73.1259 90.0934 72.7827 90.2023 72.3849C90.3159 71.9872 90.4106 71.5232 90.4864 70.9929C90.5621 70.4579 90.6284 69.8471 90.6852 69.1605L91.0261 65.0909H98.4409V74.1605H100.117V79.1463H98.0432V76H90.4367V79.1463H88.3344ZM91.4949 74.1605H96.3671V66.9091H92.9296L92.7023 69.1605C92.5934 70.3063 92.4561 71.3007 92.2903 72.1435C92.1246 72.9815 91.8595 73.6539 91.4949 74.1605ZM106.988 76.2202C105.965 76.2202 105.073 75.9858 104.31 75.517C103.548 75.0483 102.956 74.3925 102.535 73.5497C102.113 72.7069 101.903 71.7221 101.903 70.5952C101.903 69.4635 102.113 68.474 102.535 67.6264C102.956 66.7789 103.548 66.1207 104.31 65.652C105.073 65.1832 105.965 64.9489 106.988 64.9489C108.011 64.9489 108.903 65.1832 109.665 65.652C110.428 66.1207 111.02 66.7789 111.441 67.6264C111.862 68.474 112.073 69.4635 112.073 70.5952C112.073 71.7221 111.862 72.7069 111.441 73.5497C111.02 74.3925 110.428 75.0483 109.665 75.517C108.903 75.9858 108.011 76.2202 106.988 76.2202ZM106.995 74.4375C107.658 74.4375 108.207 74.2623 108.643 73.9119C109.078 73.5616 109.4 73.0952 109.609 72.5128C109.822 71.9304 109.928 71.2888 109.928 70.5881C109.928 69.892 109.822 69.2528 109.609 68.6705C109.4 68.0833 109.078 67.6122 108.643 67.2571C108.207 66.902 107.658 66.7244 106.995 66.7244C106.327 66.7244 105.773 66.902 105.333 67.2571C104.897 67.6122 104.573 68.0833 104.36 68.6705C104.152 69.2528 104.048 69.892 104.048 70.5881C104.048 71.2888 104.152 71.9304 104.36 72.5128C104.573 73.0952 104.897 73.5616 105.333 73.9119C105.773 74.2623 106.327 74.4375 106.995 74.4375ZM114.643 76V65.0909H119.168C120.399 65.0909 121.374 65.3537 122.094 65.8793C122.813 66.4001 123.173 67.108 123.173 68.0028C123.173 68.642 122.97 69.1487 122.563 69.5227C122.155 69.8968 121.616 70.1477 120.943 70.2756C121.431 70.3324 121.878 70.4792 122.286 70.7159C122.693 70.9479 123.019 71.2604 123.266 71.6534C123.517 72.0464 123.642 72.5152 123.642 73.0597C123.642 73.6373 123.493 74.1487 123.195 74.5938C122.896 75.0341 122.463 75.3797 121.895 75.6307C121.331 75.8769 120.652 76 119.857 76H114.643ZM116.639 74.2244H119.857C120.382 74.2244 120.794 74.099 121.092 73.848C121.391 73.5971 121.54 73.2562 121.54 72.8253C121.54 72.3187 121.391 71.9209 121.092 71.6321C120.794 71.3385 120.382 71.1918 119.857 71.1918H116.639V74.2244ZM116.639 69.6364H119.189C119.587 69.6364 119.928 69.5795 120.212 69.4659C120.5 69.3523 120.721 69.1913 120.872 68.983C121.028 68.7699 121.107 68.5189 121.107 68.2301C121.107 67.8087 120.934 67.4796 120.588 67.2429C120.242 67.0062 119.769 66.8878 119.168 66.8878H116.639V69.6364ZM129.346 76.2415C128.655 76.2415 128.03 76.1136 127.471 75.858C126.913 75.5975 126.47 75.2211 126.143 74.7287C125.821 74.2363 125.66 73.6326 125.66 72.9176C125.66 72.3021 125.779 71.7955 126.015 71.3977C126.252 71 126.572 70.6851 126.974 70.4531C127.377 70.2211 127.826 70.0459 128.324 69.9276C128.821 69.8092 129.327 69.7192 129.843 69.6577C130.497 69.5819 131.027 69.5204 131.434 69.473C131.842 69.4209 132.138 69.3381 132.322 69.2244C132.507 69.1108 132.599 68.9261 132.599 68.6705V68.6207C132.599 68.0005 132.424 67.5199 132.074 67.179C131.728 66.8381 131.212 66.6676 130.525 66.6676C129.81 66.6676 129.247 66.8262 128.835 67.1435C128.428 67.456 128.146 67.804 127.99 68.1875L125.994 67.733C126.231 67.0701 126.576 66.535 127.031 66.1278C127.49 65.7159 128.018 65.4176 128.615 65.233C129.211 65.0436 129.839 64.9489 130.497 64.9489C130.932 64.9489 131.394 65.0009 131.882 65.1051C132.374 65.2045 132.834 65.3892 133.26 65.6591C133.691 65.929 134.043 66.3149 134.318 66.8168C134.593 67.3139 134.73 67.9602 134.73 68.7557V76H132.656V74.5085H132.571C132.433 74.7831 132.227 75.053 131.953 75.3182C131.678 75.5833 131.325 75.8035 130.895 75.9787C130.464 76.1539 129.948 76.2415 129.346 76.2415ZM129.808 74.5369C130.395 74.5369 130.897 74.4209 131.314 74.1889C131.735 73.9569 132.055 73.6539 132.272 73.2798C132.495 72.901 132.606 72.4962 132.606 72.0653V70.6591C132.531 70.7348 132.384 70.8059 132.166 70.8722C131.953 70.9337 131.709 70.9882 131.434 71.0355C131.16 71.0781 130.892 71.1184 130.632 71.1562C130.371 71.1894 130.154 71.2178 129.978 71.2415C129.566 71.2936 129.19 71.3812 128.849 71.5043C128.513 71.6274 128.243 71.8049 128.039 72.0369C127.841 72.2642 127.741 72.5672 127.741 72.946C127.741 73.4716 127.935 73.8693 128.324 74.1392C128.712 74.4044 129.207 74.5369 129.808 74.5369ZM145.152 69.6293V71.4688H139.243V69.6293H145.152ZM139.839 65.0909V76H137.758V65.0909H139.839ZM146.636 65.0909V76H144.562V65.0909H146.636ZM151.758 73.0241L156.566 65.0909H158.853V76H156.772V68.0597L151.985 76H149.677V65.0909H151.758V73.0241ZM166.61 76.2202C165.535 76.2202 164.61 75.9905 163.833 75.5312C163.061 75.0672 162.465 74.4162 162.043 73.5781C161.627 72.7353 161.418 71.7481 161.418 70.6165C161.418 69.4991 161.627 68.5142 162.043 67.6619C162.465 66.8097 163.052 66.1444 163.805 65.6662C164.562 65.188 165.448 64.9489 166.461 64.9489C167.076 64.9489 167.673 65.0507 168.251 65.2543C168.828 65.4579 169.347 65.7775 169.806 66.2131C170.265 66.6487 170.628 67.2145 170.893 67.9105C171.158 68.6018 171.29 69.4422 171.29 70.4318V71.1847H162.619V69.5938H169.209C169.209 69.035 169.096 68.5402 168.869 68.1094C168.641 67.6738 168.322 67.3305 167.91 67.0795C167.503 66.8286 167.024 66.7031 166.475 66.7031C165.878 66.7031 165.358 66.8499 164.913 67.1435C164.472 67.4323 164.131 67.8111 163.89 68.2798C163.653 68.7438 163.535 69.2481 163.535 69.7926V71.0355C163.535 71.7647 163.663 72.3849 163.918 72.8963C164.179 73.4077 164.541 73.7983 165.005 74.0682C165.469 74.3333 166.011 74.4659 166.631 74.4659C167.034 74.4659 167.401 74.4091 167.732 74.2955C168.064 74.1771 168.35 74.0019 168.592 73.7699C168.833 73.5379 169.018 73.2514 169.146 72.9105L171.155 73.2727C170.994 73.8646 170.706 74.383 170.289 74.8281C169.877 75.2685 169.359 75.6117 168.734 75.858C168.113 76.0994 167.405 76.2202 166.61 76.2202Z" fill="white"/>
<path d="M234.604 27.4561C234.299 27.7473 234.257 27.9137 234.257 28.6902C234.257 29.5223 234.23 29.6055 233.952 29.6609C233.772 29.7025 232.982 29.8689 232.177 30.0215C231.373 30.1879 230.583 30.3543 230.402 30.3959C230.153 30.4514 230.056 30.382 229.875 29.9383C229.556 29.1617 229.293 28.9121 228.766 28.9121C228.1 28.9121 222.484 31.3111 222.096 31.7688C221.735 32.1709 221.694 32.573 221.985 33.0723C222.096 33.2664 222.179 33.516 222.193 33.6408C222.193 33.8072 219.822 35.5684 219.239 35.818C219.184 35.8457 218.892 35.6516 218.587 35.3742C217.589 34.4729 217.506 34.5145 214.608 37.4127C211.709 40.3109 211.668 40.3941 212.569 41.3926C212.846 41.6977 213.041 41.9889 213.013 42.0443C212.763 42.6268 211.002 44.998 210.836 44.998C210.711 44.9842 210.461 44.901 210.267 44.79C209.768 44.4988 209.366 44.5404 208.964 44.8871C208.548 45.2615 206.107 50.8777 206.107 51.4463C206.107 52.0287 206.357 52.3477 207.036 52.6389C207.577 52.8607 207.646 52.9578 207.577 53.2213C207.535 53.3877 207.369 54.1781 207.216 54.9824C207.05 55.7867 206.897 56.5771 206.856 56.7436C206.8 57.0348 206.717 57.0625 205.885 57.0625C205.108 57.0625 204.942 57.1041 204.651 57.4092L204.304 57.742V61.5V65.258L204.651 65.5908C204.942 65.8959 205.108 65.9375 205.885 65.9375C206.717 65.9375 206.8 65.9652 206.856 66.2426C206.897 66.4229 207.05 67.2133 207.216 68.0176C207.369 68.8219 207.535 69.6123 207.577 69.7926C207.646 70.0561 207.577 70.1393 207.133 70.3195C206.357 70.6385 206.107 70.902 206.107 71.4289C206.107 72.0945 208.506 77.7107 208.964 78.099C209.366 78.4596 209.768 78.5012 210.267 78.21C210.461 78.099 210.711 78.0158 210.836 78.002C211.002 78.002 212.763 80.3732 213.013 80.9557C213.041 81.0111 212.846 81.3023 212.569 81.6074C211.668 82.6059 211.709 82.6891 214.608 85.5873C217.506 88.4855 217.589 88.5271 218.587 87.6258C218.892 87.3484 219.184 87.1543 219.239 87.182C219.822 87.4316 222.193 89.1928 222.193 89.3592C222.179 89.484 222.096 89.7336 221.985 89.9277C221.694 90.427 221.735 90.8291 222.096 91.2313C222.484 91.6889 228.1 94.0879 228.766 94.0879C229.293 94.0879 229.556 93.8383 229.875 93.0617C230.056 92.618 230.153 92.5486 230.402 92.6041C230.583 92.6457 231.373 92.8121 232.177 92.9646C232.982 93.1311 233.772 93.2975 233.952 93.3391C234.23 93.3945 234.257 93.4777 234.257 94.3098C234.257 95.0863 234.299 95.2527 234.604 95.5439L234.937 95.8906H238.695H242.453L242.786 95.5439C243.091 95.2527 243.132 95.0863 243.132 94.3098C243.132 93.4777 243.16 93.3945 243.451 93.3391C243.618 93.2975 244.38 93.1449 245.157 92.9924C245.92 92.8398 246.71 92.6734 246.918 92.6318C247.251 92.5348 247.32 92.5902 247.514 93.0617C247.833 93.8521 248.097 94.0879 248.638 94.0879C249.303 94.0879 254.892 91.6889 255.308 91.2313C255.654 90.8291 255.696 90.427 255.405 89.9277C255.294 89.7336 255.211 89.484 255.197 89.3592C255.197 89.1928 257.568 87.4316 258.15 87.182C258.206 87.1543 258.497 87.3484 258.802 87.6258C259.801 88.5271 259.884 88.4855 262.782 85.5873C265.68 82.6891 265.722 82.6059 264.821 81.6074C264.543 81.3023 264.349 81.0111 264.377 80.9557C264.626 80.3732 266.388 78.002 266.554 78.002C266.679 78.0158 266.928 78.099 267.123 78.21C267.622 78.5012 268.024 78.4596 268.426 78.1129C268.884 77.6969 271.283 72.1084 271.283 71.4428C271.283 70.902 271.047 70.6385 270.257 70.3195C269.813 70.1393 269.743 70.0561 269.813 69.7926C269.854 69.6123 270.021 68.8219 270.173 68.0176C270.34 67.2133 270.492 66.4229 270.534 66.2426C270.589 65.9652 270.673 65.9375 271.505 65.9375C272.281 65.9375 272.448 65.8959 272.739 65.5908L273.085 65.258V61.5V57.742L272.739 57.4092C272.448 57.1041 272.281 57.0625 271.505 57.0625C270.673 57.0625 270.589 57.0348 270.534 56.7436C270.492 56.5771 270.34 55.7867 270.173 54.9824C270.021 54.1781 269.854 53.3877 269.813 53.2213C269.743 52.9578 269.813 52.8607 270.354 52.6389C271.033 52.3477 271.283 52.0287 271.283 51.4602C271.283 50.8916 268.828 45.2477 268.426 44.8871C268.024 44.5404 267.622 44.4988 267.123 44.79C266.928 44.901 266.679 44.9842 266.554 44.998C266.388 44.998 264.626 42.6268 264.377 42.0443C264.349 41.9889 264.543 41.6977 264.821 41.3926C265.722 40.3941 265.68 40.3109 262.782 37.4127C259.884 34.5145 259.801 34.4729 258.802 35.3742C258.497 35.6516 258.206 35.8457 258.15 35.818C257.568 35.5684 255.197 33.8072 255.197 33.6408C255.211 33.516 255.294 33.2664 255.405 33.0723C255.696 32.573 255.654 32.1709 255.308 31.7688C254.906 31.3111 249.289 28.9121 248.624 28.9121C248.097 28.9121 247.833 29.1617 247.514 29.9383C247.32 30.4098 247.251 30.4652 246.918 30.3682C246.71 30.3266 245.92 30.1602 245.157 30.0076C244.38 29.8551 243.618 29.7025 243.451 29.6609C243.16 29.6055 243.132 29.5223 243.132 28.6902C243.132 27.9137 243.091 27.7473 242.786 27.4561L242.453 27.1094H238.695H234.937L234.604 27.4561ZM240.914 30.1047C240.914 31.4359 241.08 31.5746 243.105 31.8797C243.867 32.0045 245.309 32.2957 246.294 32.5314C248.041 32.9752 248.111 32.9752 248.471 32.7395C248.679 32.6008 248.943 32.268 249.054 31.9906C249.165 31.7133 249.275 31.4637 249.289 31.4498C249.331 31.4082 252.881 32.9197 252.964 33.0168C253.006 33.0445 252.923 33.2941 252.798 33.5576C252.326 34.5283 252.576 34.9443 254.184 35.8734C254.781 36.2201 255.862 36.9551 256.583 37.4959C258.137 38.6607 258.511 38.7301 259.288 38.0367L259.787 37.6068L261.187 39.0074L262.588 40.408L262.158 40.9072C261.465 41.6838 261.534 42.0721 262.685 43.5975C263.212 44.3047 263.947 45.3863 264.308 45.9965C264.973 47.1336 265.458 47.6328 265.875 47.6328C266.013 47.6328 266.346 47.5357 266.637 47.4109C266.915 47.3 267.178 47.2168 267.192 47.2445C267.358 47.4109 268.773 50.8916 268.69 50.9193C268.163 51.0996 267.58 51.5156 267.4 51.8207C267.22 52.1535 267.22 52.2783 267.442 53.0688C267.719 54.0672 268.315 56.9377 268.44 57.95C268.579 58.9484 268.967 59.2812 270.035 59.2812H270.867V61.5V63.7188H270.035C268.967 63.7188 268.579 64.0516 268.44 65.05C268.315 66.0623 267.719 68.9328 267.442 69.9312C267.22 70.7217 267.22 70.8465 267.4 71.1793C267.58 71.4844 268.163 71.9004 268.69 72.0807C268.773 72.1084 267.358 75.5891 267.192 75.7555C267.178 75.7832 266.915 75.7 266.637 75.5891C266.346 75.4643 266.013 75.3672 265.875 75.3672C265.458 75.3672 264.973 75.8664 264.308 77.0035C263.947 77.6137 263.212 78.6953 262.685 79.4025C261.534 80.9279 261.465 81.3162 262.158 82.0928L262.588 82.592L261.187 83.9926L259.787 85.3932L259.288 84.9633C258.511 84.2699 258.137 84.3531 256.597 85.4902C255.89 86.0172 254.808 86.7521 254.198 87.1127C252.576 88.0695 252.326 88.4717 252.798 89.4424C252.923 89.7059 253.006 89.9555 252.964 89.9832C252.798 90.1635 249.303 91.5779 249.275 91.4947C249.095 90.9678 248.679 90.3854 248.374 90.2051C248.041 90.0248 247.917 90.0248 247.126 90.2467C246.128 90.524 243.257 91.1203 242.245 91.2451C241.246 91.3838 240.914 91.7721 240.914 92.8398V93.6719H238.695H236.476V92.8398C236.476 91.7721 236.143 91.3838 235.145 91.2451C233.925 91.0787 232.968 90.8984 231.109 90.4547C229.348 90.0248 229.279 90.0248 228.918 90.2605C228.71 90.3992 228.447 90.732 228.336 91.0094C228.225 91.2867 228.114 91.5363 228.1 91.5502C228.059 91.5918 224.509 90.0803 224.425 89.9832C224.384 89.9555 224.467 89.7059 224.592 89.4424C225.063 88.4717 224.814 88.0695 223.191 87.1127C222.581 86.7521 221.5 86.0172 220.792 85.4902C219.267 84.3393 218.879 84.2699 218.102 84.9633L217.603 85.3932L216.202 83.9926L214.802 82.592L215.232 82.0928C215.925 81.3162 215.856 80.9279 214.705 79.4025C214.178 78.6953 213.443 77.6137 213.082 77.0035C212.125 75.3811 211.723 75.1314 210.752 75.6029C210.489 75.7277 210.239 75.8109 210.212 75.7693C210.115 75.6861 208.603 72.1361 208.645 72.0945C208.658 72.0807 208.908 71.9697 209.185 71.8588C209.463 71.7479 209.796 71.4844 209.934 71.2764C210.17 70.9158 210.17 70.8465 209.726 69.0992C209.491 68.1146 209.199 66.6725 209.075 65.9098C208.769 63.8852 208.631 63.7188 207.3 63.7188H206.523V61.5V59.2812H207.355C208.423 59.2812 208.811 58.9484 208.95 57.95C209.075 56.9654 209.657 54.0949 209.948 53.0688C210.17 52.2783 210.17 52.1535 209.99 51.8207C209.809 51.5156 209.227 51.0996 208.7 50.9193C208.617 50.8916 210.031 47.3971 210.212 47.2307C210.239 47.1891 210.489 47.2723 210.752 47.3971C211.723 47.8686 212.125 47.6189 213.082 45.9965C213.443 45.3863 214.178 44.3047 214.705 43.5975C215.842 42.0582 215.925 41.6838 215.232 40.9072L214.802 40.408L216.202 39.0074L217.603 37.6068L218.102 38.0367C218.879 38.7301 219.267 38.6607 220.765 37.5375C221.458 37.0244 222.442 36.3588 222.956 36.0537C224.12 35.3742 224.828 34.7225 224.828 34.3342C224.828 34.1816 224.717 33.835 224.592 33.5576C224.467 33.2941 224.384 33.0445 224.425 33.0168C224.592 32.8365 228.086 31.4221 228.114 31.5053C228.294 32.0322 228.71 32.6147 229.016 32.7949C229.348 32.9752 229.473 32.9752 230.264 32.7533C231.262 32.476 234.133 31.8797 235.145 31.7549C236.143 31.6162 236.476 31.2279 236.476 30.1602V29.3281H238.695H240.914V30.1047Z" fill="#4C4C4C"/>
<path d="M237.585 36.1646C236.906 36.3865 235.741 37.5791 235.533 38.2863C235.145 39.5898 235.422 40.6299 236.407 41.6006C237.114 42.3217 237.821 42.6406 238.695 42.6406C239.568 42.6406 240.276 42.3217 240.983 41.6006C242.342 40.2555 242.384 38.5221 241.094 37.0938C240.192 36.0953 238.903 35.7486 237.585 36.1646ZM239.458 38.5498C239.679 38.7578 239.804 39.049 239.804 39.3125C239.804 39.576 239.679 39.8672 239.458 40.0752C238.778 40.7686 237.585 40.2832 237.585 39.3125C237.585 38.7439 238.126 38.2031 238.695 38.2031C238.958 38.2031 239.25 38.3279 239.458 38.5498Z" fill="#4C4C4C"/>
<path d="M230.097 37.4959C217.104 42.1691 210.114 56.5217 214.483 69.543C215.426 72.3164 216.133 73.5645 216.798 73.5645C217.117 73.5645 230.707 68.3781 231.165 68.073C231.761 67.6986 231.72 67.2826 230.943 65.7572C230.153 64.2041 229.82 62.9422 229.82 61.5C229.82 57.7143 232.344 54.2475 236.004 53.0549C236.878 52.7637 237.308 52.3754 237.308 51.8623C237.308 51.5711 233.342 38.4805 232.995 37.6068C232.662 36.8025 232.094 36.7748 230.097 37.4959ZM232.995 45.109C233.952 48.2152 234.743 50.8223 234.77 50.9055C234.812 51.0025 234.368 51.2938 233.8 51.5711C228.558 54.0811 226.256 60.2936 228.488 65.8404L228.821 66.6447L228.53 66.7834C228.364 66.8527 225.798 67.8373 222.845 68.9744L217.45 71.0406L217.117 70.2779C216.937 69.8619 216.59 68.8912 216.369 68.1146C212.985 56.5217 218.92 44.3602 230.166 39.8117C230.624 39.6314 231.068 39.465 231.137 39.465C231.22 39.465 232.052 42.0027 232.995 45.109Z" fill="#4C4C4C"/>
<path d="M244.783 37.0938C244.658 37.1631 244.491 37.3988 244.394 37.6068C244.061 38.4527 240.082 51.5711 240.082 51.8484C240.082 52.3477 240.47 52.7359 241.233 52.9717C243.576 53.7482 245.587 55.44 246.585 57.5063C247.944 60.3074 247.903 62.9006 246.447 65.7434C245.67 67.2688 245.628 67.6986 246.225 68.073C246.641 68.3365 260.258 73.5645 260.536 73.5645C261.035 73.5645 261.354 73.2039 261.922 71.9975C265.791 63.7465 264.64 53.4848 258.996 46.0797C258.04 44.8316 255.849 42.5852 254.642 41.6145C252.409 39.8117 249.789 38.3557 247.182 37.4543C245.712 36.9412 245.171 36.858 244.783 37.0938ZM247.542 39.9504C250.371 41.1014 252.923 42.8348 255.197 45.1367C258.83 48.7977 261.104 53.457 261.784 58.5602C262.117 61.0979 262.019 63.5939 261.492 66.2842C261.257 67.4213 260.452 70.0145 260.106 70.6662L259.925 71.0406L254.545 68.9744C251.591 67.8373 249.026 66.8527 248.859 66.7834L248.568 66.6447L248.901 65.8404C251.134 60.2936 248.859 54.1643 243.604 51.5572C243.035 51.2799 242.592 50.9887 242.619 50.9055C242.647 50.8223 243.437 48.2152 244.394 45.109C245.337 42.0027 246.169 39.4512 246.225 39.4512C246.294 39.4512 246.876 39.673 247.542 39.9504Z" fill="#4C4C4C"/>
<path d="M237.045 55.0659C233.536 56.0088 231.359 59.6559 232.247 63.095C233.176 66.645 236.809 68.8498 240.29 67.9485C243.84 67.0194 246.045 63.3862 245.143 59.9332C244.214 56.3416 240.525 54.1229 237.045 55.0659ZM240.789 57.6313C241.718 58.1305 242.148 58.5743 242.689 59.6143C242.994 60.2106 243.049 60.5018 243.049 61.5002C243.063 62.5819 243.022 62.7483 242.592 63.5526C242.065 64.5233 241.621 64.9393 240.581 65.494C239.985 65.7991 239.693 65.8545 238.695 65.8545C237.697 65.8545 237.405 65.7991 236.809 65.494C235.769 64.9393 235.325 64.5233 234.798 63.5526C234.368 62.7483 234.327 62.5819 234.341 61.5002C234.341 60.1135 234.673 59.2815 235.575 58.3801C236.962 56.9934 239.028 56.7022 240.789 57.6313Z" fill="#4C4C4C"/>
<path d="M232.33 68.808C232.136 68.9744 231.123 71.4289 229.334 76.0883C227.851 79.9572 226.63 83.216 226.63 83.3408C226.63 83.8401 226.991 84.159 228.197 84.7276C234.646 87.7506 242.813 87.7506 249.178 84.7414C250.399 84.159 250.759 83.8401 250.759 83.3408C250.759 83.216 249.539 79.9572 248.055 76.0883C246.266 71.4289 245.254 68.9744 245.06 68.808C244.63 68.4613 244.325 68.5168 243.216 69.1131C241.662 69.9729 240.414 70.2918 238.695 70.2918C236.975 70.2918 235.727 69.9729 234.174 69.1131C233.065 68.5168 232.76 68.4613 232.33 68.808ZM237.364 72.469C239.069 72.6908 240.844 72.4828 242.467 71.9004C243.105 71.6647 243.673 71.4705 243.742 71.4428C243.812 71.4289 244.852 73.9666 246.044 77.0729L248.235 82.7307L247.861 82.911C246.474 83.6182 243.41 84.4086 240.983 84.6721C237.488 85.0465 232.857 84.3809 229.917 83.0774L229.154 82.7446L231.22 77.3502C232.358 74.3965 233.342 71.8311 233.411 71.6785L233.55 71.3735L234.784 71.8449C235.561 72.1362 236.532 72.3719 237.364 72.469Z" fill="#4C4C4C"/>
<path d="M220.945 74.993C220.265 75.2148 219.1 76.4074 218.892 77.1146C218.504 78.4182 218.782 79.4582 219.766 80.4289C221.167 81.8434 222.942 81.8434 224.342 80.4289C225.701 79.0838 225.743 77.3504 224.453 75.9221C223.552 74.9236 222.262 74.577 220.945 74.993ZM222.817 77.3781C223.51 78.0576 223.025 79.2502 222.054 79.2502C221.791 79.2502 221.5 79.1254 221.292 78.9035C221.07 78.6955 220.945 78.4043 220.945 78.1408C220.945 77.8773 221.07 77.5861 221.292 77.3781C221.5 77.1563 221.791 77.0314 222.054 77.0314C222.318 77.0314 222.609 77.1563 222.817 77.3781Z" fill="#4C4C4C"/>
<path d="M254.226 74.993C253.547 75.2148 252.382 76.4074 252.174 77.1146C251.785 78.4182 252.063 79.4582 253.047 80.4289C254.448 81.8434 256.223 81.8434 257.624 80.4289C258.983 79.0838 259.024 77.3504 257.734 75.9221C256.833 74.9236 255.543 74.577 254.226 74.993ZM256.098 77.3781C256.792 78.0576 256.306 79.2502 255.335 79.2502C254.767 79.2502 254.226 78.7094 254.226 78.1408C254.226 77.5723 254.767 77.0314 255.335 77.0314C255.599 77.0314 255.89 77.1563 256.098 77.3781Z" fill="#4C4C4C"/>
<path d="M35.9676 134H34.5585C34.4751 133.595 34.3293 133.239 34.121 132.932C33.9164 132.625 33.6664 132.367 33.371 132.159C33.0793 131.947 32.7554 131.788 32.3994 131.682C32.0433 131.576 31.6721 131.523 31.2857 131.523C30.5812 131.523 29.9429 131.701 29.371 132.057C28.8028 132.413 28.3501 132.938 28.013 133.631C27.6797 134.324 27.513 135.174 27.513 136.182C27.513 137.189 27.6797 138.04 28.013 138.733C28.3501 139.426 28.8028 139.951 29.371 140.307C29.9429 140.663 30.5812 140.841 31.2857 140.841C31.6721 140.841 32.0433 140.788 32.3994 140.682C32.7554 140.576 33.0793 140.419 33.371 140.21C33.6664 139.998 33.9164 139.739 34.121 139.432C34.3293 139.121 34.4751 138.765 34.5585 138.364H35.9676C35.8615 138.958 35.6683 139.491 35.388 139.96C35.1077 140.43 34.7592 140.83 34.3426 141.159C33.9259 141.485 33.4581 141.733 32.9391 141.903C32.424 142.074 31.8729 142.159 31.2857 142.159C30.2933 142.159 29.4107 141.917 28.638 141.432C27.8653 140.947 27.2573 140.258 26.8141 139.364C26.371 138.47 26.1494 137.409 26.1494 136.182C26.1494 134.955 26.371 133.894 26.8141 133C27.2573 132.106 27.8653 131.417 28.638 130.932C29.4107 130.447 30.2933 130.205 31.2857 130.205C31.8729 130.205 32.424 130.29 32.9391 130.46C33.4581 130.631 33.9259 130.881 34.3426 131.21C34.7592 131.536 35.1077 131.934 35.388 132.403C35.6683 132.869 35.8615 133.402 35.9676 134ZM41.6082 142.182C40.8203 142.182 40.129 141.994 39.5343 141.619C38.9434 141.244 38.4813 140.72 38.1479 140.045C37.8184 139.371 37.6536 138.583 37.6536 137.682C37.6536 136.773 37.8184 135.979 38.1479 135.301C38.4813 134.623 38.9434 134.097 39.5343 133.722C40.129 133.347 40.8203 133.159 41.6082 133.159C42.3961 133.159 43.0854 133.347 43.6764 133.722C44.2711 134.097 44.7332 134.623 45.0627 135.301C45.3961 135.979 45.5627 136.773 45.5627 137.682C45.5627 138.583 45.3961 139.371 45.0627 140.045C44.7332 140.72 44.2711 141.244 43.6764 141.619C43.0854 141.994 42.3961 142.182 41.6082 142.182ZM41.6082 140.977C42.2067 140.977 42.6991 140.824 43.0854 140.517C43.4718 140.21 43.7578 139.807 43.9434 139.307C44.129 138.807 44.2218 138.265 44.2218 137.682C44.2218 137.098 44.129 136.555 43.9434 136.051C43.7578 135.547 43.4718 135.14 43.0854 134.83C42.6991 134.519 42.2067 134.364 41.6082 134.364C41.0097 134.364 40.5173 134.519 40.1309 134.83C39.7445 135.14 39.4586 135.547 39.2729 136.051C39.0873 136.555 38.9945 137.098 38.9945 137.682C38.9945 138.265 39.0873 138.807 39.2729 139.307C39.4586 139.807 39.7445 140.21 40.1309 140.517C40.5173 140.824 41.0097 140.977 41.6082 140.977ZM48.9505 136.75V142H47.6096V133.273H48.9051V134.636H49.0187C49.2232 134.193 49.5338 133.837 49.9505 133.568C50.3672 133.295 50.9051 133.159 51.5641 133.159C52.1551 133.159 52.6721 133.28 53.1153 133.523C53.5585 133.761 53.9032 134.125 54.1494 134.614C54.3956 135.098 54.5187 135.712 54.5187 136.455V142H53.1778V136.545C53.1778 135.86 52.9997 135.326 52.6437 134.943C52.2876 134.557 51.799 134.364 51.1778 134.364C50.7497 134.364 50.3672 134.456 50.0301 134.642C49.6967 134.828 49.4335 135.098 49.2403 135.455C49.0471 135.811 48.9505 136.242 48.9505 136.75ZM60.7644 133.273V134.409H56.2417V133.273H60.7644ZM57.5599 131.182H58.9008V139.5C58.9008 139.879 58.9557 140.163 59.0656 140.352C59.1792 140.538 59.3231 140.663 59.4974 140.727C59.6754 140.788 59.8629 140.818 60.0599 140.818C60.2076 140.818 60.3288 140.811 60.4235 140.795C60.5182 140.777 60.594 140.761 60.6508 140.75L60.9235 141.955C60.8326 141.989 60.7057 142.023 60.5428 142.057C60.38 142.095 60.1735 142.114 59.9235 142.114C59.5447 142.114 59.1735 142.032 58.8099 141.869C58.45 141.706 58.1508 141.458 57.9122 141.125C57.6773 140.792 57.5599 140.371 57.5599 139.864V131.182ZM62.7815 142V133.273H64.0769V134.591H64.1678C64.3269 134.159 64.6148 133.809 65.0315 133.54C65.4481 133.271 65.9178 133.136 66.4406 133.136C66.539 133.136 66.6622 133.138 66.8099 133.142C66.9576 133.146 67.0694 133.152 67.1451 133.159V134.523C67.0997 134.511 66.9955 134.494 66.8326 134.472C66.6735 134.445 66.505 134.432 66.3269 134.432C65.9027 134.432 65.5239 134.521 65.1906 134.699C64.861 134.873 64.5997 135.116 64.4065 135.426C64.2171 135.733 64.1224 136.083 64.1224 136.477V142H62.7815ZM71.3028 142.205C70.7497 142.205 70.2479 142.1 69.7971 141.892C69.3463 141.68 68.9884 141.375 68.7232 140.977C68.4581 140.576 68.3255 140.091 68.3255 139.523C68.3255 139.023 68.424 138.617 68.621 138.307C68.8179 137.992 69.0812 137.746 69.4107 137.568C69.7403 137.39 70.1039 137.258 70.5016 137.17C70.9032 137.08 71.3066 137.008 71.7119 136.955C72.2422 136.886 72.6721 136.835 73.0016 136.801C73.335 136.763 73.5774 136.701 73.7289 136.614C73.8842 136.527 73.9619 136.375 73.9619 136.159V136.114C73.9619 135.553 73.8085 135.117 73.5016 134.807C73.1986 134.496 72.7384 134.341 72.121 134.341C71.4808 134.341 70.9789 134.481 70.6153 134.761C70.2516 135.042 69.996 135.341 69.8482 135.659L68.5755 135.205C68.8028 134.674 69.1058 134.261 69.4846 133.966C69.8672 133.667 70.2838 133.458 70.7346 133.341C71.1891 133.22 71.6361 133.159 72.0755 133.159C72.3558 133.159 72.6778 133.193 73.0414 133.261C73.4088 133.326 73.763 133.46 74.1039 133.665C74.4486 133.869 74.7346 134.178 74.9619 134.591C75.1891 135.004 75.3028 135.557 75.3028 136.25V142H73.9619V140.818H73.8937C73.8028 141.008 73.6513 141.21 73.4391 141.426C73.227 141.642 72.9448 141.826 72.5926 141.977C72.2403 142.129 71.8104 142.205 71.3028 142.205ZM71.5073 141C72.0376 141 72.4846 140.896 72.8482 140.688C73.2157 140.479 73.4922 140.21 73.6778 139.881C73.8672 139.551 73.9619 139.205 73.9619 138.841V137.614C73.9051 137.682 73.7801 137.744 73.5869 137.801C73.3975 137.854 73.1778 137.902 72.9278 137.943C72.6816 137.981 72.441 138.015 72.2062 138.045C71.9751 138.072 71.7876 138.095 71.6437 138.114C71.2952 138.159 70.9694 138.233 70.6664 138.335C70.3672 138.434 70.1247 138.583 69.9391 138.784C69.7573 138.981 69.6664 139.25 69.6664 139.591C69.6664 140.057 69.8388 140.409 70.1835 140.648C70.5319 140.883 70.9732 141 71.5073 141ZM77.7502 142V133.273H79.0457V134.591H79.1366C79.2957 134.159 79.5836 133.809 80.0002 133.54C80.4169 133.271 80.8866 133.136 81.4093 133.136C81.5078 133.136 81.6309 133.138 81.7786 133.142C81.9264 133.146 82.0381 133.152 82.1139 133.159V134.523C82.0684 134.511 81.9642 134.494 81.8014 134.472C81.6423 134.445 81.4737 134.432 81.2957 134.432C80.8714 134.432 80.4926 134.521 80.1593 134.699C79.8298 134.873 79.5684 135.116 79.3752 135.426C79.1858 135.733 79.0911 136.083 79.0911 136.477V142H77.7502ZM84.8326 145.273C84.6053 145.273 84.4027 145.254 84.2247 145.216C84.0466 145.182 83.9235 145.148 83.8553 145.114L84.1962 143.932C84.522 144.015 84.8099 144.045 85.0599 144.023C85.3099 144 85.5315 143.888 85.7247 143.688C85.9216 143.491 86.1015 143.17 86.2644 142.727L86.5144 142.045L83.2872 133.273H84.7417L87.1508 140.227H87.2417L89.6508 133.273H91.1053L87.4008 143.273C87.2341 143.723 87.0277 144.097 86.7815 144.392C86.5353 144.691 86.2493 144.913 85.9235 145.057C85.6015 145.201 85.2379 145.273 84.8326 145.273ZM101.171 133.273V134.409H96.6479V133.273H101.171ZM97.9661 131.182H99.307V139.5C99.307 139.879 99.362 140.163 99.4718 140.352C99.5854 140.538 99.7294 140.663 99.9036 140.727C100.082 140.788 100.269 140.818 100.466 140.818C100.614 140.818 100.735 140.811 100.83 140.795C100.924 140.777 101 140.761 101.057 140.75L101.33 141.955C101.239 141.989 101.112 142.023 100.949 142.057C100.786 142.095 100.58 142.114 100.33 142.114C99.951 142.114 99.5798 142.032 99.2161 141.869C98.8563 141.706 98.557 141.458 98.3184 141.125C98.0836 140.792 97.9661 140.371 97.9661 139.864V131.182ZM106.639 142.182C105.852 142.182 105.16 141.994 104.566 141.619C103.975 141.244 103.513 140.72 103.179 140.045C102.85 139.371 102.685 138.583 102.685 137.682C102.685 136.773 102.85 135.979 103.179 135.301C103.513 134.623 103.975 134.097 104.566 133.722C105.16 133.347 105.852 133.159 106.639 133.159C107.427 133.159 108.117 133.347 108.708 133.722C109.302 134.097 109.764 134.623 110.094 135.301C110.427 135.979 110.594 136.773 110.594 137.682C110.594 138.583 110.427 139.371 110.094 140.045C109.764 140.72 109.302 141.244 108.708 141.619C108.117 141.994 107.427 142.182 106.639 142.182ZM106.639 140.977C107.238 140.977 107.73 140.824 108.117 140.517C108.503 140.21 108.789 139.807 108.975 139.307C109.16 138.807 109.253 138.265 109.253 137.682C109.253 137.098 109.16 136.555 108.975 136.051C108.789 135.547 108.503 135.14 108.117 134.83C107.73 134.519 107.238 134.364 106.639 134.364C106.041 134.364 105.549 134.519 105.162 134.83C104.776 135.14 104.49 135.547 104.304 136.051C104.119 136.555 104.026 137.098 104.026 137.682C104.026 138.265 104.119 138.807 104.304 139.307C104.49 139.807 104.776 140.21 105.162 140.517C105.549 140.824 106.041 140.977 106.639 140.977ZM117.141 145.273V133.273H118.436V134.659H118.595C118.694 134.508 118.83 134.314 119.004 134.08C119.183 133.841 119.436 133.629 119.766 133.443C120.099 133.254 120.55 133.159 121.118 133.159C121.853 133.159 122.501 133.343 123.061 133.71C123.622 134.078 124.059 134.598 124.374 135.273C124.688 135.947 124.845 136.742 124.845 137.659C124.845 138.583 124.688 139.384 124.374 140.062C124.059 140.737 123.624 141.259 123.067 141.631C122.51 141.998 121.868 142.182 121.141 142.182C120.58 142.182 120.131 142.089 119.794 141.903C119.457 141.714 119.198 141.5 119.016 141.261C118.834 141.019 118.694 140.818 118.595 140.659H118.482V145.273H117.141ZM118.459 137.636C118.459 138.295 118.556 138.877 118.749 139.381C118.942 139.881 119.224 140.273 119.595 140.557C119.967 140.837 120.421 140.977 120.959 140.977C121.52 140.977 121.987 140.83 122.362 140.534C122.741 140.235 123.025 139.833 123.215 139.33C123.408 138.822 123.504 138.258 123.504 137.636C123.504 137.023 123.41 136.47 123.22 135.977C123.035 135.481 122.753 135.089 122.374 134.801C121.999 134.509 121.527 134.364 120.959 134.364C120.414 134.364 119.955 134.502 119.584 134.778C119.213 135.051 118.933 135.434 118.743 135.926C118.554 136.415 118.459 136.985 118.459 137.636ZM130.436 142.182C129.648 142.182 128.957 141.994 128.362 141.619C127.772 141.244 127.309 140.72 126.976 140.045C126.647 139.371 126.482 138.583 126.482 137.682C126.482 136.773 126.647 135.979 126.976 135.301C127.309 134.623 127.772 134.097 128.362 133.722C128.957 133.347 129.648 133.159 130.436 133.159C131.224 133.159 131.914 133.347 132.504 133.722C133.099 134.097 133.561 134.623 133.891 135.301C134.224 135.979 134.391 136.773 134.391 137.682C134.391 138.583 134.224 139.371 133.891 140.045C133.561 140.72 133.099 141.244 132.504 141.619C131.914 141.994 131.224 142.182 130.436 142.182ZM130.436 140.977C131.035 140.977 131.527 140.824 131.914 140.517C132.3 140.21 132.586 139.807 132.772 139.307C132.957 138.807 133.05 138.265 133.05 137.682C133.05 137.098 132.957 136.555 132.772 136.051C132.586 135.547 132.3 135.14 131.914 134.83C131.527 134.519 131.035 134.364 130.436 134.364C129.838 134.364 129.345 134.519 128.959 134.83C128.573 135.14 128.287 135.547 128.101 136.051C127.915 136.555 127.823 137.098 127.823 137.682C127.823 138.265 127.915 138.807 128.101 139.307C128.287 139.807 128.573 140.21 128.959 140.517C129.345 140.824 129.838 140.977 130.436 140.977ZM136.438 145.273V133.273H137.733V134.659H137.892C137.991 134.508 138.127 134.314 138.301 134.08C138.479 133.841 138.733 133.629 139.063 133.443C139.396 133.254 139.847 133.159 140.415 133.159C141.15 133.159 141.798 133.343 142.358 133.71C142.919 134.078 143.356 134.598 143.671 135.273C143.985 135.947 144.142 136.742 144.142 137.659C144.142 138.583 143.985 139.384 143.671 140.062C143.356 140.737 142.921 141.259 142.364 141.631C141.807 141.998 141.165 142.182 140.438 142.182C139.877 142.182 139.428 142.089 139.091 141.903C138.754 141.714 138.495 141.5 138.313 141.261C138.131 141.019 137.991 140.818 137.892 140.659H137.779V145.273H136.438ZM137.756 137.636C137.756 138.295 137.852 138.877 138.046 139.381C138.239 139.881 138.521 140.273 138.892 140.557C139.263 140.837 139.718 140.977 140.256 140.977C140.817 140.977 141.284 140.83 141.659 140.534C142.038 140.235 142.322 139.833 142.512 139.33C142.705 138.822 142.801 138.258 142.801 137.636C142.801 137.023 142.707 136.47 142.517 135.977C142.332 135.481 142.049 135.089 141.671 134.801C141.296 134.509 140.824 134.364 140.256 134.364C139.71 134.364 139.252 134.502 138.881 134.778C138.51 135.051 138.229 135.434 138.04 135.926C137.851 136.415 137.756 136.985 137.756 137.636ZM151.688 138.432V133.273H153.029V142H151.688V140.523H151.597C151.392 140.966 151.074 141.343 150.642 141.653C150.21 141.96 149.665 142.114 149.006 142.114C148.46 142.114 147.976 141.994 147.551 141.756C147.127 141.513 146.794 141.15 146.551 140.665C146.309 140.176 146.188 139.561 146.188 138.818V133.273H147.529V138.727C147.529 139.364 147.707 139.871 148.063 140.25C148.423 140.629 148.881 140.818 149.438 140.818C149.771 140.818 150.11 140.733 150.455 140.562C150.803 140.392 151.095 140.131 151.33 139.778C151.568 139.426 151.688 138.977 151.688 138.432ZM156.826 130.364V142H155.485V130.364H156.826ZM161.85 142.205C161.297 142.205 160.795 142.1 160.344 141.892C159.893 141.68 159.535 141.375 159.27 140.977C159.005 140.576 158.872 140.091 158.872 139.523C158.872 139.023 158.971 138.617 159.168 138.307C159.365 137.992 159.628 137.746 159.958 137.568C160.287 137.39 160.651 137.258 161.049 137.17C161.45 137.08 161.853 137.008 162.259 136.955C162.789 136.886 163.219 136.835 163.549 136.801C163.882 136.763 164.124 136.701 164.276 136.614C164.431 136.527 164.509 136.375 164.509 136.159V136.114C164.509 135.553 164.355 135.117 164.049 134.807C163.745 134.496 163.285 134.341 162.668 134.341C162.028 134.341 161.526 134.481 161.162 134.761C160.799 135.042 160.543 135.341 160.395 135.659L159.122 135.205C159.35 134.674 159.653 134.261 160.031 133.966C160.414 133.667 160.831 133.458 161.281 133.341C161.736 133.22 162.183 133.159 162.622 133.159C162.903 133.159 163.225 133.193 163.588 133.261C163.956 133.326 164.31 133.46 164.651 133.665C164.995 133.869 165.281 134.178 165.509 134.591C165.736 135.004 165.85 135.557 165.85 136.25V142H164.509V140.818H164.441C164.35 141.008 164.198 141.21 163.986 141.426C163.774 141.642 163.492 141.826 163.139 141.977C162.787 142.129 162.357 142.205 161.85 142.205ZM162.054 141C162.585 141 163.031 140.896 163.395 140.688C163.763 140.479 164.039 140.21 164.225 139.881C164.414 139.551 164.509 139.205 164.509 138.841V137.614C164.452 137.682 164.327 137.744 164.134 137.801C163.944 137.854 163.725 137.902 163.475 137.943C163.228 137.981 162.988 138.015 162.753 138.045C162.522 138.072 162.335 138.095 162.191 138.114C161.842 138.159 161.516 138.233 161.213 138.335C160.914 138.434 160.672 138.583 160.486 138.784C160.304 138.981 160.213 139.25 160.213 139.591C160.213 140.057 160.386 140.409 160.73 140.648C161.079 140.883 161.52 141 162.054 141ZM168.297 142V133.273H169.593V134.591H169.683C169.843 134.159 170.13 133.809 170.547 133.54C170.964 133.271 171.433 133.136 171.956 133.136C172.055 133.136 172.178 133.138 172.326 133.142C172.473 133.146 172.585 133.152 172.661 133.159V134.523C172.615 134.511 172.511 134.494 172.348 134.472C172.189 134.445 172.021 134.432 171.843 134.432C171.418 134.432 171.04 134.521 170.706 134.699C170.377 134.873 170.115 135.116 169.922 135.426C169.733 135.733 169.638 136.083 169.638 136.477V142H168.297ZM178.932 142V130.364H180.273V134.659H180.387C180.485 134.508 180.621 134.314 180.796 134.08C180.974 133.841 181.227 133.629 181.557 133.443C181.89 133.254 182.341 133.159 182.909 133.159C183.644 133.159 184.292 133.343 184.852 133.71C185.413 134.078 185.851 134.598 186.165 135.273C186.479 135.947 186.637 136.742 186.637 137.659C186.637 138.583 186.479 139.384 186.165 140.062C185.851 140.737 185.415 141.259 184.858 141.631C184.301 141.998 183.659 142.182 182.932 142.182C182.371 142.182 181.923 142.089 181.585 141.903C181.248 141.714 180.989 141.5 180.807 141.261C180.625 141.019 180.485 140.818 180.387 140.659H180.227V142H178.932ZM180.25 137.636C180.25 138.295 180.347 138.877 180.54 139.381C180.733 139.881 181.015 140.273 181.387 140.557C181.758 140.837 182.212 140.977 182.75 140.977C183.311 140.977 183.779 140.83 184.154 140.534C184.532 140.235 184.817 139.833 185.006 139.33C185.199 138.822 185.296 138.258 185.296 137.636C185.296 137.023 185.201 136.47 185.012 135.977C184.826 135.481 184.544 135.089 184.165 134.801C183.79 134.509 183.318 134.364 182.75 134.364C182.205 134.364 181.746 134.502 181.375 134.778C181.004 135.051 180.724 135.434 180.534 135.926C180.345 136.415 180.25 136.985 180.25 137.636ZM192.347 142.182C191.506 142.182 190.781 141.996 190.171 141.625C189.565 141.25 189.097 140.727 188.767 140.057C188.442 139.383 188.279 138.598 188.279 137.705C188.279 136.811 188.442 136.023 188.767 135.341C189.097 134.655 189.555 134.121 190.142 133.739C190.733 133.352 191.423 133.159 192.21 133.159C192.665 133.159 193.114 133.235 193.557 133.386C194 133.538 194.404 133.784 194.767 134.125C195.131 134.462 195.421 134.909 195.637 135.466C195.852 136.023 195.96 136.708 195.96 137.523V138.091H189.233V136.932H194.597C194.597 136.439 194.498 136 194.301 135.614C194.108 135.227 193.832 134.922 193.472 134.699C193.116 134.475 192.695 134.364 192.21 134.364C191.676 134.364 191.214 134.496 190.824 134.761C190.438 135.023 190.14 135.364 189.932 135.784C189.724 136.205 189.62 136.655 189.62 137.136V137.909C189.62 138.568 189.733 139.127 189.96 139.585C190.192 140.04 190.512 140.386 190.921 140.625C191.33 140.86 191.805 140.977 192.347 140.977C192.699 140.977 193.017 140.928 193.301 140.83C193.589 140.727 193.837 140.576 194.046 140.375C194.254 140.17 194.415 139.917 194.529 139.614L195.824 139.977C195.688 140.417 195.459 140.803 195.137 141.136C194.815 141.466 194.417 141.723 193.943 141.909C193.47 142.091 192.938 142.182 192.347 142.182ZM199.341 130.364V142H198V130.364H199.341ZM201.797 142V133.273H203.138V142H201.797ZM202.479 131.818C202.218 131.818 201.992 131.729 201.803 131.551C201.617 131.373 201.524 131.159 201.524 130.909C201.524 130.659 201.617 130.445 201.803 130.267C201.992 130.089 202.218 130 202.479 130C202.74 130 202.964 130.089 203.149 130.267C203.339 130.445 203.433 130.659 203.433 130.909C203.433 131.159 203.339 131.373 203.149 131.551C202.964 131.729 202.74 131.818 202.479 131.818ZM209.253 142.182C208.412 142.182 207.687 141.996 207.077 141.625C206.471 141.25 206.003 140.727 205.674 140.057C205.348 139.383 205.185 138.598 205.185 137.705C205.185 136.811 205.348 136.023 205.674 135.341C206.003 134.655 206.461 134.121 207.049 133.739C207.639 133.352 208.329 133.159 209.117 133.159C209.571 133.159 210.02 133.235 210.463 133.386C210.906 133.538 211.31 133.784 211.674 134.125C212.037 134.462 212.327 134.909 212.543 135.466C212.759 136.023 212.867 136.708 212.867 137.523V138.091H206.139V136.932H211.503C211.503 136.439 211.405 136 211.208 135.614C211.014 135.227 210.738 134.922 210.378 134.699C210.022 134.475 209.602 134.364 209.117 134.364C208.583 134.364 208.12 134.496 207.73 134.761C207.344 135.023 207.047 135.364 206.838 135.784C206.63 136.205 206.526 136.655 206.526 137.136V137.909C206.526 138.568 206.639 139.127 206.867 139.585C207.098 140.04 207.418 140.386 207.827 140.625C208.236 140.86 208.711 140.977 209.253 140.977C209.605 140.977 209.924 140.928 210.208 140.83C210.495 140.727 210.744 140.576 210.952 140.375C211.16 140.17 211.321 139.917 211.435 139.614L212.73 139.977C212.594 140.417 212.365 140.803 212.043 141.136C211.721 141.466 211.323 141.723 210.85 141.909C210.376 142.091 209.844 142.182 209.253 142.182ZM218.793 133.273V134.409H214.088V133.273H218.793ZM215.497 142V132.068C215.497 131.568 215.615 131.152 215.85 130.818C216.085 130.485 216.389 130.235 216.764 130.068C217.139 129.902 217.535 129.818 217.952 129.818C218.281 129.818 218.55 129.845 218.759 129.898C218.967 129.951 219.122 130 219.225 130.045L218.838 131.205C218.77 131.182 218.675 131.153 218.554 131.119C218.437 131.085 218.281 131.068 218.088 131.068C217.645 131.068 217.325 131.18 217.128 131.403C216.935 131.627 216.838 131.955 216.838 132.386V142H215.497ZM221.766 140.409L221.675 141.023C221.611 141.455 221.512 141.917 221.379 142.409C221.251 142.902 221.116 143.366 220.976 143.801C220.836 144.237 220.72 144.583 220.629 144.841H219.607C219.656 144.598 219.72 144.278 219.8 143.881C219.879 143.483 219.959 143.038 220.039 142.545C220.122 142.057 220.19 141.557 220.243 141.045L220.311 140.409H221.766ZM27.763 156.364V168H26.4221V156.364H27.763ZM33.7644 168.182C32.9765 168.182 32.2853 167.994 31.6906 167.619C31.0997 167.244 30.6375 166.72 30.3042 166.045C29.9747 165.371 29.8099 164.583 29.8099 163.682C29.8099 162.773 29.9747 161.979 30.3042 161.301C30.6375 160.623 31.0997 160.097 31.6906 159.722C32.2853 159.347 32.9765 159.159 33.7644 159.159C34.5523 159.159 35.2417 159.347 35.8326 159.722C36.4273 160.097 36.8894 160.623 37.219 161.301C37.5523 161.979 37.719 162.773 37.719 163.682C37.719 164.583 37.5523 165.371 37.219 166.045C36.8894 166.72 36.4273 167.244 35.8326 167.619C35.2417 167.994 34.5523 168.182 33.7644 168.182ZM33.7644 166.977C34.3629 166.977 34.8553 166.824 35.2417 166.517C35.6281 166.21 35.914 165.807 36.0997 165.307C36.2853 164.807 36.3781 164.265 36.3781 163.682C36.3781 163.098 36.2853 162.555 36.0997 162.051C35.914 161.547 35.6281 161.14 35.2417 160.83C34.8553 160.519 34.3629 160.364 33.7644 160.364C33.1659 160.364 32.6735 160.519 32.2872 160.83C31.9008 161.14 31.6148 161.547 31.4292 162.051C31.2436 162.555 31.1508 163.098 31.1508 163.682C31.1508 164.265 31.2436 164.807 31.4292 165.307C31.6148 165.807 31.9008 166.21 32.2872 166.517C32.6735 166.824 33.1659 166.977 33.7644 166.977ZM39.7658 168V159.273H41.0613V160.591H41.1522C41.3113 160.159 41.5992 159.809 42.0158 159.54C42.4325 159.271 42.9022 159.136 43.4249 159.136C43.5234 159.136 43.6465 159.138 43.7943 159.142C43.942 159.146 44.0537 159.152 44.1295 159.159V160.523C44.084 160.511 43.9799 160.494 43.817 160.472C43.6579 160.445 43.4893 160.432 43.3113 160.432C42.8871 160.432 42.5083 160.521 42.1749 160.699C41.8454 160.873 41.584 161.116 41.3908 161.426C41.2015 161.733 41.1068 162.083 41.1068 162.477V168H39.7658ZM49.1124 168.182C48.2715 168.182 47.5461 167.996 46.9363 167.625C46.3302 167.25 45.8624 166.727 45.5329 166.057C45.2071 165.383 45.0443 164.598 45.0443 163.705C45.0443 162.811 45.2071 162.023 45.5329 161.341C45.8624 160.655 46.3208 160.121 46.9079 159.739C47.4988 159.352 48.1882 159.159 48.9761 159.159C49.4306 159.159 49.8795 159.235 50.3227 159.386C50.7658 159.538 51.1693 159.784 51.5329 160.125C51.8965 160.462 52.1863 160.909 52.4022 161.466C52.6181 162.023 52.7261 162.708 52.7261 163.523V164.091H45.9988V162.932H51.3624C51.3624 162.439 51.264 162 51.067 161.614C50.8738 161.227 50.5973 160.922 50.2374 160.699C49.8814 160.475 49.4609 160.364 48.9761 160.364C48.442 160.364 47.9799 160.496 47.5897 160.761C47.2033 161.023 46.906 161.364 46.6977 161.784C46.4893 162.205 46.3852 162.655 46.3852 163.136V163.909C46.3852 164.568 46.4988 165.127 46.7261 165.585C46.9571 166.04 47.2772 166.386 47.6863 166.625C48.0954 166.86 48.5708 166.977 49.1124 166.977C49.4647 166.977 49.7829 166.928 50.067 166.83C50.3549 166.727 50.603 166.576 50.8113 166.375C51.0196 166.17 51.1806 165.917 51.2943 165.614L52.5897 165.977C52.4533 166.417 52.2242 166.803 51.9022 167.136C51.5802 167.466 51.1825 167.723 50.709 167.909C50.2355 168.091 49.7033 168.182 49.1124 168.182ZM54.7658 168V159.273H56.0613V160.636H56.1749C56.3568 160.17 56.6503 159.809 57.0556 159.551C57.4609 159.29 57.9477 159.159 58.5158 159.159C59.0916 159.159 59.5708 159.29 59.9533 159.551C60.3397 159.809 60.6408 160.17 60.8568 160.636H60.9477C61.1712 160.186 61.5064 159.828 61.9533 159.562C62.4003 159.294 62.9363 159.159 63.5613 159.159C64.3416 159.159 64.9799 159.403 65.4761 159.892C65.9723 160.377 66.2204 161.133 66.2204 162.159V168H64.8795V162.159C64.8795 161.515 64.7033 161.055 64.3511 160.778C63.9988 160.502 63.584 160.364 63.1068 160.364C62.4931 160.364 62.0177 160.549 61.6806 160.92C61.3435 161.288 61.1749 161.754 61.1749 162.318V168H59.8113V162.023C59.8113 161.527 59.6503 161.127 59.3283 160.824C59.0064 160.517 58.5916 160.364 58.084 160.364C57.7355 160.364 57.4098 160.456 57.1068 160.642C56.8075 160.828 56.5651 161.085 56.3795 161.415C56.1977 161.741 56.1068 162.117 56.1068 162.545V168H54.7658ZM73.1721 168V159.273H74.513V168H73.1721ZM73.8539 157.818C73.5926 157.818 73.3672 157.729 73.1778 157.551C72.9922 157.373 72.8994 157.159 72.8994 156.909C72.8994 156.659 72.9922 156.445 73.1778 156.267C73.3672 156.089 73.5926 156 73.8539 156C74.1153 156 74.3388 156.089 74.5244 156.267C74.7138 156.445 74.8085 156.659 74.8085 156.909C74.8085 157.159 74.7138 157.373 74.5244 157.551C74.3388 157.729 74.1153 157.818 73.8539 157.818ZM76.969 171.273V159.273H78.2644V160.659H78.4235C78.522 160.508 78.6584 160.314 78.8326 160.08C79.0106 159.841 79.2644 159.629 79.594 159.443C79.9273 159.254 80.3781 159.159 80.9462 159.159C81.6811 159.159 82.3288 159.343 82.8894 159.71C83.45 160.078 83.8875 160.598 84.2019 161.273C84.5163 161.947 84.6735 162.742 84.6735 163.659C84.6735 164.583 84.5163 165.384 84.2019 166.062C83.8875 166.737 83.4519 167.259 82.8951 167.631C82.3383 167.998 81.6962 168.182 80.969 168.182C80.4084 168.182 79.9595 168.089 79.6224 167.903C79.2853 167.714 79.0258 167.5 78.844 167.261C78.6622 167.019 78.522 166.818 78.4235 166.659H78.3099V171.273H76.969ZM78.2872 163.636C78.2872 164.295 78.3837 164.877 78.5769 165.381C78.7701 165.881 79.0523 166.273 79.4235 166.557C79.7947 166.837 80.2493 166.977 80.7872 166.977C81.3478 166.977 81.8156 166.83 82.1906 166.534C82.5694 166.235 82.8534 165.833 83.0428 165.33C83.236 164.822 83.3326 164.258 83.3326 163.636C83.3326 163.023 83.2379 162.47 83.0485 161.977C82.8629 161.481 82.5807 161.089 82.2019 160.801C81.8269 160.509 81.3553 160.364 80.7872 160.364C80.2417 160.364 79.7834 160.502 79.4122 160.778C79.0409 161.051 78.7606 161.434 78.5712 161.926C78.3819 162.415 78.2872 162.985 78.2872 163.636ZM92.9008 161.227L91.6962 161.568C91.6205 161.367 91.5087 161.172 91.361 160.983C91.2171 160.79 91.0201 160.631 90.7701 160.506C90.5201 160.381 90.2 160.318 89.8099 160.318C89.2758 160.318 88.8307 160.441 88.4747 160.688C88.1224 160.93 87.9462 161.239 87.9462 161.614C87.9462 161.947 88.0675 162.21 88.3099 162.403C88.5523 162.597 88.9311 162.758 89.4462 162.886L90.7417 163.205C91.522 163.394 92.1034 163.684 92.486 164.074C92.8686 164.46 93.0599 164.958 93.0599 165.568C93.0599 166.068 92.9159 166.515 92.6281 166.909C92.344 167.303 91.9462 167.614 91.4349 167.841C90.9235 168.068 90.3288 168.182 89.6508 168.182C88.7606 168.182 88.0239 167.989 87.4406 167.602C86.8572 167.216 86.4879 166.652 86.3326 165.909L87.6053 165.591C87.7265 166.061 87.9557 166.413 88.2928 166.648C88.6337 166.883 89.0788 167 89.6281 167C90.2531 167 90.7493 166.867 91.1167 166.602C91.4879 166.333 91.6735 166.011 91.6735 165.636C91.6735 165.333 91.5675 165.08 91.3553 164.875C91.1432 164.667 90.8175 164.511 90.3781 164.409L88.9235 164.068C88.1243 163.879 87.5372 163.585 87.1622 163.188C86.7909 162.786 86.6053 162.284 86.6053 161.682C86.6053 161.189 86.7436 160.754 87.0201 160.375C87.3004 159.996 87.6811 159.699 88.1622 159.483C88.647 159.267 89.1962 159.159 89.8099 159.159C90.6735 159.159 91.3515 159.348 91.844 159.727C92.3402 160.106 92.6925 160.606 92.9008 161.227ZM100.578 164.432V159.273H101.919V168H100.578V166.523H100.487C100.283 166.966 99.9647 167.343 99.5329 167.653C99.1011 167.96 98.5556 168.114 97.8965 168.114C97.3511 168.114 96.8662 167.994 96.442 167.756C96.0177 167.513 95.6844 167.15 95.442 166.665C95.1996 166.176 95.0783 165.561 95.0783 164.818V159.273H96.4193V164.727C96.4193 165.364 96.5973 165.871 96.9533 166.25C97.3132 166.629 97.7715 166.818 98.3283 166.818C98.6617 166.818 99.0007 166.733 99.3454 166.562C99.6939 166.392 99.9855 166.131 100.22 165.778C100.459 165.426 100.578 164.977 100.578 164.432ZM104.375 168V159.273H105.671V160.636H105.784C105.966 160.17 106.26 159.809 106.665 159.551C107.07 159.29 107.557 159.159 108.125 159.159C108.701 159.159 109.18 159.29 109.563 159.551C109.949 159.809 110.25 160.17 110.466 160.636H110.557C110.781 160.186 111.116 159.828 111.563 159.562C112.01 159.294 112.546 159.159 113.171 159.159C113.951 159.159 114.589 159.403 115.085 159.892C115.582 160.377 115.83 161.133 115.83 162.159V168H114.489V162.159C114.489 161.515 114.313 161.055 113.96 160.778C113.608 160.502 113.193 160.364 112.716 160.364C112.102 160.364 111.627 160.549 111.29 160.92C110.953 161.288 110.784 161.754 110.784 162.318V168H109.421V162.023C109.421 161.527 109.26 161.127 108.938 160.824C108.616 160.517 108.201 160.364 107.693 160.364C107.345 160.364 107.019 160.456 106.716 160.642C106.417 160.828 106.174 161.085 105.989 161.415C105.807 161.741 105.716 162.117 105.716 162.545V168H104.375ZM122.781 168V159.273H124.122V168H122.781ZM123.463 157.818C123.202 157.818 122.977 157.729 122.787 157.551C122.602 157.373 122.509 157.159 122.509 156.909C122.509 156.659 122.602 156.445 122.787 156.267C122.977 156.089 123.202 156 123.463 156C123.725 156 123.948 156.089 124.134 156.267C124.323 156.445 124.418 156.659 124.418 156.909C124.418 157.159 124.323 157.373 124.134 157.551C123.948 157.729 123.725 157.818 123.463 157.818ZM132.76 161.227L131.556 161.568C131.48 161.367 131.368 161.172 131.22 160.983C131.076 160.79 130.879 160.631 130.629 160.506C130.379 160.381 130.059 160.318 129.669 160.318C129.135 160.318 128.69 160.441 128.334 160.688C127.982 160.93 127.806 161.239 127.806 161.614C127.806 161.947 127.927 162.21 128.169 162.403C128.412 162.597 128.79 162.758 129.306 162.886L130.601 163.205C131.381 163.394 131.963 163.684 132.345 164.074C132.728 164.46 132.919 164.958 132.919 165.568C132.919 166.068 132.775 166.515 132.487 166.909C132.203 167.303 131.806 167.614 131.294 167.841C130.783 168.068 130.188 168.182 129.51 168.182C128.62 168.182 127.883 167.989 127.3 167.602C126.717 167.216 126.347 166.652 126.192 165.909L127.465 165.591C127.586 166.061 127.815 166.413 128.152 166.648C128.493 166.883 128.938 167 129.487 167C130.112 167 130.609 166.867 130.976 166.602C131.347 166.333 131.533 166.011 131.533 165.636C131.533 165.333 131.427 165.08 131.215 164.875C131.003 164.667 130.677 164.511 130.237 164.409L128.783 164.068C127.984 163.879 127.397 163.585 127.022 163.188C126.65 162.786 126.465 162.284 126.465 161.682C126.465 161.189 126.603 160.754 126.879 160.375C127.16 159.996 127.54 159.699 128.022 159.483C128.506 159.267 129.056 159.159 129.669 159.159C130.533 159.159 131.211 159.348 131.703 159.727C132.2 160.106 132.552 160.606 132.76 161.227ZM140.779 162.75V168H139.438V159.273H140.733V160.636H140.847C141.051 160.193 141.362 159.837 141.779 159.568C142.195 159.295 142.733 159.159 143.392 159.159C143.983 159.159 144.5 159.28 144.943 159.523C145.387 159.761 145.731 160.125 145.977 160.614C146.224 161.098 146.347 161.712 146.347 162.455V168H145.006V162.545C145.006 161.86 144.828 161.326 144.472 160.943C144.116 160.557 143.627 160.364 143.006 160.364C142.578 160.364 142.195 160.456 141.858 160.642C141.525 160.828 141.262 161.098 141.068 161.455C140.875 161.811 140.779 162.242 140.779 162.75ZM152.343 168.182C151.555 168.182 150.863 167.994 150.269 167.619C149.678 167.244 149.216 166.72 148.882 166.045C148.553 165.371 148.388 164.583 148.388 163.682C148.388 162.773 148.553 161.979 148.882 161.301C149.216 160.623 149.678 160.097 150.269 159.722C150.863 159.347 151.555 159.159 152.343 159.159C153.13 159.159 153.82 159.347 154.411 159.722C155.005 160.097 155.468 160.623 155.797 161.301C156.13 161.979 156.297 162.773 156.297 163.682C156.297 164.583 156.13 165.371 155.797 166.045C155.468 166.72 155.005 167.244 154.411 167.619C153.82 167.994 153.13 168.182 152.343 168.182ZM152.343 166.977C152.941 166.977 153.433 166.824 153.82 166.517C154.206 166.21 154.492 165.807 154.678 165.307C154.863 164.807 154.956 164.265 154.956 163.682C154.956 163.098 154.863 162.555 154.678 162.051C154.492 161.547 154.206 161.14 153.82 160.83C153.433 160.519 152.941 160.364 152.343 160.364C151.744 160.364 151.252 160.519 150.865 160.83C150.479 161.14 150.193 161.547 150.007 162.051C149.822 162.555 149.729 163.098 149.729 163.682C149.729 164.265 149.822 164.807 150.007 165.307C150.193 165.807 150.479 166.21 150.865 166.517C151.252 166.824 151.744 166.977 152.343 166.977ZM162.139 159.273V160.409H157.617V159.273H162.139ZM158.935 157.182H160.276V165.5C160.276 165.879 160.331 166.163 160.441 166.352C160.554 166.538 160.698 166.663 160.872 166.727C161.05 166.788 161.238 166.818 161.435 166.818C161.583 166.818 161.704 166.811 161.799 166.795C161.893 166.777 161.969 166.761 162.026 166.75L162.299 167.955C162.208 167.989 162.081 168.023 161.918 168.057C161.755 168.095 161.549 168.114 161.299 168.114C160.92 168.114 160.549 168.032 160.185 167.869C159.825 167.706 159.526 167.458 159.287 167.125C159.052 166.792 158.935 166.371 158.935 165.864V157.182ZM174.838 161.227L173.634 161.568C173.558 161.367 173.446 161.172 173.299 160.983C173.155 160.79 172.958 160.631 172.708 160.506C172.458 160.381 172.138 160.318 171.747 160.318C171.213 160.318 170.768 160.441 170.412 160.688C170.06 160.93 169.884 161.239 169.884 161.614C169.884 161.947 170.005 162.21 170.247 162.403C170.49 162.597 170.869 162.758 171.384 162.886L172.679 163.205C173.46 163.394 174.041 163.684 174.424 164.074C174.806 164.46 174.997 164.958 174.997 165.568C174.997 166.068 174.853 166.515 174.566 166.909C174.281 167.303 173.884 167.614 173.372 167.841C172.861 168.068 172.266 168.182 171.588 168.182C170.698 168.182 169.961 167.989 169.378 167.602C168.795 167.216 168.425 166.652 168.27 165.909L169.543 165.591C169.664 166.061 169.893 166.413 170.23 166.648C170.571 166.883 171.016 167 171.566 167C172.191 167 172.687 166.867 173.054 166.602C173.425 166.333 173.611 166.011 173.611 165.636C173.611 165.333 173.505 165.08 173.293 164.875C173.081 164.667 172.755 164.511 172.316 164.409L170.861 164.068C170.062 163.879 169.475 163.585 169.1 163.188C168.728 162.786 168.543 162.284 168.543 161.682C168.543 161.189 168.681 160.754 168.958 160.375C169.238 159.996 169.619 159.699 170.1 159.483C170.585 159.267 171.134 159.159 171.747 159.159C172.611 159.159 173.289 159.348 173.781 159.727C174.278 160.106 174.63 160.606 174.838 161.227ZM177.016 168V159.273H178.357V168H177.016ZM177.698 157.818C177.436 157.818 177.211 157.729 177.022 157.551C176.836 157.373 176.743 157.159 176.743 156.909C176.743 156.659 176.836 156.445 177.022 156.267C177.211 156.089 177.436 156 177.698 156C177.959 156 178.183 156.089 178.368 156.267C178.558 156.445 178.652 156.659 178.652 156.909C178.652 157.159 178.558 157.373 178.368 157.551C178.183 157.729 177.959 157.818 177.698 157.818ZM180.813 168V159.273H182.108V160.636H182.222C182.404 160.17 182.697 159.809 183.102 159.551C183.508 159.29 183.995 159.159 184.563 159.159C185.138 159.159 185.618 159.29 186 159.551C186.387 159.809 186.688 160.17 186.904 160.636H186.995C187.218 160.186 187.553 159.828 188 159.562C188.447 159.294 188.983 159.159 189.608 159.159C190.388 159.159 191.027 159.403 191.523 159.892C192.019 160.377 192.267 161.133 192.267 162.159V168H190.926V162.159C190.926 161.515 190.75 161.055 190.398 160.778C190.046 160.502 189.631 160.364 189.154 160.364C188.54 160.364 188.065 160.549 187.727 160.92C187.39 161.288 187.222 161.754 187.222 162.318V168H185.858V162.023C185.858 161.527 185.697 161.127 185.375 160.824C185.053 160.517 184.638 160.364 184.131 160.364C183.782 160.364 183.457 160.456 183.154 160.642C182.854 160.828 182.612 161.085 182.426 161.415C182.245 161.741 182.154 162.117 182.154 162.545V168H180.813ZM194.719 171.273V159.273H196.014V160.659H196.174C196.272 160.508 196.408 160.314 196.583 160.08C196.761 159.841 197.014 159.629 197.344 159.443C197.677 159.254 198.128 159.159 198.696 159.159C199.431 159.159 200.079 159.343 200.639 159.71C201.2 160.078 201.638 160.598 201.952 161.273C202.266 161.947 202.424 162.742 202.424 163.659C202.424 164.583 202.266 165.384 201.952 166.062C201.638 166.737 201.202 167.259 200.645 167.631C200.088 167.998 199.446 168.182 198.719 168.182C198.158 168.182 197.71 168.089 197.372 167.903C197.035 167.714 196.776 167.5 196.594 167.261C196.412 167.019 196.272 166.818 196.174 166.659H196.06V171.273H194.719ZM196.037 163.636C196.037 164.295 196.134 164.877 196.327 165.381C196.52 165.881 196.802 166.273 197.174 166.557C197.545 166.837 197.999 166.977 198.537 166.977C199.098 166.977 199.566 166.83 199.941 166.534C200.319 166.235 200.603 165.833 200.793 165.33C200.986 164.822 201.083 164.258 201.083 163.636C201.083 163.023 200.988 162.47 200.799 161.977C200.613 161.481 200.331 161.089 199.952 160.801C199.577 160.509 199.105 160.364 198.537 160.364C197.992 160.364 197.533 160.502 197.162 160.778C196.791 161.051 196.511 161.434 196.321 161.926C196.132 162.415 196.037 162.985 196.037 163.636ZM205.81 156.364V168H204.469V156.364H205.81ZM209.129 171.273C208.902 171.273 208.7 171.254 208.522 171.216C208.343 171.182 208.22 171.148 208.152 171.114L208.493 169.932C208.819 170.015 209.107 170.045 209.357 170.023C209.607 170 209.828 169.888 210.022 169.688C210.218 169.491 210.398 169.17 210.561 168.727L210.811 168.045L207.584 159.273H209.039L211.448 166.227H211.539L213.948 159.273H215.402L211.698 169.273C211.531 169.723 211.325 170.097 211.078 170.392C210.832 170.691 210.546 170.913 210.22 171.057C209.898 171.201 209.535 171.273 209.129 171.273ZM26.4221 194V185.273H27.7176V186.591H27.8085C27.9676 186.159 28.2554 185.809 28.6721 185.54C29.0888 185.271 29.5585 185.136 30.0812 185.136C30.1797 185.136 30.3028 185.138 30.4505 185.142C30.5982 185.146 30.71 185.152 30.7857 185.159V186.523C30.7403 186.511 30.6361 186.494 30.4732 186.472C30.3141 186.445 30.1456 186.432 29.9676 186.432C29.5433 186.432 29.1645 186.521 28.8312 186.699C28.5016 186.873 28.2403 187.116 28.0471 187.426C27.8577 187.733 27.763 188.083 27.763 188.477V194H26.4221ZM34.9434 194.205C34.3904 194.205 33.8885 194.1 33.4377 193.892C32.987 193.68 32.629 193.375 32.3639 192.977C32.0987 192.576 31.9661 192.091 31.9661 191.523C31.9661 191.023 32.0646 190.617 32.2616 190.307C32.4586 189.992 32.7218 189.746 33.0514 189.568C33.3809 189.39 33.7445 189.258 34.1423 189.17C34.5438 189.08 34.9472 189.008 35.3525 188.955C35.8828 188.886 36.3127 188.835 36.6423 188.801C36.9756 188.763 37.218 188.701 37.3695 188.614C37.5248 188.527 37.6025 188.375 37.6025 188.159V188.114C37.6025 187.553 37.4491 187.117 37.1423 186.807C36.8392 186.496 36.379 186.341 35.7616 186.341C35.1214 186.341 34.6195 186.481 34.2559 186.761C33.8923 187.042 33.6366 187.341 33.4889 187.659L32.2161 187.205C32.4434 186.674 32.7464 186.261 33.1252 185.966C33.5078 185.667 33.9245 185.458 34.3752 185.341C34.8298 185.22 35.2767 185.159 35.7161 185.159C35.9964 185.159 36.3184 185.193 36.682 185.261C37.0495 185.326 37.4036 185.46 37.7445 185.665C38.0892 185.869 38.3752 186.178 38.6025 186.591C38.8298 187.004 38.9434 187.557 38.9434 188.25V194H37.6025V192.818H37.5343C37.4434 193.008 37.2919 193.21 37.0798 193.426C36.8676 193.642 36.5854 193.826 36.2332 193.977C35.8809 194.129 35.451 194.205 34.9434 194.205ZM35.1479 193C35.6783 193 36.1252 192.896 36.4889 192.688C36.8563 192.479 37.1328 192.21 37.3184 191.881C37.5078 191.551 37.6025 191.205 37.6025 190.841V189.614C37.5457 189.682 37.4207 189.744 37.2275 189.801C37.0381 189.854 36.8184 189.902 36.5684 189.943C36.3222 189.981 36.0817 190.015 35.8468 190.045C35.6158 190.072 35.4283 190.095 35.2843 190.114C34.9358 190.159 34.6101 190.233 34.307 190.335C34.0078 190.434 33.7654 190.583 33.5798 190.784C33.3979 190.981 33.307 191.25 33.307 191.591C33.307 192.057 33.4794 192.409 33.8241 192.648C34.1726 192.883 34.6139 193 35.1479 193ZM42.7318 188.75V194H41.3908V185.273H42.6863V186.636H42.7999C43.0045 186.193 43.3151 185.837 43.7318 185.568C44.1484 185.295 44.6863 185.159 45.3454 185.159C45.9363 185.159 46.4533 185.28 46.8965 185.523C47.3397 185.761 47.6844 186.125 47.9306 186.614C48.1768 187.098 48.2999 187.712 48.2999 188.455V194H46.959V188.545C46.959 187.86 46.781 187.326 46.4249 186.943C46.0689 186.557 45.5802 186.364 44.959 186.364C44.531 186.364 44.1484 186.456 43.8113 186.642C43.478 186.828 43.2147 187.098 43.0215 187.455C42.8283 187.811 42.7318 188.242 42.7318 188.75ZM54.0457 194.182C53.3184 194.182 52.6764 193.998 52.1195 193.631C51.5627 193.259 51.1271 192.737 50.8127 192.062C50.4983 191.384 50.3411 190.583 50.3411 189.659C50.3411 188.742 50.4983 187.947 50.8127 187.273C51.1271 186.598 51.5646 186.078 52.1252 185.71C52.6858 185.343 53.3336 185.159 54.0684 185.159C54.6366 185.159 55.0854 185.254 55.415 185.443C55.7483 185.629 56.0021 185.841 56.1764 186.08C56.3544 186.314 56.4926 186.508 56.5911 186.659H56.7048V182.364H58.0457V194H56.7502V192.659H56.5911C56.4926 192.818 56.3525 193.019 56.1707 193.261C55.9889 193.5 55.7294 193.714 55.3923 193.903C55.0551 194.089 54.6063 194.182 54.0457 194.182ZM54.2275 192.977C54.7654 192.977 55.2199 192.837 55.5911 192.557C55.9623 192.273 56.2445 191.881 56.4377 191.381C56.6309 190.877 56.7275 190.295 56.7275 189.636C56.7275 188.985 56.6328 188.415 56.4434 187.926C56.254 187.434 55.9737 187.051 55.6025 186.778C55.2313 186.502 54.7729 186.364 54.2275 186.364C53.6593 186.364 53.1858 186.509 52.807 186.801C52.432 187.089 52.1498 187.481 51.9604 187.977C51.7748 188.47 51.682 189.023 51.682 189.636C51.682 190.258 51.7767 190.822 51.9661 191.33C52.1593 191.833 52.4434 192.235 52.8184 192.534C53.1972 192.83 53.6669 192.977 54.2275 192.977ZM64.2332 194.182C63.4453 194.182 62.754 193.994 62.1593 193.619C61.5684 193.244 61.1063 192.72 60.7729 192.045C60.4434 191.371 60.2786 190.583 60.2786 189.682C60.2786 188.773 60.4434 187.979 60.7729 187.301C61.1063 186.623 61.5684 186.097 62.1593 185.722C62.754 185.347 63.4453 185.159 64.2332 185.159C65.0211 185.159 65.7104 185.347 66.3014 185.722C66.8961 186.097 67.3582 186.623 67.6877 187.301C68.0211 187.979 68.1877 188.773 68.1877 189.682C68.1877 190.583 68.0211 191.371 67.6877 192.045C67.3582 192.72 66.8961 193.244 66.3014 193.619C65.7104 193.994 65.0211 194.182 64.2332 194.182ZM64.2332 192.977C64.8317 192.977 65.3241 192.824 65.7104 192.517C66.0968 192.21 66.3828 191.807 66.5684 191.307C66.754 190.807 66.8468 190.265 66.8468 189.682C66.8468 189.098 66.754 188.555 66.5684 188.051C66.3828 187.547 66.0968 187.14 65.7104 186.83C65.3241 186.519 64.8317 186.364 64.2332 186.364C63.6347 186.364 63.1423 186.519 62.7559 186.83C62.3695 187.14 62.0836 187.547 61.8979 188.051C61.7123 188.555 61.6195 189.098 61.6195 189.682C61.6195 190.265 61.7123 190.807 61.8979 191.307C62.0836 191.807 62.3695 192.21 62.7559 192.517C63.1423 192.824 63.6347 192.977 64.2332 192.977ZM70.2346 194V185.273H71.5301V186.636H71.6437C71.8255 186.17 72.1191 185.809 72.5244 185.551C72.9297 185.29 73.4164 185.159 73.9846 185.159C74.5604 185.159 75.0395 185.29 75.4221 185.551C75.8085 185.809 76.1096 186.17 76.3255 186.636H76.4164C76.6399 186.186 76.9751 185.828 77.4221 185.562C77.8691 185.294 78.4051 185.159 79.0301 185.159C79.8104 185.159 80.4486 185.403 80.9448 185.892C81.441 186.377 81.6891 187.133 81.6891 188.159V194H80.3482V188.159C80.3482 187.515 80.1721 187.055 79.8198 186.778C79.4676 186.502 79.0528 186.364 78.5755 186.364C77.9619 186.364 77.4865 186.549 77.1494 186.92C76.8122 187.288 76.6437 187.754 76.6437 188.318V194H75.2801V188.023C75.2801 187.527 75.1191 187.127 74.7971 186.824C74.4751 186.517 74.0604 186.364 73.5528 186.364C73.2043 186.364 72.8785 186.456 72.5755 186.642C72.2763 186.828 72.0338 187.085 71.8482 187.415C71.6664 187.741 71.5755 188.117 71.5755 188.545V194H70.2346ZM92.4363 185.273V186.409H87.9136V185.273H92.4363ZM89.2318 183.182H90.5727V191.5C90.5727 191.879 90.6276 192.163 90.7374 192.352C90.8511 192.538 90.995 192.663 91.1693 192.727C91.3473 192.788 91.5348 192.818 91.7318 192.818C91.8795 192.818 92.0007 192.811 92.0954 192.795C92.1901 192.777 92.2658 192.761 92.3227 192.75L92.5954 193.955C92.5045 193.989 92.3776 194.023 92.2147 194.057C92.0518 194.095 91.8454 194.114 91.5954 194.114C91.2166 194.114 90.8454 194.032 90.4818 193.869C90.1219 193.706 89.8227 193.458 89.584 193.125C89.3492 192.792 89.2318 192.371 89.2318 191.864V183.182ZM98.0187 194.182C97.1778 194.182 96.4524 193.996 95.8426 193.625C95.2365 193.25 94.7687 192.727 94.4391 192.057C94.1134 191.383 93.9505 190.598 93.9505 189.705C93.9505 188.811 94.1134 188.023 94.4391 187.341C94.7687 186.655 95.227 186.121 95.8141 185.739C96.4051 185.352 97.0944 185.159 97.8823 185.159C98.3369 185.159 98.7857 185.235 99.2289 185.386C99.6721 185.538 100.076 185.784 100.439 186.125C100.803 186.462 101.093 186.909 101.308 187.466C101.524 188.023 101.632 188.708 101.632 189.523V190.091H94.9051V188.932H100.269C100.269 188.439 100.17 188 99.9732 187.614C99.7801 187.227 99.5035 186.922 99.1437 186.699C98.7876 186.475 98.3672 186.364 97.8823 186.364C97.3482 186.364 96.8861 186.496 96.496 186.761C96.1096 187.023 95.8122 187.364 95.6039 187.784C95.3956 188.205 95.2914 188.655 95.2914 189.136V189.909C95.2914 190.568 95.4051 191.127 95.6323 191.585C95.8634 192.04 96.1835 192.386 96.5926 192.625C97.0016 192.86 97.477 192.977 98.0187 192.977C98.371 192.977 98.6891 192.928 98.9732 192.83C99.2611 192.727 99.5092 192.576 99.7176 192.375C99.9259 192.17 100.087 191.917 100.201 191.614L101.496 191.977C101.36 192.417 101.13 192.803 100.808 193.136C100.486 193.466 100.089 193.723 99.6153 193.909C99.1418 194.091 98.6096 194.182 98.0187 194.182ZM104.438 185.273L106.529 188.841L108.62 185.273H110.165L107.347 189.636L110.165 194H108.62L106.529 190.614L104.438 194H102.892L105.665 189.636L102.892 185.273H104.438ZM115.874 185.273V186.409H111.351V185.273H115.874ZM112.669 183.182H114.01V191.5C114.01 191.879 114.065 192.163 114.175 192.352C114.289 192.538 114.433 192.663 114.607 192.727C114.785 192.788 114.972 192.818 115.169 192.818C115.317 192.818 115.438 192.811 115.533 192.795C115.628 192.777 115.703 192.761 115.76 192.75L116.033 193.955C115.942 193.989 115.815 194.023 115.652 194.057C115.489 194.095 115.283 194.114 115.033 194.114C114.654 194.114 114.283 194.032 113.919 193.869C113.559 193.706 113.26 193.458 113.022 193.125C112.787 192.792 112.669 192.371 112.669 191.864V183.182ZM118.868 194.091C118.588 194.091 118.347 193.991 118.147 193.79C117.946 193.589 117.845 193.348 117.845 193.068C117.845 192.788 117.946 192.547 118.147 192.347C118.347 192.146 118.588 192.045 118.868 192.045C119.148 192.045 119.389 192.146 119.59 192.347C119.79 192.547 119.891 192.788 119.891 193.068C119.891 193.254 119.843 193.424 119.749 193.58C119.658 193.735 119.535 193.86 119.379 193.955C119.228 194.045 119.058 194.091 118.868 194.091ZM128.388 182.364V194H126.979V182.364H128.388ZM134.827 185.273V186.409H130.304V185.273H134.827ZM131.622 183.182H132.963V191.5C132.963 191.879 133.018 192.163 133.128 192.352C133.242 192.538 133.386 192.663 133.56 192.727C133.738 192.788 133.925 192.818 134.122 192.818C134.27 192.818 134.391 192.811 134.486 192.795C134.581 192.777 134.656 192.761 134.713 192.75L134.986 193.955C134.895 193.989 134.768 194.023 134.605 194.057C134.442 194.095 134.236 194.114 133.986 194.114C133.607 194.114 133.236 194.032 132.872 193.869C132.513 193.706 132.213 193.458 131.975 193.125C131.74 192.792 131.622 192.371 131.622 191.864V183.182ZM142.685 188.75V194H141.344V182.364H142.685V186.636H142.799C143.003 186.186 143.31 185.828 143.719 185.562C144.132 185.294 144.681 185.159 145.367 185.159C145.961 185.159 146.482 185.278 146.929 185.517C147.376 185.752 147.723 186.114 147.969 186.602C148.219 187.087 148.344 187.705 148.344 188.455V194H147.003V188.545C147.003 187.852 146.823 187.316 146.463 186.938C146.107 186.555 145.613 186.364 144.98 186.364C144.541 186.364 144.147 186.456 143.799 186.642C143.454 186.828 143.181 187.098 142.98 187.455C142.783 187.811 142.685 188.242 142.685 188.75ZM153.365 194.205C152.812 194.205 152.31 194.1 151.86 193.892C151.409 193.68 151.051 193.375 150.786 192.977C150.521 192.576 150.388 192.091 150.388 191.523C150.388 191.023 150.486 190.617 150.683 190.307C150.88 189.992 151.144 189.746 151.473 189.568C151.803 189.39 152.166 189.258 152.564 189.17C152.966 189.08 153.369 189.008 153.774 188.955C154.305 188.886 154.735 188.835 155.064 188.801C155.397 188.763 155.64 188.701 155.791 188.614C155.947 188.527 156.024 188.375 156.024 188.159V188.114C156.024 187.553 155.871 187.117 155.564 186.807C155.261 186.496 154.801 186.341 154.183 186.341C153.543 186.341 153.041 186.481 152.678 186.761C152.314 187.042 152.058 187.341 151.911 187.659L150.638 187.205C150.865 186.674 151.168 186.261 151.547 185.966C151.93 185.667 152.346 185.458 152.797 185.341C153.252 185.22 153.699 185.159 154.138 185.159C154.418 185.159 154.74 185.193 155.104 185.261C155.471 185.326 155.826 185.46 156.166 185.665C156.511 185.869 156.797 186.178 157.024 186.591C157.252 187.004 157.365 187.557 157.365 188.25V194H156.024V192.818H155.956C155.865 193.008 155.714 193.21 155.502 193.426C155.29 193.642 155.007 193.826 154.655 193.977C154.303 194.129 153.873 194.205 153.365 194.205ZM153.57 193C154.1 193 154.547 192.896 154.911 192.688C155.278 192.479 155.555 192.21 155.74 191.881C155.93 191.551 156.024 191.205 156.024 190.841V189.614C155.968 189.682 155.843 189.744 155.649 189.801C155.46 189.854 155.24 189.902 154.99 189.943C154.744 189.981 154.504 190.015 154.269 190.045C154.038 190.072 153.85 190.095 153.706 190.114C153.358 190.159 153.032 190.233 152.729 190.335C152.43 190.434 152.187 190.583 152.002 190.784C151.82 190.981 151.729 191.25 151.729 191.591C151.729 192.057 151.901 192.409 152.246 192.648C152.594 192.883 153.036 193 153.57 193ZM165.995 187.227L164.79 187.568C164.714 187.367 164.602 187.172 164.455 186.983C164.311 186.79 164.114 186.631 163.864 186.506C163.614 186.381 163.294 186.318 162.904 186.318C162.37 186.318 161.924 186.441 161.568 186.688C161.216 186.93 161.04 187.239 161.04 187.614C161.04 187.947 161.161 188.21 161.404 188.403C161.646 188.597 162.025 188.758 162.54 188.886L163.835 189.205C164.616 189.394 165.197 189.684 165.58 190.074C165.962 190.46 166.154 190.958 166.154 191.568C166.154 192.068 166.01 192.515 165.722 192.909C165.438 193.303 165.04 193.614 164.529 193.841C164.017 194.068 163.423 194.182 162.745 194.182C161.854 194.182 161.118 193.989 160.534 193.602C159.951 193.216 159.582 192.652 159.426 191.909L160.699 191.591C160.82 192.061 161.049 192.413 161.387 192.648C161.727 192.883 162.173 193 162.722 193C163.347 193 163.843 192.867 164.21 192.602C164.582 192.333 164.767 192.011 164.767 191.636C164.767 191.333 164.661 191.08 164.449 190.875C164.237 190.667 163.911 190.511 163.472 190.409L162.017 190.068C161.218 189.879 160.631 189.585 160.256 189.188C159.885 188.786 159.699 188.284 159.699 187.682C159.699 187.189 159.837 186.754 160.114 186.375C160.394 185.996 160.775 185.699 161.256 185.483C161.741 185.267 162.29 185.159 162.904 185.159C163.767 185.159 164.445 185.348 164.938 185.727C165.434 186.106 165.786 186.606 165.995 187.227ZM172.672 194V185.273H173.968V186.591H174.058C174.218 186.159 174.505 185.809 174.922 185.54C175.339 185.271 175.808 185.136 176.331 185.136C176.43 185.136 176.553 185.138 176.701 185.142C176.848 185.146 176.96 185.152 177.036 185.159V186.523C176.99 186.511 176.886 186.494 176.723 186.472C176.564 186.445 176.396 186.432 176.218 186.432C175.793 186.432 175.415 186.521 175.081 186.699C174.752 186.873 174.49 187.116 174.297 187.426C174.108 187.733 174.013 188.083 174.013 188.477V194H172.672ZM181.905 194.182C181.117 194.182 180.426 193.994 179.831 193.619C179.24 193.244 178.778 192.72 178.445 192.045C178.115 191.371 177.951 190.583 177.951 189.682C177.951 188.773 178.115 187.979 178.445 187.301C178.778 186.623 179.24 186.097 179.831 185.722C180.426 185.347 181.117 185.159 181.905 185.159C182.693 185.159 183.382 185.347 183.973 185.722C184.568 186.097 185.03 186.623 185.36 187.301C185.693 187.979 185.86 188.773 185.86 189.682C185.86 190.583 185.693 191.371 185.36 192.045C185.03 192.72 184.568 193.244 183.973 193.619C183.382 193.994 182.693 194.182 181.905 194.182ZM181.905 192.977C182.504 192.977 182.996 192.824 183.382 192.517C183.769 192.21 184.055 191.807 184.24 191.307C184.426 190.807 184.519 190.265 184.519 189.682C184.519 189.098 184.426 188.555 184.24 188.051C184.055 187.547 183.769 187.14 183.382 186.83C182.996 186.519 182.504 186.364 181.905 186.364C181.307 186.364 180.814 186.519 180.428 186.83C180.041 187.14 179.755 187.547 179.57 188.051C179.384 188.555 179.291 189.098 179.291 189.682C179.291 190.265 179.384 190.807 179.57 191.307C179.755 191.807 180.041 192.21 180.428 192.517C180.814 192.824 181.307 192.977 181.905 192.977ZM191.452 194.182C190.664 194.182 189.973 193.994 189.378 193.619C188.787 193.244 188.325 192.72 187.992 192.045C187.662 191.371 187.497 190.583 187.497 189.682C187.497 188.773 187.662 187.979 187.992 187.301C188.325 186.623 188.787 186.097 189.378 185.722C189.973 185.347 190.664 185.159 191.452 185.159C192.24 185.159 192.929 185.347 193.52 185.722C194.115 186.097 194.577 186.623 194.906 187.301C195.24 187.979 195.406 188.773 195.406 189.682C195.406 190.583 195.24 191.371 194.906 192.045C194.577 192.72 194.115 193.244 193.52 193.619C192.929 193.994 192.24 194.182 191.452 194.182ZM191.452 192.977C192.05 192.977 192.543 192.824 192.929 192.517C193.316 192.21 193.602 191.807 193.787 191.307C193.973 190.807 194.066 190.265 194.066 189.682C194.066 189.098 193.973 188.555 193.787 188.051C193.602 187.547 193.316 187.14 192.929 186.83C192.543 186.519 192.05 186.364 191.452 186.364C190.853 186.364 190.361 186.519 189.975 186.83C189.588 187.14 189.302 187.547 189.117 188.051C188.931 188.555 188.838 189.098 188.838 189.682C188.838 190.265 188.931 190.807 189.117 191.307C189.302 191.807 189.588 192.21 189.975 192.517C190.361 192.824 190.853 192.977 191.452 192.977ZM201.249 185.273V186.409H196.726V185.273H201.249ZM198.044 183.182H199.385V191.5C199.385 191.879 199.44 192.163 199.55 192.352C199.664 192.538 199.808 192.663 199.982 192.727C200.16 192.788 200.347 192.818 200.544 192.818C200.692 192.818 200.813 192.811 200.908 192.795C201.003 192.777 201.078 192.761 201.135 192.75L201.408 193.955C201.317 193.989 201.19 194.023 201.027 194.057C200.864 194.095 200.658 194.114 200.408 194.114C200.029 194.114 199.658 194.032 199.294 193.869C198.934 193.706 198.635 193.458 198.397 193.125C198.162 192.792 198.044 192.371 198.044 191.864V183.182ZM209.291 187.227L208.087 187.568C208.011 187.367 207.899 187.172 207.752 186.983C207.608 186.79 207.411 186.631 207.161 186.506C206.911 186.381 206.591 186.318 206.201 186.318C205.666 186.318 205.221 186.441 204.865 186.688C204.513 186.93 204.337 187.239 204.337 187.614C204.337 187.947 204.458 188.21 204.701 188.403C204.943 188.597 205.322 188.758 205.837 188.886L207.132 189.205C207.913 189.394 208.494 189.684 208.877 190.074C209.259 190.46 209.451 190.958 209.451 191.568C209.451 192.068 209.307 192.515 209.019 192.909C208.735 193.303 208.337 193.614 207.826 193.841C207.314 194.068 206.719 194.182 206.041 194.182C205.151 194.182 204.415 193.989 203.831 193.602C203.248 193.216 202.879 192.652 202.723 191.909L203.996 191.591C204.117 192.061 204.346 192.413 204.683 192.648C205.024 192.883 205.469 193 206.019 193C206.644 193 207.14 192.867 207.507 192.602C207.879 192.333 208.064 192.011 208.064 191.636C208.064 191.333 207.958 191.08 207.746 190.875C207.534 190.667 207.208 190.511 206.769 190.409L205.314 190.068C204.515 189.879 203.928 189.585 203.553 189.188C203.182 188.786 202.996 188.284 202.996 187.682C202.996 187.189 203.134 186.754 203.411 186.375C203.691 185.996 204.072 185.699 204.553 185.483C205.038 185.267 205.587 185.159 206.201 185.159C207.064 185.159 207.742 185.348 208.235 185.727C208.731 186.106 209.083 186.606 209.291 187.227ZM215.969 194V185.273H217.31V194H215.969ZM216.651 183.818C216.389 183.818 216.164 183.729 215.975 183.551C215.789 183.373 215.696 183.159 215.696 182.909C215.696 182.659 215.789 182.445 215.975 182.267C216.164 182.089 216.389 182 216.651 182C216.912 182 217.136 182.089 217.321 182.267C217.511 182.445 217.605 182.659 217.605 182.909C217.605 183.159 217.511 183.373 217.321 183.551C217.136 183.729 216.912 183.818 216.651 183.818ZM221.107 188.75V194H219.766V185.273H221.061V186.636H221.175C221.379 186.193 221.69 185.837 222.107 185.568C222.523 185.295 223.061 185.159 223.72 185.159C224.311 185.159 224.828 185.28 225.272 185.523C225.715 185.761 226.059 186.125 226.306 186.614C226.552 187.098 226.675 187.712 226.675 188.455V194H225.334V188.545C225.334 187.86 225.156 187.326 224.8 186.943C224.444 186.557 223.955 186.364 223.334 186.364C222.906 186.364 222.523 186.456 222.186 186.642C221.853 186.828 221.59 187.098 221.397 187.455C221.203 187.811 221.107 188.242 221.107 188.75Z" fill="white"/>
</svg>
