<svg width="290" height="267" viewBox="0 0 290 267" fill="none" xmlns="http://www.w3.org/2000/svg">
<rect width="290" height="267" rx="10" fill="#D75702"/>
<path d="M46.233 47.7273C46.233 49.2803 45.9489 50.6155 45.3807 51.733C44.8125 52.8456 44.0336 53.7027 43.044 54.304C42.0592 54.9006 40.9394 55.1989 39.6847 55.1989C38.4252 55.1989 37.3007 54.9006 36.3111 54.304C35.3262 53.7027 34.5497 52.8433 33.9815 51.7259C33.4134 50.6084 33.1293 49.2756 33.1293 47.7273C33.1293 46.1742 33.4134 44.8414 33.9815 43.7287C34.5497 42.6113 35.3262 41.7543 36.3111 41.1577C37.3007 40.5563 38.4252 40.2557 39.6847 40.2557C40.9394 40.2557 42.0592 40.5563 43.044 41.1577C44.0336 41.7543 44.8125 42.6113 45.3807 43.7287C45.9489 44.8414 46.233 46.1742 46.233 47.7273ZM44.0597 47.7273C44.0597 46.5436 43.8679 45.5469 43.4844 44.7372C43.1056 43.9228 42.5848 43.3073 41.9219 42.8906C41.2637 42.4692 40.518 42.2585 39.6847 42.2585C38.8466 42.2585 38.0985 42.4692 37.4403 42.8906C36.7822 43.3073 36.2614 43.9228 35.8778 44.7372C35.4991 45.5469 35.3097 46.5436 35.3097 47.7273C35.3097 48.911 35.4991 49.91 35.8778 50.7244C36.2614 51.5341 36.7822 52.1496 37.4403 52.571C38.0985 52.9877 38.8466 53.196 39.6847 53.196C40.518 53.196 41.2637 52.9877 41.9219 52.571C42.5848 52.1496 43.1056 51.5341 43.4844 50.7244C43.8679 49.91 44.0597 48.911 44.0597 47.7273ZM49.1691 55V40.4545H51.3637V46.7756H58.6151V40.4545H60.8168V55H58.6151V48.6577H51.3637V55H49.1691ZM63.112 55V53.0966L63.5381 53.0824C64.1158 53.0682 64.5703 52.8717 64.9018 52.4929C65.2379 52.1141 65.4818 51.5033 65.6333 50.6605C65.7896 49.8177 65.8937 48.6932 65.9458 47.2869L66.1944 40.4545H75.3918V55H73.2256V42.3153H68.2612L68.0339 47.8693C67.9723 49.4271 67.8161 50.7363 67.5651 51.7969C67.3142 52.8527 66.888 53.6506 66.2867 54.1903C65.6901 54.7301 64.8402 55 63.737 55H63.112ZM80.0165 55H77.687L82.9214 40.4545H85.4569L90.6913 55H88.3617L84.2495 43.0966H84.1359L80.0165 55ZM80.4072 49.304H87.964V51.1506H80.4072V49.304ZM92.9918 40.4545H95.1651V51.1364H95.3L102.701 40.4545H104.732V55H102.537V44.3324H102.402L95.0159 55H92.9918V40.4545ZM100.257 36.7614H102.005C102.005 37.5616 101.72 38.2126 101.152 38.7145C100.589 39.2116 99.8265 39.4602 98.8653 39.4602C97.9089 39.4602 97.149 39.2116 96.5855 38.7145C96.0221 38.2126 95.7403 37.5616 95.7403 36.7614H97.4804C97.4804 37.1165 97.5846 37.4313 97.7929 37.706C98.0012 37.9759 98.3587 38.1108 98.8653 38.1108C99.3625 38.1108 99.7176 37.9759 99.9307 37.706C100.148 37.4361 100.257 37.1212 100.257 36.7614ZM108.133 55V40.4545H110.328V46.7756H117.579V40.4545H119.781V55H117.579V48.6577H110.328V55H108.133ZM46.233 79.7273C46.233 81.2803 45.9489 82.6155 45.3807 83.733C44.8125 84.8456 44.0336 85.7027 43.044 86.304C42.0592 86.9006 40.9394 87.1989 39.6847 87.1989C38.4252 87.1989 37.3007 86.9006 36.3111 86.304C35.3262 85.7027 34.5497 84.8433 33.9815 83.7259C33.4134 82.6084 33.1293 81.2756 33.1293 79.7273C33.1293 78.1742 33.4134 76.8414 33.9815 75.7287C34.5497 74.6113 35.3262 73.7543 36.3111 73.1577C37.3007 72.5563 38.4252 72.2557 39.6847 72.2557C40.9394 72.2557 42.0592 72.5563 43.044 73.1577C44.0336 73.7543 44.8125 74.6113 45.3807 75.7287C45.9489 76.8414 46.233 78.1742 46.233 79.7273ZM44.0597 79.7273C44.0597 78.5436 43.8679 77.5469 43.4844 76.7372C43.1056 75.9228 42.5848 75.3073 41.9219 74.8906C41.2637 74.4692 40.518 74.2585 39.6847 74.2585C38.8466 74.2585 38.0985 74.4692 37.4403 74.8906C36.7822 75.3073 36.2614 75.9228 35.8778 76.7372C35.4991 77.5469 35.3097 78.5436 35.3097 79.7273C35.3097 80.911 35.4991 81.91 35.8778 82.7244C36.2614 83.5341 36.7822 84.1496 37.4403 84.571C38.0985 84.9877 38.8466 85.196 39.6847 85.196C40.518 85.196 41.2637 84.9877 41.9219 84.571C42.5848 84.1496 43.1056 83.5341 43.4844 82.7244C43.8679 81.91 44.0597 80.911 44.0597 79.7273ZM60.5398 72.4545V87H58.3523V74.3295H51.5058V87H49.3183V72.4545H60.5398ZM62.9948 87V85.0966L63.421 85.0824C63.9986 85.0682 64.4531 84.8717 64.7846 84.4929C65.1208 84.1141 65.3646 83.5033 65.5161 82.6605C65.6724 81.8177 65.7765 80.6932 65.8286 79.2869L66.0772 72.4545H75.2746V87H73.1085V74.3153H68.144L67.9167 79.8693C67.8551 81.4271 67.6989 82.7363 67.4479 83.7969C67.197 84.8527 66.7709 85.6506 66.1695 86.1903C65.5729 86.7301 64.723 87 63.6198 87H62.9948ZM79.8994 87H77.5698L82.8042 72.4545H85.3397L90.5741 87H88.2445L84.1323 75.0966H84.0187L79.8994 87ZM80.29 81.304H87.8468V83.1506H80.29V81.304ZM90.4385 74.3438V72.4545H101.696V74.3438H97.1572V87H94.9697V74.3438H90.4385ZM103.893 87H101.564L106.798 72.4545H109.333L114.568 87H112.238L108.126 75.0966H108.012L103.893 87ZM104.284 81.304H111.841V83.1506H104.284V81.304Z" fill="white"/>
<path d="M42.375 218.364V230H40.625V219.864H35.1477V230H33.3977V218.364H42.375ZM48.5994 230.176C47.7813 230.176 47.0672 229.989 46.4574 229.614C45.8475 229.239 45.3741 228.714 45.0369 228.04C44.6998 227.366 44.5312 226.578 44.5312 225.676C44.5312 224.771 44.6998 223.979 45.0369 223.301C45.3741 222.623 45.8475 222.097 46.4574 221.722C47.0672 221.347 47.7813 221.159 48.5994 221.159C49.4176 221.159 50.1316 221.347 50.7415 221.722C51.3513 222.097 51.8248 222.623 52.1619 223.301C52.4991 223.979 52.6676 224.771 52.6676 225.676C52.6676 226.578 52.4991 227.366 52.1619 228.04C51.8248 228.714 51.3513 229.239 50.7415 229.614C50.1316 229.989 49.4176 230.176 48.5994 230.176ZM48.6051 228.75C49.1354 228.75 49.5748 228.61 49.9233 228.33C50.2718 228.049 50.5294 227.676 50.696 227.21C50.8665 226.744 50.9517 226.231 50.9517 225.67C50.9517 225.114 50.8665 224.602 50.696 224.136C50.5294 223.667 50.2718 223.29 49.9233 223.006C49.5748 222.722 49.1354 222.58 48.6051 222.58C48.071 222.58 47.6278 222.722 47.2756 223.006C46.9271 223.29 46.6676 223.667 46.4972 224.136C46.3305 224.602 46.2472 225.114 46.2472 225.67C46.2472 226.231 46.3305 226.744 46.4972 227.21C46.6676 227.676 46.9271 228.049 47.2756 228.33C47.6278 228.61 48.071 228.75 48.6051 228.75ZM53.7116 232.517V228.528H54.4219C54.6037 228.362 54.7571 228.163 54.8821 227.932C55.0109 227.701 55.1188 227.426 55.206 227.108C55.2969 226.79 55.3726 226.419 55.4332 225.994C55.4938 225.566 55.5469 225.078 55.5923 224.528L55.8651 221.273H61.7969V228.528H63.1378V232.517H61.4787V230H55.3935V232.517H53.7116ZM56.2401 228.528H60.1378V222.727H57.3878L57.206 224.528C57.1188 225.445 57.009 226.241 56.8764 226.915C56.7438 227.585 56.5317 228.123 56.2401 228.528ZM64.7983 233.273V221.273H66.4574V222.688H66.5994C66.6979 222.506 66.84 222.295 67.0256 222.057C67.2112 221.818 67.4688 221.61 67.7983 221.432C68.1278 221.25 68.5634 221.159 69.1051 221.159C69.8097 221.159 70.4384 221.337 70.9915 221.693C71.5445 222.049 71.9782 222.562 72.2926 223.233C72.6108 223.903 72.7699 224.71 72.7699 225.653C72.7699 226.597 72.6127 227.405 72.2983 228.08C71.9839 228.75 71.5521 229.267 71.0028 229.631C70.4536 229.991 69.8267 230.17 69.1222 230.17C68.5919 230.17 68.1581 230.081 67.821 229.903C67.4877 229.725 67.2263 229.517 67.0369 229.278C66.8475 229.04 66.7017 228.828 66.5994 228.642H66.4972V233.273H64.7983ZM66.4631 225.636C66.4631 226.25 66.5521 226.788 66.7301 227.25C66.9081 227.712 67.1657 228.074 67.5028 228.335C67.84 228.593 68.2528 228.722 68.7415 228.722C69.2491 228.722 69.6733 228.587 70.0142 228.318C70.3551 228.045 70.6127 227.676 70.7869 227.21C70.965 226.744 71.054 226.22 71.054 225.636C71.054 225.061 70.9669 224.544 70.7926 224.085C70.6222 223.627 70.3646 223.265 70.0199 223C69.679 222.735 69.2528 222.602 68.7415 222.602C68.2491 222.602 67.8324 222.729 67.4915 222.983C67.1544 223.237 66.8987 223.591 66.7244 224.045C66.5502 224.5 66.4631 225.03 66.4631 225.636ZM78.3494 230.176C77.5313 230.176 76.8172 229.989 76.2074 229.614C75.5975 229.239 75.1241 228.714 74.7869 228.04C74.4498 227.366 74.2812 226.578 74.2812 225.676C74.2812 224.771 74.4498 223.979 74.7869 223.301C75.1241 222.623 75.5975 222.097 76.2074 221.722C76.8172 221.347 77.5313 221.159 78.3494 221.159C79.1676 221.159 79.8816 221.347 80.4915 221.722C81.1013 222.097 81.5748 222.623 81.9119 223.301C82.2491 223.979 82.4176 224.771 82.4176 225.676C82.4176 226.578 82.2491 227.366 81.9119 228.04C81.5748 228.714 81.1013 229.239 80.4915 229.614C79.8816 229.989 79.1676 230.176 78.3494 230.176ZM78.3551 228.75C78.8854 228.75 79.3248 228.61 79.6733 228.33C80.0218 228.049 80.2794 227.676 80.446 227.21C80.6165 226.744 80.7017 226.231 80.7017 225.67C80.7017 225.114 80.6165 224.602 80.446 224.136C80.2794 223.667 80.0218 223.29 79.6733 223.006C79.3248 222.722 78.8854 222.58 78.3551 222.58C77.821 222.58 77.3778 222.722 77.0256 223.006C76.6771 223.29 76.4176 223.667 76.2472 224.136C76.0805 224.602 75.9972 225.114 75.9972 225.67C75.9972 226.231 76.0805 226.744 76.2472 227.21C76.4176 227.676 76.6771 228.049 77.0256 228.33C77.3778 228.61 77.821 228.75 78.3551 228.75ZM91.0469 218.023L91.7514 219.097C91.4901 219.335 91.1927 219.506 90.8594 219.608C90.5298 219.706 90.1491 219.769 89.7173 219.795C89.2855 219.818 88.7912 219.839 88.2344 219.858C87.6056 219.877 87.0885 220.013 86.6832 220.267C86.2779 220.517 85.9654 220.888 85.7457 221.381C85.5298 221.869 85.3897 222.483 85.3253 223.222H85.4332C85.7173 222.68 86.1113 222.275 86.6151 222.006C87.1226 221.737 87.6927 221.602 88.3253 221.602C89.0298 221.602 89.6567 221.763 90.206 222.085C90.7552 222.407 91.187 222.879 91.5014 223.5C91.8196 224.117 91.9787 224.873 91.9787 225.767C91.9787 226.672 91.812 227.455 91.4787 228.114C91.1491 228.773 90.6832 229.282 90.081 229.642C89.4825 229.998 88.776 230.176 87.9616 230.176C87.1473 230.176 86.437 229.992 85.831 229.625C85.2287 229.254 84.7609 228.705 84.4276 227.977C84.098 227.25 83.9332 226.352 83.9332 225.284V224.42C83.9332 222.424 84.2893 220.922 85.0014 219.915C85.7135 218.907 86.7779 218.39 88.1946 218.364C88.6529 218.352 89.062 218.35 89.4219 218.358C89.7817 218.362 90.0961 218.345 90.3651 218.307C90.6378 218.265 90.8651 218.17 91.0469 218.023ZM87.9673 228.75C88.4408 228.75 88.848 228.631 89.1889 228.392C89.5336 228.15 89.7988 227.807 89.9844 227.364C90.17 226.92 90.2628 226.398 90.2628 225.795C90.2628 225.205 90.17 224.703 89.9844 224.29C89.7988 223.877 89.5336 223.562 89.1889 223.347C88.8442 223.127 88.4313 223.017 87.9503 223.017C87.5942 223.017 87.276 223.08 86.9957 223.205C86.7154 223.326 86.4749 223.506 86.2741 223.744C86.0772 223.983 85.9238 224.275 85.8139 224.619C85.7079 224.96 85.651 225.352 85.6435 225.795C85.6435 226.697 85.8499 227.415 86.2628 227.949C86.6795 228.483 87.2476 228.75 87.9673 228.75ZM99.7912 224.903V226.375H95.0639V224.903H99.7912ZM95.5412 221.273V230H93.8764V221.273H95.5412ZM100.979 221.273V230H99.3196V221.273H100.979ZM107.013 230.176C106.153 230.176 105.412 229.992 104.791 229.625C104.174 229.254 103.696 228.733 103.359 228.062C103.026 227.388 102.859 226.598 102.859 225.693C102.859 224.799 103.026 224.011 103.359 223.33C103.696 222.648 104.166 222.116 104.768 221.733C105.375 221.35 106.083 221.159 106.893 221.159C107.386 221.159 107.863 221.241 108.325 221.403C108.787 221.566 109.202 221.822 109.57 222.17C109.937 222.519 110.227 222.972 110.439 223.528C110.651 224.081 110.757 224.754 110.757 225.545V226.148H103.82V224.875H109.092C109.092 224.428 109.001 224.032 108.82 223.688C108.638 223.339 108.382 223.064 108.053 222.864C107.727 222.663 107.344 222.562 106.905 222.562C106.428 222.562 106.011 222.68 105.655 222.915C105.303 223.146 105.03 223.449 104.837 223.824C104.647 224.195 104.553 224.598 104.553 225.034V226.028C104.553 226.612 104.655 227.108 104.859 227.517C105.068 227.926 105.357 228.239 105.729 228.455C106.1 228.667 106.534 228.773 107.03 228.773C107.352 228.773 107.645 228.727 107.911 228.636C108.176 228.542 108.405 228.402 108.598 228.216C108.791 228.03 108.939 227.801 109.041 227.528L110.649 227.818C110.52 228.292 110.289 228.706 109.956 229.062C109.626 229.415 109.212 229.689 108.712 229.886C108.215 230.08 107.649 230.176 107.013 230.176ZM116.403 230.176C115.544 230.176 114.803 229.992 114.182 229.625C113.564 229.254 113.087 228.733 112.75 228.062C112.417 227.388 112.25 226.598 112.25 225.693C112.25 224.799 112.417 224.011 112.75 223.33C113.087 222.648 113.557 222.116 114.159 221.733C114.765 221.35 115.473 221.159 116.284 221.159C116.777 221.159 117.254 221.241 117.716 221.403C118.178 221.566 118.593 221.822 118.96 222.17C119.328 222.519 119.617 222.972 119.83 223.528C120.042 224.081 120.148 224.754 120.148 225.545V226.148H113.21V224.875H118.483C118.483 224.428 118.392 224.032 118.21 223.688C118.028 223.339 117.773 223.064 117.443 222.864C117.117 222.663 116.735 222.562 116.295 222.562C115.818 222.562 115.402 222.68 115.045 222.915C114.693 223.146 114.42 223.449 114.227 223.824C114.038 224.195 113.943 224.598 113.943 225.034V226.028C113.943 226.612 114.045 227.108 114.25 227.517C114.458 227.926 114.748 228.239 115.119 228.455C115.491 228.667 115.924 228.773 116.42 228.773C116.742 228.773 117.036 228.727 117.301 228.636C117.566 228.542 117.795 228.402 117.989 228.216C118.182 228.03 118.33 227.801 118.432 227.528L120.04 227.818C119.911 228.292 119.68 228.706 119.347 229.062C119.017 229.415 118.602 229.689 118.102 229.886C117.606 230.08 117.04 230.176 116.403 230.176Z" fill="white"/>
<path d="M32.4489 133.824V130.045H33.1875C33.4564 129.765 33.7045 129.396 33.9318 128.938C34.1591 128.475 34.3485 127.881 34.5 127.153C34.6553 126.422 34.7557 125.509 34.8011 124.415L35.0341 119.364H41.6875V130.045H43.0511V133.795H42.0398V131H33.4602V133.824H32.4489ZM34.4602 130.045H40.6761V120.318H36L35.8182 124.415C35.7765 125.305 35.6989 126.098 35.5852 126.795C35.4716 127.489 35.3201 128.104 35.1307 128.642C34.9451 129.176 34.7216 129.644 34.4602 130.045ZM44.2741 131V130.045H44.5469C44.8575 130.045 45.1075 129.989 45.2969 129.875C45.4901 129.758 45.6397 129.561 45.7457 129.284C45.8518 129.008 45.9313 128.631 45.9844 128.153C46.0374 127.676 46.0791 127.078 46.1094 126.358L46.2969 122.273H51.8423V131H50.8253V123.227H47.2571L47.0923 126.699C47.0582 127.407 47.0014 128.03 46.9219 128.568C46.8461 129.106 46.7211 129.555 46.5469 129.915C46.3764 130.275 46.1378 130.545 45.831 130.727C45.5279 130.909 45.1302 131 44.6378 131H44.2741ZM59.7727 131V123.21H57.3693C56.7443 123.214 56.2689 123.345 55.9432 123.602C55.6212 123.86 55.4602 124.244 55.4602 124.756C55.4602 125.267 55.6136 125.652 55.9205 125.909C56.2273 126.163 56.6742 126.29 57.2614 126.29H60.0568V127.244H57.2614C56.6591 127.244 56.1477 127.148 55.7273 126.955C55.3106 126.761 54.9924 126.479 54.7727 126.108C54.553 125.737 54.4432 125.286 54.4432 124.756C54.4432 124.222 54.5549 123.771 54.7784 123.403C55.0057 123.032 55.3371 122.752 55.7727 122.562C56.2121 122.369 56.7443 122.273 57.3693 122.273H60.7386V131H59.7727ZM53.892 131L56.4034 126.659H57.5114L55 131H53.892ZM68.6335 134.273C68.4328 134.273 68.2453 134.254 68.071 134.216C67.8968 134.178 67.7585 134.136 67.6562 134.091L67.929 133.199C68.2737 133.305 68.5805 133.343 68.8494 133.312C69.1184 133.286 69.357 133.165 69.5653 132.949C69.7737 132.737 69.9593 132.411 70.1222 131.972L70.4403 131.085L67.2301 122.273H68.3267L70.9176 129.665H70.9972L73.5881 122.273H74.6847L70.9915 132.381C70.8362 132.801 70.6449 133.152 70.4176 133.432C70.1903 133.716 69.9271 133.926 69.6278 134.062C69.3324 134.203 69.0009 134.273 68.6335 134.273ZM74.8949 133.483V130.045H75.6506C75.84 129.833 76.0047 129.604 76.1449 129.358C76.285 129.112 76.4063 128.831 76.5085 128.517C76.6146 128.199 76.7036 127.83 76.7756 127.409C76.8475 126.985 76.9081 126.491 76.9574 125.926L77.2756 122.273H82.4403V130.045H83.7358V133.483H82.7244V131H75.9119V133.483H74.8949ZM76.8153 130.045H81.429V123.227H78.2188L77.9574 125.926C77.8665 126.843 77.7377 127.642 77.571 128.324C77.4044 129.006 77.1525 129.58 76.8153 130.045ZM89.0554 131.182C88.3016 131.182 87.6349 130.991 87.0554 130.608C86.4796 130.225 86.0289 129.697 85.7031 129.023C85.3774 128.345 85.2145 127.562 85.2145 126.676C85.2145 125.782 85.3774 124.996 85.7031 124.318C86.0289 123.636 86.4796 123.106 87.0554 122.727C87.6349 122.345 88.3016 122.153 89.0554 122.153C89.8092 122.153 90.474 122.345 91.0497 122.727C91.6255 123.11 92.0762 123.64 92.402 124.318C92.7315 124.996 92.8963 125.782 92.8963 126.676C92.8963 127.562 92.7334 128.345 92.4077 129.023C92.0819 129.697 91.6293 130.225 91.0497 130.608C90.474 130.991 89.8092 131.182 89.0554 131.182ZM89.0554 130.256C89.6615 130.256 90.1747 130.093 90.5952 129.767C91.0156 129.441 91.3338 129.008 91.5497 128.466C91.7694 127.924 91.8793 127.328 91.8793 126.676C91.8793 126.025 91.7694 125.426 91.5497 124.881C91.3338 124.335 91.0156 123.898 90.5952 123.568C90.1747 123.239 89.6615 123.074 89.0554 123.074C88.4531 123.074 87.9399 123.239 87.5156 123.568C87.0952 123.898 86.7751 124.335 86.5554 124.881C86.3395 125.426 86.2315 126.025 86.2315 126.676C86.2315 127.328 86.3395 127.924 86.5554 128.466C86.7751 129.008 87.0952 129.441 87.5156 129.767C87.9361 130.093 88.4493 130.256 89.0554 130.256ZM101.401 119L101.929 119.642C101.69 119.873 101.404 120.032 101.071 120.119C100.741 120.203 100.372 120.25 99.9631 120.261C99.5578 120.273 99.1203 120.29 98.6506 120.312C97.9763 120.347 97.4214 120.523 96.9858 120.841C96.5502 121.155 96.2188 121.61 95.9915 122.205C95.768 122.795 95.6278 123.517 95.571 124.369H95.6847C95.9763 123.775 96.3873 123.322 96.9176 123.011C97.4517 122.701 98.0388 122.545 98.679 122.545C99.3494 122.545 99.9517 122.71 100.486 123.04C101.024 123.366 101.448 123.845 101.759 124.477C102.073 125.106 102.23 125.873 102.23 126.778C102.23 127.672 102.073 128.451 101.759 129.114C101.444 129.773 101.005 130.282 100.44 130.642C99.8759 131.002 99.215 131.182 98.4574 131.182C97.696 131.182 97.0294 131.004 96.4574 130.648C95.8892 130.288 95.4479 129.759 95.1335 129.062C94.8229 128.362 94.6676 127.5 94.6676 126.477V125.562C94.6676 123.528 94.9896 121.998 95.6335 120.972C96.2775 119.945 97.268 119.409 98.6051 119.364C99.0369 119.348 99.429 119.345 99.7812 119.352C100.134 119.356 100.444 119.339 100.713 119.301C100.982 119.259 101.211 119.159 101.401 119ZM98.4574 130.256C99.0218 130.256 99.5104 130.114 99.9233 129.83C100.336 129.542 100.654 129.136 100.878 128.614C101.105 128.091 101.219 127.479 101.219 126.778C101.219 126.081 101.103 125.487 100.872 124.994C100.645 124.502 100.327 124.125 99.9176 123.864C99.5085 123.602 99.0294 123.472 98.4801 123.472C98.0483 123.472 97.66 123.555 97.3153 123.722C96.9744 123.884 96.6828 124.117 96.4403 124.42C96.1979 124.723 96.0123 125.08 95.8835 125.489C95.7547 125.898 95.6884 126.347 95.6847 126.835C95.6847 127.892 95.9309 128.727 96.4233 129.341C96.9195 129.951 97.5975 130.256 98.4574 130.256ZM107.854 131.182C107.073 131.182 106.393 130.987 105.814 130.597C105.238 130.206 104.791 129.672 104.473 128.994C104.155 128.316 103.996 127.544 103.996 126.676C103.996 125.801 104.157 125.023 104.479 124.341C104.804 123.659 105.255 123.125 105.831 122.739C106.407 122.348 107.075 122.153 107.837 122.153C108.42 122.153 108.948 122.267 109.422 122.494C109.895 122.718 110.286 123.034 110.592 123.443C110.903 123.848 111.098 124.322 111.178 124.864H110.155C110.049 124.371 109.793 123.951 109.388 123.602C108.986 123.25 108.475 123.074 107.854 123.074C107.297 123.074 106.804 123.225 106.376 123.528C105.948 123.828 105.613 124.246 105.371 124.784C105.132 125.318 105.013 125.937 105.013 126.642C105.013 127.35 105.13 127.977 105.365 128.523C105.6 129.064 105.929 129.489 106.354 129.795C106.782 130.102 107.282 130.256 107.854 130.256C108.24 130.256 108.592 130.184 108.911 130.04C109.232 129.892 109.501 129.684 109.717 129.415C109.937 129.146 110.085 128.826 110.161 128.455H111.183C111.107 128.981 110.92 129.451 110.621 129.864C110.325 130.273 109.941 130.595 109.467 130.83C108.998 131.064 108.46 131.182 107.854 131.182ZM112.629 123.227V122.273H119.447V123.227H116.561V131H115.55V123.227H112.629ZM121.585 131V122.273H125.023C125.951 122.273 126.682 122.473 127.216 122.875C127.754 123.277 128.023 123.818 128.023 124.5C128.023 125.019 127.873 125.434 127.574 125.744C127.275 126.055 126.873 126.275 126.369 126.403C126.706 126.46 127.019 126.583 127.307 126.773C127.598 126.962 127.835 127.212 128.017 127.523C128.199 127.833 128.29 128.205 128.29 128.636C128.29 129.091 128.176 129.496 127.949 129.852C127.722 130.208 127.402 130.489 126.989 130.693C126.576 130.898 126.087 131 125.523 131H121.585ZM122.551 130.062H125.523C126.057 130.062 126.479 129.926 126.79 129.653C127.1 129.377 127.256 129.009 127.256 128.551C127.256 128.062 127.108 127.672 126.812 127.381C126.521 127.085 126.129 126.938 125.636 126.938H122.551V130.062ZM122.551 126.04H125.085C125.479 126.04 125.82 125.979 126.108 125.858C126.396 125.737 126.617 125.566 126.773 125.347C126.932 125.123 127.009 124.862 127.006 124.562C127.006 124.134 126.831 123.803 126.483 123.568C126.134 123.33 125.648 123.21 125.023 123.21H122.551V126.04ZM132.945 131.199C132.418 131.199 131.937 131.097 131.501 130.892C131.066 130.684 130.719 130.384 130.462 129.994C130.204 129.6 130.075 129.123 130.075 128.562C130.075 128.131 130.157 127.767 130.32 127.472C130.482 127.176 130.714 126.934 131.013 126.744C131.312 126.555 131.666 126.405 132.075 126.295C132.484 126.186 132.935 126.1 133.428 126.04C133.916 125.979 134.329 125.926 134.666 125.881C135.007 125.835 135.267 125.763 135.445 125.665C135.623 125.566 135.712 125.407 135.712 125.188V124.983C135.712 124.388 135.534 123.92 135.178 123.58C134.825 123.235 134.318 123.062 133.655 123.062C133.026 123.062 132.513 123.201 132.115 123.477C131.721 123.754 131.445 124.08 131.286 124.455L130.325 124.108C130.522 123.631 130.795 123.25 131.143 122.966C131.492 122.678 131.882 122.472 132.314 122.347C132.746 122.218 133.183 122.153 133.626 122.153C133.96 122.153 134.306 122.197 134.666 122.284C135.03 122.371 135.367 122.523 135.678 122.739C135.988 122.951 136.24 123.248 136.433 123.631C136.626 124.009 136.723 124.491 136.723 125.074V131H135.712V129.619H135.649C135.528 129.877 135.348 130.127 135.109 130.369C134.871 130.612 134.571 130.811 134.212 130.966C133.852 131.121 133.429 131.199 132.945 131.199ZM133.081 130.273C133.619 130.273 134.085 130.153 134.479 129.915C134.873 129.676 135.176 129.36 135.388 128.966C135.604 128.568 135.712 128.131 135.712 127.653V126.392C135.636 126.464 135.509 126.528 135.331 126.585C135.157 126.642 134.954 126.693 134.723 126.739C134.496 126.78 134.268 126.816 134.041 126.847C133.814 126.877 133.609 126.903 133.428 126.926C132.935 126.987 132.515 127.081 132.166 127.21C131.818 127.339 131.551 127.517 131.365 127.744C131.179 127.968 131.087 128.256 131.087 128.608C131.087 129.138 131.276 129.549 131.655 129.841C132.034 130.129 132.509 130.273 133.081 130.273ZM143.913 131V122.273H147.351C148.279 122.273 149.01 122.473 149.544 122.875C150.082 123.277 150.351 123.818 150.351 124.5C150.351 125.019 150.201 125.434 149.902 125.744C149.603 126.055 149.201 126.275 148.697 126.403C149.035 126.46 149.347 126.583 149.635 126.773C149.927 126.962 150.163 127.212 150.345 127.523C150.527 127.833 150.618 128.205 150.618 128.636C150.618 129.091 150.504 129.496 150.277 129.852C150.05 130.208 149.73 130.489 149.317 130.693C148.904 130.898 148.415 131 147.851 131H143.913ZM144.879 130.062H147.851C148.385 130.062 148.807 129.926 149.118 129.653C149.429 129.377 149.584 129.009 149.584 128.551C149.584 128.062 149.436 127.672 149.141 127.381C148.849 127.085 148.457 126.938 147.964 126.938H144.879V130.062ZM144.879 126.04H147.413C147.807 126.04 148.148 125.979 148.436 125.858C148.724 125.737 148.946 125.566 149.101 125.347C149.26 125.123 149.338 124.862 149.334 124.562C149.334 124.134 149.16 123.803 148.811 123.568C148.463 123.33 147.976 123.21 147.351 123.21H144.879V126.04ZM153.688 125.642H156.244C157.225 125.642 157.983 125.881 158.517 126.358C159.051 126.835 159.318 127.481 159.318 128.295C159.318 128.837 159.197 129.311 158.955 129.716C158.716 130.121 158.367 130.437 157.909 130.665C157.451 130.888 156.896 131 156.244 131H152.847V122.273H153.864V130.045H156.244C156.862 130.045 157.358 129.898 157.733 129.602C158.112 129.307 158.301 128.886 158.301 128.341C158.301 127.784 158.112 127.354 157.733 127.051C157.358 126.748 156.862 126.597 156.244 126.597H153.688V125.642ZM160.79 131V122.273H161.801V131H160.79ZM173.554 129.585L176.832 122.273H177.815L173.957 131H173.151L169.338 122.273H170.304L173.554 129.585ZM170.003 122.273V131H168.991V122.273H170.003ZM177.105 131V122.273H178.116V131H177.105ZM184.196 131.182C183.442 131.182 182.776 130.991 182.196 130.608C181.62 130.225 181.17 129.697 180.844 129.023C180.518 128.345 180.355 127.562 180.355 126.676C180.355 125.782 180.518 124.996 180.844 124.318C181.17 123.636 181.62 123.106 182.196 122.727C182.776 122.345 183.442 122.153 184.196 122.153C184.95 122.153 185.615 122.345 186.19 122.727C186.766 123.11 187.217 123.64 187.543 124.318C187.872 124.996 188.037 125.782 188.037 126.676C188.037 127.562 187.874 128.345 187.548 129.023C187.223 129.697 186.77 130.225 186.19 130.608C185.615 130.991 184.95 131.182 184.196 131.182ZM184.196 130.256C184.802 130.256 185.315 130.093 185.736 129.767C186.156 129.441 186.474 129.008 186.69 128.466C186.91 127.924 187.02 127.328 187.02 126.676C187.02 126.025 186.91 125.426 186.69 124.881C186.474 124.335 186.156 123.898 185.736 123.568C185.315 123.239 184.802 123.074 184.196 123.074C183.594 123.074 183.08 123.239 182.656 123.568C182.236 123.898 181.916 124.335 181.696 124.881C181.48 125.426 181.372 126.025 181.372 126.676C181.372 127.328 181.48 127.924 181.696 128.466C181.916 129.008 182.236 129.441 182.656 129.767C183.077 130.093 183.59 130.256 184.196 130.256ZM189.352 131L193.205 126.591L189.403 122.273H190.636L193.983 126.153H194.568V122.273H195.585V126.153H196.159L199.506 122.273H200.739L196.949 126.591L200.79 131H199.54L196.142 127.108H195.585V131H194.568V127.108H194.011L190.602 131H189.352ZM206.082 131.182C205.268 131.182 204.563 130.992 203.969 130.614C203.374 130.231 202.914 129.703 202.588 129.028C202.266 128.35 202.105 127.57 202.105 126.688C202.105 125.809 202.266 125.028 202.588 124.347C202.914 123.661 203.363 123.125 203.935 122.739C204.51 122.348 205.175 122.153 205.929 122.153C206.402 122.153 206.859 122.241 207.298 122.415C207.738 122.585 208.132 122.848 208.48 123.205C208.832 123.557 209.111 124.002 209.315 124.54C209.52 125.074 209.622 125.706 209.622 126.438V126.938H202.804V126.045H208.588C208.588 125.485 208.474 124.981 208.247 124.534C208.024 124.083 207.711 123.727 207.31 123.466C206.912 123.205 206.452 123.074 205.929 123.074C205.376 123.074 204.889 123.222 204.469 123.517C204.048 123.812 203.719 124.203 203.48 124.688C203.245 125.172 203.126 125.703 203.122 126.278V126.812C203.122 127.506 203.241 128.112 203.48 128.631C203.723 129.146 204.065 129.545 204.509 129.83C204.952 130.114 205.476 130.256 206.082 130.256C206.495 130.256 206.857 130.191 207.168 130.062C207.482 129.934 207.745 129.761 207.957 129.545C208.173 129.326 208.336 129.085 208.446 128.824L209.406 129.136C209.274 129.504 209.056 129.843 208.753 130.153C208.454 130.464 208.079 130.714 207.628 130.903C207.181 131.089 206.666 131.182 206.082 131.182ZM211.004 123.227V122.273H217.822V123.227H214.936V131H213.925V123.227H211.004ZM223.036 131.182C222.221 131.182 221.517 130.992 220.922 130.614C220.327 130.231 219.867 129.703 219.541 129.028C219.219 128.35 219.058 127.57 219.058 126.688C219.058 125.809 219.219 125.028 219.541 124.347C219.867 123.661 220.316 123.125 220.888 122.739C221.464 122.348 222.128 122.153 222.882 122.153C223.356 122.153 223.812 122.241 224.251 122.415C224.691 122.585 225.085 122.848 225.433 123.205C225.786 123.557 226.064 124.002 226.268 124.54C226.473 125.074 226.575 125.706 226.575 126.438V126.938H219.757V126.045H225.541C225.541 125.485 225.428 124.981 225.2 124.534C224.977 124.083 224.664 123.727 224.263 123.466C223.865 123.205 223.405 123.074 222.882 123.074C222.329 123.074 221.842 123.222 221.422 123.517C221.001 123.812 220.672 124.203 220.433 124.688C220.198 125.172 220.079 125.703 220.075 126.278V126.812C220.075 127.506 220.195 128.112 220.433 128.631C220.676 129.146 221.018 129.545 221.462 129.83C221.905 130.114 222.429 130.256 223.036 130.256C223.448 130.256 223.81 130.191 224.121 130.062C224.435 129.934 224.698 129.761 224.911 129.545C225.126 129.326 225.289 129.085 225.399 128.824L226.359 129.136C226.227 129.504 226.009 129.843 225.706 130.153C225.407 130.464 225.032 130.714 224.581 130.903C224.134 131.089 223.619 131.182 223.036 131.182ZM36.7273 157.182C35.9735 157.182 35.3068 156.991 34.7273 156.608C34.1515 156.225 33.7008 155.697 33.375 155.023C33.0492 154.345 32.8864 153.562 32.8864 152.676C32.8864 151.782 33.0492 150.996 33.375 150.318C33.7008 149.636 34.1515 149.106 34.7273 148.727C35.3068 148.345 35.9735 148.153 36.7273 148.153C37.4811 148.153 38.1458 148.345 38.7216 148.727C39.2973 149.11 39.7481 149.64 40.0739 150.318C40.4034 150.996 40.5682 151.782 40.5682 152.676C40.5682 153.562 40.4053 154.345 40.0795 155.023C39.7538 155.697 39.3011 156.225 38.7216 156.608C38.1458 156.991 37.4811 157.182 36.7273 157.182ZM36.7273 156.256C37.3333 156.256 37.8466 156.093 38.267 155.767C38.6875 155.441 39.0057 155.008 39.2216 154.466C39.4413 153.924 39.5511 153.328 39.5511 152.676C39.5511 152.025 39.4413 151.426 39.2216 150.881C39.0057 150.335 38.6875 149.898 38.267 149.568C37.8466 149.239 37.3333 149.074 36.7273 149.074C36.125 149.074 35.6117 149.239 35.1875 149.568C34.767 149.898 34.447 150.335 34.2273 150.881C34.0114 151.426 33.9034 152.025 33.9034 152.676C33.9034 153.328 34.0114 153.924 34.2273 154.466C34.447 155.008 34.767 155.441 35.1875 155.767C35.608 156.093 36.1212 156.256 36.7273 156.256ZM42.7997 157V148.273H49.4077V157H48.3906V149.227H43.8168V157H42.7997ZM51.2273 157V156.045H51.5C51.8106 156.045 52.0606 155.989 52.25 155.875C52.4432 155.758 52.5928 155.561 52.6989 155.284C52.8049 155.008 52.8845 154.631 52.9375 154.153C52.9905 153.676 53.0322 153.078 53.0625 152.358L53.25 148.273H58.7955V157H57.7784V149.227H54.2102L54.0455 152.699C54.0114 153.407 53.9545 154.03 53.875 154.568C53.7992 155.106 53.6742 155.555 53.5 155.915C53.3295 156.275 53.0909 156.545 52.7841 156.727C52.4811 156.909 52.0833 157 51.5909 157H51.2273ZM63.9134 157.199C63.3868 157.199 62.9058 157.097 62.4702 156.892C62.0346 156.684 61.688 156.384 61.4304 155.994C61.1728 155.6 61.044 155.123 61.044 154.562C61.044 154.131 61.1255 153.767 61.2884 153.472C61.4512 153.176 61.6823 152.934 61.9815 152.744C62.2808 152.555 62.6349 152.405 63.044 152.295C63.4531 152.186 63.9039 152.1 64.3963 152.04C64.8849 151.979 65.2978 151.926 65.6349 151.881C65.9759 151.835 66.2353 151.763 66.4134 151.665C66.5914 151.566 66.6804 151.407 66.6804 151.188V150.983C66.6804 150.388 66.5024 149.92 66.1463 149.58C65.794 149.235 65.2865 149.062 64.6236 149.062C63.9948 149.062 63.4815 149.201 63.0838 149.477C62.6899 149.754 62.4134 150.08 62.2543 150.455L61.294 150.108C61.491 149.631 61.7637 149.25 62.1122 148.966C62.4607 148.678 62.8509 148.472 63.2827 148.347C63.7145 148.218 64.152 148.153 64.5952 148.153C64.9285 148.153 65.2751 148.197 65.6349 148.284C65.9986 148.371 66.3357 148.523 66.6463 148.739C66.9569 148.951 67.2088 149.248 67.402 149.631C67.5952 150.009 67.6918 150.491 67.6918 151.074V157H66.6804V155.619H66.6179C66.4967 155.877 66.3168 156.127 66.0781 156.369C65.8395 156.612 65.5402 156.811 65.1804 156.966C64.8205 157.121 64.3982 157.199 63.9134 157.199ZM64.0497 156.273C64.5876 156.273 65.0535 156.153 65.4474 155.915C65.8414 155.676 66.1444 155.36 66.3565 154.966C66.5724 154.568 66.6804 154.131 66.6804 153.653V152.392C66.6046 152.464 66.4777 152.528 66.2997 152.585C66.1255 152.642 65.9228 152.693 65.6918 152.739C65.4645 152.78 65.2372 152.816 65.0099 152.847C64.7827 152.877 64.5781 152.903 64.3963 152.926C63.9039 152.987 63.4834 153.081 63.1349 153.21C62.7865 153.339 62.5194 153.517 62.3338 153.744C62.1482 153.968 62.0554 154.256 62.0554 154.608C62.0554 155.138 62.2448 155.549 62.6236 155.841C63.0024 156.129 63.4777 156.273 64.0497 156.273ZM69.1605 149.227V148.273H75.9787V149.227H73.0923V157H72.081V149.227H69.1605ZM79.1278 155.562L83.7358 148.273H84.946V157H83.9347V149.71L79.3438 157H78.1165V148.273H79.1278V155.562ZM86.3949 149.227V148.273H93.2131V149.227H90.3267V157H89.3153V149.227H86.3949ZM96.1918 151.642H98.7429C99.724 151.642 100.482 151.881 101.016 152.358C101.55 152.835 101.817 153.481 101.817 154.295C101.817 154.837 101.697 155.311 101.459 155.716C101.22 156.121 100.872 156.437 100.413 156.665C99.955 156.888 99.3982 157 98.7429 157H95.3509V148.273H96.3622V156.045H98.7429C99.3603 156.045 99.8584 155.898 100.237 155.602C100.616 155.307 100.805 154.886 100.805 154.341C100.805 153.784 100.616 153.354 100.237 153.051C99.8584 152.748 99.3603 152.597 98.7429 152.597H96.1918V151.642ZM108.004 149.227V148.273H114.822V149.227H111.936V157H110.925V149.227H108.004ZM119.899 157.182C119.145 157.182 118.479 156.991 117.899 156.608C117.323 156.225 116.873 155.697 116.547 155.023C116.221 154.345 116.058 153.562 116.058 152.676C116.058 151.782 116.221 150.996 116.547 150.318C116.873 149.636 117.323 149.106 117.899 148.727C118.479 148.345 119.145 148.153 119.899 148.153C120.653 148.153 121.318 148.345 121.893 148.727C122.469 149.11 122.92 149.64 123.246 150.318C123.575 150.996 123.74 151.782 123.74 152.676C123.74 153.562 123.577 154.345 123.251 155.023C122.926 155.697 122.473 156.225 121.893 156.608C121.318 156.991 120.653 157.182 119.899 157.182ZM119.899 156.256C120.505 156.256 121.018 156.093 121.439 155.767C121.859 155.441 122.178 155.008 122.393 154.466C122.613 153.924 122.723 153.328 122.723 152.676C122.723 152.025 122.613 151.426 122.393 150.881C122.178 150.335 121.859 149.898 121.439 149.568C121.018 149.239 120.505 149.074 119.899 149.074C119.297 149.074 118.784 149.239 118.359 149.568C117.939 149.898 117.619 150.335 117.399 150.881C117.183 151.426 117.075 152.025 117.075 152.676C117.075 153.328 117.183 153.924 117.399 154.466C117.619 155.008 117.939 155.441 118.359 155.767C118.78 156.093 119.293 156.256 119.899 156.256ZM125.96 157V148.273H129.398C130.326 148.273 131.057 148.473 131.591 148.875C132.129 149.277 132.398 149.818 132.398 150.5C132.398 151.019 132.248 151.434 131.949 151.744C131.65 152.055 131.248 152.275 130.744 152.403C131.081 152.46 131.394 152.583 131.682 152.773C131.973 152.962 132.21 153.212 132.392 153.523C132.574 153.833 132.665 154.205 132.665 154.636C132.665 155.091 132.551 155.496 132.324 155.852C132.097 156.208 131.777 156.489 131.364 156.693C130.951 156.898 130.462 157 129.898 157H125.96ZM126.926 156.062H129.898C130.432 156.062 130.854 155.926 131.165 155.653C131.475 155.377 131.631 155.009 131.631 154.551C131.631 154.062 131.483 153.672 131.188 153.381C130.896 153.085 130.504 152.938 130.011 152.938H126.926V156.062ZM126.926 152.04H129.46C129.854 152.04 130.195 151.979 130.483 151.858C130.771 151.737 130.992 151.566 131.148 151.347C131.307 151.123 131.384 150.862 131.381 150.562C131.381 150.134 131.206 149.803 130.858 149.568C130.509 149.33 130.023 149.21 129.398 149.21H126.926V152.04ZM137.32 157.199C136.793 157.199 136.312 157.097 135.876 156.892C135.441 156.684 135.094 156.384 134.837 155.994C134.579 155.6 134.45 155.123 134.45 154.562C134.45 154.131 134.532 153.767 134.695 153.472C134.857 153.176 135.089 152.934 135.388 152.744C135.687 152.555 136.041 152.405 136.45 152.295C136.859 152.186 137.31 152.1 137.803 152.04C138.291 151.979 138.704 151.926 139.041 151.881C139.382 151.835 139.642 151.763 139.82 151.665C139.998 151.566 140.087 151.407 140.087 151.188V150.983C140.087 150.388 139.909 149.92 139.553 149.58C139.2 149.235 138.693 149.062 138.03 149.062C137.401 149.062 136.888 149.201 136.49 149.477C136.096 149.754 135.82 150.08 135.661 150.455L134.7 150.108C134.897 149.631 135.17 149.25 135.518 148.966C135.867 148.678 136.257 148.472 136.689 148.347C137.121 148.218 137.558 148.153 138.001 148.153C138.335 148.153 138.681 148.197 139.041 148.284C139.405 148.371 139.742 148.523 140.053 148.739C140.363 148.951 140.615 149.248 140.808 149.631C141.001 150.009 141.098 150.491 141.098 151.074V157H140.087V155.619H140.024C139.903 155.877 139.723 156.127 139.484 156.369C139.246 156.612 138.946 156.811 138.587 156.966C138.227 157.121 137.804 157.199 137.32 157.199ZM137.456 156.273C137.994 156.273 138.46 156.153 138.854 155.915C139.248 155.676 139.551 155.36 139.763 154.966C139.979 154.568 140.087 154.131 140.087 153.653V152.392C140.011 152.464 139.884 152.528 139.706 152.585C139.532 152.642 139.329 152.693 139.098 152.739C138.871 152.78 138.643 152.816 138.416 152.847C138.189 152.877 137.984 152.903 137.803 152.926C137.31 152.987 136.89 153.081 136.541 153.21C136.193 153.339 135.926 153.517 135.74 153.744C135.554 153.968 135.462 154.256 135.462 154.608C135.462 155.138 135.651 155.549 136.03 155.841C136.409 156.129 136.884 156.273 137.456 156.273ZM143.788 160.273V148.273H144.771V149.938H144.891C145.012 149.676 145.179 149.409 145.391 149.136C145.603 148.86 145.883 148.627 146.232 148.438C146.584 148.248 147.027 148.153 147.561 148.153C148.281 148.153 148.91 148.343 149.447 148.722C149.989 149.097 150.41 149.623 150.709 150.301C151.012 150.975 151.163 151.761 151.163 152.659C151.163 153.561 151.012 154.35 150.709 155.028C150.41 155.706 149.989 156.235 149.447 156.614C148.91 156.992 148.285 157.182 147.572 157.182C147.046 157.182 146.605 157.087 146.249 156.898C145.896 156.708 145.61 156.475 145.391 156.199C145.175 155.919 145.008 155.646 144.891 155.381H144.8V160.273H143.788ZM144.788 152.642C144.788 153.347 144.893 153.972 145.101 154.517C145.313 155.059 145.616 155.485 146.01 155.795C146.408 156.102 146.889 156.256 147.453 156.256C148.033 156.256 148.521 156.097 148.919 155.778C149.321 155.456 149.625 155.023 149.834 154.477C150.046 153.932 150.152 153.32 150.152 152.642C150.152 151.972 150.048 151.367 149.839 150.83C149.635 150.292 149.332 149.866 148.93 149.551C148.529 149.233 148.036 149.074 147.453 149.074C146.885 149.074 146.402 149.227 146.004 149.534C145.607 149.837 145.304 150.258 145.095 150.795C144.891 151.33 144.788 151.945 144.788 152.642ZM164.166 145L164.695 145.642C164.456 145.873 164.17 146.032 163.837 146.119C163.507 146.203 163.138 146.25 162.729 146.261C162.323 146.273 161.886 146.29 161.416 146.312C160.742 146.347 160.187 146.523 159.751 146.841C159.316 147.155 158.984 147.61 158.757 148.205C158.534 148.795 158.393 149.517 158.337 150.369H158.45C158.742 149.775 159.153 149.322 159.683 149.011C160.217 148.701 160.804 148.545 161.445 148.545C162.115 148.545 162.717 148.71 163.251 149.04C163.789 149.366 164.214 149.845 164.524 150.477C164.839 151.106 164.996 151.873 164.996 152.778C164.996 153.672 164.839 154.451 164.524 155.114C164.21 155.773 163.77 156.282 163.206 156.642C162.642 157.002 161.981 157.182 161.223 157.182C160.462 157.182 159.795 157.004 159.223 156.648C158.655 156.288 158.214 155.759 157.899 155.062C157.589 154.362 157.433 153.5 157.433 152.477V151.562C157.433 149.528 157.755 147.998 158.399 146.972C159.043 145.945 160.034 145.409 161.371 145.364C161.803 145.348 162.195 145.345 162.547 145.352C162.899 145.356 163.21 145.339 163.479 145.301C163.748 145.259 163.977 145.159 164.166 145ZM161.223 156.256C161.787 156.256 162.276 156.114 162.689 155.83C163.102 155.542 163.42 155.136 163.643 154.614C163.871 154.091 163.984 153.479 163.984 152.778C163.984 152.081 163.869 151.487 163.638 150.994C163.411 150.502 163.092 150.125 162.683 149.864C162.274 149.602 161.795 149.472 161.246 149.472C160.814 149.472 160.426 149.555 160.081 149.722C159.74 149.884 159.448 150.117 159.206 150.42C158.964 150.723 158.778 151.08 158.649 151.489C158.52 151.898 158.454 152.347 158.45 152.835C158.45 153.892 158.696 154.727 159.189 155.341C159.685 155.951 160.363 156.256 161.223 156.256ZM169.648 157.199C169.121 157.199 168.64 157.097 168.205 156.892C167.769 156.684 167.422 156.384 167.165 155.994C166.907 155.6 166.778 155.123 166.778 154.562C166.778 154.131 166.86 153.767 167.023 153.472C167.186 153.176 167.417 152.934 167.716 152.744C168.015 152.555 168.369 152.405 168.778 152.295C169.188 152.186 169.638 152.1 170.131 152.04C170.619 151.979 171.032 151.926 171.369 151.881C171.71 151.835 171.97 151.763 172.148 151.665C172.326 151.566 172.415 151.407 172.415 151.188V150.983C172.415 150.388 172.237 149.92 171.881 149.58C171.528 149.235 171.021 149.062 170.358 149.062C169.729 149.062 169.216 149.201 168.818 149.477C168.424 149.754 168.148 150.08 167.989 150.455L167.028 150.108C167.225 149.631 167.498 149.25 167.847 148.966C168.195 148.678 168.585 148.472 169.017 148.347C169.449 148.218 169.886 148.153 170.33 148.153C170.663 148.153 171.009 148.197 171.369 148.284C171.733 148.371 172.07 148.523 172.381 148.739C172.691 148.951 172.943 149.248 173.136 149.631C173.33 150.009 173.426 150.491 173.426 151.074V157H172.415V155.619H172.352C172.231 155.877 172.051 156.127 171.812 156.369C171.574 156.612 171.275 156.811 170.915 156.966C170.555 157.121 170.133 157.199 169.648 157.199ZM169.784 156.273C170.322 156.273 170.788 156.153 171.182 155.915C171.576 155.676 171.879 155.36 172.091 154.966C172.307 154.568 172.415 154.131 172.415 153.653V152.392C172.339 152.464 172.212 152.528 172.034 152.585C171.86 152.642 171.657 152.693 171.426 152.739C171.199 152.78 170.972 152.816 170.744 152.847C170.517 152.877 170.312 152.903 170.131 152.926C169.638 152.987 169.218 153.081 168.869 153.21C168.521 153.339 168.254 153.517 168.068 153.744C167.883 153.968 167.79 154.256 167.79 154.608C167.79 155.138 167.979 155.549 168.358 155.841C168.737 156.129 169.212 156.273 169.784 156.273ZM182.009 152.165V153.119H176.878V152.165H182.009ZM177.128 148.273V157H176.116V148.273H177.128ZM182.753 148.273V157H181.741V148.273H182.753ZM185.445 157V148.273H186.456V152.199H187.405L190.649 148.273H191.956L188.456 152.472L192.036 157H190.729L187.717 153.153H186.456V157H185.445ZM196.727 157.182C195.973 157.182 195.307 156.991 194.727 156.608C194.152 156.225 193.701 155.697 193.375 155.023C193.049 154.345 192.886 153.562 192.886 152.676C192.886 151.782 193.049 150.996 193.375 150.318C193.701 149.636 194.152 149.106 194.727 148.727C195.307 148.345 195.973 148.153 196.727 148.153C197.481 148.153 198.146 148.345 198.722 148.727C199.297 149.11 199.748 149.64 200.074 150.318C200.403 150.996 200.568 151.782 200.568 152.676C200.568 153.562 200.405 154.345 200.08 155.023C199.754 155.697 199.301 156.225 198.722 156.608C198.146 156.991 197.481 157.182 196.727 157.182ZM196.727 156.256C197.333 156.256 197.847 156.093 198.267 155.767C198.688 155.441 199.006 155.008 199.222 154.466C199.441 153.924 199.551 153.328 199.551 152.676C199.551 152.025 199.441 151.426 199.222 150.881C199.006 150.335 198.688 149.898 198.267 149.568C197.847 149.239 197.333 149.074 196.727 149.074C196.125 149.074 195.612 149.239 195.188 149.568C194.767 149.898 194.447 150.335 194.227 150.881C194.011 151.426 193.903 152.025 193.903 152.676C193.903 153.328 194.011 153.924 194.227 154.466C194.447 155.008 194.767 155.441 195.188 155.767C195.608 156.093 196.121 156.256 196.727 156.256ZM202.788 157V148.273H206.226C207.154 148.273 207.885 148.473 208.419 148.875C208.957 149.277 209.226 149.818 209.226 150.5C209.226 151.019 209.076 151.434 208.777 151.744C208.478 152.055 208.076 152.275 207.572 152.403C207.91 152.46 208.222 152.583 208.51 152.773C208.802 152.962 209.038 153.212 209.22 153.523C209.402 153.833 209.493 154.205 209.493 154.636C209.493 155.091 209.379 155.496 209.152 155.852C208.925 156.208 208.605 156.489 208.192 156.693C207.779 156.898 207.29 157 206.726 157H202.788ZM203.754 156.062H206.726C207.26 156.062 207.682 155.926 207.993 155.653C208.304 155.377 208.459 155.009 208.459 154.551C208.459 154.062 208.311 153.672 208.016 153.381C207.724 153.085 207.332 152.938 206.839 152.938H203.754V156.062ZM203.754 152.04H206.288C206.682 152.04 207.023 151.979 207.311 151.858C207.599 151.737 207.821 151.566 207.976 151.347C208.135 151.123 208.213 150.862 208.209 150.562C208.209 150.134 208.035 149.803 207.686 149.568C207.338 149.33 206.851 149.21 206.226 149.21H203.754V152.04ZM215.119 157.182C214.339 157.182 213.659 156.987 213.08 156.597C212.504 156.206 212.057 155.672 211.739 154.994C211.42 154.316 211.261 153.544 211.261 152.676C211.261 151.801 211.422 151.023 211.744 150.341C212.07 149.659 212.521 149.125 213.097 148.739C213.672 148.348 214.341 148.153 215.102 148.153C215.686 148.153 216.214 148.267 216.688 148.494C217.161 148.718 217.551 149.034 217.858 149.443C218.169 149.848 218.364 150.322 218.443 150.864H217.42C217.314 150.371 217.059 149.951 216.653 149.602C216.252 149.25 215.741 149.074 215.119 149.074C214.563 149.074 214.07 149.225 213.642 149.528C213.214 149.828 212.879 150.246 212.636 150.784C212.398 151.318 212.278 151.937 212.278 152.642C212.278 153.35 212.396 153.977 212.631 154.523C212.866 155.064 213.195 155.489 213.619 155.795C214.047 156.102 214.547 156.256 215.119 156.256C215.506 156.256 215.858 156.184 216.176 156.04C216.498 155.892 216.767 155.684 216.983 155.415C217.203 155.146 217.35 154.826 217.426 154.455H218.449C218.373 154.981 218.186 155.451 217.886 155.864C217.591 156.273 217.206 156.595 216.733 156.83C216.263 157.064 215.725 157.182 215.119 157.182ZM220.616 157V148.273H221.628V152.199H222.577L225.821 148.273H227.128L223.628 152.472L227.207 157H225.901L222.889 153.153H221.628V157H220.616ZM231.899 157.182C231.145 157.182 230.479 156.991 229.899 156.608C229.323 156.225 228.873 155.697 228.547 155.023C228.221 154.345 228.058 153.562 228.058 152.676C228.058 151.782 228.221 150.996 228.547 150.318C228.873 149.636 229.323 149.106 229.899 148.727C230.479 148.345 231.145 148.153 231.899 148.153C232.653 148.153 233.318 148.345 233.893 148.727C234.469 149.11 234.92 149.64 235.246 150.318C235.575 150.996 235.74 151.782 235.74 152.676C235.74 153.562 235.577 154.345 235.251 155.023C234.926 155.697 234.473 156.225 233.893 156.608C233.318 156.991 232.653 157.182 231.899 157.182ZM231.899 156.256C232.505 156.256 233.018 156.093 233.439 155.767C233.859 155.441 234.178 155.008 234.393 154.466C234.613 153.924 234.723 153.328 234.723 152.676C234.723 152.025 234.613 151.426 234.393 150.881C234.178 150.335 233.859 149.898 233.439 149.568C233.018 149.239 232.505 149.074 231.899 149.074C231.297 149.074 230.784 149.239 230.359 149.568C229.939 149.898 229.619 150.335 229.399 150.881C229.183 151.426 229.075 152.025 229.075 152.676C229.075 153.328 229.183 153.924 229.399 154.466C229.619 155.008 229.939 155.441 230.359 155.767C230.78 156.093 231.293 156.256 231.899 156.256ZM238.972 155.562L243.58 148.273H244.79V157H243.778V149.71L239.188 157H237.96V148.273H238.972V155.562ZM242.42 145.364H243.375C243.375 145.905 243.195 146.345 242.835 146.682C242.479 147.019 241.992 147.188 241.375 147.188C240.765 147.188 240.282 147.019 239.926 146.682C239.57 146.345 239.392 145.905 239.392 145.364H240.347C240.347 145.659 240.426 145.909 240.585 146.114C240.748 146.314 241.011 146.415 241.375 146.415C241.739 146.415 242.004 146.314 242.17 146.114C242.337 145.909 242.42 145.659 242.42 145.364ZM33.3352 183V174.273H34.3466V178.199H35.2955L38.5398 174.273H39.8466L36.3466 178.472L39.9261 183H38.6193L35.608 179.153H34.3466V183H33.3352ZM44.0227 183.199C43.4962 183.199 43.0152 183.097 42.5795 182.892C42.1439 182.684 41.7973 182.384 41.5398 181.994C41.2822 181.6 41.1534 181.123 41.1534 180.562C41.1534 180.131 41.2348 179.767 41.3977 179.472C41.5606 179.176 41.7917 178.934 42.0909 178.744C42.3902 178.555 42.7443 178.405 43.1534 178.295C43.5625 178.186 44.0133 178.1 44.5057 178.04C44.9943 177.979 45.4072 177.926 45.7443 177.881C46.0852 177.835 46.3447 177.763 46.5227 177.665C46.7008 177.566 46.7898 177.407 46.7898 177.188V176.983C46.7898 176.388 46.6117 175.92 46.2557 175.58C45.9034 175.235 45.3958 175.062 44.733 175.062C44.1042 175.062 43.5909 175.201 43.1932 175.477C42.7992 175.754 42.5227 176.08 42.3636 176.455L41.4034 176.108C41.6004 175.631 41.8731 175.25 42.2216 174.966C42.5701 174.678 42.9602 174.472 43.392 174.347C43.8239 174.218 44.2614 174.153 44.7045 174.153C45.0379 174.153 45.3845 174.197 45.7443 174.284C46.108 174.371 46.4451 174.523 46.7557 174.739C47.0663 174.951 47.3182 175.248 47.5114 175.631C47.7045 176.009 47.8011 176.491 47.8011 177.074V183H46.7898V181.619H46.7273C46.6061 181.877 46.4261 182.127 46.1875 182.369C45.9489 182.612 45.6496 182.811 45.2898 182.966C44.9299 183.121 44.5076 183.199 44.0227 183.199ZM44.1591 182.273C44.697 182.273 45.1629 182.153 45.5568 181.915C45.9508 181.676 46.2538 181.36 46.4659 180.966C46.6818 180.568 46.7898 180.131 46.7898 179.653V178.392C46.714 178.464 46.5871 178.528 46.4091 178.585C46.2348 178.642 46.0322 178.693 45.8011 178.739C45.5739 178.78 45.3466 178.816 45.1193 178.847C44.892 178.877 44.6875 178.903 44.5057 178.926C44.0133 178.987 43.5928 179.081 43.2443 179.21C42.8958 179.339 42.6288 179.517 42.4432 179.744C42.2576 179.968 42.1648 180.256 42.1648 180.608C42.1648 181.138 42.3542 181.549 42.733 181.841C43.1117 182.129 43.5871 182.273 44.1591 182.273ZM50.4915 186.273V174.273H51.4744V175.938H51.5938C51.715 175.676 51.8816 175.409 52.0938 175.136C52.3059 174.86 52.5862 174.627 52.9347 174.438C53.2869 174.248 53.7301 174.153 54.2642 174.153C54.9839 174.153 55.6127 174.343 56.1506 174.722C56.6922 175.097 57.1127 175.623 57.4119 176.301C57.715 176.975 57.8665 177.761 57.8665 178.659C57.8665 179.561 57.715 180.35 57.4119 181.028C57.1127 181.706 56.6922 182.235 56.1506 182.614C55.6127 182.992 54.9877 183.182 54.2756 183.182C53.7491 183.182 53.3078 183.087 52.9517 182.898C52.5994 182.708 52.3134 182.475 52.0938 182.199C51.8778 181.919 51.7112 181.646 51.5938 181.381H51.5028V186.273H50.4915ZM51.4915 178.642C51.4915 179.347 51.5956 179.972 51.804 180.517C52.0161 181.059 52.3191 181.485 52.7131 181.795C53.1108 182.102 53.5919 182.256 54.1562 182.256C54.7358 182.256 55.2244 182.097 55.6222 181.778C56.0237 181.456 56.3286 181.023 56.5369 180.477C56.7491 179.932 56.8551 179.32 56.8551 178.642C56.8551 177.972 56.7509 177.367 56.5426 176.83C56.3381 176.292 56.035 175.866 55.6335 175.551C55.232 175.233 54.7396 175.074 54.1562 175.074C53.5881 175.074 53.1051 175.227 52.7074 175.534C52.3097 175.837 52.0066 176.258 51.7983 176.795C51.5938 177.33 51.4915 177.945 51.4915 178.642ZM58.9105 175.227V174.273H65.7287V175.227H62.8423V183H61.831V175.227H58.9105ZM70.8054 183.182C70.0516 183.182 69.3849 182.991 68.8054 182.608C68.2296 182.225 67.7789 181.697 67.4531 181.023C67.1274 180.345 66.9645 179.562 66.9645 178.676C66.9645 177.782 67.1274 176.996 67.4531 176.318C67.7789 175.636 68.2296 175.106 68.8054 174.727C69.3849 174.345 70.0516 174.153 70.8054 174.153C71.5592 174.153 72.224 174.345 72.7997 174.727C73.3755 175.11 73.8262 175.64 74.152 176.318C74.4815 176.996 74.6463 177.782 74.6463 178.676C74.6463 179.562 74.4834 180.345 74.1577 181.023C73.8319 181.697 73.3793 182.225 72.7997 182.608C72.224 182.991 71.5592 183.182 70.8054 183.182ZM70.8054 182.256C71.4115 182.256 71.9247 182.093 72.3452 181.767C72.7656 181.441 73.0838 181.008 73.2997 180.466C73.5194 179.924 73.6293 179.328 73.6293 178.676C73.6293 178.025 73.5194 177.426 73.2997 176.881C73.0838 176.335 72.7656 175.898 72.3452 175.568C71.9247 175.239 71.4115 175.074 70.8054 175.074C70.2031 175.074 69.6899 175.239 69.2656 175.568C68.8452 175.898 68.5251 176.335 68.3054 176.881C68.0895 177.426 67.9815 178.025 67.9815 178.676C67.9815 179.328 68.0895 179.924 68.3054 180.466C68.5251 181.008 68.8452 181.441 69.2656 181.767C69.6861 182.093 70.1993 182.256 70.8054 182.256ZM77.8778 181.562L82.4858 174.273H83.696V183H82.6847V175.71L78.0938 183H76.8665V174.273H77.8778V181.562ZM81.3267 171.364H82.2812C82.2812 171.905 82.1013 172.345 81.7415 172.682C81.3854 173.019 80.8987 173.188 80.2812 173.188C79.6714 173.188 79.1884 173.019 78.8324 172.682C78.4763 172.345 78.2983 171.905 78.2983 171.364H79.2528C79.2528 171.659 79.3324 171.909 79.4915 172.114C79.6544 172.314 79.9176 172.415 80.2812 172.415C80.6449 172.415 80.91 172.314 81.0767 172.114C81.2434 171.909 81.3267 171.659 81.3267 171.364ZM97.304 174.273V183H96.2869V174.273H97.304ZM96.929 178.585V179.551C96.5843 179.676 96.2566 179.782 95.946 179.869C95.6354 179.953 95.3229 180.017 95.0085 180.062C94.6979 180.108 94.3665 180.131 94.0142 180.131C93.0331 180.127 92.2623 179.875 91.7017 179.375C91.1449 178.875 90.8665 178.114 90.8665 177.091V174.244H91.8778V177.091C91.8778 177.576 91.965 177.972 92.1392 178.278C92.3134 178.585 92.5597 178.812 92.8778 178.96C93.196 179.104 93.571 179.176 94.0028 179.176C94.5331 179.176 95.0331 179.123 95.5028 179.017C95.9725 178.911 96.4479 178.767 96.929 178.585ZM103.52 183.182C102.705 183.182 102.001 182.992 101.406 182.614C100.812 182.231 100.351 181.703 100.026 181.028C99.7036 180.35 99.5426 179.57 99.5426 178.688C99.5426 177.809 99.7036 177.028 100.026 176.347C100.351 175.661 100.8 175.125 101.372 174.739C101.948 174.348 102.613 174.153 103.366 174.153C103.84 174.153 104.296 174.241 104.736 174.415C105.175 174.585 105.569 174.848 105.918 175.205C106.27 175.557 106.548 176.002 106.753 176.54C106.957 177.074 107.06 177.706 107.06 178.438V178.938H100.241V178.045H106.026C106.026 177.485 105.912 176.981 105.685 176.534C105.461 176.083 105.149 175.727 104.747 175.466C104.349 175.205 103.889 175.074 103.366 175.074C102.813 175.074 102.327 175.222 101.906 175.517C101.486 175.812 101.156 176.203 100.918 176.688C100.683 177.172 100.563 177.703 100.56 178.278V178.812C100.56 179.506 100.679 180.112 100.918 180.631C101.16 181.146 101.503 181.545 101.946 181.83C102.389 182.114 102.914 182.256 103.52 182.256C103.933 182.256 104.295 182.191 104.605 182.062C104.92 181.934 105.183 181.761 105.395 181.545C105.611 181.326 105.774 181.085 105.884 180.824L106.844 181.136C106.711 181.504 106.493 181.843 106.19 182.153C105.891 182.464 105.516 182.714 105.065 182.903C104.618 183.089 104.103 183.182 103.52 183.182ZM109.288 186.273V174.273H110.271V175.938H110.391C110.512 175.676 110.679 175.409 110.891 175.136C111.103 174.86 111.383 174.627 111.732 174.438C112.084 174.248 112.527 174.153 113.061 174.153C113.781 174.153 114.41 174.343 114.947 174.722C115.489 175.097 115.91 175.623 116.209 176.301C116.512 176.975 116.663 177.761 116.663 178.659C116.663 179.561 116.512 180.35 116.209 181.028C115.91 181.706 115.489 182.235 114.947 182.614C114.41 182.992 113.785 183.182 113.072 183.182C112.546 183.182 112.105 183.087 111.749 182.898C111.396 182.708 111.11 182.475 110.891 182.199C110.675 181.919 110.508 181.646 110.391 181.381H110.3V186.273H109.288ZM110.288 178.642C110.288 179.347 110.393 179.972 110.601 180.517C110.813 181.059 111.116 181.485 111.51 181.795C111.908 182.102 112.389 182.256 112.953 182.256C113.533 182.256 114.021 182.097 114.419 181.778C114.821 181.456 115.125 181.023 115.334 180.477C115.546 179.932 115.652 179.32 115.652 178.642C115.652 177.972 115.548 177.367 115.339 176.83C115.135 176.292 114.832 175.866 114.43 175.551C114.029 175.233 113.536 175.074 112.953 175.074C112.385 175.074 111.902 175.227 111.504 175.534C111.107 175.837 110.804 176.258 110.595 176.795C110.391 177.33 110.288 177.945 110.288 178.642ZM122.411 183.182C121.596 183.182 120.892 182.992 120.297 182.614C119.702 182.231 119.242 181.703 118.916 181.028C118.594 180.35 118.433 179.57 118.433 178.688C118.433 177.809 118.594 177.028 118.916 176.347C119.242 175.661 119.691 175.125 120.263 174.739C120.839 174.348 121.503 174.153 122.257 174.153C122.731 174.153 123.187 174.241 123.626 174.415C124.066 174.585 124.46 174.848 124.808 175.205C125.161 175.557 125.439 176.002 125.643 176.54C125.848 177.074 125.95 177.706 125.95 178.438V178.938H119.132V178.045H124.916C124.916 177.485 124.803 176.981 124.575 176.534C124.352 176.083 124.039 175.727 123.638 175.466C123.24 175.205 122.78 175.074 122.257 175.074C121.704 175.074 121.217 175.222 120.797 175.517C120.376 175.812 120.047 176.203 119.808 176.688C119.573 177.172 119.454 177.703 119.45 178.278V178.812C119.45 179.506 119.57 180.112 119.808 180.631C120.051 181.146 120.393 181.545 120.837 181.83C121.28 182.114 121.804 182.256 122.411 182.256C122.823 182.256 123.185 182.191 123.496 182.062C123.81 181.934 124.073 181.761 124.286 181.545C124.501 181.326 124.664 181.085 124.774 180.824L125.734 181.136C125.602 181.504 125.384 181.843 125.081 182.153C124.782 182.464 124.407 182.714 123.956 182.903C123.509 183.089 122.994 183.182 122.411 183.182ZM127.616 180.773H128.69C128.721 181.239 128.921 181.602 129.293 181.864C129.664 182.125 130.152 182.256 130.759 182.256C131.387 182.256 131.906 182.116 132.315 181.835C132.724 181.551 132.929 181.138 132.929 180.597C132.929 180.267 132.851 179.981 132.696 179.739C132.545 179.496 132.336 179.307 132.071 179.17C131.81 179.03 131.512 178.958 131.179 178.955H129.656V178.028H131.162C131.681 177.998 132.075 177.858 132.344 177.608C132.613 177.354 132.747 177.023 132.747 176.614C132.747 176.148 132.582 175.775 132.253 175.494C131.923 175.21 131.476 175.068 130.912 175.068C130.34 175.068 129.865 175.208 129.486 175.489C129.107 175.769 128.906 176.129 128.884 176.568H127.821C127.84 176.095 127.982 175.678 128.247 175.318C128.512 174.955 128.87 174.67 129.321 174.466C129.776 174.261 130.291 174.159 130.866 174.159C131.457 174.159 131.971 174.265 132.406 174.477C132.842 174.689 133.179 174.979 133.418 175.347C133.656 175.71 133.776 176.123 133.776 176.585C133.776 177.066 133.643 177.462 133.378 177.773C133.116 178.08 132.781 178.295 132.372 178.42V178.506C132.683 178.54 132.955 178.653 133.19 178.847C133.429 179.04 133.616 179.288 133.753 179.591C133.889 179.894 133.957 180.229 133.957 180.597C133.957 181.112 133.823 181.564 133.554 181.955C133.285 182.341 132.91 182.642 132.429 182.858C131.952 183.074 131.401 183.182 130.776 183.182C130.173 183.182 129.637 183.081 129.168 182.881C128.698 182.676 128.325 182.394 128.048 182.034C127.776 181.67 127.632 181.25 127.616 180.773ZM143.947 183.182C143.167 183.182 142.487 182.987 141.908 182.597C141.332 182.206 140.885 181.672 140.567 180.994C140.249 180.316 140.089 179.544 140.089 178.676C140.089 177.801 140.25 177.023 140.572 176.341C140.898 175.659 141.349 175.125 141.925 174.739C142.5 174.348 143.169 174.153 143.93 174.153C144.514 174.153 145.042 174.267 145.516 174.494C145.989 174.718 146.379 175.034 146.686 175.443C146.997 175.848 147.192 176.322 147.271 176.864H146.249C146.143 176.371 145.887 175.951 145.482 175.602C145.08 175.25 144.569 175.074 143.947 175.074C143.391 175.074 142.898 175.225 142.47 175.528C142.042 175.828 141.707 176.246 141.464 176.784C141.226 177.318 141.107 177.937 141.107 178.642C141.107 179.35 141.224 179.977 141.459 180.523C141.694 181.064 142.023 181.489 142.447 181.795C142.875 182.102 143.375 182.256 143.947 182.256C144.334 182.256 144.686 182.184 145.004 182.04C145.326 181.892 145.595 181.684 145.811 181.415C146.031 181.146 146.179 180.826 146.254 180.455H147.277C147.201 180.981 147.014 181.451 146.714 181.864C146.419 182.273 146.035 182.595 145.561 182.83C145.091 183.064 144.554 183.182 143.947 183.182ZM151.882 183.199C151.356 183.199 150.875 183.097 150.439 182.892C150.003 182.684 149.657 182.384 149.399 181.994C149.142 181.6 149.013 181.123 149.013 180.562C149.013 180.131 149.094 179.767 149.257 179.472C149.42 179.176 149.651 178.934 149.95 178.744C150.25 178.555 150.604 178.405 151.013 178.295C151.422 178.186 151.873 178.1 152.365 178.04C152.854 177.979 153.267 177.926 153.604 177.881C153.945 177.835 154.204 177.763 154.382 177.665C154.56 177.566 154.649 177.407 154.649 177.188V176.983C154.649 176.388 154.471 175.92 154.115 175.58C153.763 175.235 153.255 175.062 152.592 175.062C151.964 175.062 151.45 175.201 151.053 175.477C150.659 175.754 150.382 176.08 150.223 176.455L149.263 176.108C149.46 175.631 149.732 175.25 150.081 174.966C150.429 174.678 150.82 174.472 151.251 174.347C151.683 174.218 152.121 174.153 152.564 174.153C152.897 174.153 153.244 174.197 153.604 174.284C153.967 174.371 154.304 174.523 154.615 174.739C154.926 174.951 155.178 175.248 155.371 175.631C155.564 176.009 155.661 176.491 155.661 177.074V183H154.649V181.619H154.587C154.465 181.877 154.286 182.127 154.047 182.369C153.808 182.612 153.509 182.811 153.149 182.966C152.789 183.121 152.367 183.199 151.882 183.199ZM152.018 182.273C152.556 182.273 153.022 182.153 153.416 181.915C153.81 181.676 154.113 181.36 154.325 180.966C154.541 180.568 154.649 180.131 154.649 179.653V178.392C154.573 178.464 154.446 178.528 154.268 178.585C154.094 178.642 153.892 178.693 153.661 178.739C153.433 178.78 153.206 178.816 152.979 178.847C152.751 178.877 152.547 178.903 152.365 178.926C151.873 178.987 151.452 179.081 151.104 179.21C150.755 179.339 150.488 179.517 150.303 179.744C150.117 179.968 150.024 180.256 150.024 180.608C150.024 181.138 150.214 181.549 150.592 181.841C150.971 182.129 151.446 182.273 152.018 182.273ZM159.362 181.562L163.97 174.273H165.18V183H164.169V175.71L159.578 183H158.351V174.273H159.362V181.562ZM162.811 171.364H163.766C163.766 171.905 163.586 172.345 163.226 172.682C162.87 173.019 162.383 173.188 161.766 173.188C161.156 173.188 160.673 173.019 160.317 172.682C159.961 172.345 159.783 171.905 159.783 171.364H160.737C160.737 171.659 160.817 171.909 160.976 172.114C161.139 172.314 161.402 172.415 161.766 172.415C162.129 172.415 162.394 172.314 162.561 172.114C162.728 171.909 162.811 171.659 162.811 171.364ZM166.629 175.227V174.273H173.447V175.227H170.561V183H169.55V175.227H166.629Z" fill="white"/>
</svg>
