<svg width="303" height="233" viewBox="0 0 303 233" fill="none" xmlns="http://www.w3.org/2000/svg">
<rect x="0.36377" width="302" height="233" rx="10" fill="#34312D"/>
<path d="M26.7928 76V61.4545H31.9775C33.1091 61.4545 34.0466 61.6605 34.79 62.0724C35.5334 62.4844 36.0897 63.0478 36.459 63.7628C36.8283 64.473 37.013 65.2732 37.013 66.1634C37.013 67.0582 36.826 67.8632 36.4519 68.5781C36.0826 69.2884 35.5239 69.8518 34.7758 70.2685C34.0324 70.6804 33.0973 70.8864 31.9704 70.8864H28.4051V69.0256H31.7715C32.4865 69.0256 33.0665 68.9025 33.5116 68.6562C33.9567 68.4053 34.2834 68.0644 34.4917 67.6335C34.7 67.2027 34.8042 66.7126 34.8042 66.1634C34.8042 65.6141 34.7 65.1264 34.4917 64.7003C34.2834 64.2741 33.9543 63.9403 33.5045 63.6989C33.0594 63.4574 32.4723 63.3366 31.7431 63.3366H28.9874V76H26.7928ZM42.6924 76.2415C42.0011 76.2415 41.3761 76.1136 40.8174 75.858C40.2587 75.5975 39.816 75.2211 39.4893 74.7287C39.1673 74.2363 39.0063 73.6326 39.0063 72.9176C39.0063 72.3021 39.1247 71.7955 39.3614 71.3977C39.5982 71 39.9178 70.6851 40.3203 70.4531C40.7227 70.2211 41.1725 70.0459 41.6697 69.9276C42.1668 69.8092 42.6735 69.7192 43.1896 69.6577C43.843 69.5819 44.3733 69.5204 44.7805 69.473C45.1877 69.4209 45.4836 69.3381 45.6683 69.2244C45.8529 69.1108 45.9453 68.9261 45.9453 68.6705V68.6207C45.9453 68.0005 45.7701 67.5199 45.4197 67.179C45.074 66.8381 44.5579 66.6676 43.8714 66.6676C43.1564 66.6676 42.593 66.8262 42.181 67.1435C41.7738 67.456 41.4921 67.804 41.3359 68.1875L39.3401 67.733C39.5769 67.0701 39.9225 66.535 40.3771 66.1278C40.8363 65.7159 41.3643 65.4176 41.9609 65.233C42.5575 65.0436 43.1848 64.9489 43.843 64.9489C44.2786 64.9489 44.7402 65.0009 45.2279 65.1051C45.7203 65.2045 46.1796 65.3892 46.6058 65.6591C47.0366 65.929 47.3894 66.3149 47.664 66.8168C47.9386 67.3139 48.0759 67.9602 48.0759 68.7557V76H46.0021V74.5085H45.9168C45.7795 74.7831 45.5736 75.053 45.2989 75.3182C45.0243 75.5833 44.6716 75.8035 44.2407 75.9787C43.8098 76.1539 43.2937 76.2415 42.6924 76.2415ZM43.1541 74.5369C43.7412 74.5369 44.2431 74.4209 44.6597 74.1889C45.0811 73.9569 45.4007 73.6539 45.6185 73.2798C45.8411 72.901 45.9524 72.4962 45.9524 72.0653V70.6591C45.8766 70.7348 45.7298 70.8059 45.512 70.8722C45.2989 70.9337 45.0551 70.9882 44.7805 71.0355C44.5059 71.0781 44.2383 71.1184 43.9779 71.1562C43.7175 71.1894 43.4997 71.2178 43.3245 71.2415C42.9126 71.2936 42.5362 71.3812 42.1953 71.5043C41.8591 71.6274 41.5892 71.8049 41.3856 72.0369C41.1867 72.2642 41.0873 72.5672 41.0873 72.946C41.0873 73.4716 41.2814 73.8693 41.6697 74.1392C42.0579 74.4044 42.5527 74.5369 43.1541 74.5369ZM57.2266 73.3722L60.7493 65.0909H62.5817L58.0149 76H56.4382L51.9638 65.0909H53.7749L57.2266 73.3722ZM53.1854 65.0909V76H51.1044V65.0909H53.1854ZM61.3246 76V65.0909H63.3913V76H61.3246ZM69.5963 76.2415C68.905 76.2415 68.28 76.1136 67.7213 75.858C67.1626 75.5975 66.7199 75.2211 66.3932 74.7287C66.0712 74.2363 65.9102 73.6326 65.9102 72.9176C65.9102 72.3021 66.0286 71.7955 66.2653 71.3977C66.5021 71 66.8217 70.6851 67.2242 70.4531C67.6266 70.2211 68.0764 70.0459 68.5736 69.9276C69.0707 69.8092 69.5774 69.7192 70.0935 69.6577C70.7469 69.5819 71.2772 69.5204 71.6844 69.473C72.0916 69.4209 72.3875 69.3381 72.5722 69.2244C72.7568 69.1108 72.8492 68.9261 72.8492 68.6705V68.6207C72.8492 68.0005 72.674 67.5199 72.3236 67.179C71.9779 66.8381 71.4618 66.6676 70.7753 66.6676C70.0603 66.6676 69.4969 66.8262 69.085 67.1435C68.6778 67.456 68.396 67.804 68.2398 68.1875L66.244 67.733C66.4808 67.0701 66.8264 66.535 67.281 66.1278C67.7403 65.7159 68.2682 65.4176 68.8648 65.233C69.4614 65.0436 70.0887 64.9489 70.7469 64.9489C71.1825 64.9489 71.6441 65.0009 72.1318 65.1051C72.6242 65.2045 73.0835 65.3892 73.5097 65.6591C73.9405 65.929 74.2933 66.3149 74.5679 66.8168C74.8425 67.3139 74.9798 67.9602 74.9798 68.7557V76H72.906V74.5085H72.8207C72.6834 74.7831 72.4775 75.053 72.2028 75.3182C71.9282 75.5833 71.5755 75.8035 71.1446 75.9787C70.7137 76.1539 70.1976 76.2415 69.5963 76.2415ZM70.058 74.5369C70.6451 74.5369 71.147 74.4209 71.5636 74.1889C71.985 73.9569 72.3046 73.6539 72.5225 73.2798C72.745 72.901 72.8563 72.4962 72.8563 72.0653V70.6591C72.7805 70.7348 72.6337 70.8059 72.4159 70.8722C72.2028 70.9337 71.959 70.9882 71.6844 71.0355C71.4098 71.0781 71.1422 71.1184 70.8818 71.1562C70.6214 71.1894 70.4036 71.2178 70.2284 71.2415C69.8165 71.2936 69.4401 71.3812 69.0992 71.5043C68.763 71.6274 68.4931 71.8049 68.2895 72.0369C68.0906 72.2642 67.9912 72.5672 67.9912 72.946C67.9912 73.4716 68.1853 73.8693 68.5736 74.1392C68.9618 74.4044 69.4566 74.5369 70.058 74.5369Z" fill="white"/>
<path d="M252.354 40.7685C252.16 40.9488 252.007 41.24 252.007 41.4064C252.007 41.559 252.354 42.9734 252.784 44.5404C253.214 46.0935 253.533 47.397 253.505 47.4109C253.408 47.4941 233.786 51.3769 233.744 51.3215C233.675 51.2521 232.593 48.4232 232.593 48.3123C232.593 48.2568 233.009 48.1459 233.508 48.0627C234.604 47.8685 235.505 47.5218 236.476 46.9256C237.488 46.3015 238.667 45.9687 239.887 45.9687H240.914V44.8455V43.7084L239.499 43.7777C237.849 43.8609 236.753 44.1799 235.367 44.998C233.009 46.3847 230.652 46.3015 228.294 44.7207C227.726 44.3463 227.213 44.0273 227.157 44.0273C227.06 44.0273 225.937 45.6082 225.937 45.7468C225.937 46.0242 228.835 47.6605 229.626 47.8269C230.056 47.924 230.097 48.0072 230.901 50.1427L231.733 52.3615L231.165 52.8885C229.529 54.3861 225.299 58.0748 225.16 58.1302C225.077 58.158 224.661 57.9916 224.259 57.742C223.288 57.1734 221.777 56.5771 220.584 56.272C219.253 55.9531 215.953 55.9392 214.649 56.272C212.111 56.9099 210.101 58.047 208.242 59.8914C206.398 61.7496 205.261 63.7742 204.623 66.298C204.29 67.6154 204.29 70.9158 204.623 72.2332C205.247 74.7154 206.398 76.7677 208.187 78.5705C210.6 81.025 213.484 82.3424 216.868 82.5365C223.58 82.9248 229.584 78.1545 230.693 71.5259L230.874 70.4443L232.08 70.4027C233.037 70.375 233.287 70.4027 233.287 70.5552C233.287 71.0129 234.299 72.7324 234.895 73.2732C235.478 73.814 237.017 74.6738 237.419 74.6738C237.544 74.6738 237.585 75.0066 237.585 75.8525V77.0312H235.367H233.148V78.1406V79.25H236.129C239.125 79.25 239.125 79.25 239.458 78.9033C239.79 78.5843 239.804 78.5011 239.804 76.6152C239.804 75.0621 239.846 74.6738 239.998 74.6738C240.095 74.6738 240.622 74.4519 241.149 74.1884C242.342 73.5922 243.146 72.7601 243.729 71.5121C244.131 70.6662 244.172 70.4582 244.172 69.2656C244.172 68.073 244.131 67.8511 243.742 67.0468C243.216 65.9375 242.633 65.258 241.732 64.6617L241.038 64.2179L241.704 63.5662C243.95 61.3336 254.587 51.5433 254.67 51.6265C254.725 51.682 254.822 51.9316 254.864 52.1812C254.947 52.625 254.947 52.625 254.379 52.625C253.949 52.625 253.713 52.7082 253.463 52.9717C253.033 53.3877 253.033 53.4847 253.477 55.5648C253.838 57.215 253.838 57.2705 253.588 57.4369C253.436 57.5478 252.853 57.9361 252.271 58.3105C248.527 60.7511 246.225 65.466 246.502 70.0976C246.71 73.4119 248.041 76.2963 250.468 78.6953C252.271 80.4842 254.323 81.6351 256.805 82.2592C258.123 82.592 261.423 82.592 262.741 82.2592C265.306 81.6213 267.233 80.5258 269.133 78.6259C271.033 76.7261 272.129 74.7986 272.767 72.2332C273.099 70.9158 273.099 67.6154 272.767 66.298C271.768 62.332 269.175 59.0732 265.597 57.3398C264.197 56.6742 263.378 56.4107 261.59 56.1056L260.258 55.8838L259.967 54.5109C259.593 52.8052 259.426 52.625 258.164 52.625H257.291L257.124 52.0287C257.041 51.7097 256.445 49.5187 255.807 47.1752C255.169 44.8316 254.642 42.8486 254.642 42.7793C254.642 42.6961 255.946 42.6406 257.97 42.6406H261.312L261.645 42.9873C262.103 43.431 262.103 44.0689 261.645 44.5127C261.326 44.8455 261.243 44.8593 259.426 44.8593H257.554V45.9687V47.0781H259.44C261.798 47.0781 262.269 46.9533 263.17 46.0381C264.155 45.0674 264.432 44.0273 264.044 42.7238C263.822 41.9611 262.671 40.8101 261.908 40.5883C261.506 40.4773 259.995 40.4218 257.013 40.4218H252.687L252.354 40.7685ZM253.117 49.7822C253.117 49.8099 249.802 52.9439 245.753 56.7297C240.442 61.6802 238.348 63.5662 238.279 63.4275C238.085 63.0808 234.535 53.5541 234.576 53.5125C234.604 53.4847 238.764 52.625 243.84 51.6127C248.901 50.5865 253.061 49.7406 253.089 49.7267C253.103 49.7267 253.117 49.7406 253.117 49.7822ZM232.982 55.6758L233.259 56.4523L226.339 62.3043L219.419 68.1701L218.352 68.1285L217.298 68.0869L224.897 61.389C229.071 57.7004 232.538 54.7328 232.593 54.8021C232.649 54.8576 232.829 55.2597 232.982 55.6758ZM259.135 61.2365C259.884 64.7449 260.536 67.7402 260.563 67.8927C260.633 68.1424 260.55 68.1562 259.537 68.1562H258.442L257.069 61.7357C256.32 58.2134 255.668 55.2181 255.641 55.0795C255.585 54.8715 255.696 54.8437 256.667 54.8437H257.762L259.135 61.2365ZM219.364 58.3244C220.473 58.5185 222.151 59.0732 222.789 59.4615L223.33 59.7943L222.456 60.557L221.597 61.3336L221.028 61.084C217.769 59.6972 213.928 60.4599 211.376 63.0254C207.91 66.4922 207.882 72.0252 211.307 75.4365C214.58 78.6953 219.295 79.042 222.983 76.2963C224.55 75.1314 225.854 73.0929 226.228 71.2347L226.408 70.375H227.546H228.683L228.502 71.3041C227.92 74.2855 226.173 76.8925 223.607 78.5705C221.749 79.7908 220.03 80.29 217.617 80.29C215.204 80.29 213.484 79.7908 211.626 78.5705C208.603 76.5875 206.8 73.4951 206.565 69.8758C206.162 63.6494 211.182 58.2828 217.492 58.1857C218.06 58.1857 218.906 58.2412 219.364 58.3244ZM263.517 58.8652C265.777 59.6834 267.76 61.2504 269.078 63.275C270.298 65.147 270.797 66.8527 270.797 69.2656C270.797 72.3996 269.757 74.9234 267.594 77.0867C265.431 79.25 262.907 80.29 259.773 80.29C257.36 80.29 255.641 79.7908 253.782 78.5705C251.356 76.9896 249.789 74.7847 248.984 71.831C248.665 70.6523 248.679 67.8511 249.012 66.5615C249.692 63.9267 251.397 61.5277 253.644 60.0439C254.351 59.5724 254.392 59.6002 254.628 60.8898L254.795 61.7912L253.713 62.859C253.117 63.4552 252.423 64.2873 252.174 64.7172C250.108 68.2256 250.634 72.6215 253.463 75.4365C255.169 77.1283 256.986 77.9603 259.288 78.099C261.811 78.2377 264.155 77.3502 265.93 75.5752C267.636 73.8834 268.468 72.0668 268.606 69.7509C268.856 65.5076 266.207 61.9299 261.867 60.6402L261.243 60.4599L261.007 59.3644L260.771 58.2689L261.576 58.3521C262.019 58.4076 262.893 58.6295 263.517 58.8652ZM235.214 61.6248C236.06 63.899 236.185 64.3427 236.005 64.4398C234.909 65.05 233.897 66.2703 233.467 67.4767L233.217 68.1701L232.039 68.1285L230.86 68.0869L230.763 67.2549C230.624 66.2287 230.222 64.8558 229.681 63.6633L229.279 62.748L230.693 61.5416C231.47 60.8759 232.538 59.9746 233.065 59.517C233.592 59.0732 234.063 58.7543 234.119 58.8236C234.174 58.8791 234.659 60.141 235.214 61.6248ZM219.406 62.8451C219.711 62.9699 219.517 63.164 216.771 65.5769C215.134 67.0191 213.665 68.3365 213.498 68.5306C213.068 68.9744 213.082 69.5984 213.526 70.0283L213.859 70.375H219.017H224.176L224.079 70.8187C223.912 71.6924 223.205 72.9543 222.429 73.7863C221.569 74.7293 220.459 75.381 219.211 75.7138C215.731 76.6152 212.098 74.4103 211.168 70.8603C210.281 67.4213 212.43 63.8158 215.967 62.8174C216.757 62.5955 218.768 62.6093 219.406 62.8451ZM262.851 63.3859C264.405 64.1763 265.75 65.882 266.221 67.6709C267.455 72.4273 262.935 76.948 258.178 75.7138C254.628 74.7847 252.423 71.1515 253.325 67.6986C253.436 67.2549 253.685 66.5892 253.879 66.2009C254.295 65.3967 255.197 64.3427 255.335 64.5092C255.391 64.5646 255.682 65.7711 255.973 67.1855C256.389 69.1963 256.57 69.8203 256.819 70.056C257.11 70.3611 257.208 70.375 259.773 70.375C262.394 70.375 262.422 70.375 262.754 70.0283C262.949 69.848 263.101 69.5707 263.101 69.4181C263.101 69.2656 262.824 67.8234 262.477 66.2148C262.13 64.6062 261.853 63.2334 261.853 63.164C261.853 62.9422 262.089 62.9976 262.851 63.3859ZM227.865 65.0916C228.211 65.9791 228.572 67.3519 228.572 67.8373C228.572 68.1424 228.516 68.1562 227.476 68.1562H226.381L226.284 67.5045C226.228 67.1439 226.09 66.6031 225.965 66.298L225.743 65.7572L226.575 65.0222C227.019 64.6062 227.421 64.2734 227.462 64.2734C227.504 64.2734 227.684 64.634 227.865 65.0916ZM239.721 66.1039C240.484 66.3258 241.635 67.4767 241.857 68.2394C242.203 69.4043 241.981 70.4582 241.219 71.3457C240.817 71.831 240.137 72.3164 239.874 72.3164C239.832 72.3164 239.804 71.3734 239.804 70.2363V68.1562H238.695H237.585V70.2363C237.585 71.3734 237.558 72.3164 237.516 72.3164C237.253 72.3164 236.573 71.831 236.171 71.3457C235.006 70.0006 235.103 68.2672 236.407 66.9775C237.377 65.9929 238.417 65.7295 239.721 66.1039ZM224.051 67.5461C224.245 68.0453 224.148 68.1562 223.51 68.1562H222.886L223.33 67.7402C223.857 67.2687 223.94 67.241 224.051 67.5461Z" fill="#4C4C4C"/>
<path d="M28.013 130.364V142H26.6039V130.364H28.013ZM34.4519 133.273V134.409H29.9292V133.273H34.4519ZM31.2474 131.182H32.5883V139.5C32.5883 139.879 32.6432 140.163 32.7531 140.352C32.8667 140.538 33.0106 140.663 33.1849 140.727C33.3629 140.788 33.5504 140.818 33.7474 140.818C33.8951 140.818 34.0163 140.811 34.111 140.795C34.2057 140.777 34.2815 140.761 34.3383 140.75L34.611 141.955C34.5201 141.989 34.3932 142.023 34.2303 142.057C34.0675 142.095 33.861 142.114 33.611 142.114C33.2322 142.114 32.861 142.032 32.4974 141.869C32.1375 141.706 31.8383 141.458 31.5997 141.125C31.3648 140.792 31.2474 140.371 31.2474 139.864V131.182ZM40.969 142V133.273H42.3099V142H40.969ZM41.6508 131.818C41.3894 131.818 41.164 131.729 40.9747 131.551C40.789 131.373 40.6962 131.159 40.6962 130.909C40.6962 130.659 40.789 130.445 40.9747 130.267C41.164 130.089 41.3894 130 41.6508 130C41.9122 130 42.1356 130.089 42.3212 130.267C42.5106 130.445 42.6053 130.659 42.6053 130.909C42.6053 131.159 42.5106 131.373 42.3212 131.551C42.1356 131.729 41.9122 131.818 41.6508 131.818ZM50.9477 135.227L49.7431 135.568C49.6674 135.367 49.5556 135.172 49.4079 134.983C49.264 134.79 49.067 134.631 48.817 134.506C48.567 134.381 48.2469 134.318 47.8568 134.318C47.3227 134.318 46.8776 134.441 46.5215 134.688C46.1693 134.93 45.9931 135.239 45.9931 135.614C45.9931 135.947 46.1143 136.21 46.3568 136.403C46.5992 136.597 46.978 136.758 47.4931 136.886L48.7886 137.205C49.5689 137.394 50.1503 137.684 50.5329 138.074C50.9155 138.46 51.1068 138.958 51.1068 139.568C51.1068 140.068 50.9628 140.515 50.6749 140.909C50.3908 141.303 49.9931 141.614 49.4818 141.841C48.9704 142.068 48.3757 142.182 47.6977 142.182C46.8075 142.182 46.0708 141.989 45.4874 141.602C44.9041 141.216 44.5348 140.652 44.3795 139.909L45.6522 139.591C45.7734 140.061 46.0026 140.413 46.3397 140.648C46.6806 140.883 47.1257 141 47.6749 141C48.2999 141 48.7962 140.867 49.1636 140.602C49.5348 140.333 49.7204 140.011 49.7204 139.636C49.7204 139.333 49.6143 139.08 49.4022 138.875C49.1901 138.667 48.8643 138.511 48.4249 138.409L46.9704 138.068C46.1711 137.879 45.584 137.585 45.209 137.188C44.8378 136.786 44.6522 136.284 44.6522 135.682C44.6522 135.189 44.7905 134.754 45.067 134.375C45.3473 133.996 45.728 133.699 46.209 133.483C46.6939 133.267 47.2431 133.159 47.8568 133.159C48.7204 133.159 49.3984 133.348 49.8908 133.727C50.3871 134.106 50.7393 134.606 50.9477 135.227ZM60.1934 142.205C59.6404 142.205 59.1385 142.1 58.6877 141.892C58.237 141.68 57.879 141.375 57.6139 140.977C57.3487 140.576 57.2161 140.091 57.2161 139.523C57.2161 139.023 57.3146 138.617 57.5116 138.307C57.7086 137.992 57.9718 137.746 58.3014 137.568C58.6309 137.39 58.9945 137.258 59.3923 137.17C59.7938 137.08 60.1972 137.008 60.6025 136.955C61.1328 136.886 61.5627 136.835 61.8923 136.801C62.2256 136.763 62.468 136.701 62.6195 136.614C62.7748 136.527 62.8525 136.375 62.8525 136.159V136.114C62.8525 135.553 62.6991 135.117 62.3923 134.807C62.0892 134.496 61.629 134.341 61.0116 134.341C60.3714 134.341 59.8695 134.481 59.5059 134.761C59.1423 135.042 58.8866 135.341 58.7389 135.659L57.4661 135.205C57.6934 134.674 57.9964 134.261 58.3752 133.966C58.7578 133.667 59.1745 133.458 59.6252 133.341C60.0798 133.22 60.5267 133.159 60.9661 133.159C61.2464 133.159 61.5684 133.193 61.932 133.261C62.2995 133.326 62.6536 133.46 62.9945 133.665C63.3392 133.869 63.6252 134.178 63.8525 134.591C64.0798 135.004 64.1934 135.557 64.1934 136.25V142H62.8525V140.818H62.7843C62.6934 141.008 62.5419 141.21 62.3298 141.426C62.1176 141.642 61.8354 141.826 61.4832 141.977C61.1309 142.129 60.701 142.205 60.1934 142.205ZM60.3979 141C60.9283 141 61.3752 140.896 61.7389 140.688C62.1063 140.479 62.3828 140.21 62.5684 139.881C62.7578 139.551 62.8525 139.205 62.8525 138.841V137.614C62.7957 137.682 62.6707 137.744 62.4775 137.801C62.2881 137.854 62.0684 137.902 61.8184 137.943C61.5722 137.981 61.3317 138.015 61.0968 138.045C60.8658 138.072 60.6783 138.095 60.5343 138.114C60.1858 138.159 59.8601 138.233 59.557 138.335C59.2578 138.434 59.0154 138.583 58.8298 138.784C58.6479 138.981 58.557 139.25 58.557 139.591C58.557 140.057 58.7294 140.409 59.0741 140.648C59.4226 140.883 59.8639 141 60.3979 141ZM72.4818 130.364V142H71.1408V130.364H72.4818ZM78.4832 142.182C77.6953 142.182 77.004 141.994 76.4093 141.619C75.8184 141.244 75.3563 140.72 75.0229 140.045C74.6934 139.371 74.5286 138.583 74.5286 137.682C74.5286 136.773 74.6934 135.979 75.0229 135.301C75.3563 134.623 75.8184 134.097 76.4093 133.722C77.004 133.347 77.6953 133.159 78.4832 133.159C79.2711 133.159 79.9604 133.347 80.5514 133.722C81.1461 134.097 81.6082 134.623 81.9377 135.301C82.2711 135.979 82.4377 136.773 82.4377 137.682C82.4377 138.583 82.2711 139.371 81.9377 140.045C81.6082 140.72 81.1461 141.244 80.5514 141.619C79.9604 141.994 79.2711 142.182 78.4832 142.182ZM78.4832 140.977C79.0817 140.977 79.5741 140.824 79.9604 140.517C80.3468 140.21 80.6328 139.807 80.8184 139.307C81.004 138.807 81.0968 138.265 81.0968 137.682C81.0968 137.098 81.004 136.555 80.8184 136.051C80.6328 135.547 80.3468 135.14 79.9604 134.83C79.5741 134.519 79.0817 134.364 78.4832 134.364C77.8847 134.364 77.3923 134.519 77.0059 134.83C76.6195 135.14 76.3336 135.547 76.1479 136.051C75.9623 136.555 75.8695 137.098 75.8695 137.682C75.8695 138.265 75.9623 138.807 76.1479 139.307C76.3336 139.807 76.6195 140.21 77.0059 140.517C77.3923 140.824 77.8847 140.977 78.4832 140.977ZM85.8255 136.75V142H84.4846V133.273H85.7801V134.636H85.8937C86.0982 134.193 86.4088 133.837 86.8255 133.568C87.2422 133.295 87.7801 133.159 88.4391 133.159C89.0301 133.159 89.5471 133.28 89.9903 133.523C90.4335 133.761 90.7782 134.125 91.0244 134.614C91.2706 135.098 91.3937 135.712 91.3937 136.455V142H90.0528V136.545C90.0528 135.86 89.8747 135.326 89.5187 134.943C89.1626 134.557 88.674 134.364 88.0528 134.364C87.6247 134.364 87.2422 134.456 86.9051 134.642C86.5717 134.828 86.3085 135.098 86.1153 135.455C85.9221 135.811 85.8255 136.242 85.8255 136.75ZM97.3667 145.455C96.719 145.455 96.1622 145.371 95.6962 145.205C95.2303 145.042 94.8421 144.826 94.5315 144.557C94.2247 144.292 93.9803 144.008 93.7985 143.705L94.8667 142.955C94.9879 143.114 95.1413 143.295 95.3269 143.5C95.5125 143.708 95.7663 143.888 96.0883 144.04C96.414 144.195 96.8402 144.273 97.3667 144.273C98.0712 144.273 98.6527 144.102 99.111 143.761C99.5694 143.42 99.7985 142.886 99.7985 142.159V140.386H99.6849C99.5864 140.545 99.4462 140.742 99.2644 140.977C99.0864 141.208 98.8288 141.415 98.4917 141.597C98.1584 141.775 97.7076 141.864 97.1394 141.864C96.4349 141.864 95.8023 141.697 95.2417 141.364C94.6849 141.03 94.2436 140.545 93.9178 139.909C93.5959 139.273 93.4349 138.5 93.4349 137.591C93.4349 136.697 93.5921 135.919 93.9065 135.256C94.2209 134.589 94.6584 134.074 95.219 133.71C95.7796 133.343 96.4273 133.159 97.1622 133.159C97.7303 133.159 98.1811 133.254 98.5144 133.443C98.8515 133.629 99.1091 133.841 99.2872 134.08C99.469 134.314 99.6091 134.508 99.7076 134.659H99.844V133.273H101.139V142.25C101.139 143 100.969 143.61 100.628 144.08C100.291 144.553 99.8364 144.9 99.2644 145.119C98.6962 145.343 98.0637 145.455 97.3667 145.455ZM97.3212 140.659C97.8591 140.659 98.3137 140.536 98.6849 140.29C99.0561 140.044 99.3383 139.689 99.5315 139.227C99.7247 138.765 99.8212 138.212 99.8212 137.568C99.8212 136.939 99.7265 136.384 99.5372 135.903C99.3478 135.422 99.0675 135.045 98.6962 134.773C98.325 134.5 97.8667 134.364 97.3212 134.364C96.7531 134.364 96.2796 134.508 95.9008 134.795C95.5258 135.083 95.2436 135.47 95.0542 135.955C94.8686 136.439 94.7758 136.977 94.7758 137.568C94.7758 138.174 94.8705 138.71 95.0599 139.176C95.2531 139.638 95.5372 140.002 95.9122 140.267C96.2909 140.528 96.7606 140.659 97.3212 140.659ZM111.753 142.182C110.912 142.182 110.187 141.996 109.577 141.625C108.971 141.25 108.503 140.727 108.174 140.057C107.848 139.383 107.685 138.598 107.685 137.705C107.685 136.811 107.848 136.023 108.174 135.341C108.503 134.655 108.961 134.121 109.549 133.739C110.139 133.352 110.829 133.159 111.617 133.159C112.071 133.159 112.52 133.235 112.963 133.386C113.406 133.538 113.81 133.784 114.174 134.125C114.537 134.462 114.827 134.909 115.043 135.466C115.259 136.023 115.367 136.708 115.367 137.523V138.091H108.639V136.932H114.003C114.003 136.439 113.905 136 113.708 135.614C113.514 135.227 113.238 134.922 112.878 134.699C112.522 134.475 112.102 134.364 111.617 134.364C111.083 134.364 110.62 134.496 110.23 134.761C109.844 135.023 109.547 135.364 109.338 135.784C109.13 136.205 109.026 136.655 109.026 137.136V137.909C109.026 138.568 109.139 139.127 109.367 139.585C109.598 140.04 109.918 140.386 110.327 140.625C110.736 140.86 111.211 140.977 111.753 140.977C112.105 140.977 112.424 140.928 112.708 140.83C112.995 140.727 113.244 140.576 113.452 140.375C113.66 140.17 113.821 139.917 113.935 139.614L115.23 139.977C115.094 140.417 114.865 140.803 114.543 141.136C114.221 141.466 113.823 141.723 113.35 141.909C112.876 142.091 112.344 142.182 111.753 142.182ZM123.588 135.227L122.384 135.568C122.308 135.367 122.196 135.172 122.049 134.983C121.905 134.79 121.708 134.631 121.458 134.506C121.208 134.381 120.888 134.318 120.497 134.318C119.963 134.318 119.518 134.441 119.162 134.688C118.81 134.93 118.634 135.239 118.634 135.614C118.634 135.947 118.755 136.21 118.997 136.403C119.24 136.597 119.619 136.758 120.134 136.886L121.429 137.205C122.21 137.394 122.791 137.684 123.174 138.074C123.556 138.46 123.747 138.958 123.747 139.568C123.747 140.068 123.603 140.515 123.316 140.909C123.031 141.303 122.634 141.614 122.122 141.841C121.611 142.068 121.016 142.182 120.338 142.182C119.448 142.182 118.711 141.989 118.128 141.602C117.545 141.216 117.175 140.652 117.02 139.909L118.293 139.591C118.414 140.061 118.643 140.413 118.98 140.648C119.321 140.883 119.766 141 120.316 141C120.941 141 121.437 140.867 121.804 140.602C122.175 140.333 122.361 140.011 122.361 139.636C122.361 139.333 122.255 139.08 122.043 138.875C121.831 138.667 121.505 138.511 121.066 138.409L119.611 138.068C118.812 137.879 118.225 137.585 117.85 137.188C117.478 136.786 117.293 136.284 117.293 135.682C117.293 135.189 117.431 134.754 117.708 134.375C117.988 133.996 118.369 133.699 118.85 133.483C119.335 133.267 119.884 133.159 120.497 133.159C121.361 133.159 122.039 133.348 122.531 133.727C123.028 134.106 123.38 134.606 123.588 135.227ZM129.561 133.273V134.409H125.039V133.273H129.561ZM126.357 131.182H127.698V139.5C127.698 139.879 127.753 140.163 127.862 140.352C127.976 140.538 128.12 140.663 128.294 140.727C128.472 140.788 128.66 140.818 128.857 140.818C129.004 140.818 129.126 140.811 129.22 140.795C129.315 140.777 129.391 140.761 129.448 140.75L129.72 141.955C129.629 141.989 129.503 142.023 129.34 142.057C129.177 142.095 128.97 142.114 128.72 142.114C128.342 142.114 127.97 142.032 127.607 141.869C127.247 141.706 126.948 141.458 126.709 141.125C126.474 140.792 126.357 140.371 126.357 139.864V131.182ZM134.147 142.205C133.593 142.205 133.092 142.1 132.641 141.892C132.19 141.68 131.832 141.375 131.567 140.977C131.302 140.576 131.169 140.091 131.169 139.523C131.169 139.023 131.268 138.617 131.465 138.307C131.662 137.992 131.925 137.746 132.254 137.568C132.584 137.39 132.948 137.258 133.345 137.17C133.747 137.08 134.15 137.008 134.556 136.955C135.086 136.886 135.516 136.835 135.845 136.801C136.179 136.763 136.421 136.701 136.573 136.614C136.728 136.527 136.806 136.375 136.806 136.159V136.114C136.806 135.553 136.652 135.117 136.345 134.807C136.042 134.496 135.582 134.341 134.965 134.341C134.325 134.341 133.823 134.481 133.459 134.761C133.095 135.042 132.84 135.341 132.692 135.659L131.419 135.205C131.647 134.674 131.95 134.261 132.328 133.966C132.711 133.667 133.128 133.458 133.578 133.341C134.033 133.22 134.48 133.159 134.919 133.159C135.2 133.159 135.522 133.193 135.885 133.261C136.253 133.326 136.607 133.46 136.948 133.665C137.292 133.869 137.578 134.178 137.806 134.591C138.033 135.004 138.147 135.557 138.147 136.25V142H136.806V140.818H136.737C136.647 141.008 136.495 141.21 136.283 141.426C136.071 141.642 135.789 141.826 135.436 141.977C135.084 142.129 134.654 142.205 134.147 142.205ZM134.351 141C134.881 141 135.328 140.896 135.692 140.688C136.059 140.479 136.336 140.21 136.522 139.881C136.711 139.551 136.806 139.205 136.806 138.841V137.614C136.749 137.682 136.624 137.744 136.431 137.801C136.241 137.854 136.022 137.902 135.772 137.943C135.525 137.981 135.285 138.015 135.05 138.045C134.819 138.072 134.631 138.095 134.487 138.114C134.139 138.159 133.813 138.233 133.51 138.335C133.211 138.434 132.968 138.583 132.783 138.784C132.601 138.981 132.51 139.25 132.51 139.591C132.51 140.057 132.683 140.409 133.027 140.648C133.376 140.883 133.817 141 134.351 141ZM140.776 142V130.364H142.117V134.659H142.23C142.329 134.508 142.465 134.314 142.639 134.08C142.817 133.841 143.071 133.629 143.401 133.443C143.734 133.254 144.185 133.159 144.753 133.159C145.488 133.159 146.136 133.343 146.696 133.71C147.257 134.078 147.694 134.598 148.009 135.273C148.323 135.947 148.48 136.742 148.48 137.659C148.48 138.583 148.323 139.384 148.009 140.062C147.694 140.737 147.259 141.259 146.702 141.631C146.145 141.998 145.503 142.182 144.776 142.182C144.215 142.182 143.766 142.089 143.429 141.903C143.092 141.714 142.833 141.5 142.651 141.261C142.469 141.019 142.329 140.818 142.23 140.659H142.071V142H140.776ZM142.094 137.636C142.094 138.295 142.191 138.877 142.384 139.381C142.577 139.881 142.859 140.273 143.23 140.557C143.602 140.837 144.056 140.977 144.594 140.977C145.155 140.977 145.622 140.83 145.997 140.534C146.376 140.235 146.66 139.833 146.85 139.33C147.043 138.822 147.139 138.258 147.139 137.636C147.139 137.023 147.045 136.47 146.855 135.977C146.67 135.481 146.388 135.089 146.009 134.801C145.634 134.509 145.162 134.364 144.594 134.364C144.049 134.364 143.59 134.502 143.219 134.778C142.848 135.051 142.567 135.434 142.378 135.926C142.189 136.415 142.094 136.985 142.094 137.636ZM151.872 130.364V142H150.531V130.364H151.872ZM154.328 142V133.273H155.669V142H154.328ZM155.01 131.818C154.749 131.818 154.523 131.729 154.334 131.551C154.148 131.373 154.056 131.159 154.056 130.909C154.056 130.659 154.148 130.445 154.334 130.267C154.523 130.089 154.749 130 155.01 130C155.272 130 155.495 130.089 155.681 130.267C155.87 130.445 155.965 130.659 155.965 130.909C155.965 131.159 155.87 131.373 155.681 131.551C155.495 131.729 155.272 131.818 155.01 131.818ZM164.307 135.227L163.102 135.568C163.027 135.367 162.915 135.172 162.767 134.983C162.623 134.79 162.426 134.631 162.176 134.506C161.926 134.381 161.606 134.318 161.216 134.318C160.682 134.318 160.237 134.441 159.881 134.688C159.529 134.93 159.352 135.239 159.352 135.614C159.352 135.947 159.474 136.21 159.716 136.403C159.959 136.597 160.337 136.758 160.852 136.886L162.148 137.205C162.928 137.394 163.51 137.684 163.892 138.074C164.275 138.46 164.466 138.958 164.466 139.568C164.466 140.068 164.322 140.515 164.034 140.909C163.75 141.303 163.352 141.614 162.841 141.841C162.33 142.068 161.735 142.182 161.057 142.182C160.167 142.182 159.43 141.989 158.847 141.602C158.263 141.216 157.894 140.652 157.739 139.909L159.012 139.591C159.133 140.061 159.362 140.413 159.699 140.648C160.04 140.883 160.485 141 161.034 141C161.659 141 162.156 140.867 162.523 140.602C162.894 140.333 163.08 140.011 163.08 139.636C163.08 139.333 162.974 139.08 162.762 138.875C162.549 138.667 162.224 138.511 161.784 138.409L160.33 138.068C159.531 137.879 158.943 137.585 158.568 137.188C158.197 136.786 158.012 136.284 158.012 135.682C158.012 135.189 158.15 134.754 158.426 134.375C158.707 133.996 159.087 133.699 159.568 133.483C160.053 133.267 160.602 133.159 161.216 133.159C162.08 133.159 162.758 133.348 163.25 133.727C163.746 134.106 164.099 134.606 164.307 135.227ZM167.826 136.75V142H166.485V130.364H167.826V134.636H167.939C168.144 134.186 168.451 133.828 168.86 133.562C169.272 133.294 169.822 133.159 170.507 133.159C171.102 133.159 171.623 133.278 172.07 133.517C172.517 133.752 172.863 134.114 173.11 134.602C173.36 135.087 173.485 135.705 173.485 136.455V142H172.144V136.545C172.144 135.852 171.964 135.316 171.604 134.938C171.248 134.555 170.754 134.364 170.121 134.364C169.682 134.364 169.288 134.456 168.939 134.642C168.594 134.828 168.322 135.098 168.121 135.455C167.924 135.811 167.826 136.242 167.826 136.75ZM179.597 142.182C178.756 142.182 178.031 141.996 177.421 141.625C176.815 141.25 176.347 140.727 176.017 140.057C175.692 139.383 175.529 138.598 175.529 137.705C175.529 136.811 175.692 136.023 176.017 135.341C176.347 134.655 176.805 134.121 177.392 133.739C177.983 133.352 178.673 133.159 179.46 133.159C179.915 133.159 180.364 133.235 180.807 133.386C181.25 133.538 181.654 133.784 182.017 134.125C182.381 134.462 182.671 134.909 182.887 135.466C183.102 136.023 183.21 136.708 183.21 137.523V138.091H176.483V136.932H181.847C181.847 136.439 181.748 136 181.551 135.614C181.358 135.227 181.082 134.922 180.722 134.699C180.366 134.475 179.945 134.364 179.46 134.364C178.926 134.364 178.464 134.496 178.074 134.761C177.688 135.023 177.39 135.364 177.182 135.784C176.974 136.205 176.87 136.655 176.87 137.136V137.909C176.87 138.568 176.983 139.127 177.21 139.585C177.442 140.04 177.762 140.386 178.171 140.625C178.58 140.86 179.055 140.977 179.597 140.977C179.949 140.977 180.267 140.928 180.551 140.83C180.839 140.727 181.087 140.576 181.296 140.375C181.504 140.17 181.665 139.917 181.779 139.614L183.074 139.977C182.938 140.417 182.709 140.803 182.387 141.136C182.065 141.466 181.667 141.723 181.193 141.909C180.72 142.091 180.188 142.182 179.597 142.182ZM188.546 142.182C187.818 142.182 187.176 141.998 186.62 141.631C186.063 141.259 185.627 140.737 185.313 140.062C184.998 139.384 184.841 138.583 184.841 137.659C184.841 136.742 184.998 135.947 185.313 135.273C185.627 134.598 186.065 134.078 186.625 133.71C187.186 133.343 187.834 133.159 188.568 133.159C189.137 133.159 189.585 133.254 189.915 133.443C190.248 133.629 190.502 133.841 190.676 134.08C190.854 134.314 190.993 134.508 191.091 134.659H191.205V130.364H192.546V142H191.25V140.659H191.091C190.993 140.818 190.852 141.019 190.671 141.261C190.489 141.5 190.229 141.714 189.892 141.903C189.555 142.089 189.106 142.182 188.546 142.182ZM188.727 140.977C189.265 140.977 189.72 140.837 190.091 140.557C190.462 140.273 190.745 139.881 190.938 139.381C191.131 138.877 191.227 138.295 191.227 137.636C191.227 136.985 191.133 136.415 190.943 135.926C190.754 135.434 190.474 135.051 190.102 134.778C189.731 134.502 189.273 134.364 188.727 134.364C188.159 134.364 187.686 134.509 187.307 134.801C186.932 135.089 186.65 135.481 186.46 135.977C186.275 136.47 186.182 137.023 186.182 137.636C186.182 138.258 186.277 138.822 186.466 139.33C186.659 139.833 186.943 140.235 187.318 140.534C187.697 140.83 188.167 140.977 188.727 140.977ZM203.574 133.273V134.409H198.87V133.273H203.574ZM200.279 142V132.068C200.279 131.568 200.396 131.152 200.631 130.818C200.866 130.485 201.171 130.235 201.546 130.068C201.921 129.902 202.317 129.818 202.733 129.818C203.063 129.818 203.332 129.845 203.54 129.898C203.748 129.951 203.904 130 204.006 130.045L203.62 131.205C203.551 131.182 203.457 131.153 203.335 131.119C203.218 131.085 203.063 131.068 202.87 131.068C202.426 131.068 202.106 131.18 201.909 131.403C201.716 131.627 201.62 131.955 201.62 132.386V142H200.279ZM207.772 142.205C207.218 142.205 206.717 142.1 206.266 141.892C205.815 141.68 205.457 141.375 205.192 140.977C204.927 140.576 204.794 140.091 204.794 139.523C204.794 139.023 204.893 138.617 205.09 138.307C205.287 137.992 205.55 137.746 205.879 137.568C206.209 137.39 206.573 137.258 206.97 137.17C207.372 137.08 207.775 137.008 208.181 136.955C208.711 136.886 209.141 136.835 209.47 136.801C209.804 136.763 210.046 136.701 210.198 136.614C210.353 136.527 210.431 136.375 210.431 136.159V136.114C210.431 135.553 210.277 135.117 209.97 134.807C209.667 134.496 209.207 134.341 208.59 134.341C207.95 134.341 207.448 134.481 207.084 134.761C206.72 135.042 206.465 135.341 206.317 135.659L205.044 135.205C205.272 134.674 205.575 134.261 205.953 133.966C206.336 133.667 206.753 133.458 207.203 133.341C207.658 133.22 208.105 133.159 208.544 133.159C208.825 133.159 209.147 133.193 209.51 133.261C209.878 133.326 210.232 133.46 210.573 133.665C210.917 133.869 211.203 134.178 211.431 134.591C211.658 135.004 211.772 135.557 211.772 136.25V142H210.431V140.818H210.362C210.272 141.008 210.12 141.21 209.908 141.426C209.696 141.642 209.414 141.826 209.061 141.977C208.709 142.129 208.279 142.205 207.772 142.205ZM207.976 141C208.506 141 208.953 140.896 209.317 140.688C209.684 140.479 209.961 140.21 210.147 139.881C210.336 139.551 210.431 139.205 210.431 138.841V137.614C210.374 137.682 210.249 137.744 210.056 137.801C209.866 137.854 209.647 137.902 209.397 137.943C209.15 137.981 208.91 138.015 208.675 138.045C208.444 138.072 208.256 138.095 208.112 138.114C207.764 138.159 207.438 138.233 207.135 138.335C206.836 138.434 206.593 138.583 206.408 138.784C206.226 138.981 206.135 139.25 206.135 139.591C206.135 140.057 206.308 140.409 206.652 140.648C207.001 140.883 207.442 141 207.976 141ZM217.764 142.182C216.946 142.182 216.242 141.989 215.651 141.602C215.06 141.216 214.605 140.684 214.287 140.006C213.969 139.328 213.81 138.553 213.81 137.682C213.81 136.795 213.973 136.013 214.299 135.335C214.628 134.653 215.086 134.121 215.674 133.739C216.264 133.352 216.954 133.159 217.742 133.159C218.355 133.159 218.908 133.273 219.401 133.5C219.893 133.727 220.297 134.045 220.611 134.455C220.925 134.864 221.12 135.341 221.196 135.886H219.855C219.753 135.489 219.526 135.136 219.174 134.83C218.825 134.519 218.355 134.364 217.764 134.364C217.242 134.364 216.783 134.5 216.389 134.773C215.999 135.042 215.694 135.422 215.475 135.915C215.259 136.403 215.151 136.977 215.151 137.636C215.151 138.311 215.257 138.898 215.469 139.398C215.685 139.898 215.988 140.286 216.378 140.562C216.772 140.839 217.234 140.977 217.764 140.977C218.113 140.977 218.429 140.917 218.713 140.795C218.997 140.674 219.238 140.5 219.435 140.273C219.632 140.045 219.772 139.773 219.855 139.455H221.196C221.12 139.97 220.933 140.434 220.634 140.847C220.338 141.256 219.946 141.581 219.458 141.824C218.973 142.062 218.408 142.182 217.764 142.182ZM226.952 133.273V134.409H222.429V133.273H226.952ZM223.747 131.182H225.088V139.5C225.088 139.879 225.143 140.163 225.253 140.352C225.367 140.538 225.511 140.663 225.685 140.727C225.863 140.788 226.05 140.818 226.247 140.818C226.395 140.818 226.516 140.811 226.611 140.795C226.706 140.777 226.781 140.761 226.838 140.75L227.111 141.955C227.02 141.989 226.893 142.023 226.73 142.057C226.567 142.095 226.361 142.114 226.111 142.114C225.732 142.114 225.361 142.032 224.997 141.869C224.638 141.706 224.338 141.458 224.1 141.125C223.865 140.792 223.747 140.371 223.747 139.864V131.182ZM237.264 133.273V134.409H232.742V133.273H237.264ZM234.06 131.182H235.401V139.5C235.401 139.879 235.456 140.163 235.566 140.352C235.679 140.538 235.823 140.663 235.997 140.727C236.175 140.788 236.363 140.818 236.56 140.818C236.708 140.818 236.829 140.811 236.924 140.795C237.018 140.777 237.094 140.761 237.151 140.75L237.424 141.955C237.333 141.989 237.206 142.023 237.043 142.057C236.88 142.095 236.674 142.114 236.424 142.114C236.045 142.114 235.674 142.032 235.31 141.869C234.95 141.706 234.651 141.458 234.412 141.125C234.177 140.792 234.06 140.371 234.06 139.864V131.182ZM240.81 136.75V142H239.469V130.364H240.81V134.636H240.924C241.128 134.186 241.435 133.828 241.844 133.562C242.257 133.294 242.806 133.159 243.492 133.159C244.086 133.159 244.607 133.278 245.054 133.517C245.501 133.752 245.848 134.114 246.094 134.602C246.344 135.087 246.469 135.705 246.469 136.455V142H245.128V136.545C245.128 135.852 244.948 135.316 244.588 134.938C244.232 134.555 243.738 134.364 243.105 134.364C242.666 134.364 242.272 134.456 241.924 134.642C241.579 134.828 241.306 135.098 241.105 135.455C240.908 135.811 240.81 136.242 240.81 136.75ZM251.49 142.205C250.937 142.205 250.435 142.1 249.985 141.892C249.534 141.68 249.176 141.375 248.911 140.977C248.646 140.576 248.513 140.091 248.513 139.523C248.513 139.023 248.611 138.617 248.808 138.307C249.005 137.992 249.269 137.746 249.598 137.568C249.928 137.39 250.291 137.258 250.689 137.17C251.091 137.08 251.494 137.008 251.899 136.955C252.43 136.886 252.86 136.835 253.189 136.801C253.522 136.763 253.765 136.701 253.916 136.614C254.072 136.527 254.149 136.375 254.149 136.159V136.114C254.149 135.553 253.996 135.117 253.689 134.807C253.386 134.496 252.926 134.341 252.308 134.341C251.668 134.341 251.166 134.481 250.803 134.761C250.439 135.042 250.183 135.341 250.036 135.659L248.763 135.205C248.99 134.674 249.293 134.261 249.672 133.966C250.055 133.667 250.471 133.458 250.922 133.341C251.377 133.22 251.824 133.159 252.263 133.159C252.543 133.159 252.865 133.193 253.229 133.261C253.596 133.326 253.951 133.46 254.291 133.665C254.636 133.869 254.922 134.178 255.149 134.591C255.377 135.004 255.49 135.557 255.49 136.25V142H254.149V140.818H254.081C253.99 141.008 253.839 141.21 253.627 141.426C253.415 141.642 253.132 141.826 252.78 141.977C252.428 142.129 251.998 142.205 251.49 142.205ZM251.695 141C252.225 141 252.672 140.896 253.036 140.688C253.403 140.479 253.68 140.21 253.865 139.881C254.055 139.551 254.149 139.205 254.149 138.841V137.614C254.093 137.682 253.968 137.744 253.774 137.801C253.585 137.854 253.365 137.902 253.115 137.943C252.869 137.981 252.629 138.015 252.394 138.045C252.163 138.072 251.975 138.095 251.831 138.114C251.483 138.159 251.157 138.233 250.854 138.335C250.555 138.434 250.312 138.583 250.127 138.784C249.945 138.981 249.854 139.25 249.854 139.591C249.854 140.057 250.026 140.409 250.371 140.648C250.719 140.883 251.161 141 251.695 141ZM261.733 133.273V134.409H257.21V133.273H261.733ZM258.529 131.182H259.87V139.5C259.87 139.879 259.924 140.163 260.034 140.352C260.148 140.538 260.292 140.663 260.466 140.727C260.644 140.788 260.832 140.818 261.029 140.818C261.176 140.818 261.298 140.811 261.392 140.795C261.487 140.777 261.563 140.761 261.62 140.75L261.892 141.955C261.801 141.989 261.674 142.023 261.512 142.057C261.349 142.095 261.142 142.114 260.892 142.114C260.513 142.114 260.142 142.032 259.779 141.869C259.419 141.706 259.12 141.458 258.881 141.125C258.646 140.792 258.529 140.371 258.529 139.864V131.182ZM28.9903 168.205C28.4372 168.205 27.9354 168.1 27.4846 167.892C27.0338 167.68 26.6759 167.375 26.4107 166.977C26.1456 166.576 26.013 166.091 26.013 165.523C26.013 165.023 26.1115 164.617 26.3085 164.307C26.5054 163.992 26.7687 163.746 27.0982 163.568C27.4278 163.39 27.7914 163.258 28.1891 163.17C28.5907 163.08 28.9941 163.008 29.3994 162.955C29.9297 162.886 30.3596 162.835 30.6891 162.801C31.0225 162.763 31.2649 162.701 31.4164 162.614C31.5717 162.527 31.6494 162.375 31.6494 162.159V162.114C31.6494 161.553 31.496 161.117 31.1891 160.807C30.8861 160.496 30.4259 160.341 29.8085 160.341C29.1683 160.341 28.6664 160.481 28.3028 160.761C27.9391 161.042 27.6835 161.341 27.5357 161.659L26.263 161.205C26.4903 160.674 26.7933 160.261 27.1721 159.966C27.5547 159.667 27.9713 159.458 28.4221 159.341C28.8766 159.22 29.3236 159.159 29.763 159.159C30.0433 159.159 30.3653 159.193 30.7289 159.261C31.0963 159.326 31.4505 159.46 31.7914 159.665C32.1361 159.869 32.4221 160.178 32.6494 160.591C32.8766 161.004 32.9903 161.557 32.9903 162.25V168H31.6494V166.818H31.5812C31.4903 167.008 31.3388 167.21 31.1266 167.426C30.9145 167.642 30.6323 167.826 30.2801 167.977C29.9278 168.129 29.4979 168.205 28.9903 168.205ZM29.1948 167C29.7251 167 30.1721 166.896 30.5357 166.688C30.9032 166.479 31.1797 166.21 31.3653 165.881C31.5547 165.551 31.6494 165.205 31.6494 164.841V163.614C31.5926 163.682 31.4676 163.744 31.2744 163.801C31.085 163.854 30.8653 163.902 30.6153 163.943C30.3691 163.981 30.1285 164.015 29.8937 164.045C29.6626 164.072 29.4751 164.095 29.3312 164.114C28.9827 164.159 28.6569 164.233 28.3539 164.335C28.0547 164.434 27.8122 164.583 27.6266 164.784C27.4448 164.981 27.3539 165.25 27.3539 165.591C27.3539 166.057 27.5263 166.409 27.871 166.648C28.2194 166.883 28.6607 167 29.1948 167ZM39.9377 168V159.273H41.2332V160.591H41.3241C41.4832 160.159 41.7711 159.809 42.1877 159.54C42.6044 159.271 43.0741 159.136 43.5968 159.136C43.6953 159.136 43.8184 159.138 43.9661 159.142C44.1139 159.146 44.2256 159.152 44.3014 159.159V160.523C44.2559 160.511 44.1517 160.494 43.9889 160.472C43.8298 160.445 43.6612 160.432 43.4832 160.432C43.0589 160.432 42.6801 160.521 42.3468 160.699C42.0173 160.873 41.7559 161.116 41.5627 161.426C41.3733 161.733 41.2786 162.083 41.2786 162.477V168H39.9377ZM49.2843 168.182C48.4434 168.182 47.718 167.996 47.1082 167.625C46.5021 167.25 46.0343 166.727 45.7048 166.057C45.379 165.383 45.2161 164.598 45.2161 163.705C45.2161 162.811 45.379 162.023 45.7048 161.341C46.0343 160.655 46.4926 160.121 47.0798 159.739C47.6707 159.352 48.3601 159.159 49.1479 159.159C49.6025 159.159 50.0514 159.235 50.4945 159.386C50.9377 159.538 51.3411 159.784 51.7048 160.125C52.0684 160.462 52.3582 160.909 52.5741 161.466C52.79 162.023 52.8979 162.708 52.8979 163.523V164.091H46.1707V162.932H51.5343C51.5343 162.439 51.4358 162 51.2389 161.614C51.0457 161.227 50.7692 160.922 50.4093 160.699C50.0533 160.475 49.6328 160.364 49.1479 160.364C48.6139 160.364 48.1517 160.496 47.7616 160.761C47.3752 161.023 47.0779 161.364 46.8695 161.784C46.6612 162.205 46.557 162.655 46.557 163.136V163.909C46.557 164.568 46.6707 165.127 46.8979 165.585C47.129 166.04 47.4491 166.386 47.8582 166.625C48.2673 166.86 48.7426 166.977 49.2843 166.977C49.6366 166.977 49.9548 166.928 50.2389 166.83C50.5267 166.727 50.7748 166.576 50.9832 166.375C51.1915 166.17 51.3525 165.917 51.4661 165.614L52.7616 165.977C52.6252 166.417 52.3961 166.803 52.0741 167.136C51.7521 167.466 51.3544 167.723 50.8809 167.909C50.4074 168.091 49.8752 168.182 49.2843 168.182ZM57.5059 168.205C56.9529 168.205 56.451 168.1 56.0002 167.892C55.5495 167.68 55.1915 167.375 54.9264 166.977C54.6612 166.576 54.5286 166.091 54.5286 165.523C54.5286 165.023 54.6271 164.617 54.8241 164.307C55.0211 163.992 55.2843 163.746 55.6139 163.568C55.9434 163.39 56.307 163.258 56.7048 163.17C57.1063 163.08 57.5097 163.008 57.915 162.955C58.4453 162.886 58.8752 162.835 59.2048 162.801C59.5381 162.763 59.7805 162.701 59.932 162.614C60.0873 162.527 60.165 162.375 60.165 162.159V162.114C60.165 161.553 60.0116 161.117 59.7048 160.807C59.4017 160.496 58.9415 160.341 58.3241 160.341C57.6839 160.341 57.182 160.481 56.8184 160.761C56.4548 161.042 56.1991 161.341 56.0514 161.659L54.7786 161.205C55.0059 160.674 55.3089 160.261 55.6877 159.966C56.0703 159.667 56.487 159.458 56.9377 159.341C57.3923 159.22 57.8392 159.159 58.2786 159.159C58.5589 159.159 58.8809 159.193 59.2445 159.261C59.612 159.326 59.9661 159.46 60.307 159.665C60.6517 159.869 60.9377 160.178 61.165 160.591C61.3923 161.004 61.5059 161.557 61.5059 162.25V168H60.165V166.818H60.0968C60.0059 167.008 59.8544 167.21 59.6423 167.426C59.4301 167.642 59.1479 167.826 58.7957 167.977C58.4434 168.129 58.0135 168.205 57.5059 168.205ZM57.7104 167C58.2408 167 58.6877 166.896 59.0514 166.688C59.4188 166.479 59.6953 166.21 59.8809 165.881C60.0703 165.551 60.165 165.205 60.165 164.841V163.614C60.1082 163.682 59.9832 163.744 59.79 163.801C59.6006 163.854 59.3809 163.902 59.1309 163.943C58.8847 163.981 58.6442 164.015 58.4093 164.045C58.1783 164.072 57.9908 164.095 57.8468 164.114C57.4983 164.159 57.1726 164.233 56.8695 164.335C56.5703 164.434 56.3279 164.583 56.1423 164.784C55.9604 164.981 55.8695 165.25 55.8695 165.591C55.8695 166.057 56.0419 166.409 56.3866 166.648C56.7351 166.883 57.1764 167 57.7104 167ZM67.2488 168.182C66.5215 168.182 65.8795 167.998 65.3227 167.631C64.7658 167.259 64.3302 166.737 64.0158 166.062C63.7015 165.384 63.5443 164.583 63.5443 163.659C63.5443 162.742 63.7015 161.947 64.0158 161.273C64.3302 160.598 64.7677 160.078 65.3283 159.71C65.889 159.343 66.5367 159.159 67.2715 159.159C67.8397 159.159 68.2886 159.254 68.6181 159.443C68.9515 159.629 69.2052 159.841 69.3795 160.08C69.5575 160.314 69.6958 160.508 69.7943 160.659H69.9079V156.364H71.2488V168H69.9533V166.659H69.7943C69.6958 166.818 69.5556 167.019 69.3738 167.261C69.192 167.5 68.9325 167.714 68.5954 167.903C68.2583 168.089 67.8094 168.182 67.2488 168.182ZM67.4306 166.977C67.9685 166.977 68.423 166.837 68.7943 166.557C69.1655 166.273 69.4477 165.881 69.6408 165.381C69.834 164.877 69.9306 164.295 69.9306 163.636C69.9306 162.985 69.8359 162.415 69.6465 161.926C69.4571 161.434 69.1768 161.051 68.8056 160.778C68.4344 160.502 67.9761 160.364 67.4306 160.364C66.8624 160.364 66.389 160.509 66.0102 160.801C65.6352 161.089 65.353 161.481 65.1636 161.977C64.978 162.47 64.8852 163.023 64.8852 163.636C64.8852 164.258 64.9799 164.822 65.1693 165.33C65.3624 165.833 65.6465 166.235 66.0215 166.534C66.4003 166.83 66.87 166.977 67.4306 166.977ZM77.5499 168.182C76.709 168.182 75.9836 167.996 75.3738 167.625C74.7677 167.25 74.2999 166.727 73.9704 166.057C73.6446 165.383 73.4818 164.598 73.4818 163.705C73.4818 162.811 73.6446 162.023 73.9704 161.341C74.2999 160.655 74.7583 160.121 75.3454 159.739C75.9363 159.352 76.6257 159.159 77.4136 159.159C77.8681 159.159 78.317 159.235 78.7602 159.386C79.2033 159.538 79.6068 159.784 79.9704 160.125C80.334 160.462 80.6238 160.909 80.8397 161.466C81.0556 162.023 81.1636 162.708 81.1636 163.523V164.091H74.4363V162.932H79.7999C79.7999 162.439 79.7015 162 79.5045 161.614C79.3113 161.227 79.0348 160.922 78.6749 160.699C78.3189 160.475 77.8984 160.364 77.4136 160.364C76.8795 160.364 76.4174 160.496 76.0272 160.761C75.6408 161.023 75.3435 161.364 75.1352 161.784C74.9268 162.205 74.8227 162.655 74.8227 163.136V163.909C74.8227 164.568 74.9363 165.127 75.1636 165.585C75.3946 166.04 75.7147 166.386 76.1238 166.625C76.5329 166.86 77.0083 166.977 77.5499 166.977C77.9022 166.977 78.2204 166.928 78.5045 166.83C78.7924 166.727 79.0405 166.576 79.2488 166.375C79.4571 166.17 79.6181 165.917 79.7318 165.614L81.0272 165.977C80.8908 166.417 80.6617 166.803 80.3397 167.136C80.0177 167.466 79.62 167.723 79.1465 167.909C78.673 168.091 78.1408 168.182 77.5499 168.182ZM83.2033 168V159.273H84.4988V160.591H84.5897C84.7488 160.159 85.0367 159.809 85.4533 159.54C85.87 159.271 86.3397 159.136 86.8624 159.136C86.9609 159.136 87.084 159.138 87.2318 159.142C87.3795 159.146 87.4912 159.152 87.567 159.159V160.523C87.5215 160.511 87.4174 160.494 87.2545 160.472C87.0954 160.445 86.9268 160.432 86.7488 160.432C86.3246 160.432 85.9458 160.521 85.6124 160.699C85.2829 160.873 85.0215 161.116 84.8283 161.426C84.639 161.733 84.5443 162.083 84.5443 162.477V168H83.2033ZM95.6337 168L92.9747 159.273H94.3837L96.2701 165.955H96.361L98.2247 159.273H99.6565L101.497 165.932H101.588L103.475 159.273H104.884L102.225 168H100.906L98.9974 161.295H98.861L96.9519 168H95.6337ZM106.656 168V159.273H107.997V168H106.656ZM107.338 157.818C107.077 157.818 106.852 157.729 106.662 157.551C106.477 157.373 106.384 157.159 106.384 156.909C106.384 156.659 106.477 156.445 106.662 156.267C106.852 156.089 107.077 156 107.338 156C107.6 156 107.823 156.089 108.009 156.267C108.198 156.445 108.293 156.659 108.293 156.909C108.293 157.159 108.198 157.373 108.009 157.551C107.823 157.729 107.6 157.818 107.338 157.818ZM111.794 156.364V168H110.453V156.364H111.794ZM115.591 156.364V168H114.25V156.364H115.591ZM122.729 168V156.364H124.07V160.659H124.183C124.282 160.508 124.418 160.314 124.593 160.08C124.771 159.841 125.024 159.629 125.354 159.443C125.687 159.254 126.138 159.159 126.706 159.159C127.441 159.159 128.089 159.343 128.649 159.71C129.21 160.078 129.647 160.598 129.962 161.273C130.276 161.947 130.433 162.742 130.433 163.659C130.433 164.583 130.276 165.384 129.962 166.062C129.647 166.737 129.212 167.259 128.655 167.631C128.098 167.998 127.456 168.182 126.729 168.182C126.168 168.182 125.719 168.089 125.382 167.903C125.045 167.714 124.786 167.5 124.604 167.261C124.422 167.019 124.282 166.818 124.183 166.659H124.024V168H122.729ZM124.047 163.636C124.047 164.295 124.144 164.877 124.337 165.381C124.53 165.881 124.812 166.273 125.183 166.557C125.555 166.837 126.009 166.977 126.547 166.977C127.108 166.977 127.576 166.83 127.951 166.534C128.329 166.235 128.613 165.833 128.803 165.33C128.996 164.822 129.093 164.258 129.093 163.636C129.093 163.023 128.998 162.47 128.808 161.977C128.623 161.481 128.341 161.089 127.962 160.801C127.587 160.509 127.115 160.364 126.547 160.364C126.002 160.364 125.543 160.502 125.172 160.778C124.801 161.051 124.521 161.434 124.331 161.926C124.142 162.415 124.047 162.985 124.047 163.636ZM136.144 168.182C135.303 168.182 134.577 167.996 133.968 167.625C133.361 167.25 132.894 166.727 132.564 166.057C132.238 165.383 132.076 164.598 132.076 163.705C132.076 162.811 132.238 162.023 132.564 161.341C132.894 160.655 133.352 160.121 133.939 159.739C134.53 159.352 135.219 159.159 136.007 159.159C136.462 159.159 136.911 159.235 137.354 159.386C137.797 159.538 138.201 159.784 138.564 160.125C138.928 160.462 139.218 160.909 139.433 161.466C139.649 162.023 139.757 162.708 139.757 163.523V164.091H133.03V162.932H138.394C138.394 162.439 138.295 162 138.098 161.614C137.905 161.227 137.629 160.922 137.269 160.699C136.913 160.475 136.492 160.364 136.007 160.364C135.473 160.364 135.011 160.496 134.621 160.761C134.235 161.023 133.937 161.364 133.729 161.784C133.521 162.205 133.416 162.655 133.416 163.136V163.909C133.416 164.568 133.53 165.127 133.757 165.585C133.988 166.04 134.308 166.386 134.718 166.625C135.127 166.86 135.602 166.977 136.144 166.977C136.496 166.977 136.814 166.928 137.098 166.83C137.386 166.727 137.634 166.576 137.843 166.375C138.051 166.17 138.212 165.917 138.326 165.614L139.621 165.977C139.485 166.417 139.255 166.803 138.933 167.136C138.611 167.466 138.214 167.723 137.74 167.909C137.267 168.091 136.735 168.182 136.144 168.182ZM149.593 168.182C148.865 168.182 148.223 167.998 147.666 167.631C147.11 167.259 146.674 166.737 146.36 166.062C146.045 165.384 145.888 164.583 145.888 163.659C145.888 162.742 146.045 161.947 146.36 161.273C146.674 160.598 147.111 160.078 147.672 159.71C148.233 159.343 148.88 159.159 149.615 159.159C150.183 159.159 150.632 159.254 150.962 159.443C151.295 159.629 151.549 159.841 151.723 160.08C151.901 160.314 152.04 160.508 152.138 160.659H152.252V156.364H153.593V168H152.297V166.659H152.138C152.04 166.818 151.899 167.019 151.718 167.261C151.536 167.5 151.276 167.714 150.939 167.903C150.602 168.089 150.153 168.182 149.593 168.182ZM149.774 166.977C150.312 166.977 150.767 166.837 151.138 166.557C151.509 166.273 151.791 165.881 151.985 165.381C152.178 164.877 152.274 164.295 152.274 163.636C152.274 162.985 152.18 162.415 151.99 161.926C151.801 161.434 151.521 161.051 151.149 160.778C150.778 160.502 150.32 160.364 149.774 160.364C149.206 160.364 148.733 160.509 148.354 160.801C147.979 161.089 147.697 161.481 147.507 161.977C147.322 162.47 147.229 163.023 147.229 163.636C147.229 164.258 147.324 164.822 147.513 165.33C147.706 165.833 147.99 166.235 148.365 166.534C148.744 166.83 149.214 166.977 149.774 166.977ZM156.235 168V159.273H157.576V168H156.235ZM156.916 157.818C156.655 157.818 156.43 157.729 156.24 157.551C156.055 157.373 155.962 157.159 155.962 156.909C155.962 156.659 156.055 156.445 156.24 156.267C156.43 156.089 156.655 156 156.916 156C157.178 156 157.401 156.089 157.587 156.267C157.776 156.445 157.871 156.659 157.871 156.909C157.871 157.159 157.776 157.373 157.587 157.551C157.401 157.729 157.178 157.818 156.916 157.818ZM166.213 161.227L165.009 161.568C164.933 161.367 164.821 161.172 164.674 160.983C164.53 160.79 164.333 160.631 164.083 160.506C163.833 160.381 163.513 160.318 163.122 160.318C162.588 160.318 162.143 160.441 161.787 160.688C161.435 160.93 161.259 161.239 161.259 161.614C161.259 161.947 161.38 162.21 161.622 162.403C161.865 162.597 162.244 162.758 162.759 162.886L164.054 163.205C164.835 163.394 165.416 163.684 165.799 164.074C166.181 164.46 166.372 164.958 166.372 165.568C166.372 166.068 166.228 166.515 165.941 166.909C165.656 167.303 165.259 167.614 164.747 167.841C164.236 168.068 163.641 168.182 162.963 168.182C162.073 168.182 161.336 167.989 160.753 167.602C160.17 167.216 159.8 166.652 159.645 165.909L160.918 165.591C161.039 166.061 161.268 166.413 161.605 166.648C161.946 166.883 162.391 167 162.941 167C163.566 167 164.062 166.867 164.429 166.602C164.8 166.333 164.986 166.011 164.986 165.636C164.986 165.333 164.88 165.08 164.668 164.875C164.456 164.667 164.13 164.511 163.691 164.409L162.236 164.068C161.437 163.879 160.85 163.585 160.475 163.188C160.103 162.786 159.918 162.284 159.918 161.682C159.918 161.189 160.056 160.754 160.333 160.375C160.613 159.996 160.994 159.699 161.475 159.483C161.96 159.267 162.509 159.159 163.122 159.159C163.986 159.159 164.664 159.348 165.156 159.727C165.653 160.106 166.005 160.606 166.213 161.227ZM172.186 159.273V160.409H167.664V159.273H172.186ZM168.982 157.182H170.323V165.5C170.323 165.879 170.378 166.163 170.487 166.352C170.601 166.538 170.745 166.663 170.919 166.727C171.097 166.788 171.285 166.818 171.482 166.818C171.629 166.818 171.751 166.811 171.845 166.795C171.94 166.777 172.016 166.761 172.073 166.75L172.345 167.955C172.254 167.989 172.128 168.023 171.965 168.057C171.802 168.095 171.595 168.114 171.345 168.114C170.967 168.114 170.595 168.032 170.232 167.869C169.872 167.706 169.573 167.458 169.334 167.125C169.099 166.792 168.982 166.371 168.982 165.864V157.182ZM174.203 168V159.273H175.499V160.591H175.59C175.749 160.159 176.037 159.809 176.453 159.54C176.87 159.271 177.34 159.136 177.862 159.136C177.961 159.136 178.084 159.138 178.232 159.142C178.379 159.146 178.491 159.152 178.567 159.159V160.523C178.522 160.511 178.417 160.494 178.254 160.472C178.095 160.445 177.927 160.432 177.749 160.432C177.325 160.432 176.946 160.521 176.612 160.699C176.283 160.873 176.022 161.116 175.828 161.426C175.639 161.733 175.544 162.083 175.544 162.477V168H174.203ZM182.725 168.205C182.172 168.205 181.67 168.1 181.219 167.892C180.768 167.68 180.41 167.375 180.145 166.977C179.88 166.576 179.747 166.091 179.747 165.523C179.747 165.023 179.846 164.617 180.043 164.307C180.24 163.992 180.503 163.746 180.833 163.568C181.162 163.39 181.526 163.258 181.924 163.17C182.325 163.08 182.728 163.008 183.134 162.955C183.664 162.886 184.094 162.835 184.424 162.801C184.757 162.763 184.999 162.701 185.151 162.614C185.306 162.527 185.384 162.375 185.384 162.159V162.114C185.384 161.553 185.23 161.117 184.924 160.807C184.62 160.496 184.16 160.341 183.543 160.341C182.903 160.341 182.401 160.481 182.037 160.761C181.674 161.042 181.418 161.341 181.27 161.659L179.997 161.205C180.225 160.674 180.528 160.261 180.906 159.966C181.289 159.667 181.706 159.458 182.156 159.341C182.611 159.22 183.058 159.159 183.497 159.159C183.778 159.159 184.1 159.193 184.463 159.261C184.831 159.326 185.185 159.46 185.526 159.665C185.87 159.869 186.156 160.178 186.384 160.591C186.611 161.004 186.725 161.557 186.725 162.25V168H185.384V166.818H185.316C185.225 167.008 185.073 167.21 184.861 167.426C184.649 167.642 184.367 167.826 184.014 167.977C183.662 168.129 183.232 168.205 182.725 168.205ZM182.929 167C183.46 167 183.906 166.896 184.27 166.688C184.638 166.479 184.914 166.21 185.1 165.881C185.289 165.551 185.384 165.205 185.384 164.841V163.614C185.327 163.682 185.202 163.744 185.009 163.801C184.819 163.854 184.6 163.902 184.35 163.943C184.103 163.981 183.863 164.015 183.628 164.045C183.397 164.072 183.21 164.095 183.066 164.114C182.717 164.159 182.391 164.233 182.088 164.335C181.789 164.434 181.547 164.583 181.361 164.784C181.179 164.981 181.088 165.25 181.088 165.591C181.088 166.057 181.261 166.409 181.605 166.648C181.954 166.883 182.395 167 182.929 167ZM192.718 168.182C191.899 168.182 191.195 167.989 190.604 167.602C190.013 167.216 189.558 166.684 189.24 166.006C188.922 165.328 188.763 164.553 188.763 163.682C188.763 162.795 188.926 162.013 189.252 161.335C189.581 160.653 190.04 160.121 190.627 159.739C191.218 159.352 191.907 159.159 192.695 159.159C193.308 159.159 193.861 159.273 194.354 159.5C194.846 159.727 195.25 160.045 195.564 160.455C195.879 160.864 196.074 161.341 196.149 161.886H194.808C194.706 161.489 194.479 161.136 194.127 160.83C193.778 160.519 193.308 160.364 192.718 160.364C192.195 160.364 191.736 160.5 191.343 160.773C190.952 161.042 190.647 161.422 190.428 161.915C190.212 162.403 190.104 162.977 190.104 163.636C190.104 164.311 190.21 164.898 190.422 165.398C190.638 165.898 190.941 166.286 191.331 166.562C191.725 166.839 192.187 166.977 192.718 166.977C193.066 166.977 193.382 166.917 193.666 166.795C193.951 166.674 194.191 166.5 194.388 166.273C194.585 166.045 194.725 165.773 194.808 165.455H196.149C196.074 165.97 195.886 166.434 195.587 166.847C195.291 167.256 194.899 167.581 194.411 167.824C193.926 168.062 193.361 168.182 192.718 168.182ZM201.905 159.273V160.409H197.382V159.273H201.905ZM198.701 157.182H200.041V165.5C200.041 165.879 200.096 166.163 200.206 166.352C200.32 166.538 200.464 166.663 200.638 166.727C200.816 166.788 201.004 166.818 201.201 166.818C201.348 166.818 201.469 166.811 201.564 166.795C201.659 166.777 201.735 166.761 201.791 166.75L202.064 167.955C201.973 167.989 201.846 168.023 201.683 168.057C201.521 168.095 201.314 168.114 201.064 168.114C200.685 168.114 200.314 168.032 199.951 167.869C199.591 167.706 199.291 167.458 199.053 167.125C198.818 166.792 198.701 166.371 198.701 165.864V157.182ZM207.487 168.182C206.647 168.182 205.921 167.996 205.311 167.625C204.705 167.25 204.237 166.727 203.908 166.057C203.582 165.383 203.419 164.598 203.419 163.705C203.419 162.811 203.582 162.023 203.908 161.341C204.237 160.655 204.696 160.121 205.283 159.739C205.874 159.352 206.563 159.159 207.351 159.159C207.806 159.159 208.254 159.235 208.698 159.386C209.141 159.538 209.544 159.784 209.908 160.125C210.272 160.462 210.561 160.909 210.777 161.466C210.993 162.023 211.101 162.708 211.101 163.523V164.091H204.374V162.932H209.737C209.737 162.439 209.639 162 209.442 161.614C209.249 161.227 208.972 160.922 208.612 160.699C208.256 160.475 207.836 160.364 207.351 160.364C206.817 160.364 206.355 160.496 205.965 160.761C205.578 161.023 205.281 161.364 205.073 161.784C204.864 162.205 204.76 162.655 204.76 163.136V163.909C204.76 164.568 204.874 165.127 205.101 165.585C205.332 166.04 205.652 166.386 206.061 166.625C206.47 166.86 206.946 166.977 207.487 166.977C207.84 166.977 208.158 166.928 208.442 166.83C208.73 166.727 208.978 166.576 209.186 166.375C209.395 166.17 209.556 165.917 209.669 165.614L210.965 165.977C210.828 166.417 210.599 166.803 210.277 167.136C209.955 167.466 209.558 167.723 209.084 167.909C208.611 168.091 208.078 168.182 207.487 168.182ZM216.436 168.182C215.709 168.182 215.067 167.998 214.51 167.631C213.953 167.259 213.518 166.737 213.203 166.062C212.889 165.384 212.732 164.583 212.732 163.659C212.732 162.742 212.889 161.947 213.203 161.273C213.518 160.598 213.955 160.078 214.516 159.71C215.076 159.343 215.724 159.159 216.459 159.159C217.027 159.159 217.476 159.254 217.806 159.443C218.139 159.629 218.393 159.841 218.567 160.08C218.745 160.314 218.883 160.508 218.982 160.659H219.095V156.364H220.436V168H219.141V166.659H218.982C218.883 166.818 218.743 167.019 218.561 167.261C218.379 167.5 218.12 167.714 217.783 167.903C217.446 168.089 216.997 168.182 216.436 168.182ZM216.618 166.977C217.156 166.977 217.611 166.837 217.982 166.557C218.353 166.273 218.635 165.881 218.828 165.381C219.022 164.877 219.118 164.295 219.118 163.636C219.118 162.985 219.023 162.415 218.834 161.926C218.645 161.434 218.364 161.051 217.993 160.778C217.622 160.502 217.164 160.364 216.618 160.364C216.05 160.364 215.576 160.509 215.198 160.801C214.823 161.089 214.54 161.481 214.351 161.977C214.165 162.47 214.073 163.023 214.073 163.636C214.073 164.258 214.167 164.822 214.357 165.33C214.55 165.833 214.834 166.235 215.209 166.534C215.588 166.83 216.058 166.977 216.618 166.977ZM227.76 168V156.364H229.101V160.659H229.215C229.313 160.508 229.45 160.314 229.624 160.08C229.802 159.841 230.056 159.629 230.385 159.443C230.718 159.254 231.169 159.159 231.737 159.159C232.472 159.159 233.12 159.343 233.681 159.71C234.241 160.078 234.679 160.598 234.993 161.273C235.308 161.947 235.465 162.742 235.465 163.659C235.465 164.583 235.308 165.384 234.993 166.062C234.679 166.737 234.243 167.259 233.686 167.631C233.129 167.998 232.487 168.182 231.76 168.182C231.2 168.182 230.751 168.089 230.414 167.903C230.076 167.714 229.817 167.5 229.635 167.261C229.453 167.019 229.313 166.818 229.215 166.659H229.056V168H227.76ZM229.078 163.636C229.078 164.295 229.175 164.877 229.368 165.381C229.561 165.881 229.843 166.273 230.215 166.557C230.586 166.837 231.04 166.977 231.578 166.977C232.139 166.977 232.607 166.83 232.982 166.534C233.361 166.235 233.645 165.833 233.834 165.33C234.027 164.822 234.124 164.258 234.124 163.636C234.124 163.023 234.029 162.47 233.84 161.977C233.654 161.481 233.372 161.089 232.993 160.801C232.618 160.509 232.147 160.364 231.578 160.364C231.033 160.364 230.575 160.502 230.203 160.778C229.832 161.051 229.552 161.434 229.362 161.926C229.173 162.415 229.078 162.985 229.078 163.636ZM238.067 171.273C237.84 171.273 237.637 171.254 237.459 171.216C237.281 171.182 237.158 171.148 237.09 171.114L237.431 169.932C237.756 170.015 238.044 170.045 238.294 170.023C238.544 170 238.766 169.888 238.959 169.688C239.156 169.491 239.336 169.17 239.499 168.727L239.749 168.045L236.522 159.273H237.976L240.385 166.227H240.476L242.885 159.273H244.34L240.635 169.273C240.468 169.723 240.262 170.097 240.016 170.392C239.77 170.691 239.484 170.913 239.158 171.057C238.836 171.201 238.472 171.273 238.067 171.273ZM30.2176 185.273V186.409H25.6948V185.273H30.2176ZM27.013 183.182H28.3539V191.5C28.3539 191.879 28.4088 192.163 28.5187 192.352C28.6323 192.538 28.7763 192.663 28.9505 192.727C29.1285 192.788 29.316 192.818 29.513 192.818C29.6607 192.818 29.7819 192.811 29.8766 192.795C29.9713 192.777 30.0471 192.761 30.1039 192.75L30.3766 193.955C30.2857 193.989 30.1588 194.023 29.996 194.057C29.8331 194.095 29.6266 194.114 29.3766 194.114C28.9979 194.114 28.6266 194.032 28.263 193.869C27.9032 193.706 27.6039 193.458 27.3653 193.125C27.1304 192.792 27.013 192.371 27.013 191.864V183.182ZM33.763 188.75V194H32.4221V182.364H33.763V186.636H33.8766C34.0812 186.186 34.388 185.828 34.7971 185.562C35.21 185.294 35.7592 185.159 36.4448 185.159C37.0395 185.159 37.5604 185.278 38.0073 185.517C38.4543 185.752 38.8009 186.114 39.0471 186.602C39.2971 187.087 39.4221 187.705 39.4221 188.455V194H38.0812V188.545C38.0812 187.852 37.9013 187.316 37.5414 186.938C37.1854 186.555 36.691 186.364 36.0585 186.364C35.6191 186.364 35.2251 186.456 34.8766 186.642C34.5319 186.828 34.2592 187.098 34.0585 187.455C33.8615 187.811 33.763 188.242 33.763 188.75ZM45.5343 194.182C44.6934 194.182 43.968 193.996 43.3582 193.625C42.7521 193.25 42.2843 192.727 41.9548 192.057C41.629 191.383 41.4661 190.598 41.4661 189.705C41.4661 188.811 41.629 188.023 41.9548 187.341C42.2843 186.655 42.7426 186.121 43.3298 185.739C43.9207 185.352 44.6101 185.159 45.3979 185.159C45.8525 185.159 46.3014 185.235 46.7445 185.386C47.1877 185.538 47.5911 185.784 47.9548 186.125C48.3184 186.462 48.6082 186.909 48.8241 187.466C49.04 188.023 49.1479 188.708 49.1479 189.523V190.091H42.4207V188.932H47.7843C47.7843 188.439 47.6858 188 47.4889 187.614C47.2957 187.227 47.0192 186.922 46.6593 186.699C46.3033 186.475 45.8828 186.364 45.3979 186.364C44.8639 186.364 44.4017 186.496 44.0116 186.761C43.6252 187.023 43.3279 187.364 43.1195 187.784C42.9112 188.205 42.807 188.655 42.807 189.136V189.909C42.807 190.568 42.9207 191.127 43.1479 191.585C43.379 192.04 43.6991 192.386 44.1082 192.625C44.5173 192.86 44.9926 192.977 45.5343 192.977C45.8866 192.977 46.2048 192.928 46.4889 192.83C46.7767 192.727 47.0248 192.576 47.2332 192.375C47.4415 192.17 47.6025 191.917 47.7161 191.614L49.0116 191.977C48.8752 192.417 48.6461 192.803 48.3241 193.136C48.0021 193.466 47.6044 193.723 47.1309 193.909C46.6574 194.091 46.1252 194.182 45.5343 194.182ZM55.6877 194V185.273H56.9832V186.591H57.0741C57.2332 186.159 57.5211 185.809 57.9377 185.54C58.3544 185.271 58.8241 185.136 59.3468 185.136C59.4453 185.136 59.5684 185.138 59.7161 185.142C59.8639 185.146 59.9756 185.152 60.0514 185.159V186.523C60.0059 186.511 59.9017 186.494 59.7389 186.472C59.5798 186.445 59.4112 186.432 59.2332 186.432C58.8089 186.432 58.4301 186.521 58.0968 186.699C57.7673 186.873 57.5059 187.116 57.3127 187.426C57.1233 187.733 57.0286 188.083 57.0286 188.477V194H55.6877ZM65.0343 194.182C64.1934 194.182 63.468 193.996 62.8582 193.625C62.2521 193.25 61.7843 192.727 61.4548 192.057C61.129 191.383 60.9661 190.598 60.9661 189.705C60.9661 188.811 61.129 188.023 61.4548 187.341C61.7843 186.655 62.2426 186.121 62.8298 185.739C63.4207 185.352 64.1101 185.159 64.8979 185.159C65.3525 185.159 65.8014 185.235 66.2445 185.386C66.6877 185.538 67.0911 185.784 67.4548 186.125C67.8184 186.462 68.1082 186.909 68.3241 187.466C68.54 188.023 68.6479 188.708 68.6479 189.523V190.091H61.9207V188.932H67.2843C67.2843 188.439 67.1858 188 66.9889 187.614C66.7957 187.227 66.5192 186.922 66.1593 186.699C65.8033 186.475 65.3828 186.364 64.8979 186.364C64.3639 186.364 63.9017 186.496 63.5116 186.761C63.1252 187.023 62.8279 187.364 62.6195 187.784C62.4112 188.205 62.307 188.655 62.307 189.136V189.909C62.307 190.568 62.4207 191.127 62.6479 191.585C62.879 192.04 63.1991 192.386 63.6082 192.625C64.0173 192.86 64.4926 192.977 65.0343 192.977C65.3866 192.977 65.7048 192.928 65.9889 192.83C66.2767 192.727 66.5248 192.576 66.7332 192.375C66.9415 192.17 67.1025 191.917 67.2161 191.614L68.5116 191.977C68.3752 192.417 68.1461 192.803 67.8241 193.136C67.5021 193.466 67.1044 193.723 66.6309 193.909C66.1574 194.091 65.6252 194.182 65.0343 194.182ZM73.2559 194.205C72.7029 194.205 72.201 194.1 71.7502 193.892C71.2995 193.68 70.9415 193.375 70.6764 192.977C70.4112 192.576 70.2786 192.091 70.2786 191.523C70.2786 191.023 70.3771 190.617 70.5741 190.307C70.7711 189.992 71.0343 189.746 71.3639 189.568C71.6934 189.39 72.057 189.258 72.4548 189.17C72.8563 189.08 73.2597 189.008 73.665 188.955C74.1953 188.886 74.6252 188.835 74.9548 188.801C75.2881 188.763 75.5305 188.701 75.682 188.614C75.8373 188.527 75.915 188.375 75.915 188.159V188.114C75.915 187.553 75.7616 187.117 75.4548 186.807C75.1517 186.496 74.6915 186.341 74.0741 186.341C73.4339 186.341 72.932 186.481 72.5684 186.761C72.2048 187.042 71.9491 187.341 71.8014 187.659L70.5286 187.205C70.7559 186.674 71.0589 186.261 71.4377 185.966C71.8203 185.667 72.237 185.458 72.6877 185.341C73.1423 185.22 73.5892 185.159 74.0286 185.159C74.3089 185.159 74.6309 185.193 74.9945 185.261C75.362 185.326 75.7161 185.46 76.057 185.665C76.4017 185.869 76.6877 186.178 76.915 186.591C77.1423 187.004 77.2559 187.557 77.2559 188.25V194H75.915V192.818H75.8468C75.7559 193.008 75.6044 193.21 75.3923 193.426C75.1801 193.642 74.8979 193.826 74.5457 193.977C74.1934 194.129 73.7635 194.205 73.2559 194.205ZM73.4604 193C73.9908 193 74.4377 192.896 74.8014 192.688C75.1688 192.479 75.4453 192.21 75.6309 191.881C75.8203 191.551 75.915 191.205 75.915 190.841V189.614C75.8582 189.682 75.7332 189.744 75.54 189.801C75.3506 189.854 75.1309 189.902 74.8809 189.943C74.6347 189.981 74.3942 190.015 74.1593 190.045C73.9283 190.072 73.7408 190.095 73.5968 190.114C73.2483 190.159 72.9226 190.233 72.6195 190.335C72.3203 190.434 72.0779 190.583 71.8923 190.784C71.7104 190.981 71.6195 191.25 71.6195 191.591C71.6195 192.057 71.7919 192.409 72.1366 192.648C72.4851 192.883 72.9264 193 73.4604 193ZM82.9988 194.182C82.2715 194.182 81.6295 193.998 81.0727 193.631C80.5158 193.259 80.0802 192.737 79.7658 192.062C79.4515 191.384 79.2943 190.583 79.2943 189.659C79.2943 188.742 79.4515 187.947 79.7658 187.273C80.0802 186.598 80.5177 186.078 81.0783 185.71C81.639 185.343 82.2867 185.159 83.0215 185.159C83.5897 185.159 84.0386 185.254 84.3681 185.443C84.7015 185.629 84.9552 185.841 85.1295 186.08C85.3075 186.314 85.4458 186.508 85.5443 186.659H85.6579V182.364H86.9988V194H85.7033V192.659H85.5443C85.4458 192.818 85.3056 193.019 85.1238 193.261C84.942 193.5 84.6825 193.714 84.3454 193.903C84.0083 194.089 83.5594 194.182 82.9988 194.182ZM83.1806 192.977C83.7185 192.977 84.173 192.837 84.5443 192.557C84.9155 192.273 85.1977 191.881 85.3908 191.381C85.584 190.877 85.6806 190.295 85.6806 189.636C85.6806 188.985 85.5859 188.415 85.3965 187.926C85.2071 187.434 84.9268 187.051 84.5556 186.778C84.1844 186.502 83.7261 186.364 83.1806 186.364C82.6124 186.364 82.139 186.509 81.7602 186.801C81.3852 187.089 81.103 187.481 80.9136 187.977C80.728 188.47 80.6352 189.023 80.6352 189.636C80.6352 190.258 80.7299 190.822 80.9193 191.33C81.1124 191.833 81.3965 192.235 81.7715 192.534C82.1503 192.83 82.62 192.977 83.1806 192.977ZM92.209 194.205C91.656 194.205 91.1541 194.1 90.7033 193.892C90.2526 193.68 89.8946 193.375 89.6295 192.977C89.3643 192.576 89.2318 192.091 89.2318 191.523C89.2318 191.023 89.3302 190.617 89.5272 190.307C89.7242 189.992 89.9874 189.746 90.317 189.568C90.6465 189.39 91.0102 189.258 91.4079 189.17C91.8094 189.08 92.2128 189.008 92.6181 188.955C93.1484 188.886 93.5783 188.835 93.9079 188.801C94.2412 188.763 94.4837 188.701 94.6352 188.614C94.7905 188.527 94.8681 188.375 94.8681 188.159V188.114C94.8681 187.553 94.7147 187.117 94.4079 186.807C94.1049 186.496 93.6446 186.341 93.0272 186.341C92.3871 186.341 91.8852 186.481 91.5215 186.761C91.1579 187.042 90.9022 187.341 90.7545 187.659L89.4818 187.205C89.709 186.674 90.0121 186.261 90.3908 185.966C90.7734 185.667 91.1901 185.458 91.6408 185.341C92.0954 185.22 92.5424 185.159 92.9818 185.159C93.2621 185.159 93.584 185.193 93.9477 185.261C94.3151 185.326 94.6693 185.46 95.0102 185.665C95.3549 185.869 95.6408 186.178 95.8681 186.591C96.0954 187.004 96.209 187.557 96.209 188.25V194H94.8681V192.818H94.7999C94.709 193.008 94.5575 193.21 94.3454 193.426C94.1333 193.642 93.8511 193.826 93.4988 193.977C93.1465 194.129 92.7166 194.205 92.209 194.205ZM92.4136 193C92.9439 193 93.3908 192.896 93.7545 192.688C94.1219 192.479 94.3984 192.21 94.584 191.881C94.7734 191.551 94.8681 191.205 94.8681 190.841V189.614C94.8113 189.682 94.6863 189.744 94.4931 189.801C94.3037 189.854 94.084 189.902 93.834 189.943C93.5878 189.981 93.3473 190.015 93.1124 190.045C92.8814 190.072 92.6939 190.095 92.5499 190.114C92.2015 190.159 91.8757 190.233 91.5727 190.335C91.2734 190.434 91.031 190.583 90.8454 190.784C90.6636 190.981 90.5727 191.25 90.5727 191.591C90.5727 192.057 90.745 192.409 91.0897 192.648C91.4382 192.883 91.8795 193 92.4136 193ZM98.8383 194V182.364H100.179V186.659H100.293C100.391 186.508 100.528 186.314 100.702 186.08C100.88 185.841 101.134 185.629 101.463 185.443C101.797 185.254 102.247 185.159 102.816 185.159C103.55 185.159 104.198 185.343 104.759 185.71C105.319 186.078 105.757 186.598 106.071 187.273C106.386 187.947 106.543 188.742 106.543 189.659C106.543 190.583 106.386 191.384 106.071 192.062C105.757 192.737 105.321 193.259 104.764 193.631C104.208 193.998 103.566 194.182 102.838 194.182C102.278 194.182 101.829 194.089 101.492 193.903C101.155 193.714 100.895 193.5 100.713 193.261C100.531 193.019 100.391 192.818 100.293 192.659H100.134V194H98.8383ZM100.156 189.636C100.156 190.295 100.253 190.877 100.446 191.381C100.639 191.881 100.922 192.273 101.293 192.557C101.664 192.837 102.119 192.977 102.656 192.977C103.217 192.977 103.685 192.83 104.06 192.534C104.439 192.235 104.723 191.833 104.912 191.33C105.105 190.822 105.202 190.258 105.202 189.636C105.202 189.023 105.107 188.47 104.918 187.977C104.732 187.481 104.45 187.089 104.071 186.801C103.696 186.509 103.225 186.364 102.656 186.364C102.111 186.364 101.653 186.502 101.281 186.778C100.91 187.051 100.63 187.434 100.441 187.926C100.251 188.415 100.156 188.985 100.156 189.636ZM109.935 182.364V194H108.594V182.364H109.935ZM116.05 194.182C115.209 194.182 114.484 193.996 113.874 193.625C113.268 193.25 112.8 192.727 112.47 192.057C112.145 191.383 111.982 190.598 111.982 189.705C111.982 188.811 112.145 188.023 112.47 187.341C112.8 186.655 113.258 186.121 113.845 185.739C114.436 185.352 115.126 185.159 115.914 185.159C116.368 185.159 116.817 185.235 117.26 185.386C117.703 185.538 118.107 185.784 118.47 186.125C118.834 186.462 119.124 186.909 119.34 187.466C119.556 188.023 119.664 188.708 119.664 189.523V190.091H112.936V188.932H118.3C118.3 188.439 118.201 188 118.004 187.614C117.811 187.227 117.535 186.922 117.175 186.699C116.819 186.475 116.398 186.364 115.914 186.364C115.379 186.364 114.917 186.496 114.527 186.761C114.141 187.023 113.843 187.364 113.635 187.784C113.427 188.205 113.323 188.655 113.323 189.136V189.909C113.323 190.568 113.436 191.127 113.664 191.585C113.895 192.04 114.215 192.386 114.624 192.625C115.033 192.86 115.508 192.977 116.05 192.977C116.402 192.977 116.72 192.928 117.004 192.83C117.292 192.727 117.54 192.576 117.749 192.375C117.957 192.17 118.118 191.917 118.232 191.614L119.527 191.977C119.391 192.417 119.162 192.803 118.84 193.136C118.518 193.466 118.12 193.723 117.647 193.909C117.173 194.091 116.641 194.182 116.05 194.182ZM129.749 194.182C128.931 194.182 128.226 193.989 127.635 193.602C127.044 193.216 126.59 192.684 126.272 192.006C125.953 191.328 125.794 190.553 125.794 189.682C125.794 188.795 125.957 188.013 126.283 187.335C126.612 186.653 127.071 186.121 127.658 185.739C128.249 185.352 128.938 185.159 129.726 185.159C130.34 185.159 130.893 185.273 131.385 185.5C131.878 185.727 132.281 186.045 132.595 186.455C132.91 186.864 133.105 187.341 133.181 187.886H131.84C131.737 187.489 131.51 187.136 131.158 186.83C130.809 186.519 130.34 186.364 129.749 186.364C129.226 186.364 128.768 186.5 128.374 186.773C127.984 187.042 127.679 187.422 127.459 187.915C127.243 188.403 127.135 188.977 127.135 189.636C127.135 190.311 127.241 190.898 127.453 191.398C127.669 191.898 127.972 192.286 128.362 192.562C128.756 192.839 129.218 192.977 129.749 192.977C130.097 192.977 130.414 192.917 130.698 192.795C130.982 192.674 131.222 192.5 131.419 192.273C131.616 192.045 131.756 191.773 131.84 191.455H133.181C133.105 191.97 132.917 192.434 132.618 192.847C132.323 193.256 131.931 193.581 131.442 193.824C130.957 194.062 130.393 194.182 129.749 194.182ZM138.686 194.182C137.898 194.182 137.207 193.994 136.612 193.619C136.022 193.244 135.559 192.72 135.226 192.045C134.897 191.371 134.732 190.583 134.732 189.682C134.732 188.773 134.897 187.979 135.226 187.301C135.559 186.623 136.022 186.097 136.612 185.722C137.207 185.347 137.898 185.159 138.686 185.159C139.474 185.159 140.164 185.347 140.754 185.722C141.349 186.097 141.811 186.623 142.141 187.301C142.474 187.979 142.641 188.773 142.641 189.682C142.641 190.583 142.474 191.371 142.141 192.045C141.811 192.72 141.349 193.244 140.754 193.619C140.164 193.994 139.474 194.182 138.686 194.182ZM138.686 192.977C139.285 192.977 139.777 192.824 140.164 192.517C140.55 192.21 140.836 191.807 141.022 191.307C141.207 190.807 141.3 190.265 141.3 189.682C141.3 189.098 141.207 188.555 141.022 188.051C140.836 187.547 140.55 187.14 140.164 186.83C139.777 186.519 139.285 186.364 138.686 186.364C138.088 186.364 137.595 186.519 137.209 186.83C136.823 187.14 136.537 187.547 136.351 188.051C136.165 188.555 136.073 189.098 136.073 189.682C136.073 190.265 136.165 190.807 136.351 191.307C136.537 191.807 136.823 192.21 137.209 192.517C137.595 192.824 138.088 192.977 138.686 192.977ZM146.029 188.75V194H144.688V185.273H145.983V186.636H146.097C146.301 186.193 146.612 185.837 147.029 185.568C147.445 185.295 147.983 185.159 148.642 185.159C149.233 185.159 149.75 185.28 150.193 185.523C150.637 185.761 150.981 186.125 151.227 186.614C151.474 187.098 151.597 187.712 151.597 188.455V194H150.256V188.545C150.256 187.86 150.078 187.326 149.722 186.943C149.366 186.557 148.877 186.364 148.256 186.364C147.828 186.364 147.445 186.456 147.108 186.642C146.775 186.828 146.512 187.098 146.318 187.455C146.125 187.811 146.029 188.242 146.029 188.75ZM157.843 185.273V186.409H153.32V185.273H157.843ZM154.638 183.182H155.979V191.5C155.979 191.879 156.034 192.163 156.144 192.352C156.257 192.538 156.401 192.663 156.576 192.727C156.754 192.788 156.941 192.818 157.138 192.818C157.286 192.818 157.407 192.811 157.502 192.795C157.596 192.777 157.672 192.761 157.729 192.75L158.002 193.955C157.911 193.989 157.784 194.023 157.621 194.057C157.458 194.095 157.252 194.114 157.002 194.114C156.623 194.114 156.252 194.032 155.888 193.869C155.528 193.706 155.229 193.458 154.99 193.125C154.755 192.792 154.638 192.371 154.638 191.864V183.182ZM163.425 194.182C162.584 194.182 161.859 193.996 161.249 193.625C160.643 193.25 160.175 192.727 159.845 192.057C159.52 191.383 159.357 190.598 159.357 189.705C159.357 188.811 159.52 188.023 159.845 187.341C160.175 186.655 160.633 186.121 161.22 185.739C161.811 185.352 162.501 185.159 163.289 185.159C163.743 185.159 164.192 185.235 164.635 185.386C165.078 185.538 165.482 185.784 165.845 186.125C166.209 186.462 166.499 186.909 166.715 187.466C166.931 188.023 167.039 188.708 167.039 189.523V190.091H160.311V188.932H165.675C165.675 188.439 165.576 188 165.379 187.614C165.186 187.227 164.91 186.922 164.55 186.699C164.194 186.475 163.773 186.364 163.289 186.364C162.754 186.364 162.292 186.496 161.902 186.761C161.516 187.023 161.218 187.364 161.01 187.784C160.802 188.205 160.698 188.655 160.698 189.136V189.909C160.698 190.568 160.811 191.127 161.039 191.585C161.27 192.04 161.59 192.386 161.999 192.625C162.408 192.86 162.883 192.977 163.425 192.977C163.777 192.977 164.095 192.928 164.379 192.83C164.667 192.727 164.915 192.576 165.124 192.375C165.332 192.17 165.493 191.917 165.607 191.614L166.902 191.977C166.766 192.417 166.537 192.803 166.215 193.136C165.893 193.466 165.495 193.723 165.022 193.909C164.548 194.091 164.016 194.182 163.425 194.182ZM170.419 188.75V194H169.078V185.273H170.374V186.636H170.487C170.692 186.193 171.003 185.837 171.419 185.568C171.836 185.295 172.374 185.159 173.033 185.159C173.624 185.159 174.141 185.28 174.584 185.523C175.027 185.761 175.372 186.125 175.618 186.614C175.864 187.098 175.987 187.712 175.987 188.455V194H174.647V188.545C174.647 187.86 174.468 187.326 174.112 186.943C173.756 186.557 173.268 186.364 172.647 186.364C172.218 186.364 171.836 186.456 171.499 186.642C171.165 186.828 170.902 187.098 170.709 187.455C170.516 187.811 170.419 188.242 170.419 188.75ZM182.233 185.273V186.409H177.71V185.273H182.233ZM179.029 183.182H180.37V191.5C180.37 191.879 180.424 192.163 180.534 192.352C180.648 192.538 180.792 192.663 180.966 192.727C181.144 192.788 181.332 192.818 181.529 192.818C181.676 192.818 181.798 192.811 181.892 192.795C181.987 192.777 182.063 192.761 182.12 192.75L182.392 193.955C182.301 193.989 182.174 194.023 182.012 194.057C181.849 194.095 181.642 194.114 181.392 194.114C181.013 194.114 180.642 194.032 180.279 193.869C179.919 193.706 179.62 193.458 179.381 193.125C179.146 192.792 179.029 192.371 179.029 191.864V183.182ZM192.296 194.182C191.508 194.182 190.817 193.994 190.222 193.619C189.631 193.244 189.169 192.72 188.835 192.045C188.506 191.371 188.341 190.583 188.341 189.682C188.341 188.773 188.506 187.979 188.835 187.301C189.169 186.623 189.631 186.097 190.222 185.722C190.817 185.347 191.508 185.159 192.296 185.159C193.084 185.159 193.773 185.347 194.364 185.722C194.959 186.097 195.421 186.623 195.75 187.301C196.084 187.979 196.25 188.773 196.25 189.682C196.25 190.583 196.084 191.371 195.75 192.045C195.421 192.72 194.959 193.244 194.364 193.619C193.773 193.994 193.084 194.182 192.296 194.182ZM192.296 192.977C192.894 192.977 193.387 192.824 193.773 192.517C194.159 192.21 194.445 191.807 194.631 191.307C194.817 190.807 194.909 190.265 194.909 189.682C194.909 189.098 194.817 188.555 194.631 188.051C194.445 187.547 194.159 187.14 193.773 186.83C193.387 186.519 192.894 186.364 192.296 186.364C191.697 186.364 191.205 186.519 190.818 186.83C190.432 187.14 190.146 187.547 189.96 188.051C189.775 188.555 189.682 189.098 189.682 189.682C189.682 190.265 189.775 190.807 189.96 191.307C190.146 191.807 190.432 192.21 190.818 192.517C191.205 192.824 191.697 192.977 192.296 192.977ZM202.183 185.273V186.409H197.479V185.273H202.183ZM198.888 194V184.068C198.888 183.568 199.005 183.152 199.24 182.818C199.475 182.485 199.78 182.235 200.155 182.068C200.53 181.902 200.926 181.818 201.343 181.818C201.672 181.818 201.941 181.845 202.149 181.898C202.358 181.951 202.513 182 202.615 182.045L202.229 183.205C202.161 183.182 202.066 183.153 201.945 183.119C201.827 183.085 201.672 183.068 201.479 183.068C201.036 183.068 200.716 183.18 200.519 183.403C200.326 183.627 200.229 183.955 200.229 184.386V194H198.888Z" fill="white"/>
</svg>
