<svg width="290" height="267" viewBox="0 0 290 267" fill="none" xmlns="http://www.w3.org/2000/svg">
<rect width="290" height="267" rx="10" fill="#E1610C"/>
<path d="M32.4972 58.5156V53.1392H33.456C33.7827 52.8646 34.0881 52.474 34.3722 51.9673C34.6563 51.4607 34.8977 50.7765 35.0966 49.9148C35.2955 49.053 35.4328 47.9474 35.5085 46.598L35.8494 40.4545H44.8196V53.1392H46.4673V58.4943H44.3651V55H34.5994V58.5156H32.4972ZM36.0412 53.1392H42.7173V42.3438H37.8381L37.6108 46.598C37.5492 47.6255 37.4474 48.5488 37.3054 49.3679C37.1681 50.187 36.9905 50.9115 36.7727 51.5412C36.5597 52.1662 36.3158 52.6989 36.0412 53.1392ZM61.7064 47.7273C61.7064 49.2803 61.4223 50.6155 60.8541 51.733C60.2859 52.8456 59.5071 53.7027 58.5175 54.304C57.5326 54.9006 56.4128 55.1989 55.1581 55.1989C53.8986 55.1989 52.7741 54.9006 51.7845 54.304C50.7997 53.7027 50.0232 52.8433 49.455 51.7259C48.8868 50.6084 48.6027 49.2756 48.6027 47.7273C48.6027 46.1742 48.8868 44.8414 49.455 43.7287C50.0232 42.6113 50.7997 41.7543 51.7845 41.1577C52.7741 40.5563 53.8986 40.2557 55.1581 40.2557C56.4128 40.2557 57.5326 40.5563 58.5175 41.1577C59.5071 41.7543 60.2859 42.6113 60.8541 43.7287C61.4223 44.8414 61.7064 46.1742 61.7064 47.7273ZM59.5331 47.7273C59.5331 46.5436 59.3413 45.5469 58.9578 44.7372C58.579 43.9228 58.0582 43.3073 57.3953 42.8906C56.7372 42.4692 55.9914 42.2585 55.1581 42.2585C54.32 42.2585 53.5719 42.4692 52.9138 42.8906C52.2556 43.3073 51.7348 43.9228 51.3513 44.7372C50.9725 45.5469 50.7831 46.5436 50.7831 47.7273C50.7831 48.911 50.9725 49.91 51.3513 50.7244C51.7348 51.5341 52.2556 52.1496 52.9138 52.571C53.5719 52.9877 54.32 53.196 55.1581 53.196C55.9914 53.196 56.7372 52.9877 57.3953 52.571C58.0582 52.1496 58.579 51.5341 58.9578 50.7244C59.3413 49.91 59.5331 48.911 59.5331 47.7273ZM76.0133 40.4545V55H73.8258V42.3295H66.9792V55H64.7917V40.4545H76.0133ZM80.7978 55.1349C80.4095 55.1349 80.0757 54.9976 79.7964 54.723C79.517 54.4437 79.3773 54.1075 79.3773 53.7145C79.3773 53.3262 79.517 52.9948 79.7964 52.7202C80.0757 52.4408 80.4095 52.3011 80.7978 52.3011C81.1861 52.3011 81.5199 52.4408 81.7992 52.7202C82.0786 52.9948 82.2183 53.3262 82.2183 53.7145C82.2183 53.9749 82.152 54.214 82.0194 54.4318C81.8915 54.6449 81.7211 54.8153 81.508 54.9432C81.295 55.071 81.0582 55.1349 80.7978 55.1349ZM46.233 79.7273C46.233 81.2803 45.9489 82.6155 45.3807 83.733C44.8125 84.8456 44.0336 85.7027 43.044 86.304C42.0592 86.9006 40.9394 87.1989 39.6847 87.1989C38.4252 87.1989 37.3007 86.9006 36.3111 86.304C35.3262 85.7027 34.5497 84.8433 33.9815 83.7259C33.4134 82.6084 33.1293 81.2756 33.1293 79.7273C33.1293 78.1742 33.4134 76.8414 33.9815 75.7287C34.5497 74.6113 35.3262 73.7543 36.3111 73.1577C37.3007 72.5563 38.4252 72.2557 39.6847 72.2557C40.9394 72.2557 42.0592 72.5563 43.044 73.1577C44.0336 73.7543 44.8125 74.6113 45.3807 75.7287C45.9489 76.8414 46.233 78.1742 46.233 79.7273ZM44.0597 79.7273C44.0597 78.5436 43.8679 77.5469 43.4844 76.7372C43.1056 75.9228 42.5848 75.3073 41.9219 74.8906C41.2637 74.4692 40.518 74.2585 39.6847 74.2585C38.8466 74.2585 38.0985 74.4692 37.4403 74.8906C36.7822 75.3073 36.2614 75.9228 35.8778 76.7372C35.4991 77.5469 35.3097 78.5436 35.3097 79.7273C35.3097 80.911 35.4991 81.91 35.8778 82.7244C36.2614 83.5341 36.7822 84.1496 37.4403 84.571C38.0985 84.9877 38.8466 85.196 39.6847 85.196C40.518 85.196 41.2637 84.9877 41.9219 84.571C42.5848 84.1496 43.1056 83.5341 43.4844 82.7244C43.8679 81.91 44.0597 80.911 44.0597 79.7273ZM49.1691 87V72.4545H58.2387V74.3438H51.3637V78.321H54.6165C55.6961 78.321 56.6123 78.4962 57.3651 78.8466C58.1227 79.197 58.7004 79.6918 59.0981 80.331C59.5005 80.9702 59.7018 81.723 59.7018 82.5895C59.7018 83.456 59.5005 84.2206 59.0981 84.8835C58.7004 85.5464 58.1227 86.0649 57.3651 86.4389C56.6123 86.813 55.6961 87 54.6165 87H49.1691ZM51.3637 85.1534H54.6165C55.2415 85.1534 55.7695 85.0303 56.2004 84.7841C56.636 84.5379 56.965 84.2183 57.1876 83.8253C57.4148 83.4323 57.5285 83.0109 57.5285 82.5611C57.5285 81.9077 57.2775 81.3466 56.7756 80.8778C56.2737 80.4044 55.554 80.1676 54.6165 80.1676H51.3637V85.1534ZM74.5751 77.1847H72.3592C72.2739 76.7112 72.1153 76.2945 71.8833 75.9347C71.6513 75.5748 71.3672 75.2694 71.031 75.0185C70.6949 74.7675 70.3184 74.5781 69.9018 74.4503C69.4898 74.3224 69.0519 74.2585 68.5879 74.2585C67.7498 74.2585 66.9993 74.4692 66.3364 74.8906C65.6783 75.312 65.1575 75.9299 64.7739 76.7443C64.3951 77.5587 64.2058 78.553 64.2058 79.7273C64.2058 80.911 64.3951 81.91 64.7739 82.7244C65.1575 83.5388 65.6807 84.1544 66.3435 84.571C67.0064 84.9877 67.7522 85.196 68.5808 85.196C69.04 85.196 69.4756 85.1345 69.8876 85.0114C70.3042 84.8835 70.6807 84.6965 71.0168 84.4503C71.353 84.2041 71.6371 83.9034 71.8691 83.5483C72.1058 83.1884 72.2692 82.7765 72.3592 82.3125L74.5751 82.3196C74.4567 83.0346 74.2271 83.6927 73.8862 84.294C73.55 84.8906 73.1167 85.4067 72.5864 85.8423C72.0609 86.2732 71.4595 86.607 70.7825 86.8438C70.1054 87.0805 69.3667 87.1989 68.5665 87.1989C67.3071 87.1989 66.1849 86.9006 65.2001 86.304C64.2152 85.7027 63.4387 84.8433 62.8705 83.7259C62.3071 82.6084 62.0254 81.2756 62.0254 79.7273C62.0254 78.1742 62.3094 76.8414 62.8776 75.7287C63.4458 74.6113 64.2223 73.7543 65.2072 73.1577C66.192 72.5563 67.3118 72.2557 68.5665 72.2557C69.3383 72.2557 70.058 72.367 70.7256 72.5895C71.398 72.8073 72.0017 73.1293 72.5367 73.5554C73.0718 73.9768 73.5145 74.4929 73.8648 75.1037C74.2152 75.7098 74.452 76.4034 74.5751 77.1847ZM76.3003 87V85.0966L76.7264 85.0824C77.3041 85.0682 77.7586 84.8717 78.0901 84.4929C78.4262 84.1141 78.6701 83.5033 78.8216 82.6605C78.9778 81.8177 79.082 80.6932 79.1341 79.2869L79.3827 72.4545H88.5801V87H86.4139V74.3153H81.4494L81.2222 79.8693C81.1606 81.4271 81.0044 82.7363 80.7534 83.7969C80.5025 84.8527 80.0763 85.6506 79.475 86.1903C78.8784 86.7301 78.0285 87 76.9253 87H76.3003ZM93.006 87.1989V85.267H93.8795C94.2441 85.267 94.5448 85.2055 94.7815 85.0824C95.023 84.9593 95.2195 84.7936 95.371 84.5852C95.5273 84.3722 95.6575 84.1402 95.7616 83.8892L95.9676 83.3707L90.854 72.4545H93.1835L96.9974 80.8636L100.392 72.4545H102.693L97.6651 84.4787C97.452 84.9616 97.2058 85.4091 96.9264 85.821C96.6518 86.233 96.2848 86.5668 95.8256 86.8224C95.3663 87.0734 94.7579 87.1989 94.0003 87.1989H93.006ZM114.401 72.4545V87H112.228V72.4545H114.401ZM103.925 87L108.584 79.3864L104.252 72.4545H106.936L110.544 78.7472H116.134L119.713 72.4545H122.391L118.073 79.4006L122.703 87H120.14L116.482 80.7926H110.168L106.461 87H103.925ZM125.052 72.4545H127.225V83.1364H127.36L134.761 72.4545H136.792V87H134.597V76.3324H134.462L127.076 87H125.052V72.4545ZM140.193 87V72.4545H145.52C146.552 72.4545 147.407 72.625 148.084 72.9659C148.761 73.3021 149.268 73.759 149.604 74.3366C149.94 74.9096 150.108 75.5559 150.108 76.2756C150.108 76.8816 149.997 77.393 149.774 77.8097C149.552 78.2216 149.253 78.553 148.879 78.804C148.51 79.0502 148.103 79.2301 147.658 79.3438V79.4858C148.141 79.5095 148.612 79.6657 149.071 79.9545C149.535 80.2386 149.919 80.6435 150.222 81.169C150.525 81.6946 150.676 82.3338 150.676 83.0866C150.676 83.83 150.501 84.4976 150.151 85.0895C149.805 85.6766 149.27 86.143 148.546 86.4886C147.821 86.8295 146.896 87 145.769 87H140.193ZM142.388 85.1179H145.556C146.607 85.1179 147.36 84.9143 147.814 84.5071C148.269 84.0999 148.496 83.5909 148.496 82.9801C148.496 82.5208 148.38 82.0994 148.148 81.7159C147.916 81.3324 147.584 81.027 147.154 80.7997C146.727 80.5724 146.221 80.4588 145.634 80.4588H142.388V85.1179ZM142.388 78.7472H145.328C145.821 78.7472 146.263 78.6525 146.656 78.4631C147.054 78.2737 147.369 78.0085 147.601 77.6676C147.838 77.322 147.956 76.9148 147.956 76.446C147.956 75.8447 147.745 75.3404 147.324 74.9332C146.903 74.526 146.256 74.3224 145.385 74.3224H142.388V78.7472ZM154.708 87H152.378L157.613 72.4545H160.148L165.383 87H163.053L158.941 75.0966H158.827L154.708 87ZM155.099 81.304H162.655V83.1506H155.099V81.304ZM167.683 87V72.4545H169.878V78.7756H177.129V72.4545H179.331V87H177.129V80.6577H169.878V87H167.683ZM182.727 72.4545H184.9V83.1364H185.035L192.436 72.4545H194.467V87H192.272V76.3324H192.137L184.751 87H182.727V72.4545ZM197.868 87V72.4545H206.988V74.3438H200.063V78.7756H206.512V80.6577H200.063V85.1108H207.073V87H197.868Z" fill="white"/>
<path d="M42.375 218.364V230H40.625V219.864H35.1477V230H33.3977V218.364H42.375ZM48.5994 230.176C47.7813 230.176 47.0672 229.989 46.4574 229.614C45.8475 229.239 45.3741 228.714 45.0369 228.04C44.6998 227.366 44.5312 226.578 44.5312 225.676C44.5312 224.771 44.6998 223.979 45.0369 223.301C45.3741 222.623 45.8475 222.097 46.4574 221.722C47.0672 221.347 47.7813 221.159 48.5994 221.159C49.4176 221.159 50.1316 221.347 50.7415 221.722C51.3513 222.097 51.8248 222.623 52.1619 223.301C52.4991 223.979 52.6676 224.771 52.6676 225.676C52.6676 226.578 52.4991 227.366 52.1619 228.04C51.8248 228.714 51.3513 229.239 50.7415 229.614C50.1316 229.989 49.4176 230.176 48.5994 230.176ZM48.6051 228.75C49.1354 228.75 49.5748 228.61 49.9233 228.33C50.2718 228.049 50.5294 227.676 50.696 227.21C50.8665 226.744 50.9517 226.231 50.9517 225.67C50.9517 225.114 50.8665 224.602 50.696 224.136C50.5294 223.667 50.2718 223.29 49.9233 223.006C49.5748 222.722 49.1354 222.58 48.6051 222.58C48.071 222.58 47.6278 222.722 47.2756 223.006C46.9271 223.29 46.6676 223.667 46.4972 224.136C46.3305 224.602 46.2472 225.114 46.2472 225.67C46.2472 226.231 46.3305 226.744 46.4972 227.21C46.6676 227.676 46.9271 228.049 47.2756 228.33C47.6278 228.61 48.071 228.75 48.6051 228.75ZM53.7116 232.517V228.528H54.4219C54.6037 228.362 54.7571 228.163 54.8821 227.932C55.0109 227.701 55.1188 227.426 55.206 227.108C55.2969 226.79 55.3726 226.419 55.4332 225.994C55.4938 225.566 55.5469 225.078 55.5923 224.528L55.8651 221.273H61.7969V228.528H63.1378V232.517H61.4787V230H55.3935V232.517H53.7116ZM56.2401 228.528H60.1378V222.727H57.3878L57.206 224.528C57.1188 225.445 57.009 226.241 56.8764 226.915C56.7438 227.585 56.5317 228.123 56.2401 228.528ZM64.7983 233.273V221.273H66.4574V222.688H66.5994C66.6979 222.506 66.84 222.295 67.0256 222.057C67.2112 221.818 67.4688 221.61 67.7983 221.432C68.1278 221.25 68.5634 221.159 69.1051 221.159C69.8097 221.159 70.4384 221.337 70.9915 221.693C71.5445 222.049 71.9782 222.562 72.2926 223.233C72.6108 223.903 72.7699 224.71 72.7699 225.653C72.7699 226.597 72.6127 227.405 72.2983 228.08C71.9839 228.75 71.5521 229.267 71.0028 229.631C70.4536 229.991 69.8267 230.17 69.1222 230.17C68.5919 230.17 68.1581 230.081 67.821 229.903C67.4877 229.725 67.2263 229.517 67.0369 229.278C66.8475 229.04 66.7017 228.828 66.5994 228.642H66.4972V233.273H64.7983ZM66.4631 225.636C66.4631 226.25 66.5521 226.788 66.7301 227.25C66.9081 227.712 67.1657 228.074 67.5028 228.335C67.84 228.593 68.2528 228.722 68.7415 228.722C69.2491 228.722 69.6733 228.587 70.0142 228.318C70.3551 228.045 70.6127 227.676 70.7869 227.21C70.965 226.744 71.054 226.22 71.054 225.636C71.054 225.061 70.9669 224.544 70.7926 224.085C70.6222 223.627 70.3646 223.265 70.0199 223C69.679 222.735 69.2528 222.602 68.7415 222.602C68.2491 222.602 67.8324 222.729 67.4915 222.983C67.1544 223.237 66.8987 223.591 66.7244 224.045C66.5502 224.5 66.4631 225.03 66.4631 225.636ZM78.3494 230.176C77.5313 230.176 76.8172 229.989 76.2074 229.614C75.5975 229.239 75.1241 228.714 74.7869 228.04C74.4498 227.366 74.2812 226.578 74.2812 225.676C74.2812 224.771 74.4498 223.979 74.7869 223.301C75.1241 222.623 75.5975 222.097 76.2074 221.722C76.8172 221.347 77.5313 221.159 78.3494 221.159C79.1676 221.159 79.8816 221.347 80.4915 221.722C81.1013 222.097 81.5748 222.623 81.9119 223.301C82.2491 223.979 82.4176 224.771 82.4176 225.676C82.4176 226.578 82.2491 227.366 81.9119 228.04C81.5748 228.714 81.1013 229.239 80.4915 229.614C79.8816 229.989 79.1676 230.176 78.3494 230.176ZM78.3551 228.75C78.8854 228.75 79.3248 228.61 79.6733 228.33C80.0218 228.049 80.2794 227.676 80.446 227.21C80.6165 226.744 80.7017 226.231 80.7017 225.67C80.7017 225.114 80.6165 224.602 80.446 224.136C80.2794 223.667 80.0218 223.29 79.6733 223.006C79.3248 222.722 78.8854 222.58 78.3551 222.58C77.821 222.58 77.3778 222.722 77.0256 223.006C76.6771 223.29 76.4176 223.667 76.2472 224.136C76.0805 224.602 75.9972 225.114 75.9972 225.67C75.9972 226.231 76.0805 226.744 76.2472 227.21C76.4176 227.676 76.6771 228.049 77.0256 228.33C77.3778 228.61 77.821 228.75 78.3551 228.75ZM91.0469 218.023L91.7514 219.097C91.4901 219.335 91.1927 219.506 90.8594 219.608C90.5298 219.706 90.1491 219.769 89.7173 219.795C89.2855 219.818 88.7912 219.839 88.2344 219.858C87.6056 219.877 87.0885 220.013 86.6832 220.267C86.2779 220.517 85.9654 220.888 85.7457 221.381C85.5298 221.869 85.3897 222.483 85.3253 223.222H85.4332C85.7173 222.68 86.1113 222.275 86.6151 222.006C87.1226 221.737 87.6927 221.602 88.3253 221.602C89.0298 221.602 89.6567 221.763 90.206 222.085C90.7552 222.407 91.187 222.879 91.5014 223.5C91.8196 224.117 91.9787 224.873 91.9787 225.767C91.9787 226.672 91.812 227.455 91.4787 228.114C91.1491 228.773 90.6832 229.282 90.081 229.642C89.4825 229.998 88.776 230.176 87.9616 230.176C87.1473 230.176 86.437 229.992 85.831 229.625C85.2287 229.254 84.7609 228.705 84.4276 227.977C84.098 227.25 83.9332 226.352 83.9332 225.284V224.42C83.9332 222.424 84.2893 220.922 85.0014 219.915C85.7135 218.907 86.7779 218.39 88.1946 218.364C88.6529 218.352 89.062 218.35 89.4219 218.358C89.7817 218.362 90.0961 218.345 90.3651 218.307C90.6378 218.265 90.8651 218.17 91.0469 218.023ZM87.9673 228.75C88.4408 228.75 88.848 228.631 89.1889 228.392C89.5336 228.15 89.7988 227.807 89.9844 227.364C90.17 226.92 90.2628 226.398 90.2628 225.795C90.2628 225.205 90.17 224.703 89.9844 224.29C89.7988 223.877 89.5336 223.562 89.1889 223.347C88.8442 223.127 88.4313 223.017 87.9503 223.017C87.5942 223.017 87.276 223.08 86.9957 223.205C86.7154 223.326 86.4749 223.506 86.2741 223.744C86.0772 223.983 85.9238 224.275 85.8139 224.619C85.7079 224.96 85.651 225.352 85.6435 225.795C85.6435 226.697 85.8499 227.415 86.2628 227.949C86.6795 228.483 87.2476 228.75 87.9673 228.75ZM99.7912 224.903V226.375H95.0639V224.903H99.7912ZM95.5412 221.273V230H93.8764V221.273H95.5412ZM100.979 221.273V230H99.3196V221.273H100.979ZM107.013 230.176C106.153 230.176 105.412 229.992 104.791 229.625C104.174 229.254 103.696 228.733 103.359 228.062C103.026 227.388 102.859 226.598 102.859 225.693C102.859 224.799 103.026 224.011 103.359 223.33C103.696 222.648 104.166 222.116 104.768 221.733C105.375 221.35 106.083 221.159 106.893 221.159C107.386 221.159 107.863 221.241 108.325 221.403C108.787 221.566 109.202 221.822 109.57 222.17C109.937 222.519 110.227 222.972 110.439 223.528C110.651 224.081 110.757 224.754 110.757 225.545V226.148H103.82V224.875H109.092C109.092 224.428 109.001 224.032 108.82 223.688C108.638 223.339 108.382 223.064 108.053 222.864C107.727 222.663 107.344 222.562 106.905 222.562C106.428 222.562 106.011 222.68 105.655 222.915C105.303 223.146 105.03 223.449 104.837 223.824C104.647 224.195 104.553 224.598 104.553 225.034V226.028C104.553 226.612 104.655 227.108 104.859 227.517C105.068 227.926 105.357 228.239 105.729 228.455C106.1 228.667 106.534 228.773 107.03 228.773C107.352 228.773 107.645 228.727 107.911 228.636C108.176 228.542 108.405 228.402 108.598 228.216C108.791 228.03 108.939 227.801 109.041 227.528L110.649 227.818C110.52 228.292 110.289 228.706 109.956 229.062C109.626 229.415 109.212 229.689 108.712 229.886C108.215 230.08 107.649 230.176 107.013 230.176ZM116.403 230.176C115.544 230.176 114.803 229.992 114.182 229.625C113.564 229.254 113.087 228.733 112.75 228.062C112.417 227.388 112.25 226.598 112.25 225.693C112.25 224.799 112.417 224.011 112.75 223.33C113.087 222.648 113.557 222.116 114.159 221.733C114.765 221.35 115.473 221.159 116.284 221.159C116.777 221.159 117.254 221.241 117.716 221.403C118.178 221.566 118.593 221.822 118.96 222.17C119.328 222.519 119.617 222.972 119.83 223.528C120.042 224.081 120.148 224.754 120.148 225.545V226.148H113.21V224.875H118.483C118.483 224.428 118.392 224.032 118.21 223.688C118.028 223.339 117.773 223.064 117.443 222.864C117.117 222.663 116.735 222.562 116.295 222.562C115.818 222.562 115.402 222.68 115.045 222.915C114.693 223.146 114.42 223.449 114.227 223.824C114.038 224.195 113.943 224.598 113.943 225.034V226.028C113.943 226.612 114.045 227.108 114.25 227.517C114.458 227.926 114.748 228.239 115.119 228.455C115.491 228.667 115.924 228.773 116.42 228.773C116.742 228.773 117.036 228.727 117.301 228.636C117.566 228.542 117.795 228.402 117.989 228.216C118.182 228.03 118.33 227.801 118.432 227.528L120.04 227.818C119.911 228.292 119.68 228.706 119.347 229.062C119.017 229.415 118.602 229.689 118.102 229.886C117.606 230.08 117.04 230.176 116.403 230.176Z" fill="white"/>
<path d="M33.5455 119.364H34.7727L38.9943 129.5H39.0966L43.3182 119.364H44.5455V131H43.5455V121.608H43.4545L39.5284 131H38.5625L34.6364 121.608H34.5455V131H33.5455V119.364ZM48.2812 125.642H50.8381C51.8191 125.642 52.5767 125.881 53.1108 126.358C53.6449 126.835 53.9119 127.481 53.9119 128.295C53.9119 128.837 53.7907 129.311 53.5483 129.716C53.3097 130.121 52.9612 130.437 52.5028 130.665C52.0445 130.888 51.4896 131 50.8381 131H47.4403V122.273H48.4574V130.045H50.8381C51.4555 130.045 51.9517 129.898 52.3267 129.602C52.7055 129.307 52.8949 128.886 52.8949 128.341C52.8949 127.784 52.7055 127.354 52.3267 127.051C51.9517 126.748 51.4555 126.597 50.8381 126.597H48.2812V125.642ZM55.3835 131V122.273H56.3949V131H55.3835ZM63.5852 131V122.273H67.0227C67.9508 122.273 68.6818 122.473 69.2159 122.875C69.7538 123.277 70.0227 123.818 70.0227 124.5C70.0227 125.019 69.8731 125.434 69.5739 125.744C69.2746 126.055 68.8731 126.275 68.3693 126.403C68.7064 126.46 69.0189 126.583 69.3068 126.773C69.5985 126.962 69.8352 127.212 70.017 127.523C70.1989 127.833 70.2898 128.205 70.2898 128.636C70.2898 129.091 70.1761 129.496 69.9489 129.852C69.7216 130.208 69.4015 130.489 68.9886 130.693C68.5758 130.898 68.0871 131 67.5227 131H63.5852ZM64.5511 130.062H67.5227C68.0568 130.062 68.4792 129.926 68.7898 129.653C69.1004 129.377 69.2557 129.009 69.2557 128.551C69.2557 128.062 69.108 127.672 68.8125 127.381C68.5208 127.085 68.1288 126.938 67.6364 126.938H64.5511V130.062ZM64.5511 126.04H67.0852C67.4792 126.04 67.8201 125.979 68.108 125.858C68.3958 125.737 68.6174 125.566 68.7727 125.347C68.9318 125.123 69.0095 124.862 69.0057 124.562C69.0057 124.134 68.8314 123.803 68.483 123.568C68.1345 123.33 67.6477 123.21 67.0227 123.21H64.5511V126.04ZM73.3594 125.642H75.9162C76.8973 125.642 77.6548 125.881 78.1889 126.358C78.723 126.835 78.9901 127.481 78.9901 128.295C78.9901 128.837 78.8688 129.311 78.6264 129.716C78.3878 130.121 78.0393 130.437 77.581 130.665C77.1226 130.888 76.5677 131 75.9162 131H72.5185V122.273H73.5355V130.045H75.9162C76.5336 130.045 77.0298 129.898 77.4048 129.602C77.7836 129.307 77.973 128.886 77.973 128.341C77.973 127.784 77.7836 127.354 77.4048 127.051C77.0298 126.748 76.5336 126.597 75.9162 126.597H73.3594V125.642ZM80.4616 131V122.273H81.473V131H80.4616ZM84.1747 131V122.273H90.7827V131H89.7656V123.227H85.1918V131H84.1747ZM96.8523 131.182C96.0985 131.182 95.4318 130.991 94.8523 130.608C94.2765 130.225 93.8258 129.697 93.5 129.023C93.1742 128.345 93.0114 127.562 93.0114 126.676C93.0114 125.782 93.1742 124.996 93.5 124.318C93.8258 123.636 94.2765 123.106 94.8523 122.727C95.4318 122.345 96.0985 122.153 96.8523 122.153C97.6061 122.153 98.2708 122.345 98.8466 122.727C99.4223 123.11 99.8731 123.64 100.199 124.318C100.528 124.996 100.693 125.782 100.693 126.676C100.693 127.562 100.53 128.345 100.205 129.023C99.8788 129.697 99.4261 130.225 98.8466 130.608C98.2708 130.991 97.6061 131.182 96.8523 131.182ZM96.8523 130.256C97.4583 130.256 97.9716 130.093 98.392 129.767C98.8125 129.441 99.1307 129.008 99.3466 128.466C99.5663 127.924 99.6761 127.328 99.6761 126.676C99.6761 126.025 99.5663 125.426 99.3466 124.881C99.1307 124.335 98.8125 123.898 98.392 123.568C97.9716 123.239 97.4583 123.074 96.8523 123.074C96.25 123.074 95.7367 123.239 95.3125 123.568C94.892 123.898 94.572 124.335 94.3523 124.881C94.1364 125.426 94.0284 126.025 94.0284 126.676C94.0284 127.328 94.1364 127.924 94.3523 128.466C94.572 129.008 94.892 129.441 95.3125 129.767C95.733 130.093 96.2462 130.256 96.8523 130.256ZM102.055 131V130.045H102.328C102.639 130.045 102.889 129.989 103.078 129.875C103.271 129.758 103.421 129.561 103.527 129.284C103.633 129.008 103.713 128.631 103.766 128.153C103.819 127.676 103.86 127.078 103.891 126.358L104.078 122.273H109.624V131H108.607V123.227H105.038L104.874 126.699C104.839 127.407 104.783 128.03 104.703 128.568C104.627 129.106 104.502 129.555 104.328 129.915C104.158 130.275 103.919 130.545 103.612 130.727C103.309 130.909 102.911 131 102.419 131H102.055ZM118.196 126.165V127.119H113.065V126.165H118.196ZM113.315 122.273V131H112.304V122.273H113.315ZM118.94 122.273V131H117.929V122.273H118.94ZM126.882 131V123.21H124.479C123.854 123.214 123.378 123.345 123.053 123.602C122.731 123.86 122.57 124.244 122.57 124.756C122.57 125.267 122.723 125.652 123.03 125.909C123.337 126.163 123.784 126.29 124.371 126.29H127.166V127.244H124.371C123.768 127.244 123.257 127.148 122.837 126.955C122.42 126.761 122.102 126.479 121.882 126.108C121.662 125.737 121.553 125.286 121.553 124.756C121.553 124.222 121.664 123.771 121.888 123.403C122.115 123.032 122.446 122.752 122.882 122.562C123.321 122.369 123.854 122.273 124.479 122.273H127.848V131H126.882ZM121.001 131L123.513 126.659H124.621L122.109 131H121.001ZM134.067 131.182C133.252 131.182 132.548 130.992 131.953 130.614C131.358 130.231 130.898 129.703 130.572 129.028C130.25 128.35 130.089 127.57 130.089 126.688C130.089 125.809 130.25 125.028 130.572 124.347C130.898 123.661 131.347 123.125 131.919 122.739C132.495 122.348 133.16 122.153 133.913 122.153C134.387 122.153 134.843 122.241 135.283 122.415C135.722 122.585 136.116 122.848 136.464 123.205C136.817 123.557 137.095 124.002 137.3 124.54C137.504 125.074 137.607 125.706 137.607 126.438V126.938H130.788V126.045H136.572C136.572 125.485 136.459 124.981 136.232 124.534C136.008 124.083 135.696 123.727 135.294 123.466C134.896 123.205 134.436 123.074 133.913 123.074C133.36 123.074 132.874 123.222 132.453 123.517C132.033 123.812 131.703 124.203 131.464 124.688C131.23 125.172 131.11 125.703 131.107 126.278V126.812C131.107 127.506 131.226 128.112 131.464 128.631C131.707 129.146 132.05 129.545 132.493 129.83C132.936 130.114 133.461 130.256 134.067 130.256C134.48 130.256 134.841 130.191 135.152 130.062C135.466 129.934 135.73 129.761 135.942 129.545C136.158 129.326 136.321 129.085 136.43 128.824L137.391 129.136C137.258 129.504 137.04 129.843 136.737 130.153C136.438 130.464 136.063 130.714 135.612 130.903C135.165 131.089 134.65 131.182 134.067 131.182ZM144.398 129.585L147.676 122.273H148.659L144.801 131H143.994L140.182 122.273H141.148L144.398 129.585ZM140.847 122.273V131H139.835V122.273H140.847ZM147.949 131V122.273H148.96V131H147.949ZM156.148 134.273V122.273H157.131V123.938H157.25C157.371 123.676 157.538 123.409 157.75 123.136C157.962 122.86 158.242 122.627 158.591 122.438C158.943 122.248 159.386 122.153 159.92 122.153C160.64 122.153 161.269 122.343 161.807 122.722C162.348 123.097 162.769 123.623 163.068 124.301C163.371 124.975 163.523 125.761 163.523 126.659C163.523 127.561 163.371 128.35 163.068 129.028C162.769 129.706 162.348 130.235 161.807 130.614C161.269 130.992 160.644 131.182 159.932 131.182C159.405 131.182 158.964 131.087 158.608 130.898C158.256 130.708 157.97 130.475 157.75 130.199C157.534 129.919 157.367 129.646 157.25 129.381H157.159V134.273H156.148ZM157.148 126.642C157.148 127.347 157.252 127.972 157.46 128.517C157.672 129.059 157.975 129.485 158.369 129.795C158.767 130.102 159.248 130.256 159.812 130.256C160.392 130.256 160.881 130.097 161.278 129.778C161.68 129.456 161.985 129.023 162.193 128.477C162.405 127.932 162.511 127.32 162.511 126.642C162.511 125.972 162.407 125.367 162.199 124.83C161.994 124.292 161.691 123.866 161.29 123.551C160.888 123.233 160.396 123.074 159.812 123.074C159.244 123.074 158.761 123.227 158.364 123.534C157.966 123.837 157.663 124.258 157.455 124.795C157.25 125.33 157.148 125.945 157.148 126.642ZM169.27 131.182C168.455 131.182 167.751 130.992 167.156 130.614C166.562 130.231 166.101 129.703 165.776 129.028C165.454 128.35 165.293 127.57 165.293 126.688C165.293 125.809 165.454 125.028 165.776 124.347C166.101 123.661 166.55 123.125 167.122 122.739C167.698 122.348 168.363 122.153 169.116 122.153C169.59 122.153 170.046 122.241 170.486 122.415C170.925 122.585 171.319 122.848 171.668 123.205C172.02 123.557 172.298 124.002 172.503 124.54C172.707 125.074 172.81 125.706 172.81 126.438V126.938H165.991V126.045H171.776C171.776 125.485 171.662 124.981 171.435 124.534C171.211 124.083 170.899 123.727 170.497 123.466C170.099 123.205 169.639 123.074 169.116 123.074C168.563 123.074 168.077 123.222 167.656 123.517C167.236 123.812 166.906 124.203 166.668 124.688C166.433 125.172 166.313 125.703 166.31 126.278V126.812C166.31 127.506 166.429 128.112 166.668 128.631C166.91 129.146 167.253 129.545 167.696 129.83C168.139 130.114 168.664 130.256 169.27 130.256C169.683 130.256 170.045 130.191 170.355 130.062C170.67 129.934 170.933 129.761 171.145 129.545C171.361 129.326 171.524 129.085 171.634 128.824L172.594 129.136C172.461 129.504 172.243 129.843 171.94 130.153C171.641 130.464 171.266 130.714 170.815 130.903C170.368 131.089 169.853 131.182 169.27 131.182ZM179.601 129.585L182.879 122.273H183.862L180.004 131H179.197L175.385 122.273H176.351L179.601 129.585ZM176.05 122.273V131H175.038V122.273H176.05ZM183.152 131V122.273H184.163V131H183.152ZM190.243 131.182C189.489 131.182 188.822 130.991 188.243 130.608C187.667 130.225 187.216 129.697 186.891 129.023C186.565 128.345 186.402 127.562 186.402 126.676C186.402 125.782 186.565 124.996 186.891 124.318C187.216 123.636 187.667 123.106 188.243 122.727C188.822 122.345 189.489 122.153 190.243 122.153C190.997 122.153 191.661 122.345 192.237 122.727C192.813 123.11 193.264 123.64 193.589 124.318C193.919 124.996 194.084 125.782 194.084 126.676C194.084 127.562 193.921 128.345 193.595 129.023C193.269 129.697 192.817 130.225 192.237 130.608C191.661 130.991 190.997 131.182 190.243 131.182ZM190.243 130.256C190.849 130.256 191.362 130.093 191.783 129.767C192.203 129.441 192.521 129.008 192.737 128.466C192.957 127.924 193.067 127.328 193.067 126.676C193.067 126.025 192.957 125.426 192.737 124.881C192.521 124.335 192.203 123.898 191.783 123.568C191.362 123.239 190.849 123.074 190.243 123.074C189.641 123.074 189.127 123.239 188.703 123.568C188.283 123.898 187.963 124.335 187.743 124.881C187.527 125.426 187.419 126.025 187.419 126.676C187.419 127.328 187.527 127.924 187.743 128.466C187.963 129.008 188.283 129.441 188.703 129.767C189.124 130.093 189.637 130.256 190.243 130.256ZM202.196 126.165V127.119H197.065V126.165H202.196ZM197.315 122.273V131H196.304V122.273H197.315ZM202.94 122.273V131H201.929V122.273H202.94ZM204.411 123.227V122.273H211.229V123.227H208.342V131H207.331V123.227H204.411ZM33.3352 157V148.273H36.7727C37.7008 148.273 38.4318 148.473 38.9659 148.875C39.5038 149.277 39.7727 149.818 39.7727 150.5C39.7727 151.019 39.6231 151.434 39.3239 151.744C39.0246 152.055 38.6231 152.275 38.1193 152.403C38.4564 152.46 38.7689 152.583 39.0568 152.773C39.3485 152.962 39.5852 153.212 39.767 153.523C39.9489 153.833 40.0398 154.205 40.0398 154.636C40.0398 155.091 39.9261 155.496 39.6989 155.852C39.4716 156.208 39.1515 156.489 38.7386 156.693C38.3258 156.898 37.8371 157 37.2727 157H33.3352ZM34.3011 156.062H37.2727C37.8068 156.062 38.2292 155.926 38.5398 155.653C38.8504 155.377 39.0057 155.009 39.0057 154.551C39.0057 154.062 38.858 153.672 38.5625 153.381C38.2708 153.085 37.8788 152.938 37.3864 152.938H34.3011V156.062ZM34.3011 152.04H36.8352C37.2292 152.04 37.5701 151.979 37.858 151.858C38.1458 151.737 38.3674 151.566 38.5227 151.347C38.6818 151.123 38.7595 150.862 38.7557 150.562C38.7557 150.134 38.5814 149.803 38.233 149.568C37.8845 149.33 37.3977 149.21 36.7727 149.21H34.3011V152.04ZM45.7855 157.182C44.9711 157.182 44.2666 156.992 43.6719 156.614C43.0772 156.231 42.617 155.703 42.2912 155.028C41.9692 154.35 41.8082 153.57 41.8082 152.688C41.8082 151.809 41.9692 151.028 42.2912 150.347C42.617 149.661 43.0658 149.125 43.6378 148.739C44.2135 148.348 44.8783 148.153 45.6321 148.153C46.1056 148.153 46.562 148.241 47.0014 148.415C47.4408 148.585 47.8348 148.848 48.1832 149.205C48.5355 149.557 48.8139 150.002 49.0185 150.54C49.223 151.074 49.3253 151.706 49.3253 152.438V152.938H42.5071V152.045H48.2912C48.2912 151.485 48.1776 150.981 47.9503 150.534C47.7268 150.083 47.4143 149.727 47.0128 149.466C46.6151 149.205 46.1548 149.074 45.6321 149.074C45.0791 149.074 44.5923 149.222 44.1719 149.517C43.7514 149.812 43.4219 150.203 43.1832 150.688C42.9484 151.172 42.8291 151.703 42.8253 152.278V152.812C42.8253 153.506 42.9446 154.112 43.1832 154.631C43.4257 155.146 43.7685 155.545 44.2116 155.83C44.6548 156.114 45.1795 156.256 45.7855 156.256C46.1984 156.256 46.5601 156.191 46.8707 156.062C47.1851 155.934 47.4484 155.761 47.6605 155.545C47.8764 155.326 48.0393 155.085 48.1491 154.824L49.1094 155.136C48.9768 155.504 48.759 155.843 48.456 156.153C48.1567 156.464 47.7817 156.714 47.331 156.903C46.884 157.089 46.3688 157.182 45.7855 157.182ZM50.696 157V156.045H50.9688C51.2794 156.045 51.5294 155.989 51.7188 155.875C51.9119 155.758 52.0616 155.561 52.1676 155.284C52.2737 155.008 52.3532 154.631 52.4062 154.153C52.4593 153.676 52.5009 153.078 52.5312 152.358L52.7188 148.273H58.2642V157H57.2472V149.227H53.679L53.5142 152.699C53.4801 153.407 53.4233 154.03 53.3438 154.568C53.268 155.106 53.143 155.555 52.9688 155.915C52.7983 156.275 52.5597 156.545 52.2528 156.727C51.9498 156.909 51.5521 157 51.0597 157H50.696ZM64.3366 157.182C63.5829 157.182 62.9162 156.991 62.3366 156.608C61.7609 156.225 61.3101 155.697 60.9844 155.023C60.6586 154.345 60.4957 153.562 60.4957 152.676C60.4957 151.782 60.6586 150.996 60.9844 150.318C61.3101 149.636 61.7609 149.106 62.3366 148.727C62.9162 148.345 63.5829 148.153 64.3366 148.153C65.0904 148.153 65.7552 148.345 66.331 148.727C66.9067 149.11 67.3575 149.64 67.6832 150.318C68.0128 150.996 68.1776 151.782 68.1776 152.676C68.1776 153.562 68.0147 154.345 67.6889 155.023C67.3632 155.697 66.9105 156.225 66.331 156.608C65.7552 156.991 65.0904 157.182 64.3366 157.182ZM64.3366 156.256C64.9427 156.256 65.456 156.093 65.8764 155.767C66.2969 155.441 66.6151 155.008 66.831 154.466C67.0507 153.924 67.1605 153.328 67.1605 152.676C67.1605 152.025 67.0507 151.426 66.831 150.881C66.6151 150.335 66.2969 149.898 65.8764 149.568C65.456 149.239 64.9427 149.074 64.3366 149.074C63.7344 149.074 63.2211 149.239 62.7969 149.568C62.3764 149.898 62.0563 150.335 61.8366 150.881C61.6207 151.426 61.5128 152.025 61.5128 152.676C61.5128 153.328 61.6207 153.924 61.8366 154.466C62.0563 155.008 62.3764 155.441 62.7969 155.767C63.2173 156.093 63.7306 156.256 64.3366 156.256ZM73.8068 157.182C73.0265 157.182 72.3466 156.987 71.767 156.597C71.1913 156.206 70.7443 155.672 70.4261 154.994C70.108 154.316 69.9489 153.544 69.9489 152.676C69.9489 151.801 70.1098 151.023 70.4318 150.341C70.7576 149.659 71.2083 149.125 71.7841 148.739C72.3598 148.348 73.0284 148.153 73.7898 148.153C74.3731 148.153 74.9015 148.267 75.375 148.494C75.8485 148.718 76.2386 149.034 76.5455 149.443C76.8561 149.848 77.0511 150.322 77.1307 150.864H76.108C76.0019 150.371 75.7462 149.951 75.3409 149.602C74.9394 149.25 74.428 149.074 73.8068 149.074C73.25 149.074 72.7576 149.225 72.3295 149.528C71.9015 149.828 71.5663 150.246 71.3239 150.784C71.0852 151.318 70.9659 151.937 70.9659 152.642C70.9659 153.35 71.0833 153.977 71.3182 154.523C71.553 155.064 71.8826 155.489 72.3068 155.795C72.7348 156.102 73.2348 156.256 73.8068 156.256C74.1932 156.256 74.5455 156.184 74.8636 156.04C75.1856 155.892 75.4545 155.684 75.6705 155.415C75.8902 155.146 76.0379 154.826 76.1136 154.455H77.1364C77.0606 154.981 76.8731 155.451 76.5739 155.864C76.2784 156.273 75.8939 156.595 75.4205 156.83C74.9508 157.064 74.4129 157.182 73.8068 157.182ZM80.3153 155.562L84.9233 148.273H86.1335V157H85.1222V149.71L80.5312 157H79.304V148.273H80.3153V155.562ZM88.8153 157V148.273H95.4233V157H94.4062V149.227H89.8324V157H88.8153ZM101.629 157.182C100.815 157.182 100.11 156.992 99.5156 156.614C98.9209 156.231 98.4607 155.703 98.1349 155.028C97.813 154.35 97.652 153.57 97.652 152.688C97.652 151.809 97.813 151.028 98.1349 150.347C98.4607 149.661 98.9096 149.125 99.4815 148.739C100.057 148.348 100.722 148.153 101.476 148.153C101.949 148.153 102.406 148.241 102.845 148.415C103.285 148.585 103.679 148.848 104.027 149.205C104.379 149.557 104.658 150.002 104.862 150.54C105.067 151.074 105.169 151.706 105.169 152.438V152.938H98.3509V152.045H104.135C104.135 151.485 104.021 150.981 103.794 150.534C103.571 150.083 103.258 149.727 102.857 149.466C102.459 149.205 101.999 149.074 101.476 149.074C100.923 149.074 100.436 149.222 100.016 149.517C99.5952 149.812 99.2656 150.203 99.027 150.688C98.7921 151.172 98.6728 151.703 98.669 152.278V152.812C98.669 153.506 98.7884 154.112 99.027 154.631C99.2694 155.146 99.6122 155.545 100.055 155.83C100.499 156.114 101.023 156.256 101.629 156.256C102.042 156.256 102.404 156.191 102.714 156.062C103.029 155.934 103.292 155.761 103.504 155.545C103.72 155.326 103.883 155.085 103.993 154.824L104.953 155.136C104.821 155.504 104.603 155.843 104.3 156.153C104 156.464 103.625 156.714 103.175 156.903C102.728 157.089 102.213 157.182 101.629 157.182ZM106.364 159.483V156.045H107.119C107.309 155.833 107.473 155.604 107.614 155.358C107.754 155.112 107.875 154.831 107.977 154.517C108.083 154.199 108.172 153.83 108.244 153.409C108.316 152.985 108.377 152.491 108.426 151.926L108.744 148.273H113.909V156.045H115.205V159.483H114.193V157H107.381V159.483H106.364ZM108.284 156.045H112.898V149.227H109.688L109.426 151.926C109.335 152.843 109.206 153.642 109.04 154.324C108.873 155.006 108.621 155.58 108.284 156.045ZM119.57 157.199C119.043 157.199 118.562 157.097 118.126 156.892C117.691 156.684 117.344 156.384 117.087 155.994C116.829 155.6 116.7 155.123 116.7 154.562C116.7 154.131 116.782 153.767 116.945 153.472C117.107 153.176 117.339 152.934 117.638 152.744C117.937 152.555 118.291 152.405 118.7 152.295C119.109 152.186 119.56 152.1 120.053 152.04C120.541 151.979 120.954 151.926 121.291 151.881C121.632 151.835 121.892 151.763 122.07 151.665C122.248 151.566 122.337 151.407 122.337 151.188V150.983C122.337 150.388 122.159 149.92 121.803 149.58C121.45 149.235 120.943 149.062 120.28 149.062C119.651 149.062 119.138 149.201 118.74 149.477C118.346 149.754 118.07 150.08 117.911 150.455L116.95 150.108C117.147 149.631 117.42 149.25 117.768 148.966C118.117 148.678 118.507 148.472 118.939 148.347C119.371 148.218 119.808 148.153 120.251 148.153C120.585 148.153 120.931 148.197 121.291 148.284C121.655 148.371 121.992 148.523 122.303 148.739C122.613 148.951 122.865 149.248 123.058 149.631C123.251 150.009 123.348 150.491 123.348 151.074V157H122.337V155.619H122.274C122.153 155.877 121.973 156.127 121.734 156.369C121.496 156.612 121.196 156.811 120.837 156.966C120.477 157.121 120.054 157.199 119.57 157.199ZM119.706 156.273C120.244 156.273 120.71 156.153 121.104 155.915C121.498 155.676 121.801 155.36 122.013 154.966C122.229 154.568 122.337 154.131 122.337 153.653V152.392C122.261 152.464 122.134 152.528 121.956 152.585C121.782 152.642 121.579 152.693 121.348 152.739C121.121 152.78 120.893 152.816 120.666 152.847C120.439 152.877 120.234 152.903 120.053 152.926C119.56 152.987 119.14 153.081 118.791 153.21C118.443 153.339 118.176 153.517 117.99 153.744C117.804 153.968 117.712 154.256 117.712 154.608C117.712 155.138 117.901 155.549 118.28 155.841C118.659 156.129 119.134 156.273 119.706 156.273ZM129.68 157V156.045H129.953C130.264 156.045 130.514 155.989 130.703 155.875C130.896 155.758 131.046 155.561 131.152 155.284C131.258 155.008 131.338 154.631 131.391 154.153C131.444 153.676 131.485 153.078 131.516 152.358L131.703 148.273H137.249V157H136.232V149.227H132.663L132.499 152.699C132.464 153.407 132.408 154.03 132.328 154.568C132.252 155.106 132.127 155.555 131.953 155.915C131.783 156.275 131.544 156.545 131.237 156.727C130.934 156.909 130.536 157 130.044 157H129.68ZM143.685 152.25V153.205H139.418V152.25H143.685ZM140.23 148.273V157H139.213V148.273H140.23ZM146.611 157.182C145.857 157.182 145.192 156.991 144.616 156.608C144.041 156.225 143.588 155.697 143.259 155.023C142.933 154.345 142.77 153.562 142.77 152.676C142.77 151.782 142.933 150.996 143.259 150.318C143.588 149.636 144.041 149.106 144.616 148.727C145.192 148.345 145.857 148.153 146.611 148.153C147.365 148.153 148.029 148.345 148.605 148.727C149.185 149.11 149.637 149.64 149.963 150.318C150.289 150.996 150.452 151.782 150.452 152.676C150.452 153.562 150.289 154.345 149.963 155.023C149.637 155.697 149.185 156.225 148.605 156.608C148.029 156.991 147.365 157.182 146.611 157.182ZM146.611 156.256C147.217 156.256 147.73 156.093 148.151 155.767C148.571 155.441 148.891 155.008 149.111 154.466C149.33 153.924 149.44 153.328 149.44 152.676C149.44 152.025 149.33 151.426 149.111 150.881C148.891 150.335 148.571 149.898 148.151 149.568C147.73 149.239 147.217 149.074 146.611 149.074C146.009 149.074 145.497 149.239 145.077 149.568C144.656 149.898 144.336 150.335 144.116 150.881C143.897 151.426 143.787 152.025 143.787 152.676C143.787 153.328 143.895 153.924 144.111 154.466C144.33 155.008 144.651 155.441 145.071 155.767C145.495 156.093 146.009 156.256 146.611 156.256ZM159.119 145L159.648 145.642C159.409 145.873 159.123 146.032 158.79 146.119C158.46 146.203 158.091 146.25 157.682 146.261C157.277 146.273 156.839 146.29 156.369 146.312C155.695 146.347 155.14 146.523 154.705 146.841C154.269 147.155 153.938 147.61 153.71 148.205C153.487 148.795 153.347 149.517 153.29 150.369H153.403C153.695 149.775 154.106 149.322 154.636 149.011C155.17 148.701 155.758 148.545 156.398 148.545C157.068 148.545 157.67 148.71 158.205 149.04C158.742 149.366 159.167 149.845 159.477 150.477C159.792 151.106 159.949 151.873 159.949 152.778C159.949 153.672 159.792 154.451 159.477 155.114C159.163 155.773 158.723 156.282 158.159 156.642C157.595 157.002 156.934 157.182 156.176 157.182C155.415 157.182 154.748 157.004 154.176 156.648C153.608 156.288 153.167 155.759 152.852 155.062C152.542 154.362 152.386 153.5 152.386 152.477V151.562C152.386 149.528 152.708 147.998 153.352 146.972C153.996 145.945 154.987 145.409 156.324 145.364C156.756 145.348 157.148 145.345 157.5 145.352C157.852 145.356 158.163 145.339 158.432 145.301C158.701 145.259 158.93 145.159 159.119 145ZM156.176 156.256C156.741 156.256 157.229 156.114 157.642 155.83C158.055 155.542 158.373 155.136 158.597 154.614C158.824 154.091 158.938 153.479 158.938 152.778C158.938 152.081 158.822 151.487 158.591 150.994C158.364 150.502 158.045 150.125 157.636 149.864C157.227 149.602 156.748 149.472 156.199 149.472C155.767 149.472 155.379 149.555 155.034 149.722C154.693 149.884 154.402 150.117 154.159 150.42C153.917 150.723 153.731 151.08 153.602 151.489C153.473 151.898 153.407 152.347 153.403 152.835C153.403 153.892 153.65 154.727 154.142 155.341C154.638 155.951 155.316 156.256 156.176 156.256ZM165.555 157.182C164.802 157.182 164.135 156.991 163.555 156.608C162.98 156.225 162.529 155.697 162.203 155.023C161.877 154.345 161.714 153.562 161.714 152.676C161.714 151.782 161.877 150.996 162.203 150.318C162.529 149.636 162.98 149.106 163.555 148.727C164.135 148.345 164.802 148.153 165.555 148.153C166.309 148.153 166.974 148.345 167.55 148.727C168.125 149.11 168.576 149.64 168.902 150.318C169.232 150.996 169.396 151.782 169.396 152.676C169.396 153.562 169.233 154.345 168.908 155.023C168.582 155.697 168.129 156.225 167.55 156.608C166.974 156.991 166.309 157.182 165.555 157.182ZM165.555 156.256C166.161 156.256 166.675 156.093 167.095 155.767C167.516 155.441 167.834 155.008 168.05 154.466C168.269 153.924 168.379 153.328 168.379 152.676C168.379 152.025 168.269 151.426 168.05 150.881C167.834 150.335 167.516 149.898 167.095 149.568C166.675 149.239 166.161 149.074 165.555 149.074C164.953 149.074 164.44 149.239 164.016 149.568C163.595 149.898 163.275 150.335 163.055 150.881C162.839 151.426 162.732 152.025 162.732 152.676C162.732 153.328 162.839 153.924 163.055 154.466C163.275 155.008 163.595 155.441 164.016 155.767C164.436 156.093 164.949 156.256 165.555 156.256ZM172.628 155.562L177.236 148.273H178.446V157H177.435V149.71L172.844 157H171.616V148.273H172.628V155.562ZM176.077 145.364H177.031C177.031 145.905 176.851 146.345 176.491 146.682C176.135 147.019 175.649 147.188 175.031 147.188C174.421 147.188 173.938 147.019 173.582 146.682C173.226 146.345 173.048 145.905 173.048 145.364H174.003C174.003 145.659 174.082 145.909 174.241 146.114C174.404 146.314 174.668 146.415 175.031 146.415C175.395 146.415 175.66 146.314 175.827 146.114C175.993 145.909 176.077 145.659 176.077 145.364ZM36.7443 183.182C35.964 183.182 35.2841 182.987 34.7045 182.597C34.1288 182.206 33.6818 181.672 33.3636 180.994C33.0455 180.316 32.8864 179.544 32.8864 178.676C32.8864 177.801 33.0473 177.023 33.3693 176.341C33.6951 175.659 34.1458 175.125 34.7216 174.739C35.2973 174.348 35.9659 174.153 36.7273 174.153C37.3106 174.153 37.839 174.267 38.3125 174.494C38.786 174.718 39.1761 175.034 39.483 175.443C39.7936 175.848 39.9886 176.322 40.0682 176.864H39.0455C38.9394 176.371 38.6837 175.951 38.2784 175.602C37.8769 175.25 37.3655 175.074 36.7443 175.074C36.1875 175.074 35.6951 175.225 35.267 175.528C34.839 175.828 34.5038 176.246 34.2614 176.784C34.0227 177.318 33.9034 177.937 33.9034 178.642C33.9034 179.35 34.0208 179.977 34.2557 180.523C34.4905 181.064 34.8201 181.489 35.2443 181.795C35.6723 182.102 36.1723 182.256 36.7443 182.256C37.1307 182.256 37.483 182.184 37.8011 182.04C38.1231 181.892 38.392 181.684 38.608 181.415C38.8277 181.146 38.9754 180.826 39.0511 180.455H40.0739C39.9981 180.981 39.8106 181.451 39.5114 181.864C39.2159 182.273 38.8314 182.595 38.358 182.83C37.8883 183.064 37.3504 183.182 36.7443 183.182ZM41.3835 183V182.045H41.6562C41.9669 182.045 42.2169 181.989 42.4062 181.875C42.5994 181.758 42.7491 181.561 42.8551 181.284C42.9612 181.008 43.0407 180.631 43.0938 180.153C43.1468 179.676 43.1884 179.078 43.2188 178.358L43.4062 174.273H48.9517V183H47.9347V175.227H44.3665L44.2017 178.699C44.1676 179.407 44.1108 180.03 44.0312 180.568C43.9555 181.106 43.8305 181.555 43.6562 181.915C43.4858 182.275 43.2472 182.545 42.9403 182.727C42.6373 182.909 42.2396 183 41.7472 183H41.3835ZM55.0241 183.182C54.2704 183.182 53.6037 182.991 53.0241 182.608C52.4484 182.225 51.9976 181.697 51.6719 181.023C51.3461 180.345 51.1832 179.562 51.1832 178.676C51.1832 177.782 51.3461 176.996 51.6719 176.318C51.9976 175.636 52.4484 175.106 53.0241 174.727C53.6037 174.345 54.2704 174.153 55.0241 174.153C55.7779 174.153 56.4427 174.345 57.0185 174.727C57.5942 175.11 58.045 175.64 58.3707 176.318C58.7003 176.996 58.8651 177.782 58.8651 178.676C58.8651 179.562 58.7022 180.345 58.3764 181.023C58.0507 181.697 57.598 182.225 57.0185 182.608C56.4427 182.991 55.7779 183.182 55.0241 183.182ZM55.0241 182.256C55.6302 182.256 56.1435 182.093 56.5639 181.767C56.9844 181.441 57.3026 181.008 57.5185 180.466C57.7382 179.924 57.848 179.328 57.848 178.676C57.848 178.025 57.7382 177.426 57.5185 176.881C57.3026 176.335 56.9844 175.898 56.5639 175.568C56.1435 175.239 55.6302 175.074 55.0241 175.074C54.4219 175.074 53.9086 175.239 53.4844 175.568C53.0639 175.898 52.7438 176.335 52.5241 176.881C52.3082 177.426 52.2003 178.025 52.2003 178.676C52.2003 179.328 52.3082 179.924 52.5241 180.466C52.7438 181.008 53.0639 181.441 53.4844 181.767C53.9048 182.093 54.4181 182.256 55.0241 182.256ZM60.1804 183L64.0327 178.591L60.2315 174.273H61.4645L64.8111 178.153H65.3963V174.273H66.4134V178.153H66.9872L70.3338 174.273H71.5668L67.777 178.591L71.6179 183H70.3679L66.9702 179.108H66.4134V183H65.3963V179.108H64.8395L61.4304 183H60.1804ZM79.6335 178.165V179.119H74.5028V178.165H79.6335ZM74.7528 174.273V183H73.7415V174.273H74.7528ZM80.3778 174.273V183H79.3665V174.273H80.3778ZM86.4616 183.182C85.7079 183.182 85.0412 182.991 84.4616 182.608C83.8859 182.225 83.4351 181.697 83.1094 181.023C82.7836 180.345 82.6207 179.562 82.6207 178.676C82.6207 177.782 82.7836 176.996 83.1094 176.318C83.4351 175.636 83.8859 175.106 84.4616 174.727C85.0412 174.345 85.7079 174.153 86.4616 174.153C87.2154 174.153 87.8802 174.345 88.456 174.727C89.0317 175.11 89.4825 175.64 89.8082 176.318C90.1378 176.996 90.3026 177.782 90.3026 178.676C90.3026 179.562 90.1397 180.345 89.8139 181.023C89.4882 181.697 89.0355 182.225 88.456 182.608C87.8802 182.991 87.2154 183.182 86.4616 183.182ZM86.4616 182.256C87.0677 182.256 87.581 182.093 88.0014 181.767C88.4219 181.441 88.7401 181.008 88.956 180.466C89.1757 179.924 89.2855 179.328 89.2855 178.676C89.2855 178.025 89.1757 177.426 88.956 176.881C88.7401 176.335 88.4219 175.898 88.0014 175.568C87.581 175.239 87.0677 175.074 86.4616 175.074C85.8594 175.074 85.3461 175.239 84.9219 175.568C84.5014 175.898 84.1813 176.335 83.9616 176.881C83.7457 177.426 83.6378 178.025 83.6378 178.676C83.6378 179.328 83.7457 179.924 83.9616 180.466C84.1813 181.008 84.5014 181.441 84.9219 181.767C85.3423 182.093 85.8556 182.256 86.4616 182.256ZM95.9318 183.182C95.1515 183.182 94.4716 182.987 93.892 182.597C93.3163 182.206 92.8693 181.672 92.5511 180.994C92.233 180.316 92.0739 179.544 92.0739 178.676C92.0739 177.801 92.2348 177.023 92.5568 176.341C92.8826 175.659 93.3333 175.125 93.9091 174.739C94.4848 174.348 95.1534 174.153 95.9148 174.153C96.4981 174.153 97.0265 174.267 97.5 174.494C97.9735 174.718 98.3636 175.034 98.6705 175.443C98.9811 175.848 99.1761 176.322 99.2557 176.864H98.233C98.1269 176.371 97.8712 175.951 97.4659 175.602C97.0644 175.25 96.553 175.074 95.9318 175.074C95.375 175.074 94.8826 175.225 94.4545 175.528C94.0265 175.828 93.6913 176.246 93.4489 176.784C93.2102 177.318 93.0909 177.937 93.0909 178.642C93.0909 179.35 93.2083 179.977 93.4432 180.523C93.678 181.064 94.0076 181.489 94.4318 181.795C94.8598 182.102 95.3598 182.256 95.9318 182.256C96.3182 182.256 96.6705 182.184 96.9886 182.04C97.3106 181.892 97.5795 181.684 97.7955 181.415C98.0152 181.146 98.1629 180.826 98.2386 180.455H99.2614C99.1856 180.981 98.9981 181.451 98.6989 181.864C98.4034 182.273 98.0189 182.595 97.5455 182.83C97.0758 183.064 96.5379 183.182 95.9318 183.182ZM100.707 175.227V174.273H107.526V175.227H104.639V183H103.628V175.227H100.707ZM110.675 181.562L115.283 174.273H116.493V183H115.482V175.71L110.891 183H109.663V174.273H110.675V181.562Z" fill="white"/>
</svg>
