<svg width="290" height="267" viewBox="0 0 290 267" fill="none" xmlns="http://www.w3.org/2000/svg">
<rect width="290" height="267" rx="10" fill="#EB6B16"/>
<path d="M46.233 47.7273C46.233 49.2803 45.9489 50.6155 45.3807 51.733C44.8125 52.8456 44.0336 53.7027 43.044 54.304C42.0592 54.9006 40.9394 55.1989 39.6847 55.1989C38.4252 55.1989 37.3007 54.9006 36.3111 54.304C35.3262 53.7027 34.5497 52.8433 33.9815 51.7259C33.4134 50.6084 33.1293 49.2756 33.1293 47.7273C33.1293 46.1742 33.4134 44.8414 33.9815 43.7287C34.5497 42.6113 35.3262 41.7543 36.3111 41.1577C37.3007 40.5563 38.4252 40.2557 39.6847 40.2557C40.9394 40.2557 42.0592 40.5563 43.044 41.1577C44.0336 41.7543 44.8125 42.6113 45.3807 43.7287C45.9489 44.8414 46.233 46.1742 46.233 47.7273ZM44.0597 47.7273C44.0597 46.5436 43.8679 45.5469 43.4844 44.7372C43.1056 43.9228 42.5848 43.3073 41.9219 42.8906C41.2637 42.4692 40.518 42.2585 39.6847 42.2585C38.8466 42.2585 38.0985 42.4692 37.4403 42.8906C36.7822 43.3073 36.2614 43.9228 35.8778 44.7372C35.4991 45.5469 35.3097 46.5436 35.3097 47.7273C35.3097 48.911 35.4991 49.91 35.8778 50.7244C36.2614 51.5341 36.7822 52.1496 37.4403 52.571C38.0985 52.9877 38.8466 53.196 39.6847 53.196C40.518 53.196 41.2637 52.9877 41.9219 52.571C42.5848 52.1496 43.1056 51.5341 43.4844 50.7244C43.8679 49.91 44.0597 48.911 44.0597 47.7273ZM49.1691 55V40.4545H58.2387V42.3438H51.3637V46.321H54.6165C55.6961 46.321 56.6123 46.4962 57.3651 46.8466C58.1227 47.197 58.7004 47.6918 59.0981 48.331C59.5005 48.9702 59.7018 49.723 59.7018 50.5895C59.7018 51.456 59.5005 52.2206 59.0981 52.8835C58.7004 53.5464 58.1227 54.0649 57.3651 54.4389C56.6123 54.813 55.6961 55 54.6165 55H49.1691ZM51.3637 53.1534H54.6165C55.2415 53.1534 55.7695 53.0303 56.2004 52.7841C56.636 52.5379 56.965 52.2183 57.1876 51.8253C57.4148 51.4323 57.5285 51.0109 57.5285 50.5611C57.5285 49.9077 57.2775 49.3466 56.7756 48.8778C56.2737 48.4044 55.554 48.1676 54.6165 48.1676H51.3637V53.1534ZM62.4941 40.4545H65.1575L69.7881 51.7614H69.9586L74.5893 40.4545H77.2526V55H75.1646V44.4744H75.0296L70.7398 54.9787H69.0069L64.7171 44.4673H64.5822V55H62.4941V40.4545ZM80.6433 55V40.4545H89.7626V42.3438H82.8379V46.7756H89.2868V48.6577H82.8379V53.1108H89.8479V55H80.6433ZM92.8941 55V40.4545H95.0887V46.7756H102.34V40.4545H104.542V55H102.34V48.6577H95.0887V55H92.8941ZM33.598 72.4545H35.7713V83.1364H35.9062L43.3068 72.4545H45.3381V87H43.1435V76.3324H43.0085L35.6222 87H33.598V72.4545ZM54.2324 87V72.4545H59.5591C60.5913 72.4545 61.4459 72.625 62.123 72.9659C62.8001 73.3021 63.3067 73.759 63.6429 74.3366C63.9791 74.9096 64.1472 75.5559 64.1472 76.2756C64.1472 76.8816 64.0359 77.393 63.8134 77.8097C63.5908 78.2216 63.2925 78.553 62.9185 78.804C62.5491 79.0502 62.142 79.2301 61.6969 79.3438V79.4858C62.1798 79.5095 62.6509 79.6657 63.1102 79.9545C63.5742 80.2386 63.9578 80.6435 64.2608 81.169C64.5638 81.6946 64.7153 82.3338 64.7153 83.0866C64.7153 83.83 64.5402 84.4976 64.1898 85.0895C63.8441 85.6766 63.3091 86.143 62.5847 86.4886C61.8602 86.8295 60.9346 87 59.8077 87H54.2324ZM56.427 85.1179H59.5946C60.6457 85.1179 61.3986 84.9143 61.8531 84.5071C62.3077 84.0999 62.5349 83.5909 62.5349 82.9801C62.5349 82.5208 62.4189 82.0994 62.1869 81.7159C61.9549 81.3324 61.6235 81.027 61.1926 80.7997C60.7665 80.5724 60.2598 80.4588 59.6727 80.4588H56.427V85.1179ZM56.427 78.7472H59.3673C59.8598 78.7472 60.3025 78.6525 60.6955 78.4631C61.0932 78.2737 61.408 78.0085 61.6401 77.6676C61.8768 77.322 61.9952 76.9148 61.9952 76.446C61.9952 75.8447 61.7845 75.3404 61.3631 74.9332C60.9417 74.526 60.2954 74.3224 59.4241 74.3224H56.427V78.7472ZM80.1533 79.7273C80.1533 81.2803 79.8692 82.6155 79.301 83.733C78.7328 84.8456 77.9539 85.7027 76.9643 86.304C75.9795 86.9006 74.8597 87.1989 73.605 87.1989C72.3455 87.1989 71.221 86.9006 70.2314 86.304C69.2465 85.7027 68.47 84.8433 67.9018 83.7259C67.3337 82.6084 67.0496 81.2756 67.0496 79.7273C67.0496 78.1742 67.3337 76.8414 67.9018 75.7287C68.47 74.6113 69.2465 73.7543 70.2314 73.1577C71.221 72.5563 72.3455 72.2557 73.605 72.2557C74.8597 72.2557 75.9795 72.5563 76.9643 73.1577C77.9539 73.7543 78.7328 74.6113 79.301 75.7287C79.8692 76.8414 80.1533 78.1742 80.1533 79.7273ZM77.98 79.7273C77.98 78.5436 77.7882 77.5469 77.4047 76.7372C77.0259 75.9228 76.5051 75.3073 75.8422 74.8906C75.184 74.4692 74.4383 74.2585 73.605 74.2585C72.7669 74.2585 72.0188 74.4692 71.3607 74.8906C70.7025 75.3073 70.1817 75.9228 69.7982 76.7372C69.4194 77.5469 69.23 78.5436 69.23 79.7273C69.23 80.911 69.4194 81.91 69.7982 82.7244C70.1817 83.5341 70.7025 84.1496 71.3607 84.571C72.0188 84.9877 72.7669 85.196 73.605 85.196C74.4383 85.196 75.184 84.9877 75.8422 84.571C76.5051 84.1496 77.0259 83.5341 77.4047 82.7244C77.7882 81.91 77.98 80.911 77.98 79.7273ZM87.9545 87.1989C86.9791 87.1989 86.1079 87.0308 85.3408 86.6946C84.5785 86.3584 83.9748 85.892 83.5298 85.2955C83.0894 84.6941 82.8527 83.9981 82.8195 83.2074H85.0496C85.0781 83.6383 85.2225 84.0123 85.4829 84.3295C85.748 84.642 86.0937 84.8835 86.5198 85.054C86.946 85.2244 87.4194 85.3097 87.9403 85.3097C88.5132 85.3097 89.0198 85.2102 89.4602 85.0114C89.9052 84.8125 90.2532 84.5355 90.5042 84.1804C90.7551 83.8205 90.8806 83.4062 90.8806 82.9375C90.8806 82.4498 90.7551 82.0213 90.5042 81.652C90.258 81.2779 89.8958 80.9844 89.4175 80.7713C88.9441 80.5582 88.3711 80.4517 87.6988 80.4517H86.4701V78.6619H87.6988C88.2386 78.6619 88.712 78.5649 89.1192 78.3707C89.5312 78.1766 89.8531 77.9067 90.0852 77.5611C90.3172 77.2107 90.4332 76.8011 90.4332 76.3324C90.4332 75.8826 90.3314 75.492 90.1278 75.1605C89.9289 74.8243 89.6448 74.5616 89.2755 74.3722C88.9109 74.1828 88.48 74.0881 87.9829 74.0881C87.5094 74.0881 87.0667 74.1757 86.6548 74.3509C86.2476 74.5213 85.9161 74.7675 85.6604 75.0895C85.4048 75.4067 85.2674 75.7879 85.2485 76.233H83.1249C83.1486 75.447 83.3806 74.7557 83.821 74.1591C84.266 73.5625 84.8531 73.0961 85.5823 72.7599C86.3115 72.4238 87.1211 72.2557 88.0113 72.2557C88.9441 72.2557 89.749 72.438 90.4261 72.8026C91.1079 73.1624 91.6335 73.643 92.0028 74.2443C92.3768 74.8456 92.5615 75.5038 92.5567 76.2188C92.5615 77.0331 92.3342 77.7244 91.8749 78.2926C91.4204 78.8608 90.8143 79.242 90.0567 79.4361V79.5497C91.0227 79.6965 91.7708 80.08 92.3011 80.7003C92.8361 81.3205 93.1013 82.09 93.0965 83.0085C93.1013 83.8087 92.8787 84.526 92.4289 85.1605C91.9838 85.795 91.3754 86.2945 90.6036 86.6591C89.8318 87.0189 88.9488 87.1989 87.9545 87.1989ZM96.18 87V72.4545H101.507C102.539 72.4545 103.394 72.625 104.071 72.9659C104.748 73.3021 105.254 73.759 105.591 74.3366C105.927 74.9096 106.095 75.5559 106.095 76.2756C106.095 76.8816 105.984 77.393 105.761 77.8097C105.538 78.2216 105.24 78.553 104.866 78.804C104.497 79.0502 104.09 79.2301 103.645 79.3438V79.4858C104.127 79.5095 104.599 79.6657 105.058 79.9545C105.522 80.2386 105.905 80.6435 106.208 81.169C106.511 81.6946 106.663 82.3338 106.663 83.0866C106.663 83.83 106.488 84.4976 106.137 85.0895C105.792 85.6766 105.257 86.143 104.532 86.4886C103.808 86.8295 102.882 87 101.755 87H96.18ZM98.3746 85.1179H101.542C102.593 85.1179 103.346 84.9143 103.801 84.5071C104.255 84.0999 104.483 83.5909 104.483 82.9801C104.483 82.5208 104.367 82.0994 104.135 81.7159C103.903 81.3324 103.571 81.027 103.14 80.7997C102.714 80.5724 102.208 80.4588 101.62 80.4588H98.3746V85.1179ZM98.3746 78.7472H101.315C101.807 78.7472 102.25 78.6525 102.643 78.4631C103.041 78.2737 103.356 78.0085 103.588 77.6676C103.824 77.322 103.943 76.9148 103.943 76.446C103.943 75.8447 103.732 75.3404 103.311 74.9332C102.889 74.526 102.243 74.3224 101.372 74.3224H98.3746V78.7472ZM109.466 87V72.4545H114.651C115.782 72.4545 116.72 72.6605 117.463 73.0724C118.207 73.4844 118.763 74.0478 119.132 74.7628C119.501 75.473 119.686 76.2732 119.686 77.1634C119.686 78.0582 119.499 78.8632 119.125 79.5781C118.756 80.2884 118.197 80.8518 117.449 81.2685C116.706 81.6804 115.77 81.8864 114.644 81.8864H111.078V80.0256H114.445C115.16 80.0256 115.74 79.9025 116.185 79.6562C116.63 79.4053 116.957 79.0644 117.165 78.6335C117.373 78.2027 117.477 77.7126 117.477 77.1634C117.477 76.6141 117.373 76.1264 117.165 75.7003C116.957 75.2741 116.627 74.9403 116.178 74.6989C115.733 74.4574 115.145 74.3366 114.416 74.3366H111.661V87H109.466ZM122.145 87H119.815L125.05 72.4545H127.585L132.819 87H130.49L126.378 75.0966H126.264L122.145 87ZM122.535 81.304H130.092V83.1506H122.535V81.304ZM132.684 74.3438V72.4545H143.941V74.3438H139.403V87H137.215V74.3438H132.684Z" fill="white"/>
<path d="M42.375 218.364V230H40.625V219.864H35.1477V230H33.3977V218.364H42.375ZM48.5994 230.176C47.7813 230.176 47.0672 229.989 46.4574 229.614C45.8475 229.239 45.3741 228.714 45.0369 228.04C44.6998 227.366 44.5312 226.578 44.5312 225.676C44.5312 224.771 44.6998 223.979 45.0369 223.301C45.3741 222.623 45.8475 222.097 46.4574 221.722C47.0672 221.347 47.7813 221.159 48.5994 221.159C49.4176 221.159 50.1316 221.347 50.7415 221.722C51.3513 222.097 51.8248 222.623 52.1619 223.301C52.4991 223.979 52.6676 224.771 52.6676 225.676C52.6676 226.578 52.4991 227.366 52.1619 228.04C51.8248 228.714 51.3513 229.239 50.7415 229.614C50.1316 229.989 49.4176 230.176 48.5994 230.176ZM48.6051 228.75C49.1354 228.75 49.5748 228.61 49.9233 228.33C50.2718 228.049 50.5294 227.676 50.696 227.21C50.8665 226.744 50.9517 226.231 50.9517 225.67C50.9517 225.114 50.8665 224.602 50.696 224.136C50.5294 223.667 50.2718 223.29 49.9233 223.006C49.5748 222.722 49.1354 222.58 48.6051 222.58C48.071 222.58 47.6278 222.722 47.2756 223.006C46.9271 223.29 46.6676 223.667 46.4972 224.136C46.3305 224.602 46.2472 225.114 46.2472 225.67C46.2472 226.231 46.3305 226.744 46.4972 227.21C46.6676 227.676 46.9271 228.049 47.2756 228.33C47.6278 228.61 48.071 228.75 48.6051 228.75ZM53.7116 232.517V228.528H54.4219C54.6037 228.362 54.7571 228.163 54.8821 227.932C55.0109 227.701 55.1188 227.426 55.206 227.108C55.2969 226.79 55.3726 226.419 55.4332 225.994C55.4938 225.566 55.5469 225.078 55.5923 224.528L55.8651 221.273H61.7969V228.528H63.1378V232.517H61.4787V230H55.3935V232.517H53.7116ZM56.2401 228.528H60.1378V222.727H57.3878L57.206 224.528C57.1188 225.445 57.009 226.241 56.8764 226.915C56.7438 227.585 56.5317 228.123 56.2401 228.528ZM64.7983 233.273V221.273H66.4574V222.688H66.5994C66.6979 222.506 66.84 222.295 67.0256 222.057C67.2112 221.818 67.4688 221.61 67.7983 221.432C68.1278 221.25 68.5634 221.159 69.1051 221.159C69.8097 221.159 70.4384 221.337 70.9915 221.693C71.5445 222.049 71.9782 222.562 72.2926 223.233C72.6108 223.903 72.7699 224.71 72.7699 225.653C72.7699 226.597 72.6127 227.405 72.2983 228.08C71.9839 228.75 71.5521 229.267 71.0028 229.631C70.4536 229.991 69.8267 230.17 69.1222 230.17C68.5919 230.17 68.1581 230.081 67.821 229.903C67.4877 229.725 67.2263 229.517 67.0369 229.278C66.8475 229.04 66.7017 228.828 66.5994 228.642H66.4972V233.273H64.7983ZM66.4631 225.636C66.4631 226.25 66.5521 226.788 66.7301 227.25C66.9081 227.712 67.1657 228.074 67.5028 228.335C67.84 228.593 68.2528 228.722 68.7415 228.722C69.2491 228.722 69.6733 228.587 70.0142 228.318C70.3551 228.045 70.6127 227.676 70.7869 227.21C70.965 226.744 71.054 226.22 71.054 225.636C71.054 225.061 70.9669 224.544 70.7926 224.085C70.6222 223.627 70.3646 223.265 70.0199 223C69.679 222.735 69.2528 222.602 68.7415 222.602C68.2491 222.602 67.8324 222.729 67.4915 222.983C67.1544 223.237 66.8987 223.591 66.7244 224.045C66.5502 224.5 66.4631 225.03 66.4631 225.636ZM78.3494 230.176C77.5313 230.176 76.8172 229.989 76.2074 229.614C75.5975 229.239 75.1241 228.714 74.7869 228.04C74.4498 227.366 74.2812 226.578 74.2812 225.676C74.2812 224.771 74.4498 223.979 74.7869 223.301C75.1241 222.623 75.5975 222.097 76.2074 221.722C76.8172 221.347 77.5313 221.159 78.3494 221.159C79.1676 221.159 79.8816 221.347 80.4915 221.722C81.1013 222.097 81.5748 222.623 81.9119 223.301C82.2491 223.979 82.4176 224.771 82.4176 225.676C82.4176 226.578 82.2491 227.366 81.9119 228.04C81.5748 228.714 81.1013 229.239 80.4915 229.614C79.8816 229.989 79.1676 230.176 78.3494 230.176ZM78.3551 228.75C78.8854 228.75 79.3248 228.61 79.6733 228.33C80.0218 228.049 80.2794 227.676 80.446 227.21C80.6165 226.744 80.7017 226.231 80.7017 225.67C80.7017 225.114 80.6165 224.602 80.446 224.136C80.2794 223.667 80.0218 223.29 79.6733 223.006C79.3248 222.722 78.8854 222.58 78.3551 222.58C77.821 222.58 77.3778 222.722 77.0256 223.006C76.6771 223.29 76.4176 223.667 76.2472 224.136C76.0805 224.602 75.9972 225.114 75.9972 225.67C75.9972 226.231 76.0805 226.744 76.2472 227.21C76.4176 227.676 76.6771 228.049 77.0256 228.33C77.3778 228.61 77.821 228.75 78.3551 228.75ZM91.0469 218.023L91.7514 219.097C91.4901 219.335 91.1927 219.506 90.8594 219.608C90.5298 219.706 90.1491 219.769 89.7173 219.795C89.2855 219.818 88.7912 219.839 88.2344 219.858C87.6056 219.877 87.0885 220.013 86.6832 220.267C86.2779 220.517 85.9654 220.888 85.7457 221.381C85.5298 221.869 85.3897 222.483 85.3253 223.222H85.4332C85.7173 222.68 86.1113 222.275 86.6151 222.006C87.1226 221.737 87.6927 221.602 88.3253 221.602C89.0298 221.602 89.6567 221.763 90.206 222.085C90.7552 222.407 91.187 222.879 91.5014 223.5C91.8196 224.117 91.9787 224.873 91.9787 225.767C91.9787 226.672 91.812 227.455 91.4787 228.114C91.1491 228.773 90.6832 229.282 90.081 229.642C89.4825 229.998 88.776 230.176 87.9616 230.176C87.1473 230.176 86.437 229.992 85.831 229.625C85.2287 229.254 84.7609 228.705 84.4276 227.977C84.098 227.25 83.9332 226.352 83.9332 225.284V224.42C83.9332 222.424 84.2893 220.922 85.0014 219.915C85.7135 218.907 86.7779 218.39 88.1946 218.364C88.6529 218.352 89.062 218.35 89.4219 218.358C89.7817 218.362 90.0961 218.345 90.3651 218.307C90.6378 218.265 90.8651 218.17 91.0469 218.023ZM87.9673 228.75C88.4408 228.75 88.848 228.631 89.1889 228.392C89.5336 228.15 89.7988 227.807 89.9844 227.364C90.17 226.92 90.2628 226.398 90.2628 225.795C90.2628 225.205 90.17 224.703 89.9844 224.29C89.7988 223.877 89.5336 223.562 89.1889 223.347C88.8442 223.127 88.4313 223.017 87.9503 223.017C87.5942 223.017 87.276 223.08 86.9957 223.205C86.7154 223.326 86.4749 223.506 86.2741 223.744C86.0772 223.983 85.9238 224.275 85.8139 224.619C85.7079 224.96 85.651 225.352 85.6435 225.795C85.6435 226.697 85.8499 227.415 86.2628 227.949C86.6795 228.483 87.2476 228.75 87.9673 228.75ZM99.7912 224.903V226.375H95.0639V224.903H99.7912ZM95.5412 221.273V230H93.8764V221.273H95.5412ZM100.979 221.273V230H99.3196V221.273H100.979ZM107.013 230.176C106.153 230.176 105.412 229.992 104.791 229.625C104.174 229.254 103.696 228.733 103.359 228.062C103.026 227.388 102.859 226.598 102.859 225.693C102.859 224.799 103.026 224.011 103.359 223.33C103.696 222.648 104.166 222.116 104.768 221.733C105.375 221.35 106.083 221.159 106.893 221.159C107.386 221.159 107.863 221.241 108.325 221.403C108.787 221.566 109.202 221.822 109.57 222.17C109.937 222.519 110.227 222.972 110.439 223.528C110.651 224.081 110.757 224.754 110.757 225.545V226.148H103.82V224.875H109.092C109.092 224.428 109.001 224.032 108.82 223.688C108.638 223.339 108.382 223.064 108.053 222.864C107.727 222.663 107.344 222.562 106.905 222.562C106.428 222.562 106.011 222.68 105.655 222.915C105.303 223.146 105.03 223.449 104.837 223.824C104.647 224.195 104.553 224.598 104.553 225.034V226.028C104.553 226.612 104.655 227.108 104.859 227.517C105.068 227.926 105.357 228.239 105.729 228.455C106.1 228.667 106.534 228.773 107.03 228.773C107.352 228.773 107.645 228.727 107.911 228.636C108.176 228.542 108.405 228.402 108.598 228.216C108.791 228.03 108.939 227.801 109.041 227.528L110.649 227.818C110.52 228.292 110.289 228.706 109.956 229.062C109.626 229.415 109.212 229.689 108.712 229.886C108.215 230.08 107.649 230.176 107.013 230.176ZM116.403 230.176C115.544 230.176 114.803 229.992 114.182 229.625C113.564 229.254 113.087 228.733 112.75 228.062C112.417 227.388 112.25 226.598 112.25 225.693C112.25 224.799 112.417 224.011 112.75 223.33C113.087 222.648 113.557 222.116 114.159 221.733C114.765 221.35 115.473 221.159 116.284 221.159C116.777 221.159 117.254 221.241 117.716 221.403C118.178 221.566 118.593 221.822 118.96 222.17C119.328 222.519 119.617 222.972 119.83 223.528C120.042 224.081 120.148 224.754 120.148 225.545V226.148H113.21V224.875H118.483C118.483 224.428 118.392 224.032 118.21 223.688C118.028 223.339 117.773 223.064 117.443 222.864C117.117 222.663 116.735 222.562 116.295 222.562C115.818 222.562 115.402 222.68 115.045 222.915C114.693 223.146 114.42 223.449 114.227 223.824C114.038 224.195 113.943 224.598 113.943 225.034V226.028C113.943 226.612 114.045 227.108 114.25 227.517C114.458 227.926 114.748 228.239 115.119 228.455C115.491 228.667 115.924 228.773 116.42 228.773C116.742 228.773 117.036 228.727 117.301 228.636C117.566 228.542 117.795 228.402 117.989 228.216C118.182 228.03 118.33 227.801 118.432 227.528L120.04 227.818C119.911 228.292 119.68 228.706 119.347 229.062C119.017 229.415 118.602 229.689 118.102 229.886C117.606 230.08 117.04 230.176 116.403 230.176Z" fill="white"/>
<path d="M33.5455 131V119.364H37.4716C38.2292 119.364 38.8598 119.496 39.3636 119.761C39.8712 120.027 40.2519 120.388 40.5057 120.847C40.7595 121.305 40.8864 121.826 40.8864 122.409C40.8864 122.894 40.8049 123.309 40.642 123.653C40.4792 123.998 40.2576 124.277 39.9773 124.489C39.697 124.701 39.3845 124.854 39.0398 124.949V125.04C39.4148 125.066 39.7784 125.199 40.1307 125.438C40.483 125.672 40.7727 126.002 41 126.426C41.2273 126.85 41.3409 127.358 41.3409 127.949C41.3409 128.536 41.2102 129.061 40.9489 129.523C40.6875 129.981 40.286 130.343 39.7443 130.608C39.2064 130.869 38.5208 131 37.6875 131H33.5455ZM34.608 130.045H37.6875C38.5852 130.045 39.2481 129.847 39.6761 129.449C40.108 129.051 40.3239 128.551 40.3239 127.949C40.3239 127.506 40.2159 127.104 40 126.744C39.7879 126.381 39.4867 126.093 39.0966 125.881C38.7102 125.669 38.2557 125.562 37.733 125.562H34.608V130.045ZM34.608 124.619H37.5682C38.0265 124.619 38.428 124.525 38.7727 124.335C39.1174 124.146 39.3864 123.884 39.5795 123.551C39.7727 123.218 39.8693 122.837 39.8693 122.409C39.8693 121.792 39.6686 121.29 39.267 120.903C38.8655 120.513 38.267 120.318 37.4716 120.318H34.608V124.619ZM47.1037 131.182C46.3234 131.182 45.6435 130.987 45.0639 130.597C44.4882 130.206 44.0412 129.672 43.723 128.994C43.4048 128.316 43.2457 127.544 43.2457 126.676C43.2457 125.801 43.4067 125.023 43.7287 124.341C44.0545 123.659 44.5052 123.125 45.081 122.739C45.6567 122.348 46.3253 122.153 47.0866 122.153C47.67 122.153 48.1984 122.267 48.6719 122.494C49.1454 122.718 49.5355 123.034 49.8423 123.443C50.1529 123.848 50.348 124.322 50.4276 124.864H49.4048C49.2988 124.371 49.0431 123.951 48.6378 123.602C48.2363 123.25 47.7249 123.074 47.1037 123.074C46.5469 123.074 46.0545 123.225 45.6264 123.528C45.1984 123.828 44.8632 124.246 44.6207 124.784C44.3821 125.318 44.2628 125.937 44.2628 126.642C44.2628 127.35 44.3802 127.977 44.6151 128.523C44.8499 129.064 45.1795 129.489 45.6037 129.795C46.0317 130.102 46.5317 130.256 47.1037 130.256C47.4901 130.256 47.8423 130.184 48.1605 130.04C48.4825 129.892 48.7514 129.684 48.9673 129.415C49.187 129.146 49.3348 128.826 49.4105 128.455H50.4332C50.3575 128.981 50.17 129.451 49.8707 129.864C49.5753 130.273 49.1908 130.595 48.7173 130.83C48.2476 131.064 47.7098 131.182 47.1037 131.182ZM56.1293 131.182C55.3149 131.182 54.6103 130.992 54.0156 130.614C53.4209 130.231 52.9607 129.703 52.6349 129.028C52.313 128.35 52.152 127.57 52.152 126.688C52.152 125.809 52.313 125.028 52.6349 124.347C52.9607 123.661 53.4096 123.125 53.9815 122.739C54.5573 122.348 55.2221 122.153 55.9759 122.153C56.4493 122.153 56.9058 122.241 57.3452 122.415C57.7846 122.585 58.1785 122.848 58.527 123.205C58.8793 123.557 59.1577 124.002 59.3622 124.54C59.5668 125.074 59.669 125.706 59.669 126.438V126.938H52.8509V126.045H58.6349C58.6349 125.485 58.5213 124.981 58.294 124.534C58.0705 124.083 57.758 123.727 57.3565 123.466C56.9588 123.205 56.4986 123.074 55.9759 123.074C55.4228 123.074 54.9361 123.222 54.5156 123.517C54.0952 123.812 53.7656 124.203 53.527 124.688C53.2921 125.172 53.1728 125.703 53.169 126.278V126.812C53.169 127.506 53.2884 128.112 53.527 128.631C53.7694 129.146 54.1122 129.545 54.5554 129.83C54.9986 130.114 55.5232 130.256 56.1293 130.256C56.5421 130.256 56.9039 130.191 57.2145 130.062C57.5289 129.934 57.7921 129.761 58.0043 129.545C58.2202 129.326 58.383 129.085 58.4929 128.824L59.4531 129.136C59.3205 129.504 59.1027 129.843 58.7997 130.153C58.5005 130.464 58.1255 130.714 57.6747 130.903C57.2277 131.089 56.7126 131.182 56.1293 131.182ZM65.8636 123.227V122.273H72.6818V123.227H69.7955V131H68.7841V123.227H65.8636ZM77.7585 131.182C77.0047 131.182 76.3381 130.991 75.7585 130.608C75.1828 130.225 74.732 129.697 74.4062 129.023C74.0805 128.345 73.9176 127.562 73.9176 126.676C73.9176 125.782 74.0805 124.996 74.4062 124.318C74.732 123.636 75.1828 123.106 75.7585 122.727C76.3381 122.345 77.0047 122.153 77.7585 122.153C78.5123 122.153 79.1771 122.345 79.7528 122.727C80.3286 123.11 80.7794 123.64 81.1051 124.318C81.4347 124.996 81.5994 125.782 81.5994 126.676C81.5994 127.562 81.4366 128.345 81.1108 129.023C80.785 129.697 80.3324 130.225 79.7528 130.608C79.1771 130.991 78.5123 131.182 77.7585 131.182ZM77.7585 130.256C78.3646 130.256 78.8778 130.093 79.2983 129.767C79.7188 129.441 80.0369 129.008 80.2528 128.466C80.4725 127.924 80.5824 127.328 80.5824 126.676C80.5824 126.025 80.4725 125.426 80.2528 124.881C80.0369 124.335 79.7188 123.898 79.2983 123.568C78.8778 123.239 78.3646 123.074 77.7585 123.074C77.1563 123.074 76.643 123.239 76.2188 123.568C75.7983 123.898 75.4782 124.335 75.2585 124.881C75.0426 125.426 74.9347 126.025 74.9347 126.676C74.9347 127.328 75.0426 127.924 75.2585 128.466C75.4782 129.008 75.7983 129.441 76.2188 129.767C76.6392 130.093 77.1525 130.256 77.7585 130.256ZM83.8196 131V122.273H87.2571C88.1851 122.273 88.9162 122.473 89.4503 122.875C89.9882 123.277 90.2571 123.818 90.2571 124.5C90.2571 125.019 90.1075 125.434 89.8082 125.744C89.509 126.055 89.1075 126.275 88.6037 126.403C88.9408 126.46 89.2533 126.583 89.5412 126.773C89.8329 126.962 90.0696 127.212 90.2514 127.523C90.4332 127.833 90.5241 128.205 90.5241 128.636C90.5241 129.091 90.4105 129.496 90.1832 129.852C89.956 130.208 89.6359 130.489 89.223 130.693C88.8101 130.898 88.3215 131 87.7571 131H83.8196ZM84.7855 130.062H87.7571C88.2912 130.062 88.7135 129.926 89.0241 129.653C89.3348 129.377 89.4901 129.009 89.4901 128.551C89.4901 128.062 89.3423 127.672 89.0469 127.381C88.7552 127.085 88.3632 126.938 87.8707 126.938H84.7855V130.062ZM84.7855 126.04H87.3196C87.7135 126.04 88.0545 125.979 88.3423 125.858C88.6302 125.737 88.8518 125.566 89.0071 125.347C89.1662 125.123 89.2438 124.862 89.2401 124.562C89.2401 124.134 89.0658 123.803 88.7173 123.568C88.3688 123.33 87.8821 123.21 87.2571 123.21H84.7855V126.04ZM95.179 131.199C94.6525 131.199 94.1714 131.097 93.7358 130.892C93.3002 130.684 92.9536 130.384 92.696 129.994C92.4384 129.6 92.3097 129.123 92.3097 128.562C92.3097 128.131 92.3911 127.767 92.554 127.472C92.7169 127.176 92.9479 126.934 93.2472 126.744C93.5464 126.555 93.9006 126.405 94.3097 126.295C94.7188 126.186 95.1695 126.1 95.6619 126.04C96.1506 125.979 96.5634 125.926 96.9006 125.881C97.2415 125.835 97.5009 125.763 97.679 125.665C97.857 125.566 97.946 125.407 97.946 125.188V124.983C97.946 124.388 97.768 123.92 97.4119 123.58C97.0597 123.235 96.5521 123.062 95.8892 123.062C95.2604 123.062 94.7472 123.201 94.3494 123.477C93.9555 123.754 93.679 124.08 93.5199 124.455L92.5597 124.108C92.7566 123.631 93.0294 123.25 93.3778 122.966C93.7263 122.678 94.1165 122.472 94.5483 122.347C94.9801 122.218 95.4176 122.153 95.8608 122.153C96.1941 122.153 96.5407 122.197 96.9006 122.284C97.2642 122.371 97.6013 122.523 97.9119 122.739C98.2225 122.951 98.4744 123.248 98.6676 123.631C98.8608 124.009 98.9574 124.491 98.9574 125.074V131H97.946V129.619H97.8835C97.7623 129.877 97.5824 130.127 97.3438 130.369C97.1051 130.612 96.8059 130.811 96.446 130.966C96.0862 131.121 95.6638 131.199 95.179 131.199ZM95.3153 130.273C95.8532 130.273 96.3191 130.153 96.7131 129.915C97.107 129.676 97.41 129.36 97.6222 128.966C97.8381 128.568 97.946 128.131 97.946 127.653V126.392C97.8703 126.464 97.7434 126.528 97.5653 126.585C97.3911 126.642 97.1884 126.693 96.9574 126.739C96.7301 126.78 96.5028 126.816 96.2756 126.847C96.0483 126.877 95.8438 126.903 95.6619 126.926C95.1695 126.987 94.7491 127.081 94.4006 127.21C94.0521 127.339 93.785 127.517 93.5994 127.744C93.4138 127.968 93.321 128.256 93.321 128.608C93.321 129.138 93.5104 129.549 93.8892 129.841C94.268 130.129 94.7434 130.273 95.3153 130.273ZM101.648 134.273V122.273H102.631V123.938H102.75C102.871 123.676 103.038 123.409 103.25 123.136C103.462 122.86 103.742 122.627 104.091 122.438C104.443 122.248 104.886 122.153 105.42 122.153C106.14 122.153 106.769 122.343 107.307 122.722C107.848 123.097 108.269 123.623 108.568 124.301C108.871 124.975 109.023 125.761 109.023 126.659C109.023 127.561 108.871 128.35 108.568 129.028C108.269 129.706 107.848 130.235 107.307 130.614C106.769 130.992 106.144 131.182 105.432 131.182C104.905 131.182 104.464 131.087 104.108 130.898C103.756 130.708 103.47 130.475 103.25 130.199C103.034 129.919 102.867 129.646 102.75 129.381H102.659V134.273H101.648ZM102.648 126.642C102.648 127.347 102.752 127.972 102.96 128.517C103.172 129.059 103.475 129.485 103.869 129.795C104.267 130.102 104.748 130.256 105.312 130.256C105.892 130.256 106.381 130.097 106.778 129.778C107.18 129.456 107.485 129.023 107.693 128.477C107.905 127.932 108.011 127.32 108.011 126.642C108.011 125.972 107.907 125.367 107.699 124.83C107.494 124.292 107.191 123.866 106.79 123.551C106.388 123.233 105.896 123.074 105.312 123.074C104.744 123.074 104.261 123.227 103.864 123.534C103.466 123.837 103.163 124.258 102.955 124.795C102.75 125.33 102.648 125.945 102.648 126.642ZM112.094 125.642H114.651C115.632 125.642 116.389 125.881 116.923 126.358C117.457 126.835 117.724 127.481 117.724 128.295C117.724 128.837 117.603 129.311 117.361 129.716C117.122 130.121 116.774 130.437 116.315 130.665C115.857 130.888 115.302 131 114.651 131H111.253V122.273H112.27V130.045H114.651C115.268 130.045 115.764 129.898 116.139 129.602C116.518 129.307 116.707 128.886 116.707 128.341C116.707 127.784 116.518 127.354 116.139 127.051C115.764 126.748 115.268 126.597 114.651 126.597H112.094V125.642ZM119.196 131V122.273H120.207V131H119.196ZM130.79 131.182C130.036 131.182 129.369 130.991 128.79 130.608C128.214 130.225 127.763 129.697 127.438 129.023C127.112 128.345 126.949 127.562 126.949 126.676C126.949 125.782 127.112 124.996 127.438 124.318C127.763 123.636 128.214 123.106 128.79 122.727C129.369 122.345 130.036 122.153 130.79 122.153C131.544 122.153 132.208 122.345 132.784 122.727C133.36 123.11 133.811 123.64 134.136 124.318C134.466 124.996 134.631 125.782 134.631 126.676C134.631 127.562 134.468 128.345 134.142 129.023C133.816 129.697 133.364 130.225 132.784 130.608C132.208 130.991 131.544 131.182 130.79 131.182ZM130.79 130.256C131.396 130.256 131.909 130.093 132.33 129.767C132.75 129.441 133.068 129.008 133.284 128.466C133.504 127.924 133.614 127.328 133.614 126.676C133.614 126.025 133.504 125.426 133.284 124.881C133.068 124.335 132.75 123.898 132.33 123.568C131.909 123.239 131.396 123.074 130.79 123.074C130.188 123.074 129.674 123.239 129.25 123.568C128.83 123.898 128.509 124.335 128.29 124.881C128.074 125.426 127.966 126.025 127.966 126.676C127.966 127.328 128.074 127.924 128.29 128.466C128.509 129.008 128.83 129.441 129.25 129.767C129.67 130.093 130.184 130.256 130.79 130.256ZM143.135 119L143.663 119.642C143.425 119.873 143.139 120.032 142.805 120.119C142.476 120.203 142.107 120.25 141.697 120.261C141.292 120.273 140.855 120.29 140.385 120.312C139.711 120.347 139.156 120.523 138.72 120.841C138.285 121.155 137.953 121.61 137.726 122.205C137.502 122.795 137.362 123.517 137.305 124.369H137.419C137.711 123.775 138.122 123.322 138.652 123.011C139.186 122.701 139.773 122.545 140.413 122.545C141.084 122.545 141.686 122.71 142.22 123.04C142.758 123.366 143.182 123.845 143.493 124.477C143.807 125.106 143.964 125.873 143.964 126.778C143.964 127.672 143.807 128.451 143.493 129.114C143.179 129.773 142.739 130.282 142.175 130.642C141.61 131.002 140.949 131.182 140.192 131.182C139.43 131.182 138.764 131.004 138.192 130.648C137.624 130.288 137.182 129.759 136.868 129.062C136.557 128.362 136.402 127.5 136.402 126.477V125.562C136.402 123.528 136.724 121.998 137.368 120.972C138.012 119.945 139.002 119.409 140.339 119.364C140.771 119.348 141.163 119.345 141.516 119.352C141.868 119.356 142.179 119.339 142.447 119.301C142.716 119.259 142.946 119.159 143.135 119ZM140.192 130.256C140.756 130.256 141.245 130.114 141.658 129.83C142.071 129.542 142.389 129.136 142.612 128.614C142.839 128.091 142.953 127.479 142.953 126.778C142.953 126.081 142.838 125.487 142.607 124.994C142.379 124.502 142.061 124.125 141.652 123.864C141.243 123.602 140.764 123.472 140.214 123.472C139.783 123.472 139.394 123.555 139.05 123.722C138.709 123.884 138.417 124.117 138.175 124.42C137.932 124.723 137.747 125.08 137.618 125.489C137.489 125.898 137.423 126.347 137.419 126.835C137.419 127.892 137.665 128.727 138.158 129.341C138.654 129.951 139.332 130.256 140.192 130.256ZM149.707 131.182C148.893 131.182 148.188 130.992 147.594 130.614C146.999 130.231 146.539 129.703 146.213 129.028C145.891 128.35 145.73 127.57 145.73 126.688C145.73 125.809 145.891 125.028 146.213 124.347C146.539 123.661 146.988 123.125 147.56 122.739C148.135 122.348 148.8 122.153 149.554 122.153C150.027 122.153 150.484 122.241 150.923 122.415C151.363 122.585 151.757 122.848 152.105 123.205C152.457 123.557 152.736 124.002 152.94 124.54C153.145 125.074 153.247 125.706 153.247 126.438V126.938H146.429V126.045H152.213C152.213 125.485 152.099 124.981 151.872 124.534C151.649 124.083 151.336 123.727 150.935 123.466C150.537 123.205 150.077 123.074 149.554 123.074C149.001 123.074 148.514 123.222 148.094 123.517C147.673 123.812 147.344 124.203 147.105 124.688C146.87 125.172 146.751 125.703 146.747 126.278V126.812C146.747 127.506 146.866 128.112 147.105 128.631C147.348 129.146 147.69 129.545 148.134 129.83C148.577 130.114 149.101 130.256 149.707 130.256C150.12 130.256 150.482 130.191 150.793 130.062C151.107 129.934 151.37 129.761 151.582 129.545C151.798 129.326 151.961 129.085 152.071 128.824L153.031 129.136C152.899 129.504 152.681 129.843 152.378 130.153C152.079 130.464 151.704 130.714 151.253 130.903C150.806 131.089 150.291 131.182 149.707 131.182ZM158.885 131.182C158.105 131.182 157.425 130.987 156.845 130.597C156.269 130.206 155.822 129.672 155.504 128.994C155.186 128.316 155.027 127.544 155.027 126.676C155.027 125.801 155.188 125.023 155.51 124.341C155.836 123.659 156.286 123.125 156.862 122.739C157.438 122.348 158.107 122.153 158.868 122.153C159.451 122.153 159.98 122.267 160.453 122.494C160.927 122.718 161.317 123.034 161.624 123.443C161.934 123.848 162.129 124.322 162.209 124.864H161.186C161.08 124.371 160.824 123.951 160.419 123.602C160.018 123.25 159.506 123.074 158.885 123.074C158.328 123.074 157.836 123.225 157.408 123.528C156.98 123.828 156.644 124.246 156.402 124.784C156.163 125.318 156.044 125.937 156.044 126.642C156.044 127.35 156.161 127.977 156.396 128.523C156.631 129.064 156.961 129.489 157.385 129.795C157.813 130.102 158.313 130.256 158.885 130.256C159.271 130.256 159.624 130.184 159.942 130.04C160.264 129.892 160.533 129.684 160.749 129.415C160.968 129.146 161.116 128.826 161.192 128.455H162.214C162.139 128.981 161.951 129.451 161.652 129.864C161.357 130.273 160.972 130.595 160.499 130.83C160.029 131.064 159.491 131.182 158.885 131.182ZM164.393 131V122.273H171.001V131H169.984V123.227H165.411V131H164.393ZM177.207 131.182C176.393 131.182 175.688 130.992 175.094 130.614C174.499 130.231 174.039 129.703 173.713 129.028C173.391 128.35 173.23 127.57 173.23 126.688C173.23 125.809 173.391 125.028 173.713 124.347C174.039 123.661 174.488 123.125 175.06 122.739C175.635 122.348 176.3 122.153 177.054 122.153C177.527 122.153 177.984 122.241 178.423 122.415C178.863 122.585 179.257 122.848 179.605 123.205C179.957 123.557 180.236 124.002 180.44 124.54C180.645 125.074 180.747 125.706 180.747 126.438V126.938H173.929V126.045H179.713C179.713 125.485 179.599 124.981 179.372 124.534C179.149 124.083 178.836 123.727 178.435 123.466C178.037 123.205 177.577 123.074 177.054 123.074C176.501 123.074 176.014 123.222 175.594 123.517C175.173 123.812 174.844 124.203 174.605 124.688C174.37 125.172 174.251 125.703 174.247 126.278V126.812C174.247 127.506 174.366 128.112 174.605 128.631C174.848 129.146 175.19 129.545 175.634 129.83C176.077 130.114 176.601 130.256 177.207 130.256C177.62 130.256 177.982 130.191 178.293 130.062C178.607 129.934 178.87 129.761 179.082 129.545C179.298 129.326 179.461 129.085 179.571 128.824L180.531 129.136C180.399 129.504 180.181 129.843 179.878 130.153C179.579 130.464 179.204 130.714 178.753 130.903C178.306 131.089 177.791 131.182 177.207 131.182ZM189.413 122.273V131H188.396V122.273H189.413ZM189.038 126.585V127.551C188.694 127.676 188.366 127.782 188.055 127.869C187.745 127.953 187.432 128.017 187.118 128.062C186.807 128.108 186.476 128.131 186.124 128.131C185.143 128.127 184.372 127.875 183.811 127.375C183.254 126.875 182.976 126.114 182.976 125.091V122.244H183.987V125.091C183.987 125.576 184.074 125.972 184.249 126.278C184.423 126.585 184.669 126.812 184.987 126.96C185.305 127.104 185.68 127.176 186.112 127.176C186.643 127.176 187.143 127.123 187.612 127.017C188.082 126.911 188.557 126.767 189.038 126.585ZM195.629 131.182C194.815 131.182 194.11 130.992 193.516 130.614C192.921 130.231 192.461 129.703 192.135 129.028C191.813 128.35 191.652 127.57 191.652 126.688C191.652 125.809 191.813 125.028 192.135 124.347C192.461 123.661 192.91 123.125 193.482 122.739C194.057 122.348 194.722 122.153 195.476 122.153C195.949 122.153 196.406 122.241 196.845 122.415C197.285 122.585 197.679 122.848 198.027 123.205C198.379 123.557 198.658 124.002 198.862 124.54C199.067 125.074 199.169 125.706 199.169 126.438V126.938H192.351V126.045H198.135C198.135 125.485 198.021 124.981 197.794 124.534C197.571 124.083 197.258 123.727 196.857 123.466C196.459 123.205 195.999 123.074 195.476 123.074C194.923 123.074 194.436 123.222 194.016 123.517C193.595 123.812 193.266 124.203 193.027 124.688C192.792 125.172 192.673 125.703 192.669 126.278V126.812C192.669 127.506 192.788 128.112 193.027 128.631C193.269 129.146 193.612 129.545 194.055 129.83C194.499 130.114 195.023 130.256 195.629 130.256C196.042 130.256 196.404 130.191 196.714 130.062C197.029 129.934 197.292 129.761 197.504 129.545C197.72 129.326 197.883 129.085 197.993 128.824L198.953 129.136C198.821 129.504 198.603 129.843 198.3 130.153C198 130.464 197.625 130.714 197.175 130.903C196.728 131.089 196.213 131.182 195.629 131.182ZM207.29 126.165V127.119H202.159V126.165H207.29ZM202.409 122.273V131H201.398V122.273H202.409ZM208.034 122.273V131H207.023V122.273H208.034ZM211.578 125.642H214.135C215.116 125.642 215.874 125.881 216.408 126.358C216.942 126.835 217.209 127.481 217.209 128.295C217.209 128.837 217.088 129.311 216.845 129.716C216.607 130.121 216.258 130.437 215.8 130.665C215.341 130.888 214.786 131 214.135 131H210.737V122.273H211.754V130.045H214.135C214.752 130.045 215.249 129.898 215.624 129.602C216.002 129.307 216.192 128.886 216.192 128.341C216.192 127.784 216.002 127.354 215.624 127.051C215.249 126.748 214.752 126.597 214.135 126.597H211.578V125.642ZM218.68 131V122.273H219.692V131H218.68ZM37.0227 159.977V145.364H38.0398V159.977H37.0227ZM37.0227 157.182C36.4205 157.182 35.8674 157.072 35.3636 156.852C34.8598 156.633 34.4223 156.322 34.0511 155.92C33.6837 155.515 33.3977 155.038 33.1932 154.489C32.9886 153.939 32.8864 153.337 32.8864 152.682C32.8864 152.019 32.9886 151.411 33.1932 150.858C33.3977 150.305 33.6837 149.828 34.0511 149.426C34.4223 149.025 34.8598 148.714 35.3636 148.494C35.8674 148.271 36.4205 148.159 37.0227 148.159H37.3239V157.182H37.0227ZM37.0227 156.256H37.1875V149.085H37.0227C36.5341 149.085 36.0966 149.182 35.7102 149.375C35.3239 149.564 34.9962 149.826 34.7273 150.159C34.4583 150.492 34.2538 150.875 34.1136 151.307C33.9735 151.739 33.9034 152.197 33.9034 152.682C33.9034 153.326 34.0265 153.919 34.2727 154.46C34.5227 155.002 34.8807 155.437 35.3466 155.767C35.8125 156.097 36.3712 156.259 37.0227 156.256ZM38.0398 157.182H37.733V148.159H38.0398C38.6383 148.159 39.1894 148.271 39.6932 148.494C40.2008 148.714 40.6383 149.025 41.0057 149.426C41.3769 149.828 41.6648 150.305 41.8693 150.858C42.0739 151.411 42.1761 152.019 42.1761 152.682C42.1761 153.337 42.0739 153.939 41.8693 154.489C41.6648 155.038 41.3769 155.515 41.0057 155.92C40.6383 156.322 40.2008 156.633 39.6932 156.852C39.1894 157.072 38.6383 157.182 38.0398 157.182ZM38.0398 156.256C38.5284 156.256 38.964 156.163 39.3466 155.977C39.733 155.788 40.0606 155.527 40.3295 155.193C40.6023 154.86 40.8087 154.479 40.9489 154.051C41.089 153.619 41.1591 153.163 41.1591 152.682C41.1591 152.038 41.0341 151.443 40.7841 150.898C40.5379 150.352 40.1818 149.915 39.7159 149.585C39.25 149.252 38.6913 149.085 38.0398 149.085H37.8693V156.256H38.0398ZM45.4091 155.562L50.017 148.273H51.2273V157H50.2159V149.71L45.625 157H44.3977V148.273H45.4091V155.562ZM53.8977 160.273V148.273H54.8807V149.938H55C55.1212 149.676 55.2879 149.409 55.5 149.136C55.7121 148.86 55.9924 148.627 56.3409 148.438C56.6932 148.248 57.1364 148.153 57.6705 148.153C58.3902 148.153 59.0189 148.343 59.5568 148.722C60.0985 149.097 60.5189 149.623 60.8182 150.301C61.1212 150.975 61.2727 151.761 61.2727 152.659C61.2727 153.561 61.1212 154.35 60.8182 155.028C60.5189 155.706 60.0985 156.235 59.5568 156.614C59.0189 156.992 58.3939 157.182 57.6818 157.182C57.1553 157.182 56.714 157.087 56.358 156.898C56.0057 156.708 55.7197 156.475 55.5 156.199C55.2841 155.919 55.1174 155.646 55 155.381H54.9091V160.273H53.8977ZM54.8977 152.642C54.8977 153.347 55.0019 153.972 55.2102 154.517C55.4223 155.059 55.7254 155.485 56.1193 155.795C56.517 156.102 56.9981 156.256 57.5625 156.256C58.142 156.256 58.6307 156.097 59.0284 155.778C59.4299 155.456 59.7348 155.023 59.9432 154.477C60.1553 153.932 60.2614 153.32 60.2614 152.642C60.2614 151.972 60.1572 151.367 59.9489 150.83C59.7443 150.292 59.4413 149.866 59.0398 149.551C58.6383 149.233 58.1458 149.074 57.5625 149.074C56.9943 149.074 56.5114 149.227 56.1136 149.534C55.7159 149.837 55.4129 150.258 55.2045 150.795C55 151.33 54.8977 151.945 54.8977 152.642ZM68.054 155.585L71.3324 148.273H72.3153L68.4574 157H67.6506L63.8381 148.273H64.804L68.054 155.585ZM64.5028 148.273V157H63.4915V148.273H64.5028ZM71.6051 157V148.273H72.6165V157H71.6051ZM78.8324 157.182C78.018 157.182 77.3134 156.992 76.7188 156.614C76.1241 156.231 75.6638 155.703 75.3381 155.028C75.0161 154.35 74.8551 153.57 74.8551 152.688C74.8551 151.809 75.0161 151.028 75.3381 150.347C75.6638 149.661 76.1127 149.125 76.6847 148.739C77.2604 148.348 77.9252 148.153 78.679 148.153C79.1525 148.153 79.6089 148.241 80.0483 148.415C80.4877 148.585 80.8816 148.848 81.2301 149.205C81.5824 149.557 81.8608 150.002 82.0653 150.54C82.2699 151.074 82.3722 151.706 82.3722 152.438V152.938H75.554V152.045H81.3381C81.3381 151.485 81.2244 150.981 80.9972 150.534C80.7737 150.083 80.4612 149.727 80.0597 149.466C79.6619 149.205 79.2017 149.074 78.679 149.074C78.1259 149.074 77.6392 149.222 77.2188 149.517C76.7983 149.812 76.4688 150.203 76.2301 150.688C75.9953 151.172 75.8759 151.703 75.8722 152.278V152.812C75.8722 153.506 75.9915 154.112 76.2301 154.631C76.4725 155.146 76.8153 155.545 77.2585 155.83C77.7017 156.114 78.2263 156.256 78.8324 156.256C79.2453 156.256 79.607 156.191 79.9176 156.062C80.232 155.934 80.4953 155.761 80.7074 155.545C80.9233 155.326 81.0862 155.085 81.196 154.824L82.1562 155.136C82.0237 155.504 81.8059 155.843 81.5028 156.153C81.2036 156.464 80.8286 156.714 80.3778 156.903C79.9309 157.089 79.4157 157.182 78.8324 157.182ZM90.4929 152.165V153.119H85.3622V152.165H90.4929ZM85.6122 148.273V157H84.6009V148.273H85.6122ZM91.2372 148.273V157H90.2259V148.273H91.2372ZM99.821 152.165V153.119H94.6903V152.165H99.821ZM94.9403 148.273V157H93.929V148.273H94.9403ZM100.565 148.273V157H99.554V148.273H100.565ZM106.649 157.182C105.895 157.182 105.229 156.991 104.649 156.608C104.073 156.225 103.623 155.697 103.297 155.023C102.971 154.345 102.808 153.562 102.808 152.676C102.808 151.782 102.971 150.996 103.297 150.318C103.623 149.636 104.073 149.106 104.649 148.727C105.229 148.345 105.895 148.153 106.649 148.153C107.403 148.153 108.068 148.345 108.643 148.727C109.219 149.11 109.67 149.64 109.996 150.318C110.325 150.996 110.49 151.782 110.49 152.676C110.49 153.562 110.327 154.345 110.001 155.023C109.676 155.697 109.223 156.225 108.643 156.608C108.068 156.991 107.403 157.182 106.649 157.182ZM106.649 156.256C107.255 156.256 107.768 156.093 108.189 155.767C108.609 155.441 108.928 155.008 109.143 154.466C109.363 153.924 109.473 153.328 109.473 152.676C109.473 152.025 109.363 151.426 109.143 150.881C108.928 150.335 108.609 149.898 108.189 149.568C107.768 149.239 107.255 149.074 106.649 149.074C106.047 149.074 105.534 149.239 105.109 149.568C104.689 149.898 104.369 150.335 104.149 150.881C103.933 151.426 103.825 152.025 103.825 152.676C103.825 153.328 103.933 153.924 104.149 154.466C104.369 155.008 104.689 155.441 105.109 155.767C105.53 156.093 106.043 156.256 106.649 156.256ZM113.722 155.562L118.33 148.273H119.54V157H118.528V149.71L113.938 157H112.71V148.273H113.722V155.562ZM117.17 145.364H118.125C118.125 145.905 117.945 146.345 117.585 146.682C117.229 147.019 116.742 147.188 116.125 147.188C115.515 147.188 115.032 147.019 114.676 146.682C114.32 146.345 114.142 145.905 114.142 145.364H115.097C115.097 145.659 115.176 145.909 115.335 146.114C115.498 146.314 115.761 146.415 116.125 146.415C116.489 146.415 116.754 146.314 116.92 146.114C117.087 145.909 117.17 145.659 117.17 145.364ZM131.898 148.273V149.227H127.722V157H126.71V148.273H131.898ZM136.007 157.199C135.481 157.199 135 157.097 134.564 156.892C134.128 156.684 133.782 156.384 133.524 155.994C133.267 155.6 133.138 155.123 133.138 154.562C133.138 154.131 133.219 153.767 133.382 153.472C133.545 153.176 133.776 152.934 134.075 152.744C134.375 152.555 134.729 152.405 135.138 152.295C135.547 152.186 135.998 152.1 136.49 152.04C136.979 151.979 137.392 151.926 137.729 151.881C138.07 151.835 138.329 151.763 138.507 151.665C138.685 151.566 138.774 151.407 138.774 151.188V150.983C138.774 150.388 138.596 149.92 138.24 149.58C137.888 149.235 137.38 149.062 136.717 149.062C136.089 149.062 135.575 149.201 135.178 149.477C134.784 149.754 134.507 150.08 134.348 150.455L133.388 150.108C133.585 149.631 133.857 149.25 134.206 148.966C134.554 148.678 134.945 148.472 135.376 148.347C135.808 148.218 136.246 148.153 136.689 148.153C137.022 148.153 137.369 148.197 137.729 148.284C138.092 148.371 138.429 148.523 138.74 148.739C139.051 148.951 139.303 149.248 139.496 149.631C139.689 150.009 139.786 150.491 139.786 151.074V157H138.774V155.619H138.712C138.59 155.877 138.411 156.127 138.172 156.369C137.933 156.612 137.634 156.811 137.274 156.966C136.914 157.121 136.492 157.199 136.007 157.199ZM136.143 156.273C136.681 156.273 137.147 156.153 137.541 155.915C137.935 155.676 138.238 155.36 138.45 154.966C138.666 154.568 138.774 154.131 138.774 153.653V152.392C138.698 152.464 138.571 152.528 138.393 152.585C138.219 152.642 138.017 152.693 137.786 152.739C137.558 152.78 137.331 152.816 137.104 152.847C136.876 152.877 136.672 152.903 136.49 152.926C135.998 152.987 135.577 153.081 135.229 153.21C134.88 153.339 134.613 153.517 134.428 153.744C134.242 153.968 134.149 154.256 134.149 154.608C134.149 155.138 134.339 155.549 134.717 155.841C135.096 156.129 135.571 156.273 136.143 156.273ZM142.476 160.273V148.273H143.459V149.938H143.578C143.699 149.676 143.866 149.409 144.078 149.136C144.29 148.86 144.571 148.627 144.919 148.438C145.271 148.248 145.714 148.153 146.249 148.153C146.968 148.153 147.597 148.343 148.135 148.722C148.677 149.097 149.097 149.623 149.396 150.301C149.699 150.975 149.851 151.761 149.851 152.659C149.851 153.561 149.699 154.35 149.396 155.028C149.097 155.706 148.677 156.235 148.135 156.614C147.597 156.992 146.972 157.182 146.26 157.182C145.733 157.182 145.292 157.087 144.936 156.898C144.584 156.708 144.298 156.475 144.078 156.199C143.862 155.919 143.696 155.646 143.578 155.381H143.487V160.273H142.476ZM143.476 152.642C143.476 153.347 143.58 153.972 143.788 154.517C144 155.059 144.304 155.485 144.697 155.795C145.095 156.102 145.576 156.256 146.141 156.256C146.72 156.256 147.209 156.097 147.607 155.778C148.008 155.456 148.313 155.023 148.521 154.477C148.733 153.932 148.839 153.32 148.839 152.642C148.839 151.972 148.735 151.367 148.527 150.83C148.322 150.292 148.019 149.866 147.618 149.551C147.216 149.233 146.724 149.074 146.141 149.074C145.572 149.074 145.089 149.227 144.692 149.534C144.294 149.837 143.991 150.258 143.783 150.795C143.578 151.33 143.476 151.945 143.476 152.642ZM154.507 157.199C153.981 157.199 153.5 157.097 153.064 156.892C152.628 156.684 152.282 156.384 152.024 155.994C151.767 155.6 151.638 155.123 151.638 154.562C151.638 154.131 151.719 153.767 151.882 153.472C152.045 153.176 152.276 152.934 152.575 152.744C152.875 152.555 153.229 152.405 153.638 152.295C154.047 152.186 154.498 152.1 154.99 152.04C155.479 151.979 155.892 151.926 156.229 151.881C156.57 151.835 156.829 151.763 157.007 151.665C157.185 151.566 157.274 151.407 157.274 151.188V150.983C157.274 150.388 157.096 149.92 156.74 149.58C156.388 149.235 155.88 149.062 155.217 149.062C154.589 149.062 154.075 149.201 153.678 149.477C153.284 149.754 153.007 150.08 152.848 150.455L151.888 150.108C152.085 149.631 152.357 149.25 152.706 148.966C153.054 148.678 153.445 148.472 153.876 148.347C154.308 148.218 154.746 148.153 155.189 148.153C155.522 148.153 155.869 148.197 156.229 148.284C156.592 148.371 156.929 148.523 157.24 148.739C157.551 148.951 157.803 149.248 157.996 149.631C158.189 150.009 158.286 150.491 158.286 151.074V157H157.274V155.619H157.212C157.09 155.877 156.911 156.127 156.672 156.369C156.433 156.612 156.134 156.811 155.774 156.966C155.414 157.121 154.992 157.199 154.507 157.199ZM154.643 156.273C155.181 156.273 155.647 156.153 156.041 155.915C156.435 155.676 156.738 155.36 156.95 154.966C157.166 154.568 157.274 154.131 157.274 153.653V152.392C157.198 152.464 157.071 152.528 156.893 152.585C156.719 152.642 156.517 152.693 156.286 152.739C156.058 152.78 155.831 152.816 155.604 152.847C155.376 152.877 155.172 152.903 154.99 152.926C154.498 152.987 154.077 153.081 153.729 153.21C153.38 153.339 153.113 153.517 152.928 153.744C152.742 153.968 152.649 154.256 152.649 154.608C152.649 155.138 152.839 155.549 153.217 155.841C153.596 156.129 154.071 156.273 154.643 156.273ZM166.868 152.165V153.119H161.737V152.165H166.868ZM161.987 148.273V157H160.976V148.273H161.987ZM167.612 148.273V157H166.601V148.273H167.612ZM169.082 149.227V148.273H175.901V149.227H173.014V157H172.003V149.227H169.082ZM179.05 155.562L183.658 148.273H184.868V157H183.857V149.71L179.266 157H178.038V148.273H179.05V155.562ZM191.067 157.182C190.252 157.182 189.548 156.992 188.953 156.614C188.358 156.231 187.898 155.703 187.572 155.028C187.25 154.35 187.089 153.57 187.089 152.688C187.089 151.809 187.25 151.028 187.572 150.347C187.898 149.661 188.347 149.125 188.919 148.739C189.495 148.348 190.16 148.153 190.913 148.153C191.387 148.153 191.843 148.241 192.283 148.415C192.722 148.585 193.116 148.848 193.464 149.205C193.817 149.557 194.095 150.002 194.3 150.54C194.504 151.074 194.607 151.706 194.607 152.438V152.938H187.788V152.045H193.572C193.572 151.485 193.459 150.981 193.232 150.534C193.008 150.083 192.696 149.727 192.294 149.466C191.896 149.205 191.436 149.074 190.913 149.074C190.36 149.074 189.874 149.222 189.453 149.517C189.033 149.812 188.703 150.203 188.464 150.688C188.23 151.172 188.11 151.703 188.107 152.278V152.812C188.107 153.506 188.226 154.112 188.464 154.631C188.707 155.146 189.05 155.545 189.493 155.83C189.936 156.114 190.461 156.256 191.067 156.256C191.48 156.256 191.841 156.191 192.152 156.062C192.466 155.934 192.73 155.761 192.942 155.545C193.158 155.326 193.321 155.085 193.43 154.824L194.391 155.136C194.258 155.504 194.04 155.843 193.737 156.153C193.438 156.464 193.063 156.714 192.612 156.903C192.165 157.089 191.65 157.182 191.067 157.182ZM197.847 155.562L202.455 148.273H203.665V157H202.653V149.71L198.062 157H196.835V148.273H197.847V155.562ZM201.295 145.364H202.25C202.25 145.905 202.07 146.345 201.71 146.682C201.354 147.019 200.867 147.188 200.25 147.188C199.64 147.188 199.157 147.019 198.801 146.682C198.445 146.345 198.267 145.905 198.267 145.364H199.222C199.222 145.659 199.301 145.909 199.46 146.114C199.623 146.314 199.886 146.415 200.25 146.415C200.614 146.415 200.879 146.314 201.045 146.114C201.212 145.909 201.295 145.659 201.295 145.364ZM37.0227 185.977V171.364H38.0398V185.977H37.0227ZM37.0227 183.182C36.4205 183.182 35.8674 183.072 35.3636 182.852C34.8598 182.633 34.4223 182.322 34.0511 181.92C33.6837 181.515 33.3977 181.038 33.1932 180.489C32.9886 179.939 32.8864 179.337 32.8864 178.682C32.8864 178.019 32.9886 177.411 33.1932 176.858C33.3977 176.305 33.6837 175.828 34.0511 175.426C34.4223 175.025 34.8598 174.714 35.3636 174.494C35.8674 174.271 36.4205 174.159 37.0227 174.159H37.3239V183.182H37.0227ZM37.0227 182.256H37.1875V175.085H37.0227C36.5341 175.085 36.0966 175.182 35.7102 175.375C35.3239 175.564 34.9962 175.826 34.7273 176.159C34.4583 176.492 34.2538 176.875 34.1136 177.307C33.9735 177.739 33.9034 178.197 33.9034 178.682C33.9034 179.326 34.0265 179.919 34.2727 180.46C34.5227 181.002 34.8807 181.437 35.3466 181.767C35.8125 182.097 36.3712 182.259 37.0227 182.256ZM38.0398 183.182H37.733V174.159H38.0398C38.6383 174.159 39.1894 174.271 39.6932 174.494C40.2008 174.714 40.6383 175.025 41.0057 175.426C41.3769 175.828 41.6648 176.305 41.8693 176.858C42.0739 177.411 42.1761 178.019 42.1761 178.682C42.1761 179.337 42.0739 179.939 41.8693 180.489C41.6648 181.038 41.3769 181.515 41.0057 181.92C40.6383 182.322 40.2008 182.633 39.6932 182.852C39.1894 183.072 38.6383 183.182 38.0398 183.182ZM38.0398 182.256C38.5284 182.256 38.964 182.163 39.3466 181.977C39.733 181.788 40.0606 181.527 40.3295 181.193C40.6023 180.86 40.8087 180.479 40.9489 180.051C41.089 179.619 41.1591 179.163 41.1591 178.682C41.1591 178.038 41.0341 177.443 40.7841 176.898C40.5379 176.352 40.1818 175.915 39.7159 175.585C39.25 175.252 38.6913 175.085 38.0398 175.085H37.8693V182.256H38.0398ZM45.4091 181.562L50.017 174.273H51.2273V183H50.2159V175.71L45.625 183H44.3977V174.273H45.4091V181.562ZM53.8977 186.273V174.273H54.8807V175.938H55C55.1212 175.676 55.2879 175.409 55.5 175.136C55.7121 174.86 55.9924 174.627 56.3409 174.438C56.6932 174.248 57.1364 174.153 57.6705 174.153C58.3902 174.153 59.0189 174.343 59.5568 174.722C60.0985 175.097 60.5189 175.623 60.8182 176.301C61.1212 176.975 61.2727 177.761 61.2727 178.659C61.2727 179.561 61.1212 180.35 60.8182 181.028C60.5189 181.706 60.0985 182.235 59.5568 182.614C59.0189 182.992 58.3939 183.182 57.6818 183.182C57.1553 183.182 56.714 183.087 56.358 182.898C56.0057 182.708 55.7197 182.475 55.5 182.199C55.2841 181.919 55.1174 181.646 55 181.381H54.9091V186.273H53.8977ZM54.8977 178.642C54.8977 179.347 55.0019 179.972 55.2102 180.517C55.4223 181.059 55.7254 181.485 56.1193 181.795C56.517 182.102 56.9981 182.256 57.5625 182.256C58.142 182.256 58.6307 182.097 59.0284 181.778C59.4299 181.456 59.7348 181.023 59.9432 180.477C60.1553 179.932 60.2614 179.32 60.2614 178.642C60.2614 177.972 60.1572 177.367 59.9489 176.83C59.7443 176.292 59.4413 175.866 59.0398 175.551C58.6383 175.233 58.1458 175.074 57.5625 175.074C56.9943 175.074 56.5114 175.227 56.1136 175.534C55.7159 175.837 55.4129 176.258 55.2045 176.795C55 177.33 54.8977 177.945 54.8977 178.642ZM68.054 181.585L71.3324 174.273H72.3153L68.4574 183H67.6506L63.8381 174.273H64.804L68.054 181.585ZM64.5028 174.273V183H63.4915V174.273H64.5028ZM71.6051 183V174.273H72.6165V183H71.6051ZM80.0142 177.534V178.489H75.1733V177.534H80.0142ZM82.5653 183V174.273H89.1733V183H88.1562V175.227H83.5824V183H82.5653ZM91.8509 186.273V174.273H92.8338V175.938H92.9531C93.0743 175.676 93.241 175.409 93.4531 175.136C93.6652 174.86 93.9455 174.627 94.294 174.438C94.6463 174.248 95.0895 174.153 95.6236 174.153C96.3433 174.153 96.9721 174.343 97.5099 174.722C98.0516 175.097 98.4721 175.623 98.7713 176.301C99.0743 176.975 99.2259 177.761 99.2259 178.659C99.2259 179.561 99.0743 180.35 98.7713 181.028C98.4721 181.706 98.0516 182.235 97.5099 182.614C96.9721 182.992 96.3471 183.182 95.6349 183.182C95.1084 183.182 94.6671 183.087 94.3111 182.898C93.9588 182.708 93.6728 182.475 93.4531 182.199C93.2372 181.919 93.0705 181.646 92.9531 181.381H92.8622V186.273H91.8509ZM92.8509 178.642C92.8509 179.347 92.955 179.972 93.1634 180.517C93.3755 181.059 93.6785 181.485 94.0724 181.795C94.4702 182.102 94.9512 182.256 95.5156 182.256C96.0952 182.256 96.5838 182.097 96.9815 181.778C97.383 181.456 97.688 181.023 97.8963 180.477C98.1084 179.932 98.2145 179.32 98.2145 178.642C98.2145 177.972 98.1103 177.367 97.902 176.83C97.6974 176.292 97.3944 175.866 96.9929 175.551C96.5914 175.233 96.099 175.074 95.5156 175.074C94.9474 175.074 94.4645 175.227 94.0668 175.534C93.669 175.837 93.366 176.258 93.1577 176.795C92.9531 177.33 92.8509 177.945 92.8509 178.642ZM104.837 183.182C104.083 183.182 103.416 182.991 102.837 182.608C102.261 182.225 101.81 181.697 101.484 181.023C101.159 180.345 100.996 179.562 100.996 178.676C100.996 177.782 101.159 176.996 101.484 176.318C101.81 175.636 102.261 175.106 102.837 174.727C103.416 174.345 104.083 174.153 104.837 174.153C105.59 174.153 106.255 174.345 106.831 174.727C107.407 175.11 107.857 175.64 108.183 176.318C108.513 176.996 108.678 177.782 108.678 178.676C108.678 179.562 108.515 180.345 108.189 181.023C107.863 181.697 107.411 182.225 106.831 182.608C106.255 182.991 105.59 183.182 104.837 183.182ZM104.837 182.256C105.443 182.256 105.956 182.093 106.376 181.767C106.797 181.441 107.115 181.008 107.331 180.466C107.551 179.924 107.661 179.328 107.661 178.676C107.661 178.025 107.551 177.426 107.331 176.881C107.115 176.335 106.797 175.898 106.376 175.568C105.956 175.239 105.443 175.074 104.837 175.074C104.234 175.074 103.721 175.239 103.297 175.568C102.876 175.898 102.556 176.335 102.337 176.881C102.121 177.426 102.013 178.025 102.013 178.676C102.013 179.328 102.121 179.924 102.337 180.466C102.556 181.008 102.876 181.441 103.297 181.767C103.717 182.093 104.231 182.256 104.837 182.256ZM111.909 181.562L116.517 174.273H117.727V183H116.716V175.71L112.125 183H110.898V174.273H111.909V181.562ZM119.835 180.773H120.909C120.939 181.239 121.14 181.602 121.511 181.864C121.883 182.125 122.371 182.256 122.977 182.256C123.606 182.256 124.125 182.116 124.534 181.835C124.943 181.551 125.148 181.138 125.148 180.597C125.148 180.267 125.07 179.981 124.915 179.739C124.763 179.496 124.555 179.307 124.29 179.17C124.028 179.03 123.731 178.958 123.398 178.955H121.875V178.028H123.381C123.9 177.998 124.294 177.858 124.562 177.608C124.831 177.354 124.966 177.023 124.966 176.614C124.966 176.148 124.801 175.775 124.472 175.494C124.142 175.21 123.695 175.068 123.131 175.068C122.559 175.068 122.083 175.208 121.705 175.489C121.326 175.769 121.125 176.129 121.102 176.568H120.04C120.059 176.095 120.201 175.678 120.466 175.318C120.731 174.955 121.089 174.67 121.54 174.466C121.994 174.261 122.509 174.159 123.085 174.159C123.676 174.159 124.189 174.265 124.625 174.477C125.061 174.689 125.398 174.979 125.636 175.347C125.875 175.71 125.994 176.123 125.994 176.585C125.994 177.066 125.862 177.462 125.597 177.773C125.335 178.08 125 178.295 124.591 178.42V178.506C124.902 178.54 125.174 178.653 125.409 178.847C125.648 179.04 125.835 179.288 125.972 179.591C126.108 179.894 126.176 180.229 126.176 180.597C126.176 181.112 126.042 181.564 125.773 181.955C125.504 182.341 125.129 182.642 124.648 182.858C124.17 183.074 123.619 183.182 122.994 183.182C122.392 183.182 121.856 183.081 121.386 182.881C120.917 182.676 120.544 182.394 120.267 182.034C119.994 181.67 119.85 181.25 119.835 180.773ZM128.257 183V174.273H131.695C132.623 174.273 133.354 174.473 133.888 174.875C134.426 175.277 134.695 175.818 134.695 176.5C134.695 177.019 134.545 177.434 134.246 177.744C133.946 178.055 133.545 178.275 133.041 178.403C133.378 178.46 133.691 178.583 133.979 178.773C134.27 178.962 134.507 179.212 134.689 179.523C134.871 179.833 134.962 180.205 134.962 180.636C134.962 181.091 134.848 181.496 134.621 181.852C134.393 182.208 134.073 182.489 133.661 182.693C133.248 182.898 132.759 183 132.195 183H128.257ZM129.223 182.062H132.195C132.729 182.062 133.151 181.926 133.462 181.653C133.772 181.377 133.928 181.009 133.928 180.551C133.928 180.062 133.78 179.672 133.484 179.381C133.193 179.085 132.801 178.938 132.308 178.938H129.223V182.062ZM129.223 178.04H131.757C132.151 178.04 132.492 177.979 132.78 177.858C133.068 177.737 133.289 177.566 133.445 177.347C133.604 177.123 133.681 176.862 133.678 176.562C133.678 176.134 133.503 175.803 133.155 175.568C132.806 175.33 132.32 175.21 131.695 175.21H129.223V178.04ZM140.571 183.182C139.817 183.182 139.151 182.991 138.571 182.608C137.995 182.225 137.545 181.697 137.219 181.023C136.893 180.345 136.73 179.562 136.73 178.676C136.73 177.782 136.893 176.996 137.219 176.318C137.545 175.636 137.995 175.106 138.571 174.727C139.151 174.345 139.817 174.153 140.571 174.153C141.325 174.153 141.99 174.345 142.565 174.727C143.141 175.11 143.592 175.64 143.918 176.318C144.247 176.996 144.412 177.782 144.412 178.676C144.412 179.562 144.249 180.345 143.923 181.023C143.598 181.697 143.145 182.225 142.565 182.608C141.99 182.991 141.325 183.182 140.571 183.182ZM140.571 182.256C141.177 182.256 141.69 182.093 142.111 181.767C142.531 181.441 142.849 181.008 143.065 180.466C143.285 179.924 143.395 179.328 143.395 178.676C143.395 178.025 143.285 177.426 143.065 176.881C142.849 176.335 142.531 175.898 142.111 175.568C141.69 175.239 141.177 175.074 140.571 175.074C139.969 175.074 139.455 175.239 139.031 175.568C138.611 175.898 138.291 176.335 138.071 176.881C137.855 177.426 137.747 178.025 137.747 178.676C137.747 179.328 137.855 179.924 138.071 180.466C138.291 181.008 138.611 181.441 139.031 181.767C139.452 182.093 139.965 182.256 140.571 182.256ZM145.598 185.483V182.045H146.354C146.543 181.833 146.708 181.604 146.848 181.358C146.988 181.112 147.109 180.831 147.212 180.517C147.318 180.199 147.407 179.83 147.479 179.409C147.551 178.985 147.611 178.491 147.661 177.926L147.979 174.273H153.143V182.045H154.439V185.483H153.428V183H146.615V185.483H145.598ZM147.518 182.045H152.132V175.227H148.922L148.661 177.926C148.57 178.843 148.441 179.642 148.274 180.324C148.107 181.006 147.856 181.58 147.518 182.045ZM157.378 181.562L161.986 174.273H163.196V183H162.185V175.71L157.594 183H156.366V174.273H157.378V181.562ZM164.645 175.227V174.273H171.463V175.227H168.577V183H167.565V175.227H164.645ZM176.676 183.182C175.862 183.182 175.157 182.992 174.562 182.614C173.968 182.231 173.508 181.703 173.182 181.028C172.86 180.35 172.699 179.57 172.699 178.688C172.699 177.809 172.86 177.028 173.182 176.347C173.508 175.661 173.956 175.125 174.528 174.739C175.104 174.348 175.769 174.153 176.523 174.153C176.996 174.153 177.453 174.241 177.892 174.415C178.331 174.585 178.725 174.848 179.074 175.205C179.426 175.557 179.705 176.002 179.909 176.54C180.114 177.074 180.216 177.706 180.216 178.438V178.938H173.398V178.045H179.182C179.182 177.485 179.068 176.981 178.841 176.534C178.617 176.083 178.305 175.727 177.903 175.466C177.506 175.205 177.045 175.074 176.523 175.074C175.97 175.074 175.483 175.222 175.062 175.517C174.642 175.812 174.313 176.203 174.074 176.688C173.839 177.172 173.72 177.703 173.716 178.278V178.812C173.716 179.506 173.835 180.112 174.074 180.631C174.316 181.146 174.659 181.545 175.102 181.83C175.545 182.114 176.07 182.256 176.676 182.256C177.089 182.256 177.451 182.191 177.761 182.062C178.076 181.934 178.339 181.761 178.551 181.545C178.767 181.326 178.93 181.085 179.04 180.824L180 181.136C179.867 181.504 179.65 181.843 179.347 182.153C179.047 182.464 178.672 182.714 178.222 182.903C177.775 183.089 177.259 183.182 176.676 183.182ZM181.587 183V182.045H181.859C182.17 182.045 182.42 181.989 182.609 181.875C182.803 181.758 182.952 181.561 183.058 181.284C183.164 181.008 183.244 180.631 183.297 180.153C183.35 179.676 183.392 179.078 183.422 178.358L183.609 174.273H189.155V183H188.138V175.227H184.57L184.405 178.699C184.371 179.407 184.314 180.03 184.234 180.568C184.159 181.106 184.034 181.555 183.859 181.915C183.689 182.275 183.45 182.545 183.143 182.727C182.84 182.909 182.443 183 181.95 183H181.587ZM195.364 183.182C194.549 183.182 193.845 182.992 193.25 182.614C192.655 182.231 192.195 181.703 191.869 181.028C191.547 180.35 191.386 179.57 191.386 178.688C191.386 177.809 191.547 177.028 191.869 176.347C192.195 175.661 192.644 175.125 193.216 174.739C193.792 174.348 194.456 174.153 195.21 174.153C195.684 174.153 196.14 174.241 196.58 174.415C197.019 174.585 197.413 174.848 197.761 175.205C198.114 175.557 198.392 176.002 198.597 176.54C198.801 177.074 198.903 177.706 198.903 178.438V178.938H192.085V178.045H197.869C197.869 177.485 197.756 176.981 197.528 176.534C197.305 176.083 196.992 175.727 196.591 175.466C196.193 175.205 195.733 175.074 195.21 175.074C194.657 175.074 194.17 175.222 193.75 175.517C193.33 175.812 193 176.203 192.761 176.688C192.527 177.172 192.407 177.703 192.403 178.278V178.812C192.403 179.506 192.523 180.112 192.761 180.631C193.004 181.146 193.347 181.545 193.79 181.83C194.233 182.114 194.758 182.256 195.364 182.256C195.777 182.256 196.138 182.191 196.449 182.062C196.763 181.934 197.027 181.761 197.239 181.545C197.455 181.326 197.617 181.085 197.727 180.824L198.688 181.136C198.555 181.504 198.337 181.843 198.034 182.153C197.735 182.464 197.36 182.714 196.909 182.903C196.462 183.089 195.947 183.182 195.364 183.182ZM202.143 181.562L206.751 174.273H207.962V183H206.95V175.71L202.359 183H201.132V174.273H202.143V181.562ZM205.592 171.364H206.547C206.547 171.905 206.367 172.345 206.007 172.682C205.651 173.019 205.164 173.188 204.547 173.188C203.937 173.188 203.454 173.019 203.098 172.682C202.742 172.345 202.564 171.905 202.564 171.364H203.518C203.518 171.659 203.598 171.909 203.757 172.114C203.92 172.314 204.183 172.415 204.547 172.415C204.911 172.415 205.176 172.314 205.342 172.114C205.509 171.909 205.592 171.659 205.592 171.364Z" fill="white"/>
</svg>
