<svg width="303" height="233" viewBox="0 0 303 233" fill="none" xmlns="http://www.w3.org/2000/svg">
<rect x="0.36377" width="302" height="233" rx="10" fill="#34312D"/>
<path d="M26.0755 63.3438V61.4545H37.3326V63.3438H32.7943V76H30.6068V63.3438H26.0755ZM38.7169 80.0909V65.0909H40.7908V66.8594H40.9683C41.0914 66.6321 41.269 66.3693 41.501 66.071C41.733 65.7727 42.055 65.5123 42.4669 65.2898C42.8788 65.0625 43.4234 64.9489 44.1004 64.9489C44.9811 64.9489 45.7671 65.1714 46.4584 65.6165C47.1497 66.0616 47.6918 66.7031 48.0848 67.5412C48.4825 68.3793 48.6814 69.3878 48.6814 70.5668C48.6814 71.7457 48.4849 72.7566 48.0919 73.5994C47.6989 74.4375 47.1591 75.0838 46.4726 75.5384C45.786 75.9882 45.0024 76.2131 44.1217 76.2131C43.4589 76.2131 42.9167 76.1018 42.4953 75.8793C42.0787 75.6567 41.752 75.3963 41.5152 75.098C41.2785 74.7997 41.0962 74.5346 40.9683 74.3026H40.8405V80.0909H38.7169ZM40.7979 70.5455C40.7979 71.3125 40.9091 71.9848 41.1317 72.5625C41.3542 73.1402 41.6762 73.5923 42.0976 73.919C42.519 74.241 43.0351 74.402 43.6459 74.402C44.2804 74.402 44.8107 74.2339 45.2368 73.8977C45.6629 73.5568 45.9849 73.0952 46.2027 72.5128C46.4252 71.9304 46.5365 71.2746 46.5365 70.5455C46.5365 69.8258 46.4276 69.1795 46.2098 68.6065C45.9967 68.0336 45.6748 67.5814 45.2439 67.25C44.8178 66.9186 44.2851 66.7528 43.6459 66.7528C43.0304 66.7528 42.5095 66.9115 42.0834 67.2287C41.662 67.5459 41.3424 67.9886 41.1246 68.5568C40.9068 69.125 40.7979 69.7879 40.7979 70.5455ZM54.4354 76.2415C53.7441 76.2415 53.1191 76.1136 52.5604 75.858C52.0017 75.5975 51.559 75.2211 51.2323 74.7287C50.9103 74.2363 50.7493 73.6326 50.7493 72.9176C50.7493 72.3021 50.8677 71.7955 51.1044 71.3977C51.3412 71 51.6608 70.6851 52.0632 70.4531C52.4657 70.2211 52.9155 70.0459 53.4127 69.9276C53.9098 69.8092 54.4164 69.7192 54.9325 69.6577C55.5859 69.5819 56.1162 69.5204 56.5234 69.473C56.9306 69.4209 57.2266 69.3381 57.4112 69.2244C57.5959 69.1108 57.6882 68.9261 57.6882 68.6705V68.6207C57.6882 68.0005 57.513 67.5199 57.1627 67.179C56.817 66.8381 56.3009 66.6676 55.6144 66.6676C54.8994 66.6676 54.3359 66.8262 53.924 67.1435C53.5168 67.456 53.2351 67.804 53.0788 68.1875L51.0831 67.733C51.3198 67.0701 51.6655 66.535 52.12 66.1278C52.5793 65.7159 53.1073 65.4176 53.7038 65.233C54.3004 65.0436 54.9278 64.9489 55.5859 64.9489C56.0216 64.9489 56.4832 65.0009 56.9709 65.1051C57.4633 65.2045 57.9226 65.3892 58.3487 65.6591C58.7796 65.929 59.1323 66.3149 59.407 66.8168C59.6816 67.3139 59.8189 67.9602 59.8189 68.7557V76H57.745V74.5085H57.6598C57.5225 74.7831 57.3165 75.053 57.0419 75.3182C56.7673 75.5833 56.4145 75.8035 55.9837 75.9787C55.5528 76.1539 55.0367 76.2415 54.4354 76.2415ZM54.897 74.5369C55.4841 74.5369 55.986 74.4209 56.4027 74.1889C56.8241 73.9569 57.1437 73.6539 57.3615 73.2798C57.5841 72.901 57.6953 72.4962 57.6953 72.0653V70.6591C57.6196 70.7348 57.4728 70.8059 57.255 70.8722C57.0419 70.9337 56.7981 70.9882 56.5234 71.0355C56.2488 71.0781 55.9813 71.1184 55.7209 71.1562C55.4605 71.1894 55.2427 71.2178 55.0675 71.2415C54.6555 71.2936 54.2791 71.3812 53.9382 71.5043C53.602 71.6274 53.3322 71.8049 53.1286 72.0369C52.9297 72.2642 52.8303 72.5672 52.8303 72.946C52.8303 73.4716 53.0244 73.8693 53.4127 74.1392C53.8009 74.4044 54.2957 74.5369 54.897 74.5369ZM70.2408 69.6293V71.4688H64.3318V69.6293H70.2408ZM64.9283 65.0909V76H62.8474V65.0909H64.9283ZM71.7252 65.0909V76H69.6514V65.0909H71.7252ZM79.3613 76.2202C78.3054 76.2202 77.3963 75.9811 76.634 75.5028C75.8765 75.0199 75.2941 74.3546 74.8869 73.5071C74.4797 72.6596 74.2761 71.6889 74.2761 70.5952C74.2761 69.4872 74.4844 68.5095 74.9011 67.6619C75.3177 66.8097 75.9049 66.1444 76.6624 65.6662C77.42 65.188 78.3125 64.9489 79.34 64.9489C80.1686 64.9489 80.9072 65.1027 81.5559 65.4105C82.2046 65.7135 82.7278 66.1397 83.1255 66.6889C83.528 67.2382 83.7671 67.8797 83.8428 68.6136H81.7761C81.6624 68.1023 81.402 67.6619 80.9948 67.2926C80.5924 66.9233 80.0526 66.7386 79.3755 66.7386C78.7836 66.7386 78.2652 66.8949 77.8201 67.2074C77.3798 67.5152 77.0365 67.9555 76.7903 68.5284C76.5441 69.0966 76.421 69.7689 76.421 70.5455C76.421 71.3409 76.5417 72.0275 76.7832 72.6051C77.0247 73.1828 77.3656 73.6302 77.8059 73.9474C78.251 74.2647 78.7742 74.4233 79.3755 74.4233C79.778 74.4233 80.1426 74.3499 80.4693 74.2031C80.8007 74.0516 81.0777 73.8362 81.3002 73.5568C81.5275 73.2775 81.6861 72.9413 81.7761 72.5483H83.8428C83.7671 73.2538 83.5374 73.8835 83.1539 74.4375C82.7704 74.9915 82.2567 75.4271 81.6127 75.7443C80.9735 76.0616 80.223 76.2202 79.3613 76.2202ZM92.4359 73.3722L95.9587 65.0909H97.7911L93.2243 76H91.6476L87.1732 65.0909H88.9842L92.4359 73.3722ZM88.3948 65.0909V76H86.3138V65.0909H88.3948ZM96.534 76V65.0909H98.6007V76H96.534ZM103.712 73.0241L108.52 65.0909H110.807V76H108.726V68.0597L103.939 76H101.631V65.0909H103.712V73.0241ZM118.457 76.2202C117.402 76.2202 116.492 75.9811 115.73 75.5028C114.973 75.0199 114.39 74.3546 113.983 73.5071C113.576 72.6596 113.372 71.6889 113.372 70.5952C113.372 69.4872 113.581 68.5095 113.997 67.6619C114.414 66.8097 115.001 66.1444 115.759 65.6662C116.516 65.188 117.409 64.9489 118.436 64.9489C119.265 64.9489 120.003 65.1027 120.652 65.4105C121.301 65.7135 121.824 66.1397 122.222 66.6889C122.624 67.2382 122.863 67.8797 122.939 68.6136H120.872C120.759 68.1023 120.498 67.6619 120.091 67.2926C119.688 66.9233 119.149 66.7386 118.472 66.7386C117.88 66.7386 117.361 66.8949 116.916 67.2074C116.476 67.5152 116.133 67.9555 115.886 68.5284C115.64 69.0966 115.517 69.7689 115.517 70.5455C115.517 71.3409 115.638 72.0275 115.879 72.6051C116.121 73.1828 116.462 73.6302 116.902 73.9474C117.347 74.2647 117.87 74.4233 118.472 74.4233C118.874 74.4233 119.239 74.3499 119.565 74.2031C119.897 74.0516 120.174 73.8362 120.396 73.5568C120.624 73.2775 120.782 72.9413 120.872 72.5483H122.939C122.863 73.2538 122.634 73.8835 122.25 74.4375C121.866 74.9915 121.353 75.4271 120.709 75.7443C120.07 76.0616 119.319 76.2202 118.457 76.2202ZM130.005 76.2202C128.949 76.2202 128.04 75.9811 127.278 75.5028C126.52 75.0199 125.938 74.3546 125.531 73.5071C125.123 72.6596 124.92 71.6889 124.92 70.5952C124.92 69.4872 125.128 68.5095 125.545 67.6619C125.961 66.8097 126.549 66.1444 127.306 65.6662C128.064 65.188 128.956 64.9489 129.984 64.9489C130.812 64.9489 131.551 65.1027 132.2 65.4105C132.848 65.7135 133.372 66.1397 133.769 66.6889C134.172 67.2382 134.411 67.8797 134.487 68.6136H132.42C132.306 68.1023 132.046 67.6619 131.639 67.2926C131.236 66.9233 130.696 66.7386 130.019 66.7386C129.427 66.7386 128.909 66.8949 128.464 67.2074C128.024 67.5152 127.68 67.9555 127.434 68.5284C127.188 69.0966 127.065 69.7689 127.065 70.5455C127.065 71.3409 127.185 72.0275 127.427 72.6051C127.668 73.1828 128.009 73.6302 128.45 73.9474C128.895 74.2647 129.418 74.4233 130.019 74.4233C130.422 74.4233 130.786 74.3499 131.113 74.2031C131.444 74.0516 131.721 73.8362 131.944 73.5568C132.171 73.2775 132.33 72.9413 132.42 72.5483H134.487C134.411 73.2538 134.181 73.8835 133.798 74.4375C133.414 74.9915 132.9 75.4271 132.256 75.7443C131.617 76.0616 130.867 76.2202 130.005 76.2202ZM139.039 73.0241L143.847 65.0909H146.134V76H144.053V68.0597L139.266 76H136.958V65.0909H139.039V73.0241ZM155.694 76V66.902H153.081C152.461 66.902 151.978 67.0464 151.632 67.3352C151.286 67.6241 151.114 68.0028 151.114 68.4716C151.114 68.9356 151.272 69.3097 151.589 69.5938C151.911 69.8731 152.361 70.0128 152.939 70.0128H156.312V71.7315H152.939C152.134 71.7315 151.438 71.599 150.851 71.3338C150.268 71.0639 149.819 70.6828 149.501 70.1903C149.189 69.6979 149.033 69.1155 149.033 68.4432C149.033 67.7566 149.194 67.1648 149.515 66.6676C149.842 66.1657 150.309 65.7775 150.915 65.5028C151.525 65.2282 152.247 65.0909 153.081 65.0909H157.69V76H155.694ZM148.535 76L151.611 70.4886H153.784L150.709 76H148.535Z" fill="white"/>
<path d="M211.238 35.0832C208.811 35.6101 206.44 37.4683 205.302 39.7287C203.541 43.2509 204.179 47.2308 206.953 50.0043C208.478 51.5297 210.156 52.3201 212.513 52.6113C215.952 53.0273 218.92 54.8439 220.57 57.5757C221.153 58.5326 221.957 60.8068 221.957 61.5002C221.957 62.1935 221.194 64.3429 220.584 65.383C219.918 66.5339 218.213 68.2396 217.062 68.9052C215.869 69.5986 214.011 70.2088 212.513 70.389C210.156 70.6802 208.478 71.4707 206.953 72.9961C203.472 76.4767 203.43 81.9959 206.869 85.4211C208.575 87.1129 210.392 87.9449 212.694 88.0836C215.204 88.2222 217.547 87.3347 219.35 85.5597C220.945 83.9927 221.735 82.3148 222.04 79.9158C222.456 76.4767 224.273 73.5091 227.005 71.8589C228.1 71.1933 230.097 70.5416 231.595 70.3613C232.26 70.2781 233.162 70.0978 233.591 69.9591C236.24 69.141 238.57 66.7974 239.43 64.0656C239.859 62.6927 239.859 60.3076 239.43 58.9347C239 57.5757 238.223 56.3138 237.169 55.2599C235.63 53.7345 233.897 52.9164 231.595 52.639C230.097 52.4588 228.1 51.807 227.005 51.1414C225.271 50.1013 223.579 48.1461 222.886 46.3849C222.484 45.4004 222.054 43.7918 222.054 43.2648C222.04 42.3634 221.61 40.8519 221.056 39.7287C219.253 36.1648 215.204 34.2373 211.238 35.0832ZM214.774 37.3019C217.353 37.9814 219.35 40.1724 219.71 42.7379C220.404 47.6468 222.456 51.0582 225.923 53.055C226.381 53.3185 226.769 53.5543 226.769 53.5959C226.769 53.6375 226.491 53.8455 226.145 54.0535C225.188 54.6636 224.259 55.565 223.649 56.4941C223.344 56.9517 223.066 57.3261 223.025 57.3261C222.983 57.3261 222.747 56.9517 222.484 56.4941C220.487 53.0273 217.076 50.975 212.167 50.2816C209.601 49.9211 207.41 47.9242 206.731 45.3449C205.497 40.6023 210.031 36.0677 214.774 37.3019ZM232.524 55.0519C236.074 55.981 238.279 59.6142 237.377 63.0949C236.698 65.6742 234.507 67.6711 231.941 68.0316C230 68.3089 228.086 68.8359 226.81 69.4738C222.761 71.4707 220.459 74.9652 219.71 80.2625C219.35 82.8279 217.353 85.0189 214.774 85.6984C210.031 86.9326 205.497 82.398 206.731 77.6554C207.41 75.0761 209.601 73.0793 212.167 72.7187C217.464 71.9699 220.958 69.6679 222.955 65.6187C223.593 64.3429 224.12 62.4293 224.398 60.4879C224.925 56.7021 228.821 54.0951 232.524 55.0519Z" fill="#4C4C4C"/>
<path d="M212.139 39.4375C210.863 39.7703 209.74 40.6855 209.158 41.8781C208.894 42.4467 208.825 42.7934 208.825 43.7502C208.811 44.8318 208.853 44.9982 209.283 45.8025C209.809 46.7732 210.253 47.1893 211.293 47.7439C211.89 48.049 212.181 48.1045 213.179 48.1045C214.178 48.1045 214.469 48.049 215.065 47.7439C216.105 47.1893 216.549 46.7732 217.076 45.8025C217.506 44.9982 217.547 44.8318 217.534 43.7502C217.534 42.7518 217.478 42.4605 217.173 41.8643C216.632 40.8242 216.202 40.3805 215.273 39.8813C214.372 39.4098 212.999 39.2018 212.139 39.4375ZM214.053 41.7256C215.481 42.3219 215.828 44.1801 214.718 45.2895C213.165 46.8564 210.614 45.4559 211.016 43.2648C211.266 41.9613 212.791 41.1848 214.053 41.7256Z" fill="#4C4C4C"/>
<path d="M229.889 57.1875C228.613 57.5203 227.49 58.4355 226.908 59.6281C226.644 60.1967 226.575 60.5434 226.575 61.5002C226.561 62.5818 226.603 62.7482 227.033 63.5525C227.559 64.5232 228.003 64.9393 229.043 65.4939C229.64 65.799 229.931 65.8545 230.929 65.8545C231.928 65.8545 232.219 65.799 232.815 65.4939C233.855 64.9393 234.299 64.5232 234.826 63.5525C235.256 62.7482 235.297 62.5818 235.284 61.5002C235.284 60.5018 235.228 60.2105 234.923 59.6143C234.382 58.5742 233.952 58.1305 233.023 57.6313C232.122 57.1598 230.749 56.9518 229.889 57.1875ZM231.803 59.4756C233.231 60.0719 233.578 61.9301 232.468 63.0395C231.567 63.9408 230.291 63.9408 229.39 63.0395C227.67 61.3338 229.57 58.5326 231.803 59.4756Z" fill="#4C4C4C"/>
<path d="M212.139 74.9375C210.863 75.2703 209.74 76.1855 209.158 77.3781C208.894 77.9467 208.825 78.2934 208.825 79.2502C208.811 80.3318 208.853 80.4982 209.283 81.3025C209.809 82.2732 210.253 82.6893 211.293 83.2439C211.89 83.549 212.181 83.6045 213.179 83.6045C214.178 83.6045 214.469 83.549 215.065 83.2439C216.105 82.6893 216.549 82.2732 217.076 81.3025C217.506 80.4982 217.547 80.3318 217.534 79.2502C217.534 78.2518 217.478 77.9605 217.173 77.3643C216.632 76.3242 216.202 75.8805 215.273 75.3813C214.372 74.9098 212.999 74.7018 212.139 74.9375ZM214.053 77.2256C215.481 77.8219 215.828 79.6801 214.718 80.7895C213.817 81.6908 212.541 81.6908 211.64 80.7895C209.92 79.0838 211.82 76.2826 214.053 77.2256Z" fill="#4C4C4C"/>
<path d="M244.519 35.0832C242.092 35.6101 239.721 37.4683 238.584 39.7287C236.823 43.2509 237.46 47.2308 240.234 50.0043C241.759 51.5297 243.437 52.3201 245.795 52.6113C249.234 53.0273 252.201 54.8439 253.851 57.5757C254.434 58.5326 255.238 60.8068 255.238 61.5002C255.238 62.1935 254.475 64.3429 253.865 65.383C253.2 66.5339 251.494 68.2396 250.343 68.9052C249.15 69.5986 247.292 70.2088 245.795 70.389C243.437 70.6802 241.759 71.4707 240.234 72.9961C236.753 76.4767 236.712 81.9959 240.151 85.4211C241.856 87.1129 243.673 87.9449 245.975 88.0836C248.485 88.2222 250.828 87.3347 252.631 85.5597C254.226 83.9927 255.016 82.3148 255.321 79.9158C255.737 76.4767 257.554 73.5091 260.286 71.8589C261.381 71.1933 263.378 70.5416 264.876 70.3613C265.541 70.2781 266.443 70.0978 266.873 69.9591C269.521 69.141 271.851 66.7974 272.711 64.0656C273.141 62.6927 273.141 60.3076 272.711 58.9347C272.281 57.5757 271.504 56.3138 270.45 55.2599C268.911 53.7345 267.178 52.9164 264.876 52.639C263.378 52.4588 261.381 51.807 260.286 51.1414C258.552 50.1013 256.861 48.1461 256.167 46.3849C255.765 45.4004 255.335 43.7918 255.335 43.2648C255.321 42.3634 254.891 40.8519 254.337 39.7287C252.534 36.1648 248.485 34.2373 244.519 35.0832ZM248.055 37.3019C250.634 37.9814 252.631 40.1724 252.992 42.7379C253.685 47.6468 255.737 51.0582 259.204 53.055C259.662 53.3185 260.05 53.5543 260.05 53.5959C260.05 53.6375 259.773 53.8455 259.426 54.0535C258.469 54.6636 257.54 55.565 256.93 56.4941C256.625 56.9517 256.348 57.3261 256.306 57.3261C256.264 57.3261 256.029 56.9517 255.765 56.4941C253.768 53.0273 250.357 50.975 245.448 50.2816C242.883 49.9211 240.691 47.9242 240.012 45.3449C238.778 40.6023 243.312 36.0677 248.055 37.3019ZM265.805 55.0519C269.355 55.981 271.56 59.6142 270.658 63.0949C269.979 65.6742 267.788 67.6711 265.223 68.0316C263.281 68.3089 261.367 68.8359 260.092 69.4738C256.042 71.4707 253.741 74.9652 252.992 80.2625C252.631 82.8279 250.634 85.0189 248.055 85.6984C243.312 86.9326 238.778 82.398 240.012 77.6554C240.691 75.0761 242.883 73.0793 245.448 72.7187C250.745 71.9699 254.24 69.6679 256.237 65.6187C256.875 64.3429 257.401 62.4293 257.679 60.4879C258.206 56.7021 262.102 54.0951 265.805 55.0519Z" fill="#4C4C4C"/>
<path d="M245.42 39.4375C244.145 39.7703 243.021 40.6855 242.439 41.8781C242.176 42.4467 242.106 42.7934 242.106 43.7502C242.092 44.8318 242.134 44.9982 242.564 45.8025C243.091 46.7732 243.534 47.1893 244.575 47.7439C245.171 48.049 245.462 48.1045 246.46 48.1045C247.459 48.1045 247.75 48.049 248.346 47.7439C249.386 47.1893 249.83 46.7732 250.357 45.8025C250.787 44.9982 250.829 44.8318 250.815 43.7502C250.815 42.7518 250.759 42.4605 250.454 41.8643C249.913 40.8242 249.484 40.3805 248.554 39.8813C247.653 39.4098 246.28 39.2018 245.42 39.4375ZM247.334 41.7256C248.762 42.3219 249.109 44.1801 248 45.2895C246.447 46.8564 243.895 45.4559 244.297 43.2648C244.547 41.9613 246.072 41.1848 247.334 41.7256Z" fill="#4C4C4C"/>
<path d="M263.17 57.1875C261.895 57.5203 260.771 58.4355 260.189 59.6281C259.926 60.1967 259.856 60.5434 259.856 61.5002C259.842 62.5818 259.884 62.7482 260.314 63.5525C260.841 64.5232 261.284 64.9393 262.325 65.4939C262.921 65.799 263.212 65.8545 264.21 65.8545C265.209 65.8545 265.5 65.799 266.096 65.4939C267.136 64.9393 267.58 64.5232 268.107 63.5525C268.537 62.7482 268.579 62.5818 268.565 61.5002C268.565 60.5018 268.509 60.2105 268.204 59.6143C267.663 58.5742 267.234 58.1305 266.304 57.6313C265.403 57.1598 264.03 56.9518 263.17 57.1875ZM265.084 59.4756C266.512 60.0719 266.859 61.9301 265.75 63.0395C264.848 63.9408 263.573 63.9408 262.671 63.0395C260.952 61.3338 262.851 58.5326 265.084 59.4756Z" fill="#4C4C4C"/>
<path d="M245.42 74.9375C244.145 75.2703 243.021 76.1855 242.439 77.3781C242.176 77.9467 242.106 78.2934 242.106 79.2502C242.092 80.3318 242.134 80.4982 242.564 81.3025C243.091 82.2732 243.534 82.6893 244.575 83.2439C245.171 83.549 245.462 83.6045 246.46 83.6045C247.459 83.6045 247.75 83.549 248.346 83.2439C249.386 82.6893 249.83 82.2732 250.357 81.3025C250.787 80.4982 250.829 80.3318 250.815 79.2502C250.815 78.2518 250.759 77.9605 250.454 77.3643C249.913 76.3242 249.484 75.8805 248.554 75.3813C247.653 74.9098 246.28 74.7018 245.42 74.9375ZM247.334 77.2256C248.762 77.8219 249.109 79.6801 248 80.7895C247.098 81.6908 245.823 81.6908 244.921 80.7895C243.202 79.0838 245.101 76.2826 247.334 77.2256Z" fill="#4C4C4C"/>
<path d="M26.6039 130.364H28.2857L32.2403 140.023H32.3766L36.3312 130.364H38.013V142H36.6948V133.159H36.5812L32.9448 142H31.6721L28.0357 133.159H27.9221V142H26.6039V130.364ZM43.2247 142.205C42.6716 142.205 42.1697 142.1 41.719 141.892C41.2682 141.68 40.9103 141.375 40.6451 140.977C40.38 140.576 40.2474 140.091 40.2474 139.523C40.2474 139.023 40.3459 138.617 40.5428 138.307C40.7398 137.992 41.0031 137.746 41.3326 137.568C41.6622 137.39 42.0258 137.258 42.4235 137.17C42.825 137.08 43.2284 137.008 43.6337 136.955C44.164 136.886 44.594 136.835 44.9235 136.801C45.2569 136.763 45.4993 136.701 45.6508 136.614C45.8061 136.527 45.8837 136.375 45.8837 136.159V136.114C45.8837 135.553 45.7303 135.117 45.4235 134.807C45.1205 134.496 44.6603 134.341 44.0428 134.341C43.4027 134.341 42.9008 134.481 42.5372 134.761C42.1735 135.042 41.9178 135.341 41.7701 135.659L40.4974 135.205C40.7247 134.674 41.0277 134.261 41.4065 133.966C41.789 133.667 42.2057 133.458 42.6565 133.341C43.111 133.22 43.558 133.159 43.9974 133.159C44.2777 133.159 44.5997 133.193 44.9633 133.261C45.3307 133.326 45.6849 133.46 46.0258 133.665C46.3705 133.869 46.6565 134.178 46.8837 134.591C47.111 135.004 47.2247 135.557 47.2247 136.25V142H45.8837V140.818H45.8156C45.7247 141.008 45.5731 141.21 45.361 141.426C45.1489 141.642 44.8667 141.826 44.5144 141.977C44.1622 142.129 43.7322 142.205 43.2247 142.205ZM43.4292 141C43.9595 141 44.4065 140.896 44.7701 140.688C45.1375 140.479 45.414 140.21 45.5997 139.881C45.789 139.551 45.8837 139.205 45.8837 138.841V137.614C45.8269 137.682 45.7019 137.744 45.5087 137.801C45.3194 137.854 45.0997 137.902 44.8497 137.943C44.6034 137.981 44.3629 138.015 44.1281 138.045C43.897 138.072 43.7095 138.095 43.5656 138.114C43.2171 138.159 42.8913 138.233 42.5883 138.335C42.289 138.434 42.0466 138.583 41.861 138.784C41.6792 138.981 41.5883 139.25 41.5883 139.591C41.5883 140.057 41.7606 140.409 42.1053 140.648C42.4538 140.883 42.8951 141 43.4292 141ZM51.013 136.75V142H49.6721V133.273H50.9676V134.636H51.0812C51.2857 134.193 51.5963 133.837 52.013 133.568C52.4297 133.295 52.9676 133.159 53.6266 133.159C54.2176 133.159 54.7346 133.28 55.1778 133.523C55.621 133.761 55.9657 134.125 56.2119 134.614C56.4581 135.098 56.5812 135.712 56.5812 136.455V142H55.2403V136.545C55.2403 135.86 55.0622 135.326 54.7062 134.943C54.3501 134.557 53.8615 134.364 53.2403 134.364C52.8122 134.364 52.4297 134.456 52.0926 134.642C51.7592 134.828 51.496 135.098 51.3028 135.455C51.1096 135.811 51.013 136.242 51.013 136.75ZM59.5826 145.273C59.3553 145.273 59.1527 145.254 58.9747 145.216C58.7966 145.182 58.6735 145.148 58.6053 145.114L58.9462 143.932C59.272 144.015 59.5599 144.045 59.8099 144.023C60.0599 144 60.2815 143.888 60.4747 143.688C60.6716 143.491 60.8515 143.17 61.0144 142.727L61.2644 142.045L58.0372 133.273H59.4917L61.9008 140.227H61.9917L64.4008 133.273H65.8553L62.1508 143.273C61.9841 143.723 61.7777 144.097 61.5315 144.392C61.2853 144.691 60.9993 144.913 60.6735 145.057C60.3515 145.201 59.9879 145.273 59.5826 145.273ZM75.4207 142.182C74.6934 142.182 74.0514 141.998 73.4945 141.631C72.9377 141.259 72.5021 140.737 72.1877 140.062C71.8733 139.384 71.7161 138.583 71.7161 137.659C71.7161 136.742 71.8733 135.947 72.1877 135.273C72.5021 134.598 72.9396 134.078 73.5002 133.71C74.0608 133.343 74.7086 133.159 75.4434 133.159C76.0116 133.159 76.4604 133.254 76.79 133.443C77.1233 133.629 77.3771 133.841 77.5514 134.08C77.7294 134.314 77.8676 134.508 77.9661 134.659H78.0798V130.364H79.4207V142H78.1252V140.659H77.9661C77.8676 140.818 77.7275 141.019 77.5457 141.261C77.3639 141.5 77.1044 141.714 76.7673 141.903C76.4301 142.089 75.9813 142.182 75.4207 142.182ZM75.6025 140.977C76.1404 140.977 76.5949 140.837 76.9661 140.557C77.3373 140.273 77.6195 139.881 77.8127 139.381C78.0059 138.877 78.1025 138.295 78.1025 137.636C78.1025 136.985 78.0078 136.415 77.8184 135.926C77.629 135.434 77.3487 135.051 76.9775 134.778C76.6063 134.502 76.1479 134.364 75.6025 134.364C75.0343 134.364 74.5608 134.509 74.182 134.801C73.807 135.089 73.5248 135.481 73.3354 135.977C73.1498 136.47 73.057 137.023 73.057 137.636C73.057 138.258 73.1517 138.822 73.3411 139.33C73.5343 139.833 73.8184 140.235 74.1934 140.534C74.5722 140.83 75.0419 140.977 75.6025 140.977ZM85.7218 142.182C84.8809 142.182 84.1555 141.996 83.5457 141.625C82.9396 141.25 82.4718 140.727 82.1423 140.057C81.8165 139.383 81.6536 138.598 81.6536 137.705C81.6536 136.811 81.8165 136.023 82.1423 135.341C82.4718 134.655 82.9301 134.121 83.5173 133.739C84.1082 133.352 84.7976 133.159 85.5854 133.159C86.04 133.159 86.4889 133.235 86.932 133.386C87.3752 133.538 87.7786 133.784 88.1423 134.125C88.5059 134.462 88.7957 134.909 89.0116 135.466C89.2275 136.023 89.3354 136.708 89.3354 137.523V138.091H82.6082V136.932H87.9718C87.9718 136.439 87.8733 136 87.6764 135.614C87.4832 135.227 87.2067 134.922 86.8468 134.699C86.4908 134.475 86.0703 134.364 85.5854 134.364C85.0514 134.364 84.5892 134.496 84.1991 134.761C83.8127 135.023 83.5154 135.364 83.307 135.784C83.0987 136.205 82.9945 136.655 82.9945 137.136V137.909C82.9945 138.568 83.1082 139.127 83.3354 139.585C83.5665 140.04 83.8866 140.386 84.2957 140.625C84.7048 140.86 85.1801 140.977 85.7218 140.977C86.0741 140.977 86.3923 140.928 86.6764 140.83C86.9642 140.727 87.2123 140.576 87.4207 140.375C87.629 140.17 87.79 139.917 87.9036 139.614L89.1991 139.977C89.0627 140.417 88.8336 140.803 88.5116 141.136C88.1896 141.466 87.7919 141.723 87.3184 141.909C86.8449 142.091 86.3127 142.182 85.7218 142.182ZM97.557 135.227L96.3525 135.568C96.2767 135.367 96.165 135.172 96.0173 134.983C95.8733 134.79 95.6764 134.631 95.4264 134.506C95.1764 134.381 94.8563 134.318 94.4661 134.318C93.932 134.318 93.487 134.441 93.1309 134.688C92.7786 134.93 92.6025 135.239 92.6025 135.614C92.6025 135.947 92.7237 136.21 92.9661 136.403C93.2086 136.597 93.5873 136.758 94.1025 136.886L95.3979 137.205C96.1783 137.394 96.7597 137.684 97.1423 138.074C97.5248 138.46 97.7161 138.958 97.7161 139.568C97.7161 140.068 97.5722 140.515 97.2843 140.909C97.0002 141.303 96.6025 141.614 96.0911 141.841C95.5798 142.068 94.9851 142.182 94.307 142.182C93.4169 142.182 92.6801 141.989 92.0968 141.602C91.5135 141.216 91.1442 140.652 90.9889 139.909L92.2616 139.591C92.3828 140.061 92.612 140.413 92.9491 140.648C93.29 140.883 93.7351 141 94.2843 141C94.9093 141 95.4055 140.867 95.7729 140.602C96.1442 140.333 96.3298 140.011 96.3298 139.636C96.3298 139.333 96.2237 139.08 96.0116 138.875C95.7995 138.667 95.4737 138.511 95.0343 138.409L93.5798 138.068C92.7805 137.879 92.1934 137.585 91.8184 137.188C91.4472 136.786 91.2616 136.284 91.2616 135.682C91.2616 135.189 91.3998 134.754 91.6764 134.375C91.9567 133.996 92.3373 133.699 92.8184 133.483C93.3033 133.267 93.8525 133.159 94.4661 133.159C95.3298 133.159 96.0078 133.348 96.5002 133.727C96.9964 134.106 97.3487 134.606 97.557 135.227ZM100.985 138.818L100.962 137.159H101.235L105.053 133.273H106.712L102.644 137.386H102.53L100.985 138.818ZM99.7346 142V130.364H101.076V142H99.7346ZM105.28 142L101.871 137.682L102.826 136.75L106.985 142H105.28ZM112.233 133.273V134.409H107.71V133.273H112.233ZM109.029 131.182H110.37V139.5C110.37 139.879 110.424 140.163 110.534 140.352C110.648 140.538 110.792 140.663 110.966 140.727C111.144 140.788 111.332 140.818 111.529 140.818C111.676 140.818 111.798 140.811 111.892 140.795C111.987 140.777 112.063 140.761 112.12 140.75L112.392 141.955C112.301 141.989 112.174 142.023 112.012 142.057C111.849 142.095 111.642 142.114 111.392 142.114C111.013 142.114 110.642 142.032 110.279 141.869C109.919 141.706 109.62 141.458 109.381 141.125C109.146 140.792 109.029 140.371 109.029 139.864V131.182ZM117.702 142.182C116.914 142.182 116.223 141.994 115.628 141.619C115.037 141.244 114.575 140.72 114.242 140.045C113.912 139.371 113.747 138.583 113.747 137.682C113.747 136.773 113.912 135.979 114.242 135.301C114.575 134.623 115.037 134.097 115.628 133.722C116.223 133.347 116.914 133.159 117.702 133.159C118.49 133.159 119.179 133.347 119.77 133.722C120.365 134.097 120.827 134.623 121.156 135.301C121.49 135.979 121.656 136.773 121.656 137.682C121.656 138.583 121.49 139.371 121.156 140.045C120.827 140.72 120.365 141.244 119.77 141.619C119.179 141.994 118.49 142.182 117.702 142.182ZM117.702 140.977C118.3 140.977 118.793 140.824 119.179 140.517C119.566 140.21 119.852 139.807 120.037 139.307C120.223 138.807 120.316 138.265 120.316 137.682C120.316 137.098 120.223 136.555 120.037 136.051C119.852 135.547 119.566 135.14 119.179 134.83C118.793 134.519 118.3 134.364 117.702 134.364C117.103 134.364 116.611 134.519 116.225 134.83C115.838 135.14 115.552 135.547 115.367 136.051C115.181 136.555 115.088 137.098 115.088 137.682C115.088 138.265 115.181 138.807 115.367 139.307C115.552 139.807 115.838 140.21 116.225 140.517C116.611 140.824 117.103 140.977 117.702 140.977ZM123.703 145.273V133.273H124.999V134.659H125.158C125.256 134.508 125.393 134.314 125.567 134.08C125.745 133.841 125.999 133.629 126.328 133.443C126.662 133.254 127.112 133.159 127.681 133.159C128.415 133.159 129.063 133.343 129.624 133.71C130.184 134.078 130.622 134.598 130.936 135.273C131.251 135.947 131.408 136.742 131.408 137.659C131.408 138.583 131.251 139.384 130.936 140.062C130.622 140.737 130.186 141.259 129.629 141.631C129.073 141.998 128.431 142.182 127.703 142.182C127.143 142.182 126.694 142.089 126.357 141.903C126.02 141.714 125.76 141.5 125.578 141.261C125.397 141.019 125.256 140.818 125.158 140.659H125.044V145.273H123.703ZM125.022 137.636C125.022 138.295 125.118 138.877 125.311 139.381C125.504 139.881 125.787 140.273 126.158 140.557C126.529 140.837 126.984 140.977 127.522 140.977C128.082 140.977 128.55 140.83 128.925 140.534C129.304 140.235 129.588 139.833 129.777 139.33C129.97 138.822 130.067 138.258 130.067 137.636C130.067 137.023 129.972 136.47 129.783 135.977C129.597 135.481 129.315 135.089 128.936 134.801C128.561 134.509 128.09 134.364 127.522 134.364C126.976 134.364 126.518 134.502 126.147 134.778C125.775 135.051 125.495 135.434 125.306 135.926C125.116 136.415 125.022 136.985 125.022 137.636ZM137.953 145.273V133.273H139.249V134.659H139.408C139.506 134.508 139.643 134.314 139.817 134.08C139.995 133.841 140.249 133.629 140.578 133.443C140.912 133.254 141.362 133.159 141.931 133.159C142.665 133.159 143.313 133.343 143.874 133.71C144.434 134.078 144.872 134.598 145.186 135.273C145.501 135.947 145.658 136.742 145.658 137.659C145.658 138.583 145.501 139.384 145.186 140.062C144.872 140.737 144.436 141.259 143.879 141.631C143.323 141.998 142.681 142.182 141.953 142.182C141.393 142.182 140.944 142.089 140.607 141.903C140.27 141.714 140.01 141.5 139.828 141.261C139.647 141.019 139.506 140.818 139.408 140.659H139.294V145.273H137.953ZM139.272 137.636C139.272 138.295 139.368 138.877 139.561 139.381C139.754 139.881 140.037 140.273 140.408 140.557C140.779 140.837 141.234 140.977 141.772 140.977C142.332 140.977 142.8 140.83 143.175 140.534C143.554 140.235 143.838 139.833 144.027 139.33C144.22 138.822 144.317 138.258 144.317 137.636C144.317 137.023 144.222 136.47 144.033 135.977C143.847 135.481 143.565 135.089 143.186 134.801C142.811 134.509 142.34 134.364 141.772 134.364C141.226 134.364 140.768 134.502 140.397 134.778C140.025 135.051 139.745 135.434 139.556 135.926C139.366 136.415 139.272 136.985 139.272 137.636ZM153.203 138.432V133.273H154.544V142H153.203V140.523H153.112C152.908 140.966 152.59 141.343 152.158 141.653C151.726 141.96 151.181 142.114 150.522 142.114C149.976 142.114 149.491 141.994 149.067 141.756C148.643 141.513 148.309 141.15 148.067 140.665C147.825 140.176 147.703 139.561 147.703 138.818V133.273H149.044V138.727C149.044 139.364 149.222 139.871 149.578 140.25C149.938 140.629 150.397 140.818 150.953 140.818C151.287 140.818 151.626 140.733 151.97 140.562C152.319 140.392 152.611 140.131 152.845 139.778C153.084 139.426 153.203 138.977 153.203 138.432ZM157.182 142V130.364H158.523V134.659H158.637C158.735 134.508 158.871 134.314 159.046 134.08C159.224 133.841 159.477 133.629 159.807 133.443C160.14 133.254 160.591 133.159 161.159 133.159C161.894 133.159 162.542 133.343 163.102 133.71C163.663 134.078 164.101 134.598 164.415 135.273C164.729 135.947 164.887 136.742 164.887 137.659C164.887 138.583 164.729 139.384 164.415 140.062C164.101 140.737 163.665 141.259 163.108 141.631C162.551 141.998 161.909 142.182 161.182 142.182C160.621 142.182 160.173 142.089 159.835 141.903C159.498 141.714 159.239 141.5 159.057 141.261C158.875 141.019 158.735 140.818 158.637 140.659H158.477V142H157.182ZM158.5 137.636C158.5 138.295 158.597 138.877 158.79 139.381C158.983 139.881 159.265 140.273 159.637 140.557C160.008 140.837 160.462 140.977 161 140.977C161.561 140.977 162.029 140.83 162.404 140.534C162.782 140.235 163.067 139.833 163.256 139.33C163.449 138.822 163.546 138.258 163.546 137.636C163.546 137.023 163.451 136.47 163.262 135.977C163.076 135.481 162.794 135.089 162.415 134.801C162.04 134.509 161.568 134.364 161 134.364C160.455 134.364 159.996 134.502 159.625 134.778C159.254 135.051 158.974 135.434 158.784 135.926C158.595 136.415 158.5 136.985 158.5 137.636ZM168.279 130.364V142H166.938V130.364H168.279ZM170.735 142V133.273H172.076V142H170.735ZM171.416 131.818C171.155 131.818 170.93 131.729 170.74 131.551C170.555 131.373 170.462 131.159 170.462 130.909C170.462 130.659 170.555 130.445 170.74 130.267C170.93 130.089 171.155 130 171.416 130C171.678 130 171.901 130.089 172.087 130.267C172.276 130.445 172.371 130.659 172.371 130.909C172.371 131.159 172.276 131.373 172.087 131.551C171.901 131.729 171.678 131.818 171.416 131.818ZM180.713 135.227L179.509 135.568C179.433 135.367 179.321 135.172 179.174 134.983C179.03 134.79 178.833 134.631 178.583 134.506C178.333 134.381 178.013 134.318 177.622 134.318C177.088 134.318 176.643 134.441 176.287 134.688C175.935 134.93 175.759 135.239 175.759 135.614C175.759 135.947 175.88 136.21 176.122 136.403C176.365 136.597 176.744 136.758 177.259 136.886L178.554 137.205C179.335 137.394 179.916 137.684 180.299 138.074C180.681 138.46 180.872 138.958 180.872 139.568C180.872 140.068 180.728 140.515 180.441 140.909C180.156 141.303 179.759 141.614 179.247 141.841C178.736 142.068 178.141 142.182 177.463 142.182C176.573 142.182 175.836 141.989 175.253 141.602C174.67 141.216 174.3 140.652 174.145 139.909L175.418 139.591C175.539 140.061 175.768 140.413 176.105 140.648C176.446 140.883 176.891 141 177.441 141C178.066 141 178.562 140.867 178.929 140.602C179.3 140.333 179.486 140.011 179.486 139.636C179.486 139.333 179.38 139.08 179.168 138.875C178.956 138.667 178.63 138.511 178.191 138.409L176.736 138.068C175.937 137.879 175.35 137.585 174.975 137.188C174.603 136.786 174.418 136.284 174.418 135.682C174.418 135.189 174.556 134.754 174.833 134.375C175.113 133.996 175.494 133.699 175.975 133.483C176.46 133.267 177.009 133.159 177.622 133.159C178.486 133.159 179.164 133.348 179.656 133.727C180.153 134.106 180.505 134.606 180.713 135.227ZM184.232 136.75V142H182.891V130.364H184.232V134.636H184.345C184.55 134.186 184.857 133.828 185.266 133.562C185.679 133.294 186.228 133.159 186.914 133.159C187.508 133.159 188.029 133.278 188.476 133.517C188.923 133.752 189.27 134.114 189.516 134.602C189.766 135.087 189.891 135.705 189.891 136.455V142H188.55V136.545C188.55 135.852 188.37 135.316 188.01 134.938C187.654 134.555 187.16 134.364 186.527 134.364C186.088 134.364 185.694 134.456 185.345 134.642C185.001 134.828 184.728 135.098 184.527 135.455C184.33 135.811 184.232 136.242 184.232 136.75ZM192.344 142V133.273H193.685V142H192.344ZM193.026 131.818C192.764 131.818 192.539 131.729 192.35 131.551C192.164 131.373 192.071 131.159 192.071 130.909C192.071 130.659 192.164 130.445 192.35 130.267C192.539 130.089 192.764 130 193.026 130C193.287 130 193.511 130.089 193.696 130.267C193.886 130.445 193.98 130.659 193.98 130.909C193.98 131.159 193.886 131.373 193.696 131.551C193.511 131.729 193.287 131.818 193.026 131.818ZM197.482 136.75V142H196.141V133.273H197.436V134.636H197.55C197.754 134.193 198.065 133.837 198.482 133.568C198.898 133.295 199.436 133.159 200.095 133.159C200.686 133.159 201.203 133.28 201.647 133.523C202.09 133.761 202.434 134.125 202.681 134.614C202.927 135.098 203.05 135.712 203.05 136.455V142H201.709V136.545C201.709 135.86 201.531 135.326 201.175 134.943C200.819 134.557 200.33 134.364 199.709 134.364C199.281 134.364 198.898 134.456 198.561 134.642C198.228 134.828 197.965 135.098 197.772 135.455C197.578 135.811 197.482 136.242 197.482 136.75ZM209.023 145.455C208.375 145.455 207.818 145.371 207.352 145.205C206.887 145.042 206.498 144.826 206.188 144.557C205.881 144.292 205.637 144.008 205.455 143.705L206.523 142.955C206.644 143.114 206.798 143.295 206.983 143.5C207.169 143.708 207.423 143.888 207.745 144.04C208.07 144.195 208.496 144.273 209.023 144.273C209.727 144.273 210.309 144.102 210.767 143.761C211.226 143.42 211.455 142.886 211.455 142.159V140.386H211.341C211.243 140.545 211.102 140.742 210.921 140.977C210.743 141.208 210.485 141.415 210.148 141.597C209.815 141.775 209.364 141.864 208.796 141.864C208.091 141.864 207.459 141.697 206.898 141.364C206.341 141.03 205.9 140.545 205.574 139.909C205.252 139.273 205.091 138.5 205.091 137.591C205.091 136.697 205.248 135.919 205.563 135.256C205.877 134.589 206.315 134.074 206.875 133.71C207.436 133.343 208.084 133.159 208.818 133.159C209.387 133.159 209.837 133.254 210.171 133.443C210.508 133.629 210.765 133.841 210.943 134.08C211.125 134.314 211.265 134.508 211.364 134.659H211.5V133.273H212.796V142.25C212.796 143 212.625 143.61 212.284 144.08C211.947 144.553 211.493 144.9 210.921 145.119C210.352 145.343 209.72 145.455 209.023 145.455ZM208.977 140.659C209.515 140.659 209.97 140.536 210.341 140.29C210.712 140.044 210.995 139.689 211.188 139.227C211.381 138.765 211.477 138.212 211.477 137.568C211.477 136.939 211.383 136.384 211.193 135.903C211.004 135.422 210.724 135.045 210.352 134.773C209.981 134.5 209.523 134.364 208.977 134.364C208.409 134.364 207.936 134.508 207.557 134.795C207.182 135.083 206.9 135.47 206.71 135.955C206.525 136.439 206.432 136.977 206.432 137.568C206.432 138.174 206.527 138.71 206.716 139.176C206.909 139.638 207.193 140.002 207.568 140.267C207.947 140.528 208.417 140.659 208.977 140.659ZM26.4221 171.273V159.273H27.7176V160.659H27.8766C27.9751 160.508 28.1115 160.314 28.2857 160.08C28.4638 159.841 28.7176 159.629 29.0471 159.443C29.3804 159.254 29.8312 159.159 30.3994 159.159C31.1342 159.159 31.7819 159.343 32.3426 159.71C32.9032 160.078 33.3407 160.598 33.6551 161.273C33.9694 161.947 34.1266 162.742 34.1266 163.659C34.1266 164.583 33.9694 165.384 33.6551 166.062C33.3407 166.737 32.9051 167.259 32.3482 167.631C31.7914 167.998 31.1494 168.182 30.4221 168.182C29.8615 168.182 29.4126 168.089 29.0755 167.903C28.7384 167.714 28.4789 167.5 28.2971 167.261C28.1153 167.019 27.9751 166.818 27.8766 166.659H27.763V171.273H26.4221ZM27.7403 163.636C27.7403 164.295 27.8369 164.877 28.0301 165.381C28.2232 165.881 28.5054 166.273 28.8766 166.557C29.2479 166.837 29.7024 166.977 30.2403 166.977C30.8009 166.977 31.2687 166.83 31.6437 166.534C32.0225 166.235 32.3066 165.833 32.496 165.33C32.6891 164.822 32.7857 164.258 32.7857 163.636C32.7857 163.023 32.691 162.47 32.5016 161.977C32.316 161.481 32.0338 161.089 31.6551 160.801C31.2801 160.509 30.8085 160.364 30.2403 160.364C29.6948 160.364 29.2365 160.502 28.8653 160.778C28.4941 161.051 28.2138 161.434 28.0244 161.926C27.835 162.415 27.7403 162.985 27.7403 163.636ZM38.7403 168.205C38.1872 168.205 37.6854 168.1 37.2346 167.892C36.7838 167.68 36.4259 167.375 36.1607 166.977C35.8956 166.576 35.763 166.091 35.763 165.523C35.763 165.023 35.8615 164.617 36.0585 164.307C36.2554 163.992 36.5187 163.746 36.8482 163.568C37.1778 163.39 37.5414 163.258 37.9391 163.17C38.3407 163.08 38.7441 163.008 39.1494 162.955C39.6797 162.886 40.1096 162.835 40.4391 162.801C40.7725 162.763 41.0149 162.701 41.1664 162.614C41.3217 162.527 41.3994 162.375 41.3994 162.159V162.114C41.3994 161.553 41.246 161.117 40.9391 160.807C40.6361 160.496 40.1759 160.341 39.5585 160.341C38.9183 160.341 38.4164 160.481 38.0528 160.761C37.6891 161.042 37.4335 161.341 37.2857 161.659L36.013 161.205C36.2403 160.674 36.5433 160.261 36.9221 159.966C37.3047 159.667 37.7213 159.458 38.1721 159.341C38.6266 159.22 39.0736 159.159 39.513 159.159C39.7933 159.159 40.1153 159.193 40.4789 159.261C40.8463 159.326 41.2005 159.46 41.5414 159.665C41.8861 159.869 42.1721 160.178 42.3994 160.591C42.6266 161.004 42.7403 161.557 42.7403 162.25V168H41.3994V166.818H41.3312C41.2403 167.008 41.0888 167.21 40.8766 167.426C40.6645 167.642 40.3823 167.826 40.0301 167.977C39.6778 168.129 39.2479 168.205 38.7403 168.205ZM38.9448 167C39.4751 167 39.9221 166.896 40.2857 166.688C40.6532 166.479 40.9297 166.21 41.1153 165.881C41.3047 165.551 41.3994 165.205 41.3994 164.841V163.614C41.3426 163.682 41.2176 163.744 41.0244 163.801C40.835 163.854 40.6153 163.902 40.3653 163.943C40.1191 163.981 39.8785 164.015 39.6437 164.045C39.4126 164.072 39.2251 164.095 39.0812 164.114C38.7327 164.159 38.4069 164.233 38.1039 164.335C37.8047 164.434 37.5622 164.583 37.3766 164.784C37.1948 164.981 37.1039 165.25 37.1039 165.591C37.1039 166.057 37.2763 166.409 37.621 166.648C37.9694 166.883 38.4107 167 38.9448 167ZM48.7332 168.182C47.915 168.182 47.2104 167.989 46.6195 167.602C46.0286 167.216 45.5741 166.684 45.2559 166.006C44.9377 165.328 44.7786 164.553 44.7786 163.682C44.7786 162.795 44.9415 162.013 45.2673 161.335C45.5968 160.653 46.0551 160.121 46.6423 159.739C47.2332 159.352 47.9226 159.159 48.7104 159.159C49.3241 159.159 49.8771 159.273 50.3695 159.5C50.862 159.727 51.2654 160.045 51.5798 160.455C51.8942 160.864 52.0892 161.341 52.165 161.886H50.8241C50.7218 161.489 50.4945 161.136 50.1423 160.83C49.7938 160.519 49.3241 160.364 48.7332 160.364C48.2104 160.364 47.7521 160.5 47.3582 160.773C46.968 161.042 46.6631 161.422 46.4434 161.915C46.2275 162.403 46.1195 162.977 46.1195 163.636C46.1195 164.311 46.2256 164.898 46.4377 165.398C46.6536 165.898 46.9567 166.286 47.3468 166.562C47.7408 166.839 48.2029 166.977 48.7332 166.977C49.0817 166.977 49.3979 166.917 49.682 166.795C49.9661 166.674 50.2067 166.5 50.4036 166.273C50.6006 166.045 50.7408 165.773 50.8241 165.455H52.165C52.0892 165.97 51.9017 166.434 51.6025 166.847C51.307 167.256 50.915 167.581 50.4264 167.824C49.9415 168.062 49.3771 168.182 48.7332 168.182ZM55.3752 164.818L55.3525 163.159H55.6252L59.4434 159.273H61.1025L57.0343 163.386H56.9207L55.3752 164.818ZM54.1252 168V156.364H55.4661V168H54.1252ZM59.6707 168L56.2616 163.682L57.2161 162.75L61.3752 168H59.6707ZM65.3965 168.205C64.8435 168.205 64.3416 168.1 63.8908 167.892C63.4401 167.68 63.0821 167.375 62.817 166.977C62.5518 166.576 62.4193 166.091 62.4193 165.523C62.4193 165.023 62.5177 164.617 62.7147 164.307C62.9117 163.992 63.1749 163.746 63.5045 163.568C63.834 163.39 64.1977 163.258 64.5954 163.17C64.9969 163.08 65.4003 163.008 65.8056 162.955C66.3359 162.886 66.7658 162.835 67.0954 162.801C67.4287 162.763 67.6712 162.701 67.8227 162.614C67.978 162.527 68.0556 162.375 68.0556 162.159V162.114C68.0556 161.553 67.9022 161.117 67.5954 160.807C67.2924 160.496 66.8321 160.341 66.2147 160.341C65.5746 160.341 65.0727 160.481 64.709 160.761C64.3454 161.042 64.0897 161.341 63.942 161.659L62.6693 161.205C62.8965 160.674 63.1996 160.261 63.5783 159.966C63.9609 159.667 64.3776 159.458 64.8283 159.341C65.2829 159.22 65.7299 159.159 66.1693 159.159C66.4496 159.159 66.7715 159.193 67.1352 159.261C67.5026 159.326 67.8568 159.46 68.1977 159.665C68.5424 159.869 68.8283 160.178 69.0556 160.591C69.2829 161.004 69.3965 161.557 69.3965 162.25V168H68.0556V166.818H67.9874C67.8965 167.008 67.745 167.21 67.5329 167.426C67.3208 167.642 67.0386 167.826 66.6863 167.977C66.334 168.129 65.9041 168.205 65.3965 168.205ZM65.6011 167C66.1314 167 66.5783 166.896 66.942 166.688C67.3094 166.479 67.5859 166.21 67.7715 165.881C67.9609 165.551 68.0556 165.205 68.0556 164.841V163.614C67.9988 163.682 67.8738 163.744 67.6806 163.801C67.4912 163.854 67.2715 163.902 67.0215 163.943C66.7753 163.981 66.5348 164.015 66.2999 164.045C66.0689 164.072 65.8814 164.095 65.7374 164.114C65.389 164.159 65.0632 164.233 64.7602 164.335C64.4609 164.434 64.2185 164.583 64.0329 164.784C63.8511 164.981 63.7602 165.25 63.7602 165.591C63.7602 166.057 63.9325 166.409 64.2772 166.648C64.6257 166.883 65.067 167 65.6011 167ZM75.3667 171.455C74.719 171.455 74.1622 171.371 73.6962 171.205C73.2303 171.042 72.8421 170.826 72.5315 170.557C72.2247 170.292 71.9803 170.008 71.7985 169.705L72.8667 168.955C72.9879 169.114 73.1413 169.295 73.3269 169.5C73.5125 169.708 73.7663 169.888 74.0883 170.04C74.414 170.195 74.8402 170.273 75.3667 170.273C76.0712 170.273 76.6527 170.102 77.111 169.761C77.5694 169.42 77.7985 168.886 77.7985 168.159V166.386H77.6849C77.5864 166.545 77.4462 166.742 77.2644 166.977C77.0864 167.208 76.8288 167.415 76.4917 167.597C76.1584 167.775 75.7076 167.864 75.1394 167.864C74.4349 167.864 73.8023 167.697 73.2417 167.364C72.6849 167.03 72.2436 166.545 71.9178 165.909C71.5959 165.273 71.4349 164.5 71.4349 163.591C71.4349 162.697 71.5921 161.919 71.9065 161.256C72.2209 160.589 72.6584 160.074 73.219 159.71C73.7796 159.343 74.4273 159.159 75.1622 159.159C75.7303 159.159 76.1811 159.254 76.5144 159.443C76.8515 159.629 77.1091 159.841 77.2872 160.08C77.469 160.314 77.6091 160.508 77.7076 160.659H77.844V159.273H79.1394V168.25C79.1394 169 78.969 169.61 78.6281 170.08C78.2909 170.553 77.8364 170.9 77.2644 171.119C76.6962 171.343 76.0637 171.455 75.3667 171.455ZM75.3212 166.659C75.8591 166.659 76.3137 166.536 76.6849 166.29C77.0561 166.044 77.3383 165.689 77.5315 165.227C77.7247 164.765 77.8212 164.212 77.8212 163.568C77.8212 162.939 77.7265 162.384 77.5372 161.903C77.3478 161.422 77.0675 161.045 76.6962 160.773C76.325 160.5 75.8667 160.364 75.3212 160.364C74.7531 160.364 74.2796 160.508 73.9008 160.795C73.5258 161.083 73.2436 161.47 73.0542 161.955C72.8686 162.439 72.7758 162.977 72.7758 163.568C72.7758 164.174 72.8705 164.71 73.0599 165.176C73.2531 165.638 73.5372 166.002 73.9122 166.267C74.2909 166.528 74.7606 166.659 75.3212 166.659ZM85.2531 168.182C84.4122 168.182 83.6868 167.996 83.0769 167.625C82.4709 167.25 82.0031 166.727 81.6735 166.057C81.3478 165.383 81.1849 164.598 81.1849 163.705C81.1849 162.811 81.3478 162.023 81.6735 161.341C82.0031 160.655 82.4614 160.121 83.0485 159.739C83.6394 159.352 84.3288 159.159 85.1167 159.159C85.5712 159.159 86.0201 159.235 86.4633 159.386C86.9065 159.538 87.3099 159.784 87.6735 160.125C88.0372 160.462 88.3269 160.909 88.5428 161.466C88.7587 162.023 88.8667 162.708 88.8667 163.523V164.091H82.1394V162.932H87.5031C87.5031 162.439 87.4046 162 87.2076 161.614C87.0144 161.227 86.7379 160.922 86.3781 160.699C86.022 160.475 85.6015 160.364 85.1167 160.364C84.5826 160.364 84.1205 160.496 83.7303 160.761C83.344 161.023 83.0466 161.364 82.8383 161.784C82.63 162.205 82.5258 162.655 82.5258 163.136V163.909C82.5258 164.568 82.6394 165.127 82.8667 165.585C83.0978 166.04 83.4178 166.386 83.8269 166.625C84.236 166.86 84.7114 166.977 85.2531 166.977C85.6053 166.977 85.9235 166.928 86.2076 166.83C86.4955 166.727 86.7436 166.576 86.9519 166.375C87.1603 166.17 87.3212 165.917 87.4349 165.614L88.7303 165.977C88.594 166.417 88.3648 166.803 88.0428 167.136C87.7209 167.466 87.3231 167.723 86.8497 167.909C86.3762 168.091 85.844 168.182 85.2531 168.182ZM97.0883 161.227L95.8837 161.568C95.808 161.367 95.6962 161.172 95.5485 160.983C95.4046 160.79 95.2076 160.631 94.9576 160.506C94.7076 160.381 94.3875 160.318 93.9974 160.318C93.4633 160.318 93.0182 160.441 92.6622 160.688C92.3099 160.93 92.1337 161.239 92.1337 161.614C92.1337 161.947 92.255 162.21 92.4974 162.403C92.7398 162.597 93.1186 162.758 93.6337 162.886L94.9292 163.205C95.7095 163.394 96.2909 163.684 96.6735 164.074C97.0561 164.46 97.2474 164.958 97.2474 165.568C97.2474 166.068 97.1034 166.515 96.8156 166.909C96.5315 167.303 96.1337 167.614 95.6224 167.841C95.111 168.068 94.5163 168.182 93.8383 168.182C92.9481 168.182 92.2114 167.989 91.6281 167.602C91.0447 167.216 90.6754 166.652 90.5201 165.909L91.7928 165.591C91.914 166.061 92.1432 166.413 92.4803 166.648C92.8212 166.883 93.2663 167 93.8156 167C94.4406 167 94.9368 166.867 95.3042 166.602C95.6754 166.333 95.861 166.011 95.861 165.636C95.861 165.333 95.755 165.08 95.5428 164.875C95.3307 164.667 95.005 164.511 94.5656 164.409L93.111 164.068C92.3118 163.879 91.7247 163.585 91.3497 163.188C90.9784 162.786 90.7928 162.284 90.7928 161.682C90.7928 161.189 90.9311 160.754 91.2076 160.375C91.4879 159.996 91.8686 159.699 92.3497 159.483C92.8345 159.267 93.3837 159.159 93.9974 159.159C94.861 159.159 95.539 159.348 96.0315 159.727C96.5277 160.106 96.88 160.606 97.0883 161.227ZM106.334 168.205C105.781 168.205 105.279 168.1 104.828 167.892C104.378 167.68 104.02 167.375 103.754 166.977C103.489 166.576 103.357 166.091 103.357 165.523C103.357 165.023 103.455 164.617 103.652 164.307C103.849 163.992 104.112 163.746 104.442 163.568C104.772 163.39 105.135 163.258 105.533 163.17C105.934 163.08 106.338 163.008 106.743 162.955C107.273 162.886 107.703 162.835 108.033 162.801C108.366 162.763 108.609 162.701 108.76 162.614C108.915 162.527 108.993 162.375 108.993 162.159V162.114C108.993 161.553 108.84 161.117 108.533 160.807C108.23 160.496 107.77 160.341 107.152 160.341C106.512 160.341 106.01 160.481 105.647 160.761C105.283 161.042 105.027 161.341 104.879 161.659L103.607 161.205C103.834 160.674 104.137 160.261 104.516 159.966C104.898 159.667 105.315 159.458 105.766 159.341C106.22 159.22 106.667 159.159 107.107 159.159C107.387 159.159 107.709 159.193 108.073 159.261C108.44 159.326 108.794 159.46 109.135 159.665C109.48 159.869 109.766 160.178 109.993 160.591C110.22 161.004 110.334 161.557 110.334 162.25V168H108.993V166.818H108.925C108.834 167.008 108.683 167.21 108.47 167.426C108.258 167.642 107.976 167.826 107.624 167.977C107.272 168.129 106.842 168.205 106.334 168.205ZM106.539 167C107.069 167 107.516 166.896 107.879 166.688C108.247 166.479 108.523 166.21 108.709 165.881C108.898 165.551 108.993 165.205 108.993 164.841V163.614C108.936 163.682 108.811 163.744 108.618 163.801C108.429 163.854 108.209 163.902 107.959 163.943C107.713 163.981 107.472 164.015 107.237 164.045C107.006 164.072 106.819 164.095 106.675 164.114C106.326 164.159 106.001 164.233 105.698 164.335C105.398 164.434 105.156 164.583 104.97 164.784C104.789 164.981 104.698 165.25 104.698 165.591C104.698 166.057 104.87 166.409 105.215 166.648C105.563 166.883 106.004 167 106.539 167ZM114.122 162.75V168H112.781V159.273H114.077V160.636H114.191C114.395 160.193 114.706 159.837 115.122 159.568C115.539 159.295 116.077 159.159 116.736 159.159C117.327 159.159 117.844 159.28 118.287 159.523C118.73 159.761 119.075 160.125 119.321 160.614C119.567 161.098 119.691 161.712 119.691 162.455V168H118.35V162.545C118.35 161.86 118.172 161.326 117.816 160.943C117.46 160.557 116.971 160.364 116.35 160.364C115.922 160.364 115.539 160.456 115.202 160.642C114.869 160.828 114.605 161.098 114.412 161.455C114.219 161.811 114.122 162.242 114.122 162.75ZM125.436 168.182C124.709 168.182 124.067 167.998 123.51 167.631C122.953 167.259 122.518 166.737 122.203 166.062C121.889 165.384 121.732 164.583 121.732 163.659C121.732 162.742 121.889 161.947 122.203 161.273C122.518 160.598 122.955 160.078 123.516 159.71C124.076 159.343 124.724 159.159 125.459 159.159C126.027 159.159 126.476 159.254 126.806 159.443C127.139 159.629 127.393 159.841 127.567 160.08C127.745 160.314 127.883 160.508 127.982 160.659H128.095V156.364H129.436V168H128.141V166.659H127.982C127.883 166.818 127.743 167.019 127.561 167.261C127.379 167.5 127.12 167.714 126.783 167.903C126.446 168.089 125.997 168.182 125.436 168.182ZM125.618 166.977C126.156 166.977 126.611 166.837 126.982 166.557C127.353 166.273 127.635 165.881 127.828 165.381C128.022 164.877 128.118 164.295 128.118 163.636C128.118 162.985 128.023 162.415 127.834 161.926C127.645 161.434 127.364 161.051 126.993 160.778C126.622 160.502 126.164 160.364 125.618 160.364C125.05 160.364 124.576 160.509 124.198 160.801C123.823 161.089 123.54 161.481 123.351 161.977C123.165 162.47 123.073 163.023 123.073 163.636C123.073 164.258 123.167 164.822 123.357 165.33C123.55 165.833 123.834 166.235 124.209 166.534C124.588 166.83 125.058 166.977 125.618 166.977ZM138.556 168L135.897 159.273H137.306L139.192 165.955H139.283L141.147 159.273H142.578L144.419 165.932H144.51L146.397 159.273H147.806L145.147 168H143.828L141.919 161.295H141.783L139.874 168H138.556ZM152.941 168.182C152.1 168.182 151.374 167.996 150.764 167.625C150.158 167.25 149.691 166.727 149.361 166.057C149.035 165.383 148.872 164.598 148.872 163.705C148.872 162.811 149.035 162.023 149.361 161.341C149.691 160.655 150.149 160.121 150.736 159.739C151.327 159.352 152.016 159.159 152.804 159.159C153.259 159.159 153.708 159.235 154.151 159.386C154.594 159.538 154.997 159.784 155.361 160.125C155.725 160.462 156.014 160.909 156.23 161.466C156.446 162.023 156.554 162.708 156.554 163.523V164.091H149.827V162.932H155.191C155.191 162.439 155.092 162 154.895 161.614C154.702 161.227 154.425 160.922 154.066 160.699C153.71 160.475 153.289 160.364 152.804 160.364C152.27 160.364 151.808 160.496 151.418 160.761C151.031 161.023 150.734 161.364 150.526 161.784C150.317 162.205 150.213 162.655 150.213 163.136V163.909C150.213 164.568 150.327 165.127 150.554 165.585C150.785 166.04 151.105 166.386 151.514 166.625C151.924 166.86 152.399 166.977 152.941 166.977C153.293 166.977 153.611 166.928 153.895 166.83C154.183 166.727 154.431 166.576 154.639 166.375C154.848 166.17 155.009 165.917 155.122 165.614L156.418 165.977C156.281 166.417 156.052 166.803 155.73 167.136C155.408 167.466 155.011 167.723 154.537 167.909C154.064 168.091 153.531 168.182 152.941 168.182ZM158.776 168V156.364H160.117V160.659H160.23C160.329 160.508 160.465 160.314 160.639 160.08C160.817 159.841 161.071 159.629 161.401 159.443C161.734 159.254 162.185 159.159 162.753 159.159C163.488 159.159 164.136 159.343 164.696 159.71C165.257 160.078 165.694 160.598 166.009 161.273C166.323 161.947 166.48 162.742 166.48 163.659C166.48 164.583 166.323 165.384 166.009 166.062C165.694 166.737 165.259 167.259 164.702 167.631C164.145 167.998 163.503 168.182 162.776 168.182C162.215 168.182 161.766 168.089 161.429 167.903C161.092 167.714 160.833 167.5 160.651 167.261C160.469 167.019 160.329 166.818 160.23 166.659H160.071V168H158.776ZM160.094 163.636C160.094 164.295 160.191 164.877 160.384 165.381C160.577 165.881 160.859 166.273 161.23 166.557C161.602 166.837 162.056 166.977 162.594 166.977C163.155 166.977 163.622 166.83 163.997 166.534C164.376 166.235 164.66 165.833 164.85 165.33C165.043 164.822 165.139 164.258 165.139 163.636C165.139 163.023 165.045 162.47 164.855 161.977C164.67 161.481 164.388 161.089 164.009 160.801C163.634 160.509 163.162 160.364 162.594 160.364C162.049 160.364 161.59 160.502 161.219 160.778C160.848 161.051 160.567 161.434 160.378 161.926C160.189 162.415 160.094 162.985 160.094 163.636ZM173.031 171.273V159.273H174.327V160.659H174.486C174.585 160.508 174.721 160.314 174.895 160.08C175.073 159.841 175.327 159.629 175.656 159.443C175.99 159.254 176.441 159.159 177.009 159.159C177.744 159.159 178.391 159.343 178.952 159.71C179.513 160.078 179.95 160.598 180.264 161.273C180.579 161.947 180.736 162.742 180.736 163.659C180.736 164.583 180.579 165.384 180.264 166.062C179.95 166.737 179.514 167.259 178.958 167.631C178.401 167.998 177.759 168.182 177.031 168.182C176.471 168.182 176.022 168.089 175.685 167.903C175.348 167.714 175.088 167.5 174.906 167.261C174.725 167.019 174.585 166.818 174.486 166.659H174.372V171.273H173.031ZM174.35 163.636C174.35 164.295 174.446 164.877 174.639 165.381C174.833 165.881 175.115 166.273 175.486 166.557C175.857 166.837 176.312 166.977 176.85 166.977C177.41 166.977 177.878 166.83 178.253 166.534C178.632 166.235 178.916 165.833 179.105 165.33C179.299 164.822 179.395 164.258 179.395 163.636C179.395 163.023 179.3 162.47 179.111 161.977C178.925 161.481 178.643 161.089 178.264 160.801C177.889 160.509 177.418 160.364 176.85 160.364C176.304 160.364 175.846 160.502 175.475 160.778C175.103 161.051 174.823 161.434 174.634 161.926C174.444 162.415 174.35 162.985 174.35 163.636ZM185.35 168.205C184.797 168.205 184.295 168.1 183.844 167.892C183.393 167.68 183.035 167.375 182.77 166.977C182.505 166.576 182.372 166.091 182.372 165.523C182.372 165.023 182.471 164.617 182.668 164.307C182.865 163.992 183.128 163.746 183.458 163.568C183.787 163.39 184.151 163.258 184.549 163.17C184.95 163.08 185.353 163.008 185.759 162.955C186.289 162.886 186.719 162.835 187.049 162.801C187.382 162.763 187.624 162.701 187.776 162.614C187.931 162.527 188.009 162.375 188.009 162.159V162.114C188.009 161.553 187.855 161.117 187.549 160.807C187.245 160.496 186.785 160.341 186.168 160.341C185.528 160.341 185.026 160.481 184.662 160.761C184.299 161.042 184.043 161.341 183.895 161.659L182.622 161.205C182.85 160.674 183.153 160.261 183.531 159.966C183.914 159.667 184.331 159.458 184.781 159.341C185.236 159.22 185.683 159.159 186.122 159.159C186.403 159.159 186.725 159.193 187.088 159.261C187.456 159.326 187.81 159.46 188.151 159.665C188.495 159.869 188.781 160.178 189.009 160.591C189.236 161.004 189.35 161.557 189.35 162.25V168H188.009V166.818H187.941C187.85 167.008 187.698 167.21 187.486 167.426C187.274 167.642 186.992 167.826 186.639 167.977C186.287 168.129 185.857 168.205 185.35 168.205ZM185.554 167C186.085 167 186.531 166.896 186.895 166.688C187.263 166.479 187.539 166.21 187.725 165.881C187.914 165.551 188.009 165.205 188.009 164.841V163.614C187.952 163.682 187.827 163.744 187.634 163.801C187.444 163.854 187.225 163.902 186.975 163.943C186.728 163.981 186.488 164.015 186.253 164.045C186.022 164.072 185.835 164.095 185.691 164.114C185.342 164.159 185.016 164.233 184.713 164.335C184.414 164.434 184.172 164.583 183.986 164.784C183.804 164.981 183.713 165.25 183.713 165.591C183.713 166.057 183.886 166.409 184.23 166.648C184.579 166.883 185.02 167 185.554 167ZM195.32 171.455C194.672 171.455 194.115 171.371 193.649 171.205C193.183 171.042 192.795 170.826 192.485 170.557C192.178 170.292 191.933 170.008 191.752 169.705L192.82 168.955C192.941 169.114 193.094 169.295 193.28 169.5C193.466 169.708 193.719 169.888 194.041 170.04C194.367 170.195 194.793 170.273 195.32 170.273C196.024 170.273 196.606 170.102 197.064 169.761C197.522 169.42 197.752 168.886 197.752 168.159V166.386H197.638C197.54 166.545 197.399 166.742 197.218 166.977C197.04 167.208 196.782 167.415 196.445 167.597C196.111 167.775 195.661 167.864 195.093 167.864C194.388 167.864 193.755 167.697 193.195 167.364C192.638 167.03 192.197 166.545 191.871 165.909C191.549 165.273 191.388 164.5 191.388 163.591C191.388 162.697 191.545 161.919 191.86 161.256C192.174 160.589 192.611 160.074 193.172 159.71C193.733 159.343 194.38 159.159 195.115 159.159C195.683 159.159 196.134 159.254 196.468 159.443C196.805 159.629 197.062 159.841 197.24 160.08C197.422 160.314 197.562 160.508 197.661 160.659H197.797V159.273H199.093V168.25C199.093 169 198.922 169.61 198.581 170.08C198.244 170.553 197.79 170.9 197.218 171.119C196.649 171.343 196.017 171.455 195.32 171.455ZM195.274 166.659C195.812 166.659 196.267 166.536 196.638 166.29C197.009 166.044 197.291 165.689 197.485 165.227C197.678 164.765 197.774 164.212 197.774 163.568C197.774 162.939 197.68 162.384 197.49 161.903C197.301 161.422 197.021 161.045 196.649 160.773C196.278 160.5 195.82 160.364 195.274 160.364C194.706 160.364 194.233 160.508 193.854 160.795C193.479 161.083 193.197 161.47 193.007 161.955C192.822 162.439 192.729 162.977 192.729 163.568C192.729 164.174 192.824 164.71 193.013 165.176C193.206 165.638 193.49 166.002 193.865 166.267C194.244 166.528 194.714 166.659 195.274 166.659ZM205.206 168.182C204.365 168.182 203.64 167.996 203.03 167.625C202.424 167.25 201.956 166.727 201.627 166.057C201.301 165.383 201.138 164.598 201.138 163.705C201.138 162.811 201.301 162.023 201.627 161.341C201.956 160.655 202.415 160.121 203.002 159.739C203.593 159.352 204.282 159.159 205.07 159.159C205.524 159.159 205.973 159.235 206.416 159.386C206.86 159.538 207.263 159.784 207.627 160.125C207.99 160.462 208.28 160.909 208.496 161.466C208.712 162.023 208.82 162.708 208.82 163.523V164.091H202.093V162.932H207.456C207.456 162.439 207.358 162 207.161 161.614C206.968 161.227 206.691 160.922 206.331 160.699C205.975 160.475 205.555 160.364 205.07 160.364C204.536 160.364 204.074 160.496 203.683 160.761C203.297 161.023 203 161.364 202.791 161.784C202.583 162.205 202.479 162.655 202.479 163.136V163.909C202.479 164.568 202.593 165.127 202.82 165.585C203.051 166.04 203.371 166.386 203.78 166.625C204.189 166.86 204.665 166.977 205.206 166.977C205.558 166.977 205.877 166.928 206.161 166.83C206.449 166.727 206.697 166.576 206.905 166.375C207.113 166.17 207.274 165.917 207.388 165.614L208.683 165.977C208.547 166.417 208.318 166.803 207.996 167.136C207.674 167.466 207.276 167.723 206.803 167.909C206.329 168.091 205.797 168.182 205.206 168.182ZM30.0812 194.182C29.2403 194.182 28.5149 193.996 27.9051 193.625C27.299 193.25 26.8312 192.727 26.5016 192.057C26.1759 191.383 26.013 190.598 26.013 189.705C26.013 188.811 26.1759 188.023 26.5016 187.341C26.8312 186.655 27.2895 186.121 27.8766 185.739C28.4676 185.352 29.1569 185.159 29.9448 185.159C30.3994 185.159 30.8482 185.235 31.2914 185.386C31.7346 185.538 32.138 185.784 32.5016 186.125C32.8653 186.462 33.1551 186.909 33.371 187.466C33.5869 188.023 33.6948 188.708 33.6948 189.523V190.091H26.9676V188.932H32.3312C32.3312 188.439 32.2327 188 32.0357 187.614C31.8426 187.227 31.566 186.922 31.2062 186.699C30.8501 186.475 30.4297 186.364 29.9448 186.364C29.4107 186.364 28.9486 186.496 28.5585 186.761C28.1721 187.023 27.8747 187.364 27.6664 187.784C27.4581 188.205 27.3539 188.655 27.3539 189.136V189.909C27.3539 190.568 27.4676 191.127 27.6948 191.585C27.9259 192.04 28.246 192.386 28.6551 192.625C29.0641 192.86 29.5395 192.977 30.0812 192.977C30.4335 192.977 30.7516 192.928 31.0357 192.83C31.3236 192.727 31.5717 192.576 31.7801 192.375C31.9884 192.17 32.1494 191.917 32.263 191.614L33.5585 191.977C33.4221 192.417 33.1929 192.803 32.871 193.136C32.549 193.466 32.1513 193.723 31.6778 193.909C31.2043 194.091 30.6721 194.182 30.0812 194.182ZM39.0301 194.182C38.3028 194.182 37.6607 193.998 37.1039 193.631C36.5471 193.259 36.1115 192.737 35.7971 192.062C35.4827 191.384 35.3255 190.583 35.3255 189.659C35.3255 188.742 35.4827 187.947 35.7971 187.273C36.1115 186.598 36.549 186.078 37.1096 185.71C37.6702 185.343 38.3179 185.159 39.0528 185.159C39.621 185.159 40.0698 185.254 40.3994 185.443C40.7327 185.629 40.9865 185.841 41.1607 186.08C41.3388 186.314 41.477 186.508 41.5755 186.659H41.6891V182.364H43.0301V194H41.7346V192.659H41.5755C41.477 192.818 41.3369 193.019 41.1551 193.261C40.9732 193.5 40.7138 193.714 40.3766 193.903C40.0395 194.089 39.5907 194.182 39.0301 194.182ZM39.2119 192.977C39.7497 192.977 40.2043 192.837 40.5755 192.557C40.9467 192.273 41.2289 191.881 41.4221 191.381C41.6153 190.877 41.7119 190.295 41.7119 189.636C41.7119 188.985 41.6172 188.415 41.4278 187.926C41.2384 187.434 40.9581 187.051 40.5869 186.778C40.2157 186.502 39.7573 186.364 39.2119 186.364C38.6437 186.364 38.1702 186.509 37.7914 186.801C37.4164 187.089 37.1342 187.481 36.9448 187.977C36.7592 188.47 36.6664 189.023 36.6664 189.636C36.6664 190.258 36.7611 190.822 36.9505 191.33C37.1437 191.833 37.4278 192.235 37.8028 192.534C38.1816 192.83 38.6513 192.977 39.2119 192.977ZM45.6721 194V185.273H47.013V194H45.6721ZM46.3539 183.818C46.0926 183.818 45.8672 183.729 45.6778 183.551C45.4922 183.373 45.3994 183.159 45.3994 182.909C45.3994 182.659 45.4922 182.445 45.6778 182.267C45.8672 182.089 46.0926 182 46.3539 182C46.6153 182 46.8388 182.089 47.0244 182.267C47.2138 182.445 47.3085 182.659 47.3085 182.909C47.3085 183.159 47.2138 183.373 47.0244 183.551C46.8388 183.729 46.6153 183.818 46.3539 183.818ZM53.2644 185.273V186.409H48.7417V185.273H53.2644ZM50.0599 183.182H51.4008V191.5C51.4008 191.879 51.4557 192.163 51.5656 192.352C51.6792 192.538 51.8231 192.663 51.9974 192.727C52.1754 192.788 52.3629 192.818 52.5599 192.818C52.7076 192.818 52.8288 192.811 52.9235 192.795C53.0182 192.777 53.094 192.761 53.1508 192.75L53.4235 193.955C53.3326 193.989 53.2057 194.023 53.0428 194.057C52.88 194.095 52.6735 194.114 52.4235 194.114C52.0447 194.114 51.6735 194.032 51.3099 193.869C50.95 193.706 50.6508 193.458 50.4122 193.125C50.1773 192.792 50.0599 192.371 50.0599 191.864V183.182ZM58.7332 194.182C57.9453 194.182 57.254 193.994 56.6593 193.619C56.0684 193.244 55.6063 192.72 55.2729 192.045C54.9434 191.371 54.7786 190.583 54.7786 189.682C54.7786 188.773 54.9434 187.979 55.2729 187.301C55.6063 186.623 56.0684 186.097 56.6593 185.722C57.254 185.347 57.9453 185.159 58.7332 185.159C59.5211 185.159 60.2104 185.347 60.8014 185.722C61.3961 186.097 61.8582 186.623 62.1877 187.301C62.5211 187.979 62.6877 188.773 62.6877 189.682C62.6877 190.583 62.5211 191.371 62.1877 192.045C61.8582 192.72 61.3961 193.244 60.8014 193.619C60.2104 193.994 59.5211 194.182 58.7332 194.182ZM58.7332 192.977C59.3317 192.977 59.8241 192.824 60.2104 192.517C60.5968 192.21 60.8828 191.807 61.0684 191.307C61.254 190.807 61.3468 190.265 61.3468 189.682C61.3468 189.098 61.254 188.555 61.0684 188.051C60.8828 187.547 60.5968 187.14 60.2104 186.83C59.8241 186.519 59.3317 186.364 58.7332 186.364C58.1347 186.364 57.6423 186.519 57.2559 186.83C56.8695 187.14 56.5836 187.547 56.3979 188.051C56.2123 188.555 56.1195 189.098 56.1195 189.682C56.1195 190.265 56.2123 190.807 56.3979 191.307C56.5836 191.807 56.8695 192.21 57.2559 192.517C57.6423 192.824 58.1347 192.977 58.7332 192.977ZM64.7346 194V185.273H66.0301V186.591H66.121C66.2801 186.159 66.5679 185.809 66.9846 185.54C67.4013 185.271 67.871 185.136 68.3937 185.136C68.4922 185.136 68.6153 185.138 68.763 185.142C68.9107 185.146 69.0225 185.152 69.0982 185.159V186.523C69.0528 186.511 68.9486 186.494 68.7857 186.472C68.6266 186.445 68.4581 186.432 68.2801 186.432C67.8558 186.432 67.477 186.521 67.1437 186.699C66.8141 186.873 66.5528 187.116 66.3596 187.426C66.1702 187.733 66.0755 188.083 66.0755 188.477V194H64.7346ZM76.8695 187.227L75.665 187.568C75.5892 187.367 75.4775 187.172 75.3298 186.983C75.1858 186.79 74.9889 186.631 74.7389 186.506C74.4889 186.381 74.1688 186.318 73.7786 186.318C73.2445 186.318 72.7995 186.441 72.4434 186.688C72.0911 186.93 71.915 187.239 71.915 187.614C71.915 187.947 72.0362 188.21 72.2786 188.403C72.5211 188.597 72.8998 188.758 73.415 188.886L74.7104 189.205C75.4908 189.394 76.0722 189.684 76.4548 190.074C76.8373 190.46 77.0286 190.958 77.0286 191.568C77.0286 192.068 76.8847 192.515 76.5968 192.909C76.3127 193.303 75.915 193.614 75.4036 193.841C74.8923 194.068 74.2976 194.182 73.6195 194.182C72.7294 194.182 71.9926 193.989 71.4093 193.602C70.826 193.216 70.4567 192.652 70.3014 191.909L71.5741 191.591C71.6953 192.061 71.9245 192.413 72.2616 192.648C72.6025 192.883 73.0476 193 73.5968 193C74.2218 193 74.718 192.867 75.0854 192.602C75.4567 192.333 75.6423 192.011 75.6423 191.636C75.6423 191.333 75.5362 191.08 75.3241 190.875C75.112 190.667 74.7862 190.511 74.3468 190.409L72.8923 190.068C72.093 189.879 71.5059 189.585 71.1309 189.188C70.7597 188.786 70.5741 188.284 70.5741 187.682C70.5741 187.189 70.7123 186.754 70.9889 186.375C71.2692 185.996 71.6498 185.699 72.1309 185.483C72.6158 185.267 73.165 185.159 73.7786 185.159C74.6423 185.159 75.3203 185.348 75.8127 185.727C76.3089 186.106 76.6612 186.606 76.8695 187.227ZM84.888 188.75V194H83.5471V185.273H84.8426V186.636H84.9562C85.1607 186.193 85.4713 185.837 85.888 185.568C86.3047 185.295 86.8426 185.159 87.5016 185.159C88.0926 185.159 88.6096 185.28 89.0528 185.523C89.496 185.761 89.8407 186.125 90.0869 186.614C90.3331 187.098 90.4562 187.712 90.4562 188.455V194H89.1153V188.545C89.1153 187.86 88.9372 187.326 88.5812 186.943C88.2251 186.557 87.7365 186.364 87.1153 186.364C86.6872 186.364 86.3047 186.456 85.9676 186.642C85.6342 186.828 85.371 187.098 85.1778 187.455C84.9846 187.811 84.888 188.242 84.888 188.75ZM96.4519 194.182C95.664 194.182 94.9728 193.994 94.3781 193.619C93.7872 193.244 93.325 192.72 92.9917 192.045C92.6622 191.371 92.4974 190.583 92.4974 189.682C92.4974 188.773 92.6622 187.979 92.9917 187.301C93.325 186.623 93.7872 186.097 94.3781 185.722C94.9728 185.347 95.664 185.159 96.4519 185.159C97.2398 185.159 97.9292 185.347 98.5201 185.722C99.1148 186.097 99.5769 186.623 99.9065 187.301C100.24 187.979 100.406 188.773 100.406 189.682C100.406 190.583 100.24 191.371 99.9065 192.045C99.5769 192.72 99.1148 193.244 98.5201 193.619C97.9292 193.994 97.2398 194.182 96.4519 194.182ZM96.4519 192.977C97.0504 192.977 97.5428 192.824 97.9292 192.517C98.3156 192.21 98.6015 191.807 98.7872 191.307C98.9728 190.807 99.0656 190.265 99.0656 189.682C99.0656 189.098 98.9728 188.555 98.7872 188.051C98.6015 187.547 98.3156 187.14 97.9292 186.83C97.5428 186.519 97.0504 186.364 96.4519 186.364C95.8534 186.364 95.361 186.519 94.9747 186.83C94.5883 187.14 94.3023 187.547 94.1167 188.051C93.9311 188.555 93.8383 189.098 93.8383 189.682C93.8383 190.265 93.9311 190.807 94.1167 191.307C94.3023 191.807 94.5883 192.21 94.9747 192.517C95.361 192.824 95.8534 192.977 96.4519 192.977ZM104.134 194L101.475 185.273H102.884L104.77 191.955H104.861L106.725 185.273H108.156L109.997 191.932H110.088L111.975 185.273H113.384L110.725 194H109.406L107.497 187.295H107.361L105.452 194H104.134ZM125.156 190.432V185.273H126.497V194H125.156V192.523H125.066C124.861 192.966 124.543 193.343 124.111 193.653C123.679 193.96 123.134 194.114 122.475 194.114C121.929 194.114 121.444 193.994 121.02 193.756C120.596 193.513 120.263 193.15 120.02 192.665C119.778 192.176 119.656 191.561 119.656 190.818V185.273H120.997V190.727C120.997 191.364 121.175 191.871 121.531 192.25C121.891 192.629 122.35 192.818 122.906 192.818C123.24 192.818 123.579 192.733 123.924 192.562C124.272 192.392 124.564 192.131 124.799 191.778C125.037 191.426 125.156 190.977 125.156 190.432ZM135.135 187.227L133.931 187.568C133.855 187.367 133.743 187.172 133.595 186.983C133.451 186.79 133.254 186.631 133.004 186.506C132.754 186.381 132.434 186.318 132.044 186.318C131.51 186.318 131.065 186.441 130.709 186.688C130.357 186.93 130.181 187.239 130.181 187.614C130.181 187.947 130.302 188.21 130.544 188.403C130.787 188.597 131.165 188.758 131.681 188.886L132.976 189.205C133.756 189.394 134.338 189.684 134.72 190.074C135.103 190.46 135.294 190.958 135.294 191.568C135.294 192.068 135.15 192.515 134.862 192.909C134.578 193.303 134.181 193.614 133.669 193.841C133.158 194.068 132.563 194.182 131.885 194.182C130.995 194.182 130.258 193.989 129.675 193.602C129.092 193.216 128.722 192.652 128.567 191.909L129.84 191.591C129.961 192.061 130.19 192.413 130.527 192.648C130.868 192.883 131.313 193 131.862 193C132.487 193 132.984 192.867 133.351 192.602C133.722 192.333 133.908 192.011 133.908 191.636C133.908 191.333 133.802 191.08 133.59 190.875C133.378 190.667 133.052 190.511 132.612 190.409L131.158 190.068C130.359 189.879 129.772 189.585 129.397 189.188C129.025 188.786 128.84 188.284 128.84 187.682C128.84 187.189 128.978 186.754 129.254 186.375C129.535 185.996 129.915 185.699 130.397 185.483C130.881 185.267 131.431 185.159 132.044 185.159C132.908 185.159 133.586 185.348 134.078 185.727C134.575 186.106 134.927 186.606 135.135 187.227ZM140.972 194.182C140.131 194.182 139.406 193.996 138.796 193.625C138.19 193.25 137.722 192.727 137.392 192.057C137.067 191.383 136.904 190.598 136.904 189.705C136.904 188.811 137.067 188.023 137.392 187.341C137.722 186.655 138.18 186.121 138.767 185.739C139.358 185.352 140.048 185.159 140.835 185.159C141.29 185.159 141.739 185.235 142.182 185.386C142.625 185.538 143.029 185.784 143.392 186.125C143.756 186.462 144.046 186.909 144.262 187.466C144.477 188.023 144.585 188.708 144.585 189.523V190.091H137.858V188.932H143.222C143.222 188.439 143.123 188 142.926 187.614C142.733 187.227 142.457 186.922 142.097 186.699C141.741 186.475 141.32 186.364 140.835 186.364C140.301 186.364 139.839 186.496 139.449 186.761C139.063 187.023 138.765 187.364 138.557 187.784C138.349 188.205 138.245 188.655 138.245 189.136V189.909C138.245 190.568 138.358 191.127 138.585 191.585C138.817 192.04 139.137 192.386 139.546 192.625C139.955 192.86 140.43 192.977 140.972 192.977C141.324 192.977 141.642 192.928 141.926 192.83C142.214 192.727 142.462 192.576 142.671 192.375C142.879 192.17 143.04 191.917 143.154 191.614L144.449 191.977C144.313 192.417 144.084 192.803 143.762 193.136C143.44 193.466 143.042 193.723 142.568 193.909C142.095 194.091 141.563 194.182 140.972 194.182ZM152.466 182.364V194H151.125V182.364H152.466ZM158.468 194.182C157.68 194.182 156.988 193.994 156.394 193.619C155.803 193.244 155.341 192.72 155.007 192.045C154.678 191.371 154.513 190.583 154.513 189.682C154.513 188.773 154.678 187.979 155.007 187.301C155.341 186.623 155.803 186.097 156.394 185.722C156.988 185.347 157.68 185.159 158.468 185.159C159.255 185.159 159.945 185.347 160.536 185.722C161.13 186.097 161.593 186.623 161.922 187.301C162.255 187.979 162.422 188.773 162.422 189.682C162.422 190.583 162.255 191.371 161.922 192.045C161.593 192.72 161.13 193.244 160.536 193.619C159.945 193.994 159.255 194.182 158.468 194.182ZM158.468 192.977C159.066 192.977 159.558 192.824 159.945 192.517C160.331 192.21 160.617 191.807 160.803 191.307C160.988 190.807 161.081 190.265 161.081 189.682C161.081 189.098 160.988 188.555 160.803 188.051C160.617 187.547 160.331 187.14 159.945 186.83C159.558 186.519 159.066 186.364 158.468 186.364C157.869 186.364 157.377 186.519 156.99 186.83C156.604 187.14 156.318 187.547 156.132 188.051C155.947 188.555 155.854 189.098 155.854 189.682C155.854 190.265 155.947 190.807 156.132 191.307C156.318 191.807 156.604 192.21 156.99 192.517C157.377 192.824 157.869 192.977 158.468 192.977ZM164.469 194V185.273H165.764V186.591H165.855C166.014 186.159 166.302 185.809 166.719 185.54C167.136 185.271 167.605 185.136 168.128 185.136C168.227 185.136 168.35 185.138 168.497 185.142C168.645 185.146 168.757 185.152 168.833 185.159V186.523C168.787 186.511 168.683 186.494 168.52 186.472C168.361 186.445 168.192 186.432 168.014 186.432C167.59 186.432 167.211 186.521 166.878 186.699C166.549 186.873 166.287 187.116 166.094 187.426C165.905 187.733 165.81 188.083 165.81 188.477V194H164.469ZM173.816 194.182C172.975 194.182 172.249 193.996 171.639 193.625C171.033 193.25 170.566 192.727 170.236 192.057C169.91 191.383 169.747 190.598 169.747 189.705C169.747 188.811 169.91 188.023 170.236 187.341C170.566 186.655 171.024 186.121 171.611 185.739C172.202 185.352 172.891 185.159 173.679 185.159C174.134 185.159 174.583 185.235 175.026 185.386C175.469 185.538 175.872 185.784 176.236 186.125C176.6 186.462 176.889 186.909 177.105 187.466C177.321 188.023 177.429 188.708 177.429 189.523V190.091H170.702V188.932H176.066C176.066 188.439 175.967 188 175.77 187.614C175.577 187.227 175.3 186.922 174.941 186.699C174.585 186.475 174.164 186.364 173.679 186.364C173.145 186.364 172.683 186.496 172.293 186.761C171.906 187.023 171.609 187.364 171.401 187.784C171.192 188.205 171.088 188.655 171.088 189.136V189.909C171.088 190.568 171.202 191.127 171.429 191.585C171.66 192.04 171.98 192.386 172.389 192.625C172.799 192.86 173.274 192.977 173.816 192.977C174.168 192.977 174.486 192.928 174.77 192.83C175.058 192.727 175.306 192.576 175.514 192.375C175.723 192.17 175.884 191.917 175.997 191.614L177.293 191.977C177.156 192.417 176.927 192.803 176.605 193.136C176.283 193.466 175.886 193.723 175.412 193.909C174.939 194.091 174.406 194.182 173.816 194.182ZM179.469 194V185.273H180.764V186.636H180.878C181.06 186.17 181.353 185.809 181.759 185.551C182.164 185.29 182.651 185.159 183.219 185.159C183.795 185.159 184.274 185.29 184.656 185.551C185.043 185.809 185.344 186.17 185.56 186.636H185.651C185.874 186.186 186.21 185.828 186.656 185.562C187.103 185.294 187.639 185.159 188.264 185.159C189.045 185.159 189.683 185.403 190.179 185.892C190.675 186.377 190.924 187.133 190.924 188.159V194H189.583V188.159C189.583 187.515 189.406 187.055 189.054 186.778C188.702 186.502 188.287 186.364 187.81 186.364C187.196 186.364 186.721 186.549 186.384 186.92C186.047 187.288 185.878 187.754 185.878 188.318V194H184.514V188.023C184.514 187.527 184.353 187.127 184.031 186.824C183.71 186.517 183.295 186.364 182.787 186.364C182.439 186.364 182.113 186.456 181.81 186.642C181.511 186.828 181.268 187.085 181.083 187.415C180.901 187.741 180.81 188.117 180.81 188.545V194H179.469ZM197.875 194V185.273H199.216V194H197.875ZM198.557 183.818C198.296 183.818 198.07 183.729 197.881 183.551C197.695 183.373 197.602 183.159 197.602 182.909C197.602 182.659 197.695 182.445 197.881 182.267C198.07 182.089 198.296 182 198.557 182C198.818 182 199.042 182.089 199.227 182.267C199.417 182.445 199.512 182.659 199.512 182.909C199.512 183.159 199.417 183.373 199.227 183.551C199.042 183.729 198.818 183.818 198.557 183.818ZM201.672 197.273V185.273H202.968V186.659H203.127C203.225 186.508 203.361 186.314 203.536 186.08C203.714 185.841 203.968 185.629 204.297 185.443C204.63 185.254 205.081 185.159 205.649 185.159C206.384 185.159 207.032 185.343 207.593 185.71C208.153 186.078 208.591 186.598 208.905 187.273C209.219 187.947 209.377 188.742 209.377 189.659C209.377 190.583 209.219 191.384 208.905 192.062C208.591 192.737 208.155 193.259 207.598 193.631C207.041 193.998 206.399 194.182 205.672 194.182C205.111 194.182 204.663 194.089 204.326 193.903C203.988 193.714 203.729 193.5 203.547 193.261C203.365 193.019 203.225 192.818 203.127 192.659H203.013V197.273H201.672ZM202.99 189.636C202.99 190.295 203.087 190.877 203.28 191.381C203.473 191.881 203.755 192.273 204.127 192.557C204.498 192.837 204.952 192.977 205.49 192.977C206.051 192.977 206.519 192.83 206.894 192.534C207.272 192.235 207.557 191.833 207.746 191.33C207.939 190.822 208.036 190.258 208.036 189.636C208.036 189.023 207.941 188.47 207.752 187.977C207.566 187.481 207.284 187.089 206.905 186.801C206.53 186.509 206.058 186.364 205.49 186.364C204.945 186.364 204.486 186.502 204.115 186.778C203.744 187.051 203.464 187.434 203.274 187.926C203.085 188.415 202.99 188.985 202.99 189.636ZM217.604 187.227L216.399 187.568C216.324 187.367 216.212 187.172 216.064 186.983C215.92 186.79 215.723 186.631 215.473 186.506C215.223 186.381 214.903 186.318 214.513 186.318C213.979 186.318 213.534 186.441 213.178 186.688C212.826 186.93 212.649 187.239 212.649 187.614C212.649 187.947 212.771 188.21 213.013 188.403C213.255 188.597 213.634 188.758 214.149 188.886L215.445 189.205C216.225 189.394 216.807 189.684 217.189 190.074C217.572 190.46 217.763 190.958 217.763 191.568C217.763 192.068 217.619 192.515 217.331 192.909C217.047 193.303 216.649 193.614 216.138 193.841C215.627 194.068 215.032 194.182 214.354 194.182C213.464 194.182 212.727 193.989 212.144 193.602C211.56 193.216 211.191 192.652 211.036 191.909L212.308 191.591C212.43 192.061 212.659 192.413 212.996 192.648C213.337 192.883 213.782 193 214.331 193C214.956 193 215.452 192.867 215.82 192.602C216.191 192.333 216.377 192.011 216.377 191.636C216.377 191.333 216.271 191.08 216.058 190.875C215.846 190.667 215.521 190.511 215.081 190.409L213.627 190.068C212.827 189.879 212.24 189.585 211.865 189.188C211.494 188.786 211.308 188.284 211.308 187.682C211.308 187.189 211.447 186.754 211.723 186.375C212.004 185.996 212.384 185.699 212.865 185.483C213.35 185.267 213.899 185.159 214.513 185.159C215.377 185.159 216.055 185.348 216.547 185.727C217.043 186.106 217.396 186.606 217.604 187.227ZM225.281 190.432V185.273H226.622V194H225.281V192.523H225.191C224.986 192.966 224.668 193.343 224.236 193.653C223.804 193.96 223.259 194.114 222.6 194.114C222.054 194.114 221.569 193.994 221.145 193.756C220.721 193.513 220.388 193.15 220.145 192.665C219.903 192.176 219.781 191.561 219.781 190.818V185.273H221.122V190.727C221.122 191.364 221.3 191.871 221.656 192.25C222.016 192.629 222.475 192.818 223.031 192.818C223.365 192.818 223.704 192.733 224.049 192.562C224.397 192.392 224.689 192.131 224.924 191.778C225.162 191.426 225.281 190.977 225.281 190.432ZM229.078 194V185.273H230.374V186.636H230.487C230.669 186.17 230.963 185.809 231.368 185.551C231.773 185.29 232.26 185.159 232.828 185.159C233.404 185.159 233.883 185.29 234.266 185.551C234.652 185.809 234.953 186.17 235.169 186.636H235.26C235.484 186.186 235.819 185.828 236.266 185.562C236.713 185.294 237.249 185.159 237.874 185.159C238.654 185.159 239.292 185.403 239.789 185.892C240.285 186.377 240.533 187.133 240.533 188.159V194H239.192V188.159C239.192 187.515 239.016 187.055 238.664 186.778C238.311 186.502 237.897 186.364 237.419 186.364C236.806 186.364 236.33 186.549 235.993 186.92C235.656 187.288 235.487 187.754 235.487 188.318V194H234.124V188.023C234.124 187.527 233.963 187.127 233.641 186.824C233.319 186.517 232.904 186.364 232.397 186.364C232.048 186.364 231.722 186.456 231.419 186.642C231.12 186.828 230.878 187.085 230.692 187.415C230.51 187.741 230.419 188.117 230.419 188.545V194H229.078ZM250.053 194.205C249.5 194.205 248.998 194.1 248.547 193.892C248.096 193.68 247.738 193.375 247.473 192.977C247.208 192.576 247.076 192.091 247.076 191.523C247.076 191.023 247.174 190.617 247.371 190.307C247.568 189.992 247.831 189.746 248.161 189.568C248.49 189.39 248.854 189.258 249.252 189.17C249.653 189.08 250.057 189.008 250.462 188.955C250.992 188.886 251.422 188.835 251.752 188.801C252.085 188.763 252.327 188.701 252.479 188.614C252.634 188.527 252.712 188.375 252.712 188.159V188.114C252.712 187.553 252.558 187.117 252.252 186.807C251.949 186.496 251.488 186.341 250.871 186.341C250.231 186.341 249.729 186.481 249.365 186.761C249.002 187.042 248.746 187.341 248.598 187.659L247.326 187.205C247.553 186.674 247.856 186.261 248.235 185.966C248.617 185.667 249.034 185.458 249.485 185.341C249.939 185.22 250.386 185.159 250.826 185.159C251.106 185.159 251.428 185.193 251.791 185.261C252.159 185.326 252.513 185.46 252.854 185.665C253.199 185.869 253.485 186.178 253.712 186.591C253.939 187.004 254.053 187.557 254.053 188.25V194H252.712V192.818H252.644C252.553 193.008 252.401 193.21 252.189 193.426C251.977 193.642 251.695 193.826 251.343 193.977C250.99 194.129 250.56 194.205 250.053 194.205ZM250.257 193C250.788 193 251.235 192.896 251.598 192.688C251.966 192.479 252.242 192.21 252.428 191.881C252.617 191.551 252.712 191.205 252.712 190.841V189.614C252.655 189.682 252.53 189.744 252.337 189.801C252.147 189.854 251.928 189.902 251.678 189.943C251.432 189.981 251.191 190.015 250.956 190.045C250.725 190.072 250.538 190.095 250.394 190.114C250.045 190.159 249.719 190.233 249.416 190.335C249.117 190.434 248.875 190.583 248.689 190.784C248.507 190.981 248.416 191.25 248.416 191.591C248.416 192.057 248.589 192.409 248.933 192.648C249.282 192.883 249.723 193 250.257 193ZM262.682 187.227L261.477 187.568C261.402 187.367 261.29 187.172 261.142 186.983C260.998 186.79 260.801 186.631 260.551 186.506C260.301 186.381 259.981 186.318 259.591 186.318C259.057 186.318 258.612 186.441 258.256 186.688C257.904 186.93 257.727 187.239 257.727 187.614C257.727 187.947 257.849 188.21 258.091 188.403C258.334 188.597 258.712 188.758 259.227 188.886L260.523 189.205C261.303 189.394 261.885 189.684 262.267 190.074C262.65 190.46 262.841 190.958 262.841 191.568C262.841 192.068 262.697 192.515 262.409 192.909C262.125 193.303 261.727 193.614 261.216 193.841C260.705 194.068 260.11 194.182 259.432 194.182C258.542 194.182 257.805 193.989 257.222 193.602C256.638 193.216 256.269 192.652 256.114 191.909L257.387 191.591C257.508 192.061 257.737 192.413 258.074 192.648C258.415 192.883 258.86 193 259.409 193C260.034 193 260.531 192.867 260.898 192.602C261.269 192.333 261.455 192.011 261.455 191.636C261.455 191.333 261.349 191.08 261.137 190.875C260.924 190.667 260.599 190.511 260.159 190.409L258.705 190.068C257.906 189.879 257.318 189.585 256.943 189.188C256.572 188.786 256.387 188.284 256.387 187.682C256.387 187.189 256.525 186.754 256.801 186.375C257.082 185.996 257.462 185.699 257.943 185.483C258.428 185.267 258.977 185.159 259.591 185.159C260.455 185.159 261.133 185.348 261.625 185.727C262.121 186.106 262.474 186.606 262.682 187.227Z" fill="white"/>
</svg>
